<?xml version="1.0" encoding="utf-8"?>
<!-- Generator: Adobe Illustrator 19.2.0, SVG Export Plug-In . SVG Version: 6.00 Build 0)  -->
<!DOCTYPE svg PUBLIC "-//W3C//DTD SVG 1.1//EN" "http://www.w3.org/Graphics/SVG/1.1/DTD/svg11.dtd">
<svg version="1.1" id="Layer_1" xmlns="http://www.w3.org/2000/svg" xmlns:xlink="http://www.w3.org/1999/xlink" x="0px" y="0px"
	 viewBox="0 0 55.5 64.1" style="enable-background:new 0 0 55.5 64.1;" xml:space="preserve">
<style type="text/css">
	.st0{fill:#A592C5;}
	.st1{opacity:0.5;fill:#010101;fill-opacity:0.4;enable-background:new    ;}
	.st2{fill:#F4F6FA;}
	.st3{fill:#EC5765;}
	.st4{fill:#D94553;}
</style>
<g id="hexagon-flat_7_" transform="translate(173.000000, 138.000000)">
	<polygon id="Polygon-48_7_" class="st0" points="-145.3,-138 -117.5,-122 -117.5,-90 -145.3,-73.9 -173,-90 -173,-122 	"/>
</g>
<polygon class="st1" points="37.6,22.3 18.8,14.4 0,29.9 0,48 21.6,60.5 27.1,56 "/>
<g>
	<circle class="st2" cx="27.1" cy="26.6" r="6.6"/>
	<g transform="translate(0 -1028.4)">
		<path class="st3" d="M27.1,1040.2c-8.1,0-14.7,6.6-14.7,14.7c0,2.6,0.7,5.1,1.9,7.2c0.2,0.4,0.4,0.7,0.6,1l12.2,21.2l12.2-21.2
			c0.2-0.3,0.4-0.6,0.5-0.9l0.1-0.2c1.2-2.1,1.9-4.6,1.9-7.2C41.9,1046.8,35.3,1040.2,27.1,1040.2z M27.1,1047.6
			c4.1,0,7.4,3.3,7.4,7.4s-3.3,7.4-7.4,7.4s-7.4-3.3-7.4-7.4C19.8,1050.9,23.1,1047.6,27.1,1047.6z"/>
		<path class="st4" d="M27.1,1045.7c-5.1,0-9.2,4.1-9.2,9.2s4.1,9.2,9.2,9.2s9.2-4.1,9.2-9.2C36.3,1049.9,32.2,1045.7,27.1,1045.7z
			 M27.1,1049.4c3.1,0,5.5,2.5,5.5,5.5s-2.5,5.5-5.5,5.5s-5.5-2.5-5.5-5.5S24.1,1049.4,27.1,1049.4z"/>
	</g>
</g>
</svg>
