<?xml version="1.0" encoding="utf-8"?>
<!-- Generator: Adobe Illustrator 19.2.0, SVG Export Plug-In . SVG Version: 6.00 Build 0)  -->
<!DOCTYPE svg PUBLIC "-//W3C//DTD SVG 1.1//EN" "http://www.w3.org/Graphics/SVG/1.1/DTD/svg11.dtd">
<svg version="1.1" id="Layer_1" xmlns="http://www.w3.org/2000/svg" xmlns:xlink="http://www.w3.org/1999/xlink" x="0px" y="0px"
	 viewBox="0 0 109.5 96.6" style="enable-background:new 0 0 109.5 96.6;" xml:space="preserve">
<style type="text/css">
	.st0{fill:#E0D7B3;}
	.st1{fill:#9FCE6B;}
	.st2{fill:#52C0E8;}
	.st3{fill:#F4F6FA;}
	.st4{fill:#FFF5CB;}
	.st5{opacity:0.2;fill:#4D5C67;enable-background:new    ;}
	.st6{fill:#E6E8EB;}
	.st7{fill:#EC5765;}
	.st8{fill:#D94553;}
</style>
<g>
	<polygon class="st0" points="66.7,71.9 109.5,86.2 109.5,35 94.5,31.5 	"/>
	<polygon class="st0" points="24,57.5 24,94.9 44.7,90 52.9,92 66.7,71.9 	"/>
	<polygon class="st1" points="109.5,86.2 66.7,71.9 52.9,92 66.7,95.2 88.8,90 109.5,94.9 	"/>
	<polygon class="st2" points="24,57.5 66.7,71.9 94.5,31.5 88.8,30.1 66.7,35.3 44.7,30.1 24,35 	"/>
	<polygon class="st3" points="55.3,92.5 67.9,74.2 109.5,88.2 109.5,84.3 70.1,71 96.9,32 92.1,30.9 65.5,69.5 24,55.5 24,59.4 
		63.3,72.7 50.5,91.4 	"/>
	<polygon class="st4" points="24,94.9 44.7,90 45.6,90.2 56.6,74.3 24,63.3 	"/>
	<polygon class="st4" points="109.5,80.3 109.5,58.7 89,51.8 76.9,69.4 	"/>
	<polygon class="st5" points="44.7,28.7 66.7,33.9 66.7,96.6 44.7,91.4 	"/>
	<polygon class="st4" points="91.2,48.7 109.5,54.8 109.5,35 101.8,33.2 	"/>
	<polygon class="st5" points="88.8,28.7 110.8,33.9 110.8,96.6 88.8,91.4 	"/>
	<path class="st6" d="M88.8,28.7l-22,5.2l-22-5.2l-22,5.2l0,62.7l22-5.2l22,5.2l22-5.2l22,5.2V33.9L88.8,28.7z M108.1,93.2
		l-18.7-4.4l-0.6-0.1l-0.6,0.1l-21.4,5l-21.4-5l-0.6-0.1l-0.6,0.1l-18.7,4.4V36.1l19.3-4.6l21.4,5l0.6,0.1l0.6-0.1l21.4-5l19.3,4.6
		V93.2z"/>
</g>
<path class="st6" d="M101.7,5.4c-0.7,0-1.4,0.1-2,0.4c0-0.1,0-0.3,0-0.4c0-3-2.4-5.4-5.4-5.4C92.6,0,91,0.9,90,2.3
	C89,0.9,87.4,0,85.6,0c-2.8,0-5,2.1-5.3,4.7c-0.6-0.3-1.3-0.4-2-0.4c-3,0-5.4,2.4-5.4,5.4c0,3,2.4,5.4,5.4,5.4c0.7,0,1.4-0.1,2-0.4
	c0,0.1,0,0.3,0,0.4c0,3,2.4,5.4,5.4,5.4c1.8,0,3.4-0.9,4.4-2.3c1,1.4,2.6,2.3,4.4,2.3c2.8,0,5-2.1,5.3-4.7c0.6,0.3,1.3,0.4,2,0.4
	c3,0,5.4-2.4,5.4-5.4C107.1,7.8,104.7,5.4,101.7,5.4z"/>
<g>
	<circle class="st3" cx="66.7" cy="32.4" r="6.6"/>
	<g transform="translate(0 -1028.4)">
		<path class="st7" d="M66.7,1046.1c-8.1,0-14.7,6.6-14.7,14.7c0,2.6,0.7,5.1,1.9,7.2c0.2,0.4,0.4,0.7,0.6,1l12.2,21.2l12.2-21.2
			c0.2-0.3,0.4-0.6,0.5-0.9l0.1-0.2c1.2-2.1,1.9-4.6,1.9-7.2C81.5,1052.7,74.9,1046.1,66.7,1046.1z M66.7,1053.4
			c4.1,0,7.4,3.3,7.4,7.4c0,4.1-3.3,7.4-7.4,7.4c-4.1,0-7.4-3.3-7.4-7.4C59.4,1056.7,62.7,1053.4,66.7,1053.4z"/>
		<path class="st8" d="M66.7,1051.6c-5.1,0-9.2,4.1-9.2,9.2c0,5.1,4.1,9.2,9.2,9.2c5.1,0,9.2-4.1,9.2-9.2
			C75.9,1055.7,71.8,1051.6,66.7,1051.6z M66.7,1055.3c3.1,0,5.5,2.5,5.5,5.5c0,3.1-2.5,5.5-5.5,5.5c-3.1,0-5.5-2.5-5.5-5.5
			C61.2,1057.7,63.7,1055.3,66.7,1055.3z"/>
	</g>
</g>
<path class="st6" d="M28.9,12.4c-0.7,0-1.4,0.1-2,0.4c0-0.1,0-0.3,0-0.4c0-3-2.4-5.4-5.4-5.4c-1.8,0-3.4,0.9-4.4,2.3
	c-1-1.4-2.6-2.3-4.4-2.3c-2.8,0-5,2.1-5.3,4.7c-0.6-0.3-1.3-0.4-2-0.4c-3,0-5.4,2.4-5.4,5.4c0,3,2.4,5.4,5.4,5.4
	c0.7,0,1.4-0.1,2-0.4c0,0.1,0,0.3,0,0.4c0,3,2.4,5.4,5.4,5.4c1.8,0,3.4-0.9,4.4-2.3c1,1.4,2.6,2.3,4.4,2.3c2.8,0,5-2.1,5.3-4.7
	c0.6,0.3,1.3,0.4,2,0.4c3,0,5.4-2.4,5.4-5.4C34.3,14.8,31.8,12.4,28.9,12.4z"/>
</svg>
