<?xml version="1.0" encoding="utf-8"?>
<!-- Generator: Adobe Illustrator 18.1.1, SVG Export Plug-In . SVG Version: 6.00 Build 0)  -->
<!DOCTYPE svg PUBLIC "-//W3C//DTD SVG 1.1//EN" "http://www.w3.org/Graphics/SVG/1.1/DTD/svg11.dtd">
<svg version="1.1" id="Layer_1" xmlns="http://www.w3.org/2000/svg" xmlns:xlink="http://www.w3.org/1999/xlink" x="0px" y="0px"
	 viewBox="170.7 2.1 157 190.9" enable-background="new 170.7 2.1 157 190.9" xml:space="preserve">
<g>
	<path fill="#FFFFFF" d="M325.1,136.8c0-0.1,0-0.2,0.1-0.2c0.1-0.2,0.1-0.4,0.2-0.6c0.1-0.3,0.1-0.6,0.1-0.9V7.3
		c0-2.4-2-4.4-4.4-4.4H177.4c-2.4,0-4.4,2-4.4,4.4v180.6c0,2.4,2,4.4,4.4,4.4h90.9c0.3,0,0.6,0,0.9-0.1c0.2,0,0.4-0.1,0.6-0.2
		c0.1,0,0.2,0,0.2-0.1c0.2-0.1,0.5-0.2,0.7-0.4c0,0,0,0,0.1,0c0.2-0.2,0.5-0.4,0.7-0.6l52.8-52.8c0.2-0.2,0.4-0.4,0.6-0.7
		c0,0,0,0,0-0.1C324.9,137.3,325,137,325.1,136.8z M181.8,11.7h134.9v119h-48.4c-2.4,0-4.4,2-4.4,4.4v48.4h-82.1V11.7z M310.5,139.5
		l-37.8,37.8v-37.8H310.5z"/>
	<path fill="#FFFFFF" d="M287,47.5c1.5-1.9,1.2-4.7-0.7-6.2c-1.9-1.5-4.7-1.2-6.2,0.7l-37.5,46.4L224,73.2c-1.9-1.5-4.7-1.3-6.2,0.6
		c-1.5,1.9-1.3,4.6,0.6,6.2l22.1,18c0.8,0.6,1.8,1,2.8,1c0.2,0,0.3,0,0.5,0c1.2-0.1,2.2-0.7,3-1.6L287,47.5z"/>
</g>
</svg>
