<?xml version="1.0" encoding="utf-8"?>
<!-- Generator: Adobe Illustrator 19.2.0, SVG Export Plug-In . SVG Version: 6.00 Build 0)  -->
<!DOCTYPE svg PUBLIC "-//W3C//DTD SVG 1.1//EN" "http://www.w3.org/Graphics/SVG/1.1/DTD/svg11.dtd">
<svg version="1.1" id="Layer_1" xmlns="http://www.w3.org/2000/svg" xmlns:xlink="http://www.w3.org/1999/xlink" x="0px" y="0px"
	 viewBox="0 0 55.5 64.1" style="enable-background:new 0 0 55.5 64.1;" xml:space="preserve">
<style type="text/css">
	.st0{fill:#ED653C;}
	.st1{opacity:0.5;fill:#010101;fill-opacity:0.4;enable-background:new    ;}
	.st2{fill:none;stroke:#CCCBCA;stroke-width:2;stroke-linecap:round;stroke-linejoin:round;stroke-miterlimit:10;}
	.st3{fill:none;stroke:#FFFFFF;stroke-width:2;stroke-linecap:round;stroke-linejoin:round;stroke-miterlimit:10;}
</style>
<g id="hexagon-flat_25_" transform="translate(173.000000, 138.000000)">
	<polygon id="Polygon-48_25_" class="st0" points="-145.3,-138 -117.5,-122 -117.5,-90 -145.3,-73.9 -173,-90 -173,-122 	"/>
</g>
<polygon class="st1" points="42,38 31.3,39.1 28.3,41.3 18.6,41.7 27.3,34.4 27,14.8 18.6,14.8 16.8,16.3 17.1,14.4 0,29 0,48 
	24.7,62.2 41.8,48.4 "/>
<g>
	<polyline class="st2" points="28.2,33.4 28.2,15.1 17.8,15.1 11.6,21.3 11.6,36.8 24,36.8 	"/>
	<polyline class="st2" points="11.6,21.3 17.8,21.3 17.8,15.1 	"/>
	<rect x="37" y="38.1" class="st3" width="5.2" height="9.3"/>
	<path class="st3" d="M33.7,42.2h-9.1c-5.2,0-9.8,1.9-9.8,4.1H37"/>
	<path class="st3" d="M27.2,42.2c0.7-0.7,2.1-2.6,5.2-3.1H37"/>
</g>
</svg>
