<?xml version="1.0" encoding="utf-8"?>
<!-- Generator: Adobe Illustrator 19.2.0, SVG Export Plug-In . SVG Version: 6.00 Build 0)  -->
<!DOCTYPE svg PUBLIC "-//W3C//DTD SVG 1.1//EN" "http://www.w3.org/Graphics/SVG/1.1/DTD/svg11.dtd">
<svg version="1.1" id="Layer_1" xmlns="http://www.w3.org/2000/svg" xmlns:xlink="http://www.w3.org/1999/xlink" x="0px" y="0px"
	 viewBox="0 0 94.5 117.6" style="enable-background:new 0 0 94.5 117.6;" xml:space="preserve">
<style type="text/css">
	.st0{fill:#D9D8D7;}
	.st1{fill:#FFFFFF;}
	.st2{fill:#E6E5E5;}
	.st3{fill:#666B74;}
	.st4{fill:#242E39;}
	.st5{fill:#36404A;}
	.st6{fill:#48505A;}
	.st7{fill:#CCCBCA;}
	.st8{fill:#F47B56;}
	.st9{fill:#ED653C;}
	.st10{fill:#FFDB7A;}
	.st11{fill:#F9B83E;}
	.st12{fill:#F3F3F3;}
</style>
<g>
	<g>
		<g>
			<path class="st0" d="M0,61.3c0,0,0,32.6,0,35.4c0,2.1,1.7,3.8,3.8,3.8h3.8V61.3H0z"/>
			<path class="st1" d="M76.3,17.6v79.1c0,2.1-1.7,3.8-3.8,3.8H3.8c2.1,0,3.8-1.7,3.8-3.8V17.6H76.3z"/>
			<g>
				<g>
					<rect x="14.3" y="37.8" class="st2" width="55.2" height="25.9"/>
					<g>
						<rect x="17.4" y="46" class="st3" width="1.9" height="15.4"/>
						<rect x="20.3" y="40.1" class="st4" width="1.9" height="21.3"/>
						<rect x="23.1" y="48" class="st5" width="1.9" height="13.3"/>
						<rect x="26" y="43.6" class="st6" width="1.9" height="17.7"/>
						<rect x="30.2" y="57" class="st3" width="1.9" height="4.4"/>
						<rect x="33.1" y="51.4" class="st4" width="1.9" height="9.9"/>
						<rect x="36" y="53.3" class="st5" width="1.9" height="8.1"/>
						<rect x="38.8" y="46.7" class="st6" width="1.9" height="14.6"/>
						<rect x="43.1" y="56.1" class="st3" width="1.9" height="5.2"/>
						<rect x="45.9" y="57.1" class="st4" width="1.9" height="4.3"/>
						<rect x="48.8" y="49.2" class="st5" width="1.9" height="12.2"/>
						<rect x="51.7" y="52.9" class="st6" width="1.9" height="8.5"/>
						<rect x="55.9" y="41.8" class="st3" width="1.9" height="19.5"/>
						<rect x="58.8" y="47.9" class="st4" width="1.9" height="13.4"/>
						<rect x="61.6" y="53.9" class="st5" width="1.9" height="7.5"/>
						<rect x="64.5" y="44.8" class="st6" width="1.9" height="16.5"/>
					</g>
				</g>
				<g>
					<g>
						<g>
							<rect x="14.3" y="68.4" class="st7" width="26.4" height="1.6"/>
							<rect x="14.3" y="72.3" class="st7" width="26.4" height="1.6"/>
							<rect x="14.3" y="76.3" class="st7" width="26.4" height="1.6"/>
							<rect x="14.3" y="80.2" class="st7" width="26.4" height="1.6"/>
							<rect x="14.3" y="84.2" class="st7" width="26.4" height="1.6"/>
							<rect x="14.3" y="92.1" class="st7" width="26.4" height="1.6"/>
							<rect x="14.3" y="88.2" class="st7" width="26.4" height="1.6"/>
						</g>
					</g>
					<g>
						<g>
							<rect x="43.1" y="68.4" class="st7" width="26.4" height="1.6"/>
							<rect x="43.1" y="84.2" class="st7" width="26.4" height="1.6"/>
							<rect x="43.1" y="88.2" class="st7" width="26.4" height="1.6"/>
							<rect x="43.1" y="92.1" class="st7" width="13.7" height="1.6"/>
							<rect x="43.1" y="72.3" class="st3" width="26.4" height="9.5"/>
						</g>
					</g>
				</g>
				<g>
					<rect x="14.3" y="24.3" class="st8" width="55.2" height="4.8"/>
					<rect x="14.3" y="31.5" class="st6" width="55.2" height="1.6"/>
				</g>
			</g>
		</g>
		<g>
			<circle class="st7" cx="76.3" cy="17.6" r="17.6"/>
			<path class="st1" d="M94.4,22.5c-0.1,0.5-0.4,0.9-0.9,1.2c-0.5,0.3-1,0.3-1.4,0.2l-5.5-1.5l1-3.7l5.5,1.5
				c0.5,0.1,0.9,0.4,1.1,0.9C94.5,21.5,94.5,22.1,94.4,22.5z"/>
			<path class="st0" d="M87.6,18.7l-1,3.7l2,0.6c0.5-1.1,0.8-2.4,1-3.7L87.6,18.7z"/>
			<circle class="st1" cx="76.3" cy="17.6" r="11.9"/>
			<circle class="st8" cx="76.3" cy="17.6" r="10"/>
			<path class="st9" d="M69.1,20.4c0-5.5,4.5-10,10-10c2,0,3.9,0.6,5.5,1.6c-1.8-2.7-4.8-4.5-8.3-4.5c-5.5,0-10,4.5-10,10
				c0,3.5,1.8,6.5,4.5,8.3C69.8,24.3,69.1,22.4,69.1,20.4z"/>
		</g>
		<g>
			<polygon class="st1" points="91.2,62.7 90,66.5 93.8,66.5 92.7,62.7 			"/>
			<polygon class="st7" points="92.2,62.7 92.6,66.5 93.8,66.5 92.7,62.7 			"/>
			<rect x="90" y="66.5" class="st10" width="3.8" height="44.9"/>
			<rect x="92.6" y="66.5" class="st11" width="1.2" height="44.9"/>
			<polygon class="st3" points="92.7,62.7 91.9,60.2 91.2,62.7 			"/>
			<polygon class="st4" points="92.7,62.7 91.9,60.2 92.2,62.7 			"/>
			<rect x="90" y="111.4" class="st12" width="3.8" height="2.2"/>
			<rect x="92.6" y="111.4" class="st7" width="1.2" height="2.2"/>
			<path class="st6" d="M93.8,115.7c0,0.5-0.2,1-0.6,1.3c-0.4,0.4-0.9,0.6-1.4,0.6l0,0c-0.5,0-1-0.2-1.3-0.6
				c-0.4-0.4-0.6-0.9-0.6-1.3v-2.2h3.8L93.8,115.7L93.8,115.7z"/>
			<path class="st4" d="M90.6,117.1c-0.2-0.2-0.4-0.5-0.5-0.7c0.2,0.1,0.4,0.1,0.6,0.1c0.5,0,1-0.2,1.4-0.6c0.4-0.4,0.6-0.9,0.6-1.3
				v-1h1.2v2.2c0,0.5-0.2,1-0.6,1.3c-0.4,0.4-0.9,0.6-1.4,0.6C91.4,117.6,91,117.4,90.6,117.1z"/>
		</g>
	</g>
</g>
</svg>
