<?xml version="1.0" encoding="utf-8"?>
<!-- Generator: Adobe Illustrator 18.1.1, SVG Export Plug-In . SVG Version: 6.00 Build 0)  -->
<!DOCTYPE svg PUBLIC "-//W3C//DTD SVG 1.1//EN" "http://www.w3.org/Graphics/SVG/1.1/DTD/svg11.dtd">
<svg version="1.1" id="Tryb_izolacji" xmlns="http://www.w3.org/2000/svg" xmlns:xlink="http://www.w3.org/1999/xlink" x="0px"
	 y="0px" viewBox="0 0 260.4 187.1" enable-background="new 0 0 260.4 187.1" xml:space="preserve">
<g>
	<path fill="#FFFFFF" d="M95.6,40.2h8.4v5.6h0.2c2.7-3.9,5.9-6.7,12.3-6.7c4.9,0,9.4,2.1,11.2,6.7c3-4.1,6.7-6.7,12.5-6.7
		c8.4,0,13.4,3.8,13.4,13.5v27.6h-8.8V56.8c0-6.4-0.4-10.8-7.3-10.8c-6,0-8.5,3.9-8.5,10.7v23.4h-8.8V54.5c0-5.6-1.7-8.4-7-8.4
		c-4.6,0-8.7,3.8-8.7,10.4v23.8h-8.8V40.2z"/>
	<path fill="#FFFFFF" d="M159.1,60.1c0-12.2,7.4-21.1,20.2-21.1c12.8,0,20.2,8.9,20.2,21.1c0,12.3-7.4,21.1-20.2,21.1
		C166.6,81.3,159.1,72.4,159.1,60.1z M190.7,60.1c0-6.9-3.5-14.1-11.4-14.1S168,53.3,168,60.1c0,7,3.5,14.2,11.4,14.2
		S190.7,67.1,190.7,60.1z"/>
	<path fill="#FFFFFF" d="M205.2,40.2h8.8v43.4c0,8-3.2,12.5-11.5,12.5c-1.8,0-2.8-0.1-3.9-0.3v-7c1.2,0.2,2.2,0.3,3,0.3
		c3.2,0,3.6-1.9,3.6-5.9V40.2z M205.2,24.9h8.8v8.4h-8.8V24.9z"/>
	<path fill="#FFFFFF" d="M228.6,62.5c0,6.3,3.4,11.8,10.8,11.8c5.2,0,8.2-2.2,9.8-6.7h8.4c-1.9,8.7-9.4,13.6-18.1,13.6
		c-12.6,0-19.6-8.7-19.6-21.1c0-11.4,7.4-21.1,19.3-21.1c12.6,0,20.4,11.4,18.9,23.4H228.6z M249.1,56.7c-0.4-5.6-4-10.6-10.1-10.6
		c-6.1,0-10.3,4.6-10.5,10.6H249.1z"/>
	<path fill="#009FE3" d="M4.4,117.3h0.2c1.2-4,5.7-10.1,14.5-10.1c12.2,0,17.9,9.8,17.9,20.9c0,12.1-5.7,20.7-17.9,20.7
		c-6.6,0-12.1-2.7-14.5-9.2H4.4v22.5H1.5v-54h2.9V117.3z M34,128.1c0-9.1-4.3-18.3-14.9-18.3c-10.6,0-14.5,8.9-14.5,18.3
		c0,9.5,3.3,18.2,14.5,18.2C29.4,146.3,34,137.9,34,128.1z"/>
	<path fill="#009FE3" d="M71.2,140.5c0,2.2-0.1,4.8,2.6,4.8c0.5,0,1.2-0.1,2.2-0.2v2.5c-0.9,0.2-1.5,0.3-2.4,0.3
		c-4.6,0-5.3-2.6-5.3-5.8V140h-0.2c-1.9,4.7-7.1,8.8-14.8,8.8c-7.5,0-13.3-2.9-13.3-11.2c0-9.4,8-11.1,14.6-11.8
		c13.2-0.9,13.7-1.9,13.7-8.3c0-1.8-2-7.8-11.1-7.8c-7.1,0-11.8,3.7-12.2,10.6h-2.9c0.4-8.7,5.8-13.2,15.2-13.2
		c7,0,13.9,2.1,13.9,10.4V140.5z M68.3,125.3c-2.2,2.7-8.7,2.2-14.4,3.1c-7,0.9-10.9,3.2-10.9,9.2c0,4.9,3.4,8.7,10.4,8.7
		c13.4,0,14.9-11.5,14.9-13.5V125.3z"/>
	<path fill="#009FE3" d="M78.7,108.1h2.9v8.5h0.2c2.1-6,8-9.4,14.2-9.4c14,0,14.2,11.2,14.2,16.1v24.6h-2.9v-25.2
		c0-4-0.5-13-11.3-13c-9,0-14.3,7-14.3,16.6v21.5h-2.9V108.1z M102,91.4h3.9l-10.4,10.8h-2.9L102,91.4z"/>
	<path fill="#009FE3" d="M118.3,134.7c0.4,7.4,6,11.6,13.2,11.6c5.2,0,12.6-1.5,12.6-8.4c0-13.5-27.3-4.2-27.3-20.4
		c0-7.8,7.7-10.2,14.4-10.2c8.4,0,14.7,3.6,14.7,12.7h-2.9c0-7.2-5.1-10.1-11.8-10.1c-5.3,0-11.5,2-11.5,7.7c0,6.4,6.8,7.3,13.2,8.7
		c7.9,1.5,14.1,3.4,14.1,11.7c0,8.6-8.6,11-15.6,11c-9.1,0-15.9-4.9-16.1-14.2H118.3z"/>
	<path fill="#009FE3" d="M166.8,110.7h-8.7v27.8c0,6.3,3,7.1,8.6,6.9v2.6c-5.9,0.4-11.9-0.5-11.5-9.4v-27.8h-7.4v-2.6h7.4V95.7h2.9
		v12.4h8.7V110.7z"/>
	<path fill="#009FE3" d="M180.2,144.5h0.2l10.8-36.4h3.9l10.9,36.4h0.2l11.1-36.4h3.2l-12.8,39.8h-3.6l-10.9-36.1h-0.2l-11,36.1
		h-3.7l-12.6-39.8h3.2L180.2,144.5z"/>
	<path fill="#009FE3" d="M239.2,107.2c11.8,0,18.3,9.5,18.3,20.8c0,11.4-6.5,20.8-18.3,20.8c-11.8,0-18.3-9.4-18.3-20.8
		C221,116.7,227.5,107.2,239.2,107.2z M239.2,146.3c9.9,0,15.3-8.7,15.3-18.3c0-9.5-5.4-18.3-15.3-18.3c-9.9,0-15.3,8.7-15.3,18.3
		C223.9,137.5,229.3,146.3,239.2,146.3z"/>
</g>
</svg>
