<?xml version="1.0" encoding="utf-8"?>
<!-- Generator: Adobe Illustrator 18.1.1, SVG Export Plug-In . SVG Version: 6.00 Build 0)  -->
<!DOCTYPE svg PUBLIC "-//W3C//DTD SVG 1.1//EN" "http://www.w3.org/Graphics/SVG/1.1/DTD/svg11.dtd">
<svg version="1.1" id="Layer_1" xmlns="http://www.w3.org/2000/svg" xmlns:xlink="http://www.w3.org/1999/xlink" x="0px" y="0px"
	 viewBox="0 254.9 594.9 283.1" enable-background="new 0 254.9 594.9 283.1" xml:space="preserve">
<g>
	<g>
		<path fill="#FFFFFF" d="M359,318V364H377v-54.6c0-18.8-10.2-26.4-26.4-26.4c-11.9,0-18.8,5.1-24.7,12.8
			c-3.4-9.4-12.8-12.8-22.2-12.8c-12.8,0-18.8,5.1-24.7,12.8H278v-11.1h-16.2V364h17.9v-46.9c0-12.8,8.5-20.5,17.1-20.5
			c10.2,0,13.6,6,13.6,17.1v51.2h17.9V318c0-13.6,5.1-21.3,17.1-21.3C358.2,296.6,359,305.2,359,318z M430.7,366.6
			c25.6,0,40.1-17.9,40.1-41.8S456.3,283,430.7,283c-25.6,0-40.1,17.9-40.1,41.8S406,366.6,430.7,366.6z M430.7,296.6
			c15.4,0,22.2,14.5,22.2,28.1s-6.8,28.1-22.2,28.1c-15.4,0-22.2-14.5-22.2-28.1S415.3,296.6,430.7,296.6z M504,254.9h-17.9v16.2
			H504V254.9z M504,370.8v-86.1h-17.9V370c0,7.7-0.9,11.9-6.8,11.9c-1.7,0-3.4,0-6-0.9v13.6c2.6,0.9,4.3,0.9,7.7,0.9
			C497.2,395.6,504,387,504,370.8z M556.9,283c-23.9,0-38.4,19.6-38.4,41.8c0,24.7,13.6,41.8,39.2,41.8c17.1,0,32.4-9.4,35.8-27.3
			h-16.2c-3.4,8.5-9.4,12.8-19.6,12.8c-14.5,0-21.3-11.1-21.3-23.9h58C597.8,305.2,582.5,283,556.9,283z M536.4,318
			c0.9-11.9,8.5-21.3,20.5-21.3c11.9,0,18.8,10.2,19.6,21.3H536.4z M41.8,428c-10.2,0-19.6,3.4-24.7,12.8l0,0v-11.1H0V538h17.9
			v-39.2l0,0c5.1,8.5,16.2,12.8,26.4,12.8c23,0,34.1-19.6,34.1-41.8C78.5,446.7,66.5,428,41.8,428z M39.2,497.9
			c-14.5,0-22.2-11.9-22.2-28.1c0-17.1,7.7-28.1,22.2-28.1s22.2,13.6,22.2,28.1C61.4,483.4,55.4,497.9,39.2,497.9z M163.7,497.9
			c-3.4,0-4.3-1.7-4.3-6V451c0-17.1-16.2-23-31.6-23c-17.9,0-35,6-35.8,26.4H110c0.9-8.5,7.7-12.8,17.9-12.8
			c6.8,0,16.2,1.7,16.2,11.1c0,10.2-11.1,8.5-23.9,11.1c-14.5,1.7-30.7,5.1-30.7,24.7c0,15.4,12.8,23,27.3,23
			c9.4,0,20.5-2.6,27.3-9.4c1.7,6.8,6,9.4,13.6,9.4c2.6,0,8.5-0.9,11.1-1.7v-11.9c-0.9,0-1.7,0-2.6,0H163.7L163.7,497.9z
			 M142.4,482.6c0,11.1-11.9,15.4-19.6,15.4c-6,0-16.2-2.6-16.2-10.2c0-9.4,6.8-11.9,14.5-12.8c7.7-1.7,16.2-0.9,21.3-5.1V482.6z
			 M239.6,397.3h-20.5l-14.5,21.3h12.8L239.6,397.3z M220,428c-10.2,0-19.6,5.1-24.7,14.5l0,0v-11.9h-16.2v79.3h17.1v-46.9
			c0-11.9,7.7-20.5,18.8-20.5c10.2,0,15.4,5.1,15.4,17.9v49.5h17.9v-54.6C248.2,437.4,237.9,428,220,428z M307.9,462.9
			c-12.8-2.6-25.6-4.3-25.6-12.8c0-6.8,9.4-8.5,14.5-8.5c7.7,0,14.5,2.6,16.2,10.2h17.9c-1.7-17.9-17.1-24.7-33.3-24.7
			c-14.5,0-33.3,5.1-33.3,23c0,16.2,12.8,20.5,25.6,23.9c12.8,2.6,25.6,4.3,25.6,12.8c0.9,9.4-11.1,10.2-17.9,10.2
			c-9.4,0-17.1-3.4-17.9-13.6h-17.9c0.9,18.8,15.4,27.3,35,27.3c16.2,0,35.8-6.8,35.8-25.6C333.5,469.8,319.8,465.5,307.9,462.9z
			 M369.3,406.7h-17.9v23.9h-12.8v12.8h12.8v46.9c0.9,12.8,3.4,20.5,22.2,20.5c3.4,0,7.7-0.9,11.1-0.9v-13.6
			c-2.6,0.9-5.1,0.9-7.7,0.9c-7.7,0-8.5-3.4-8.5-11.1v-42.6h16.2v-12.8h-16.2v-23.9H369.3z M471.6,489.4L471.6,489.4l-14.5-58.8
			h-17.9l-14.5,58.8l0,0l-15.4-59.7h-18.8l24.7,79.3h18.8l14.5-58.8l0,0l14.5,58.8H481l24.7-79.3h-17.9L471.6,489.4z M553.5,428
			c-25.6,0-40.1,17.9-40.1,41.8c0,24.7,14.5,41.8,40.1,41.8s40.1-17.9,40.1-41.8S579.1,428,553.5,428z M553.5,497.9
			c-15.4,0-22.2-14.5-22.2-28.1c0-13.6,6.8-28.1,22.2-28.1s22.2,14.5,22.2,28.1C575.7,483.4,568.8,497.9,553.5,497.9z"/>
	</g>
</g>
</svg>
