<?xml version="1.0" encoding="utf-8"?>
<!-- Generator: Adobe Illustrator 17.0.2, SVG Export Plug-In . SVG Version: 6.00 Build 0)  -->
<!DOCTYPE svg PUBLIC "-//W3C//DTD SVG 1.1//EN" "http://www.w3.org/Graphics/SVG/1.1/DTD/svg11.dtd">
<svg version="1.1" id="Layer_1" xmlns="http://www.w3.org/2000/svg" xmlns:xlink="http://www.w3.org/1999/xlink" x="0px" y="0px"
	 width="165px" height="90px" viewBox="0 0 165 90" style="enable-background:new 0 0 165 90;" xml:space="preserve">
<path style="fill:#004563;" d="M60.529,12.199h5.184v3.456h0.144c1.68-2.448,3.649-4.128,7.633-4.128
	c3.023,0,5.855,1.296,6.959,4.128c1.873-2.544,4.129-4.128,7.777-4.128c5.233,0,8.305,2.353,8.305,8.353v17.137H91.06V22.52
	c0-3.984-0.24-6.673-4.513-6.673c-3.696,0-5.282,2.401-5.282,6.625v14.545h-5.472V21.08c0-3.456-1.055-5.233-4.368-5.233
	C68.593,15.847,66,18.2,66,22.28v14.737h-5.471V12.199z"/>
<path style="fill:#004563;" d="M99.935,24.585c0-7.537,4.609-13.058,12.529-13.058c7.922,0,12.53,5.521,12.53,13.058
	c0,7.632-4.608,13.104-12.53,13.104C104.544,37.689,99.935,32.217,99.935,24.585 M119.521,24.585c0-4.272-2.16-8.737-7.057-8.737
	c-4.896,0-7.056,4.465-7.056,8.737c0,4.32,2.16,8.784,7.056,8.784C117.361,33.369,119.521,28.905,119.521,24.585"/>
<path style="fill:#004563;" d="M128.495,12.199h5.473V39.13c0,4.944-1.969,7.729-7.105,7.729c-1.104,0-1.727-0.048-2.448-0.193
	v-4.32c0.721,0.144,1.344,0.192,1.872,0.192c1.968,0,2.208-1.2,2.208-3.648V12.199z M128.495,2.742h5.473v5.185h-5.473V2.742z"/>
<path style="fill:#004563;" d="M142.991,26.025c0,3.888,2.112,7.344,6.672,7.344c3.217,0,5.09-1.391,6.049-4.128h5.186
	c-1.153,5.424-5.858,8.449-11.235,8.449c-7.824,0-12.144-5.376-12.144-13.057c0-7.057,4.609-13.105,12.002-13.105
	c7.824,0,12.625,7.056,11.713,14.497H142.991z M155.761,22.424c-0.24-3.456-2.496-6.576-6.24-6.576c-3.793,0-6.385,2.88-6.53,6.576
	H155.761z"/>
<path style="fill:#00AEEF;" d="M3.986,60.007h0.096c0.767-2.496,3.553-6.24,8.976-6.24c7.537,0,11.088,6.049,11.088,12.961
	c0,7.488-3.551,12.865-11.088,12.865c-4.08,0-7.488-1.68-8.976-5.713H3.986v13.97H2.162V54.343h1.824V60.007z M22.324,66.728
	c0-5.616-2.641-11.377-9.266-11.377c-6.576,0-9.025,5.521-9.025,11.377c0,5.904,2.064,11.281,9.025,11.281
	C19.443,78.009,22.324,72.825,22.324,66.728"/>
<path style="fill:#00AEEF;" d="M45.41,74.457c0,1.393-0.047,2.977,1.633,2.977c0.336,0,0.768-0.048,1.344-0.145v1.536
	c-0.528,0.145-0.959,0.193-1.488,0.193c-2.879,0-3.313-1.584-3.313-3.601v-1.296H43.49c-1.152,2.929-4.416,5.473-9.168,5.473
	c-4.656,0-8.257-1.777-8.257-6.961c0-5.809,4.992-6.912,9.074-7.297c8.16-0.527,8.496-1.151,8.496-5.136
	c0-1.104-1.248-4.848-6.865-4.848c-4.416,0-7.344,2.303-7.584,6.576h-1.825c0.241-5.424,3.6-8.16,9.409-8.16
	c4.32,0,8.64,1.295,8.64,6.432V74.457z M43.586,65c-1.391,1.681-5.375,1.393-8.928,1.921c-4.369,0.527-6.769,2.016-6.769,5.712
	c0,3.024,2.113,5.377,6.48,5.377c8.305,0,9.217-7.105,9.217-8.402V65z"/>
<path style="fill:#00AEEF;" d="M50.018,54.343h1.824v5.28h0.096c1.297-3.696,4.945-5.856,8.832-5.856
	c8.689,0,8.785,6.96,8.785,9.984v15.266H67.73V63.415c0-2.496-0.287-8.064-7.008-8.064c-5.569,0-8.881,4.32-8.881,10.321v13.345
	h-1.824V54.343z M64.467,43.974h2.447l-6.431,6.721h-1.776L64.467,43.974z"/>
<path style="fill:#00AEEF;" d="M74.594,70.808c0.24,4.561,3.744,7.201,8.16,7.201c3.217,0,7.826-0.96,7.826-5.232
	c0-8.354-16.947-2.593-16.947-12.674c0-4.848,4.754-6.336,8.93-6.336c5.185,0,9.121,2.256,9.121,7.872h-1.824
	c0-4.464-3.168-6.288-7.297-6.288c-3.313,0-7.106,1.248-7.106,4.752c0,3.984,4.225,4.513,8.209,5.425
	c4.897,0.912,8.739,2.112,8.739,7.249c0,5.328-5.331,6.816-9.651,6.816c-5.615,0-9.84-3.024-9.984-8.785H74.594z"/>
<path style="fill:#00AEEF;" d="M104.689,55.928h-5.375v17.233c0,3.937,1.871,4.416,5.328,4.273v1.584
	c-3.648,0.24-7.392-0.288-7.152-5.857V55.928h-4.561v-1.584h4.561v-7.681h1.824v7.681h5.375V55.928z"/>
<polygon style="fill:#00AEEF;" points="112.994,76.905 113.09,76.905 119.81,54.343 122.258,54.343 129.027,76.905 129.123,76.905 
	136.035,54.343 138.051,54.343 130.131,79.017 127.875,79.017 121.105,56.647 121.01,56.647 114.193,79.017 111.889,79.017 
	104.064,54.343 106.033,54.343 "/>
<path style="fill:#00AEEF;" d="M149.617,53.768c7.297,0,11.33,5.904,11.33,12.913c0,7.057-4.033,12.913-11.33,12.913
	c-7.297,0-11.328-5.856-11.328-12.913C138.289,59.672,142.32,53.768,149.617,53.768 M149.617,78.01
	c6.145,0,9.506-5.425,9.506-11.329s-3.361-11.329-9.506-11.329c-6.145,0-9.504,5.425-9.504,11.329S143.472,78.01,149.617,78.01"/>
</svg>
