<?xml version="1.0" encoding="utf-8"?>
<!-- Generator: Adobe Illustrator 18.1.1, SVG Export Plug-In . SVG Version: 6.00 Build 0)  -->
<!DOCTYPE svg PUBLIC "-//W3C//DTD SVG 1.1//EN" "http://www.w3.org/Graphics/SVG/1.1/DTD/svg11.dtd">
<svg version="1.1" id="Layer_1" xmlns="http://www.w3.org/2000/svg" xmlns:xlink="http://www.w3.org/1999/xlink" x="0px" y="0px"
	 viewBox="170.7 2.1 157 190.9" enable-background="new 170.7 2.1 157 190.9" xml:space="preserve">
<path fill="#FFFFFF" d="M292.3,165.2v3.3c-1.3-0.5-2.8-0.8-4.3-0.8c-1.8,0-3.4,0.4-4.9,1.1v-3.6c0-4.7-3.8-8.5-8.5-8.5h-20.8v11.9
	c-1.4-0.5-2.9-0.9-4.4-0.9c-1.7,0-3.3,0.4-4.8,1v-12.1h-20.7c-4.7,0-8.5,3.8-8.5,8.5v3.6c-1.5-0.7-3.2-1.1-4.9-1.1
	c-1.5,0-2.9,0.3-4.3,0.8v-3.3c0-9.8,8-17.8,17.8-17.8h20.7v-14.3h9.2v14.3h20.8C284.4,147.5,292.3,155.4,292.3,165.2z M313.3,75.1
	l-0.1,0.5c0,0,0,0.1,0,0.1c0,0,0,0,0,0l-6.8,32.3v6.4c0,5.4-4.4,9.9-9.9,9.9h-94.7c-5.4,0-9.9-4.4-9.9-9.9v-5.9l-6.9-32.9
	c0,0,0,0,0,0c0,0,0-0.1,0-0.1l-0.1-0.5c0,0,0,0,0,0c-1.1-5.9,0.7-9.4,2.4-11.3c3.5-3.9,8.8-3.8,10.2-3.7h6.5V29.9
	c0-12.7,10.3-23,23-23h44.2c12.7,0,23,10.3,23,23v30.2h6.4c1.4-0.1,6.7-0.2,10.2,3.7C312.6,65.7,314.4,69.2,313.3,75.1
	C313.3,75.1,313.3,75.1,313.3,75.1z M294.3,69.3v19.4h2.2c1.5,0,3,0.4,4.3,1l3.4-16.1c0.4-2.1,0.2-3.3-0.1-3.7
	c-0.5-0.5-1.9-0.7-2.7-0.7c-0.3,0-0.5,0-0.8,0l0,0H294.3z M213.3,29.9v58.8h71.9V29.9c0-7.6-6.2-13.8-13.8-13.8h-44.2
	C219.5,16.1,213.3,22.3,213.3,29.9z M194.1,73.7l3.4,16.1c1.3-0.7,2.8-1.1,4.4-1.1h2.2V69.3h-6.4l0,0c-0.2,0-0.5,0-0.8,0
	c-0.8-0.1-2.2,0.1-2.7,0.7C193.9,70.4,193.6,71.6,194.1,73.7z M297.2,114.5v-5.8c-0.1-0.5-0.1-0.9,0-1.4v-8.7c0-0.4-0.3-0.7-0.7-0.7
	h-94.7c-0.4,0-0.7,0.3-0.7,0.7v15.9c0,0.4,0.3,0.7,0.7,0.7h94.7C296.9,115.2,297.2,114.9,297.2,114.5z M210.4,176.4
	c-3.9,0-7,3.1-7,7c0,3.9,3.1,7,7,7c3.9,0,7-3.1,7-7C217.3,179.6,214.2,176.4,210.4,176.4z M288,176.4c-3.9,0-7,3.1-7,7
	c0,3.9,3.1,7,7,7c3.9,0,7-3.1,7-7C295,179.6,291.9,176.4,288,176.4z M249.4,176.4c-3.9,0-7,3.1-7,7c0,3.9,3.1,7,7,7c3.9,0,7-3.1,7-7
	C256.4,179.6,253.3,176.4,249.4,176.4z"/>
</svg>
