<?xml version="1.0" encoding="utf-8"?>
<!-- Generator: Adobe Illustrator 17.0.2, SVG Export Plug-In . SVG Version: 6.00 Build 0)  -->
<!DOCTYPE svg PUBLIC "-//W3C//DTD SVG 1.1//EN" "http://www.w3.org/Graphics/SVG/1.1/DTD/svg11.dtd">
<svg version="1.1" id="Layer_1" xmlns="http://www.w3.org/2000/svg" xmlns:xlink="http://www.w3.org/1999/xlink" x="0px" y="0px"
	 width="20px" height="30px" viewBox="0 0 20 30" enable-background="new 0 0 20 30" xml:space="preserve">
<path fill="#E62328" stroke="#010101" stroke-width="0.7" stroke-miterlimit="10" d="M10.256,26.303
	c-0.577-2.833-1.594-5.19-2.827-7.375c-0.914-1.621-1.973-3.116-2.953-4.688c-0.327-0.525-0.609-1.079-0.924-1.623
	c-0.628-1.089-1.138-2.351-1.105-3.988c0.032-1.6,0.494-2.883,1.161-3.932C4.706,2.972,6.544,1.557,9.01,1.185
	c2.016-0.304,3.907,0.21,5.248,0.994c1.096,0.641,1.944,1.496,2.589,2.505c0.673,1.053,1.137,2.296,1.175,3.918
	c0.02,0.831-0.116,1.601-0.308,2.239c-0.194,0.646-0.506,1.186-0.784,1.763c-0.542,1.126-1.221,2.158-1.903,3.19
	C12.997,18.87,11.091,22.006,10.256,26.303z"/>
<circle fill="#010101" cx="10.235" cy="8.612" r="2.729"/>
</svg>
