<?xml version="1.0" encoding="utf-8"?>
<!-- Generator: Adobe Illustrator 17.0.2, SVG Export Plug-In . SVG Version: 6.00 Build 0)  -->
<!DOCTYPE svg PUBLIC "-//W3C//DTD SVG 1.1//EN" "http://www.w3.org/Graphics/SVG/1.1/DTD/svg11.dtd">
<svg version="1.1" id="Layer_1" xmlns="http://www.w3.org/2000/svg" xmlns:xlink="http://www.w3.org/1999/xlink" x="0px" y="0px"
	 width="100px" height="100px" viewBox="0 0 100 100" enable-background="new 0 0 100 100" xml:space="preserve">
<g>
	<g id="hexagon-flat_30_" transform="translate(173.000000, 138.000000)">
		<polygon id="Polygon-48_31_" fill="#3972B9" points="-122.863,-137.637 -80.019,-112.902 -80.019,-63.431 -122.863,-38.695 
			-165.706,-63.431 -165.706,-112.902 		"/>
	</g>
	<polygon opacity="0.5" fill="#010101" fill-opacity="0.4" points="50.137,34.124 50.137,18.415 21.486,32.2 7.294,46.393 
		7.294,74.559 48.342,98.258 79.069,67.531 77.347,34.124 	"/>
	<g id="hexagon-flat_29_" transform="translate(173.000000, 138.000000)">
		
			<polygon id="Polygon-48_30_" fill="none" stroke="#3C84C5" stroke-width="4" stroke-linecap="round" stroke-linejoin="round" stroke-miterlimit="10" points="
			-122.863,-119.585 -122.863,-103.876 -95.653,-103.876 -95.653,-72.457 -122.863,-56.747 -150.072,-72.457 -150.072,-103.876 		
			"/>
	</g>
	<g id="hexagon-flat_28_" transform="translate(173.000000, 138.000000)">
		
			<polyline id="Polygon-48_29_" fill="none" stroke="#FFFFFF" stroke-width="4" stroke-linecap="round" stroke-linejoin="round" stroke-miterlimit="10" points="
			-150.072,-72.457 -150.072,-103.876 -122.863,-85.295 -95.653,-103.876 -95.653,-72.457 		"/>
	</g>
</g>
</svg>
