<?xml version="1.0" encoding="utf-8"?>
<!-- Generator: Adobe Illustrator 18.1.1, SVG Export Plug-In . SVG Version: 6.00 Build 0)  -->
<!DOCTYPE svg PUBLIC "-//W3C//DTD SVG 1.1//EN" "http://www.w3.org/Graphics/SVG/1.1/DTD/svg11.dtd">
<svg version="1.1" id="Layer_2" xmlns="http://www.w3.org/2000/svg" xmlns:xlink="http://www.w3.org/1999/xlink" x="0px" y="0px"
	 viewBox="-285.3 426.5 983.2 248.1" enable-background="new -285.3 426.5 983.2 248.1" xml:space="preserve">
<g>
	<g>
		<path fill="#FFFFFF" d="M203.1,674.6H-49.1V426.5h252.2l-68,124.1L203.1,674.6z M-37.1,662.6h220l-61.4-112.1l61.4-112.1h-220
			V662.6z"/>
	</g>
	<g>
		<path fill="#FFFFFF" d="M697.9,674.6H445.7V426.5h252.2l-68,124.1L697.9,674.6z M457.7,662.6h220l-61.4-112.1l61.4-112.1h-220
			V662.6z"/>
	</g>
	<g>
		<path fill="#FFFFFF" d="M451.6,674.6H199.9V426.5h186l0.5,0.1c0.6,0.1,15.9,2.8,31.1,15.2C431.4,453.1,448,475,448,515
			c0,28.9-12.4,46.9-22.9,56.9c-6.3,6.1-12.7,10-17.1,12.3L451.6,674.6z M211.9,662.6h220.6l-40.8-84.8l6.4-2.2
			c1.5-0.5,38-14,38-60.6c0-64-45.7-75.3-51.2-76.5H211.9V662.6z"/>
	</g>
	<g>
		<path fill="#FFFFFF" d="M-79.2,674.6h-206.1V426.5h186l0.5,0.1c0.6,0.1,15.9,2.8,31.1,15.2c13.9,11.3,30.5,33.2,30.5,73.2
			c0,28.9-12.4,46.9-22.9,56.9c-7.4,7.1-14.8,11.3-19.2,13.4V674.6z M-273.3,662.6h182.1V577l4-1.4c1.5-0.5,38-14,38-60.6
			c0-64-45.7-75.3-51.2-76.5h-172.9V662.6z"/>
	</g>
</g>
</svg>
