<?xml version="1.0" encoding="utf-8"?>
<!-- Generator: Adobe Illustrator 19.2.0, SVG Export Plug-In . SVG Version: 6.00 Build 0)  -->
<!DOCTYPE svg PUBLIC "-//W3C//DTD SVG 1.1//EN" "http://www.w3.org/Graphics/SVG/1.1/DTD/svg11.dtd">
<svg version="1.1" id="Layer_1" xmlns="http://www.w3.org/2000/svg" xmlns:xlink="http://www.w3.org/1999/xlink" x="0px" y="0px"
	 viewBox="0 0 55.5 64.1" style="enable-background:new 0 0 55.5 64.1;" xml:space="preserve">
<style type="text/css">
	.st0{fill:#EDCD7B;}
	.st1{opacity:0.5;fill:#010101;fill-opacity:0.4;enable-background:new    ;}
	.st2{fill:#444955;}
	.st3{opacity:0.3;fill:#010101;enable-background:new    ;}
	.st4{fill:#EAEAEA;}
	.st5{opacity:0.1;fill:#010101;enable-background:new    ;}
	.st6{fill:#6DCCDC;}
</style>
<g id="hexagon-flat_15_" transform="translate(173.000000, 138.000000)">
	<polygon id="Polygon-48_15_" class="st0" points="-145.3,-138 -117.5,-122 -117.5,-90 -145.3,-73.9 -173,-90 -173,-122 	"/>
</g>
<g>
	<g>
		<polygon class="st1" points="41.2,37.6 39.1,33.6 31.3,32 28.9,27.8 30.3,24.5 26.6,25.9 23.2,28.2 11.5,21.6 0,31.5 0,48 
			27.7,64.1 43.9,45.3 43.1,43.4 		"/>
	</g>
</g>
<g>
	<path class="st2" d="M35.9,52l-6.7-6.7h-3.1l-6.8,6.8c-0.4,0.4-0.4,1.1,0,1.5s1.1,0.4,1.5,0l5.7-5.7v3.8c0,0.6,0.5,1.1,1.1,1.1
		s1.1-0.5,1.1-1.1v-3.9l5.6,5.6c0.4,0.4,1.1,0.4,1.5,0C36.4,53.2,36.4,52.5,35.9,52z"/>
	<path class="st2" d="M28.8,21.6v-1.1c0-0.6-0.5-1.1-1.1-1.1s-1.1,0.5-1.1,1.1v1.1H28.8z"/>
	<path class="st3" d="M28.8,21.6v-1.1c0-0.6-0.5-1.1-1.1-1.1s-1.1,0.5-1.1,1.1v1.1H28.8z"/>
	<rect x="11.5" y="25.9" class="st4" width="32.3" height="19.4"/>
	<rect x="11.5" y="25.9" class="st5" width="32.3" height="1.1"/>
	<polygon class="st3" points="30.3,46.4 29.2,45.3 26.1,45.3 25.1,46.4 	"/>
	<path class="st2" d="M44.9,22.7c0-0.6-0.5-1.1-1.1-1.1H11.5c-0.6,0-1.1,0.5-1.1,1.1v3.2h34.5V22.7z"/>
	<polygon class="st6" points="32,35.6 24.5,31.3 24.5,39.9 	"/>
</g>
</svg>
