<?xml version="1.0" encoding="utf-8"?>
<!-- Generator: Adobe Illustrator 18.1.1, SVG Export Plug-In . SVG Version: 6.00 Build 0)  -->
<!DOCTYPE svg PUBLIC "-//W3C//DTD SVG 1.1//EN" "http://www.w3.org/Graphics/SVG/1.1/DTD/svg11.dtd">
<svg version="1.1" id="Warstwa_1" xmlns="http://www.w3.org/2000/svg" xmlns:xlink="http://www.w3.org/1999/xlink" x="0px" y="0px"
	 viewBox="0 0 612 792" enable-background="new 0 0 612 792" xml:space="preserve">
<g>
	<g>
		<path fill="#FFFFFF" d="M404.3,149.7c-1.6-4.8-6.4-9.6-11.2-11.2c-4.8-1.6-11.2,1.6-14.4,6.4c-38.4,56-81.5,94.3-116.7,118.3
			c-20.8,14.4-38.4,24-51.2,28.8c-9.6,4.8-16,6.4-19.2,8l8,25.6v1.6c3.2-1.6,11.2-3.2,22.4-9.6c17.6-8,43.2-20.8,70.4-41.6
			c12.8-9.6,27.2-20.8,41.6-35.2c17.6-16,33.6-35.2,51.2-56l81.5,291c-19.2-6.4-38.4-12.8-56-17.6c-25.6-6.4-48-9.6-68.8-12.8
			c-27.2-3.2-51.2-3.2-68.8-1.6c-22.4,4.8-35.2,8-40,8l1.6,4.8l3.2,9.6l3.2,12.8c4.8-1.6,17.6-3.2,36.8-4.8
			c17.6-1.6,41.6,0,70.4,3.2c36.8,4.8,83.1,16,134.3,36.8c3.2,1.6,6.4,1.6,9.6,0c1.6,0,4.8-1.6,6.4-3.2c4.8-3.2,6.4-9.6,4.8-14.4
			L404.3,149.7z M487.4,224.9l-14.4,24c20.8,12.8,35.2,32,41.6,54.4c6.4,22.4,3.2,46.4-6.4,65.6l24,12.8c14.4-27.2,17.6-57.6,8-86.3
			C535.4,264.9,514.6,239.3,487.4,224.9z M601,279.3c-12.8-44.8-41.6-83.1-83.1-107.1L505,197.7c33.6,19.2,59.2,51.2,68.8,89.5
			c9.6,36.8,6.4,75.1-11.2,108.7l24,12.8C609,368.8,613.8,322.4,601,279.3z M215.6,485.5l-6.4-20.8l-44.8-159.9l-89.5,25.6
			C23.8,344.8-6.6,399.2,7.8,450.3c11.2,40,44.8,67.2,83.1,70.4l103.9,127.9c3.2,4.8,9.6,6.4,14.4,4.8l70.4-19.2
			c4.8-1.6,8-4.8,9.6-8c1.6-4.8,1.6-9.6-1.6-12.8L215.6,485.5z M36.6,442.3c-9.6-36.8,11.2-73.5,46.4-83.1l59.2-16l36.8,131.1
			l-59.2,16C84.5,499.9,46.2,479.1,36.6,442.3z M210.8,623l-84.7-103.9l64-17.6l64,110.3L210.8,623z"/>
	</g>
</g>
</svg>
