<?xml version="1.0" encoding="utf-8"?>
<!-- Generator: Adobe Illustrator 19.2.0, SVG Export Plug-In . SVG Version: 6.00 Build 0)  -->
<!DOCTYPE svg PUBLIC "-//W3C//DTD SVG 1.1//EN" "http://www.w3.org/Graphics/SVG/1.1/DTD/svg11.dtd">
<svg version="1.1" id="Layer_1" xmlns="http://www.w3.org/2000/svg" xmlns:xlink="http://www.w3.org/1999/xlink" x="0px" y="0px"
	 viewBox="0 0 106.7 85.9" style="enable-background:new 0 0 106.7 85.9;" xml:space="preserve">
<style type="text/css">
	.st0{fill:#FFFFFF;}
	.st1{fill:#6DCCDC;}
	.st2{fill:#E2A04A;}
	.st3{fill:#87A945;}
	.st4{fill:#8BCFC1;}
	.st5{fill:#EBEBEB;}
	.st6{fill:#FFFFFF;stroke:#809180;stroke-miterlimit:10;}
	.st7{fill:#809180;}
	.st8{fill:#7C943B;}
	.st9{fill:#CB3734;}
</style>
<g>
	<g>
		
			<rect x="51.8" y="19.1" transform="matrix(0.1661 -0.9861 0.9861 0.1661 17.3935 113.4168)" class="st0" width="47.9" height="54.6"/>
		<path class="st1" d="M57.5,24.6l-5.1,30.1c2.3-2.9,4.1-6.4,6.6-9c1.1-1.2,2.2-2.5,3.3-3.6c1.5-1.6,2.8-0.5,3.6,1.3
			c0.7,1.4,1.2,3,2,4.5c1.1,2,1.8,1.7,3.2,0.2c0.5-0.6,1-1.8,1.5-2.2c0.9-0.8,1,0.2,1.7,1.1c0.9,1.2,2,2.3,3.4,2.8
			c3.4,1.1,6.6-2.1,8.9-4.2c1.8-1.7,3.8-3.1,5.8-4.6c1.4-1,3.5-3,4.9-1.2c0.4,0.5,0.7,1.2,1,1.8l1.6-9.7L57.5,24.6z"/>
		<circle class="st2" cx="79" cy="35.8" r="3.4"/>
		<path class="st3" d="M69.2,62.8c0.6-0.3,2.6,0.1,3.2,0.2c2.8,0.5,5.9,1.3,8.8,1.3c0-0.5-0.3-0.9,0.1-1.3c0.5-0.5,2.4,0.1,3,0.2
			c2,0.3,4.1,0.7,6.1,0.9c1.4,0.2,2.8,0.1,4.3,0.2l3.8-22.9c-0.3-0.6-0.6-1.3-1-1.8c-1.4-1.8-3.4,0.1-4.9,1.2c-2,1.4-4,2.8-5.8,4.6
			c-2.2,2.1-5.5,5.3-8.9,4.2c-1.4-0.5-2.5-1.6-3.4-2.8c-0.7-0.9-0.8-1.8-1.7-1.1c-0.5,0.4-1,1.7-1.5,2.2c-1.4,1.6-2,1.8-3.2-0.2
			c-0.8-1.4-1.3-3-2-4.5c-0.8-1.8-2.1-2.9-3.6-1.3c-1.1,1.1-2.2,2.4-3.3,3.6c-2.5,2.6-4.3,6.1-6.6,9L51.4,61l14.9,2.7
			c0.9,0.1,1.8,0.3,2.5,0.3C68.9,63.4,68.6,63.1,69.2,62.8z"/>
		<path class="st4" d="M94.6,64.4c-2-0.2-4.1-0.2-6.1-0.5c-2.9-0.4-5.9-0.9-8.7-1.3c-0.9-0.1-3.6-0.9-4.4-0.4
			c-0.6,0.4-0.6,0.2-0.6,0.7c-4.2-0.3-4,0-8.1-0.8c-0.9-0.2-6.4-1.2-7.3-0.9c-0.8,0.3-2.3-0.5-2.4,0.1c-1.1-0.1-1.9,0.5-3.2,0.3
			l40.1,6.8L94.6,64.4z"/>
	</g>
	<g>
		
			<rect x="10.5" y="7.1" transform="matrix(0.9417 -0.3364 0.3364 0.9417 -12.2546 15.1964)" class="st5" width="54.5" height="71.8"/>
		
			<rect x="9.4" y="14.3" transform="matrix(0.9417 -0.3364 0.3364 0.9417 -7.9288 12.5348)" class="st6" width="45.5" height="29.8"/>
		<g>
			<g>
				
					<rect x="24.6" y="62.5" transform="matrix(0.9418 -0.3363 0.3363 0.9418 -20.838 12.4235)" class="st7" width="1.6" height="7.8"/>
			</g>
			<g>
				
					<rect x="28.5" y="64.5" transform="matrix(0.9417 -0.3364 0.3364 0.9417 -20.7376 13.7533)" class="st7" width="1.6" height="4.5"/>
			</g>
			<g>
				
					<rect x="30" y="52.6" transform="matrix(0.9414 -0.3372 0.3372 0.9414 -18.5282 13.9283)" class="st7" width="1.6" height="15.4"/>
			</g>
			<g>
				
					<rect x="35.6" y="64.2" transform="matrix(0.9418 -0.3361 0.3361 0.9418 -19.8534 16.0296)" class="st7" width="1.6" height="2.2"/>
			</g>
			<g>
				
					<rect x="37.3" y="54.5" transform="matrix(0.9415 -0.3371 0.3371 0.9415 -18.0081 16.3747)" class="st7" width="1.6" height="11.1"/>
			</g>
			<g>
				
					<rect x="41.8" y="59.7" transform="matrix(0.9416 -0.3368 0.3368 0.9416 -18.3663 17.9671)" class="st7" width="1.6" height="4.5"/>
			</g>
			<g>
				
					<rect x="43.5" y="49.2" transform="matrix(0.9418 -0.3363 0.3363 0.9418 -16.3162 18.1947)" class="st7" width="1.6" height="14"/>
			</g>
			<g>
				
					<rect x="46.4" y="44.8" transform="matrix(0.9417 -0.3363 0.3363 0.9417 -15.2385 18.984)" class="st7" width="1.6" height="17.3"/>
			</g>
			<g>
				
					<rect x="50.7" y="49.7" transform="matrix(0.942 -0.3357 0.3357 0.942 -15.5408 20.5053)" class="st7" width="1.6" height="11.1"/>
			</g>
			<g>
				
					<rect x="54.6" y="51.7" transform="matrix(0.9418 -0.3362 0.3362 0.9418 -15.4511 21.8665)" class="st7" width="1.6" height="7.8"/>
			</g>
			<g>
				
					<rect x="56.7" y="43.7" transform="matrix(0.9419 -0.336 0.336 0.9419 -13.8203 22.3103)" class="st7" width="1.6" height="14.8"/>
			</g>
			<g>
				
					<rect x="59.5" y="38.8" transform="matrix(0.9417 -0.3366 0.3366 0.9417 -12.6874 23.0983)" class="st7" width="1.6" height="18.6"/>
			</g>
		</g>
		<g>
			<g>
				<g>
					
						<rect x="26.5" y="69.1" transform="matrix(0.9417 -0.3364 0.3364 0.9417 -21.295 16.054)" class="st7" width="18.4" height="0.8"/>
				</g>
				<g>
					
						<rect x="27.3" y="71.3" transform="matrix(0.9417 -0.3363 0.3363 0.9417 -21.9979 16.4457)" class="st7" width="18.4" height="0.8"/>
				</g>
				<g>
					
						<rect x="28.1" y="73.7" transform="matrix(0.9417 -0.3364 0.3364 0.9417 -22.7441 16.8726)" class="st7" width="18.4" height="0.8"/>
				</g>
				<g>
					
						<rect x="29" y="76" transform="matrix(0.9417 -0.3364 0.3364 0.9417 -23.4864 17.2917)" class="st7" width="18.4" height="0.8"/>
				</g>
			</g>
			<g>
				<g>
					
						<rect x="47" y="61.7" transform="matrix(0.9417 -0.3364 0.3364 0.9417 -17.6161 22.5019)" class="st7" width="18.4" height="0.8"/>
				</g>
				<g>
					
						<rect x="47.8" y="64" transform="matrix(0.9418 -0.3363 0.3363 0.9418 -18.355 22.9133)" class="st7" width="18.4" height="0.8"/>
				</g>
				<g>
					
						<rect x="48.6" y="66.4" transform="matrix(0.9417 -0.3364 0.3364 0.9417 -19.0984 23.3409)" class="st7" width="18.4" height="0.8"/>
				</g>
				<g>
					
						<rect x="49.4" y="68.6" transform="matrix(0.9417 -0.3364 0.3364 0.9417 -19.8077 23.7393)" class="st7" width="18.4" height="0.8"/>
				</g>
			</g>
		</g>
		<g>
			<polygon class="st8" points="18.8,45 17.8,44.4 23,33.6 32.1,36.9 34.4,24.6 40.4,28.1 45.8,14 47,14.5 41,29.8 35.2,26.5 
				33.1,38.5 23.5,35.1 			"/>
		</g>
		<g>
			<polygon class="st9" points="36.5,33.2 22.8,32.5 16.3,39.3 15.4,38.5 22.4,31.2 35.7,32 38.8,21.9 49.8,23.1 49.7,24.3 
				39.7,23.2 			"/>
		</g>
	</g>
</g>
</svg>
