<?xml version="1.0" encoding="utf-8"?>
<!-- Generator: Adobe Illustrator 19.2.0, SVG Export Plug-In . SVG Version: 6.00 Build 0)  -->
<!DOCTYPE svg PUBLIC "-//W3C//DTD SVG 1.1//EN" "http://www.w3.org/Graphics/SVG/1.1/DTD/svg11.dtd">
<svg version="1.1" id="Layer_1" xmlns="http://www.w3.org/2000/svg" xmlns:xlink="http://www.w3.org/1999/xlink" x="0px" y="0px"
	 viewBox="0 0 55.5 64.1" style="enable-background:new 0 0 55.5 64.1;" xml:space="preserve">
<style type="text/css">
	.st0{fill:#D07C3F;}
	.st1{opacity:0.5;fill-opacity:0.4;}
	.st2{fill:#EDEDED;}
	.st3{fill:#BA2827;}
</style>
<g id="hexagon-flat_11_" transform="translate(173.000000, 138.000000)">
	<polygon id="Polygon-48_11_" class="st0" points="-145,-138.3 -117.2,-122.3 -117.2,-90.3 -145,-74.2 -172.7,-90.3 -172.7,-122.3 	
		"/>
</g>
<polygon class="st1" points="30,26.6 20.9,21.2 0.3,38.3 0.3,47.7 25.5,62.3 43.7,44 39,42.3 39.1,17.1 "/>
<g>
	<line class="st2" x1="9.3" y1="42.9" x2="43.1" y2="42.9"/>
	<g>
		<path class="st2" d="M9.3,44.1c11.3,0,22.5,0,33.8,0c1.6,0,1.6-2.5,0-2.5c-11.3,0-22.5,0-33.8,0C7.7,41.6,7.7,44.1,9.3,44.1
			L9.3,44.1z"/>
	</g>
</g>
<rect x="12.5" y="37.3" class="st2" width="3.7" height="5.6"/>
<rect x="20.2" y="30.8" class="st2" width="3.7" height="12.1"/>
<rect x="28.2" y="32.4" class="st2" width="3.7" height="10.4"/>
<rect x="36.1" y="25.2" class="st2" width="3.7" height="17.7"/>
<g>
	<g>
		<path class="st3" d="M10.2,33.3c3.6-3,7.3-6,10.9-9.1c0.6-0.5,1.2-0.9,1.7-1.4c-0.9,0.8-1.4-0.2,0.2,1c1.9,1.5,4.3,2.6,6.4,3.8
			c0.4,0.3,1.2,0.2,1.5-0.2c2.6-3.2,5.3-6.3,7.9-9.5c1-1.2-0.7-3-1.8-1.8c-1,1.2-2,2.4-3,3.6c-1,1.2-4,3.6-4.4,5.2
			c-0.3,1.2,0.7,0.4,0.5,0.2c-0.4-0.6-2-1.2-2.7-1.6c-1.6-1-3.2-1.9-4.8-2.9c-0.5-0.3-1.1-0.2-1.5,0.2c-4.2,3.5-8.5,7.1-12.7,10.6
			C7.2,32.6,9,34.4,10.2,33.3L10.2,33.3z"/>
	</g>
</g>
</svg>
