<?xml version="1.0" encoding="utf-8"?>
<!-- Generator: Adobe Illustrator 19.2.0, SVG Export Plug-In . SVG Version: 6.00 Build 0)  -->
<!DOCTYPE svg PUBLIC "-//W3C//DTD SVG 1.1//EN" "http://www.w3.org/Graphics/SVG/1.1/DTD/svg11.dtd">
<svg version="1.1" id="Layer_1" xmlns="http://www.w3.org/2000/svg" xmlns:xlink="http://www.w3.org/1999/xlink" x="0px" y="0px"
	 viewBox="0 0 55.5 64.1" style="enable-background:new 0 0 55.5 64.1;" xml:space="preserve">
<style type="text/css">
	.st0{fill:#2BACE2;}
	.st1{opacity:0.5;fill:#010101;fill-opacity:0.4;enable-background:new    ;}
	.st2{fill:none;stroke:#FFFFFF;stroke-width:2;stroke-linecap:round;stroke-linejoin:round;}
	.st3{fill:#E7E7E7;}
	.st4{fill:#F15943;}
	.st5{fill:#FFFFFF;}
	.st6{fill:#B63A38;}
	.st7{fill:#E54D3B;}
</style>
<g id="hexagon-flat_27_" transform="translate(173.000000, 138.000000)">
	<polygon id="Polygon-48_27_" class="st0" points="-145.3,-137.9 -117.5,-121.8 -117.5,-89.8 -145.3,-73.8 -173,-89.8 -173,-121.8 	
		"/>
</g>
<g>
	<g>
		<polygon class="st1" points="44.4,31.4 34.1,28.8 29.2,25.4 27.4,25.4 22,29.3 20.3,28.8 20.3,23.4 9.3,22.8 0,31.6 0,48.2 
			24.5,62.3 45.5,43.8 45.5,34.7 		"/>
	</g>
</g>
<g>
	<path class="st2" d="M45.5,43.8V33.1c0,0-0.2-1.1-1.1-1.7c-0.7-0.5-2.8-1.5-4.6-1.8c-1.7-0.3-3.2-0.5-3.2-0.5l-2.5-0.3v-0.7
		l-5.9-3.2l-5.4,3.2v0.7h-2.6v-2.5h0.2v-2h-0.2v-0.9H9.6v0.9H9.3v0.6h0.3v6.9H9.3v0.6h0.3v10.7"/>
</g>
<g>
	<polygon class="st3" points="39.9,19.6 32.7,19.6 32.7,14.3 39.9,14.3 37.4,17.1 	"/>
	<polygon class="st4" points="32.7,17.2 32.7,19.6 39.9,19.6 37.5,17.2 	"/>
	<path class="st5" d="M29.1,20.3v-3.9l0,0v-2.8v-1.5c0-0.5-0.4-0.9-0.9-0.9s-0.9,0.4-0.9,0.9v1.1v3.6l0,0v3.9v4
		c0,0.5,0.4,0.9,0.9,0.9s0.9-0.4,0.9-0.9V20.3z"/>
	<polygon class="st6" points="32.7,19.6 35.6,17.9 35.6,13.6 32.7,13.6 	"/>
	<rect x="27.3" y="12.7" class="st5" width="8.3" height="5.2"/>
	<rect x="27.3" y="15.3" class="st7" width="8.3" height="2.6"/>
</g>
</svg>
