<?xml version="1.0" encoding="utf-8"?>
<!-- Generator: Adobe Illustrator 19.2.0, SVG Export Plug-In . SVG Version: 6.00 Build 0)  -->
<!DOCTYPE svg PUBLIC "-//W3C//DTD SVG 1.1//EN" "http://www.w3.org/Graphics/SVG/1.1/DTD/svg11.dtd">
<svg version="1.1" id="Layer_1" xmlns="http://www.w3.org/2000/svg" xmlns:xlink="http://www.w3.org/1999/xlink" x="0px" y="0px"
	 viewBox="0 0 141.9 118.8" style="enable-background:new 0 0 141.9 118.8;" xml:space="preserve">
<style type="text/css">
	.st0{fill:#A8D7D8;}
	.st1{fill:#E7E7E7;}
	.st2{fill:#F15943;}
	.st3{fill:#232F35;}
	.st4{fill:#B63A38;}
	.st5{fill:#FFFFFF;}
	.st6{fill:#E54D3B;}
	.st7{fill:#2075BC;}
	.st8{fill:#FFCE56;}
	.st9{fill:#F3BA41;}
</style>
<g>
	<path class="st0" d="M51.8,20.7c-1.1,0-2.2,0.2-3.2,0.6c0-0.2,0.1-0.4,0.1-0.6c0-4.7-3.8-8.5-8.5-8.5c-2.9,0-5.4,1.4-6.9,3.6
		c-1.5-2.2-4.1-3.6-6.9-3.6c-4.4,0-7.9,3.3-8.4,7.5c-1-0.4-2.1-0.6-3.2-0.6c-4.7,0-8.5,3.8-8.5,8.5c0,4.7,3.8,8.5,8.5,8.5
		c1.1,0,2.2-0.2,3.2-0.6c0,0.2-0.1,0.4-0.1,0.6c0,4.7,3.8,8.5,8.5,8.5c2.9,0,5.4-1.4,6.9-3.6c1.5,2.2,4.1,3.6,6.9,3.6
		c4.4,0,7.9-3.3,8.4-7.5c1,0.4,2.1,0.6,3.2,0.6c4.7,0,8.5-3.8,8.5-8.5C60.4,24.5,56.5,20.7,51.8,20.7z"/>
	<path class="st0" d="M136.5,17.9c-0.7,0-1.4,0.1-2,0.4c0-0.1,0-0.3,0-0.4c0-3-2.4-5.4-5.4-5.4c-1.8,0-3.4,0.9-4.4,2.3
		c-1-1.4-2.6-2.3-4.4-2.3c-2.8,0-5,2.1-5.3,4.7c-0.6-0.3-1.3-0.4-2-0.4c-3,0-5.4,2.4-5.4,5.4c0,3,2.4,5.4,5.4,5.4
		c0.7,0,1.4-0.1,2-0.4c0,0.1,0,0.3,0,0.4c0,3,2.4,5.4,5.4,5.4c1.8,0,3.4-0.9,4.4-2.3c1,1.4,2.6,2.3,4.4,2.3c2.8,0,5-2.1,5.3-4.7
		c0.6,0.3,1.3,0.4,2,0.4c3,0,5.4-2.4,5.4-5.4C141.9,20.3,139.4,17.9,136.5,17.9z"/>
	<g>
		<polygon class="st1" points="57,25.9 48.4,25.9 48.4,19.6 57,19.6 54,22.9 		"/>
		<polygon class="st2" points="48.4,23 48.4,25.9 57,25.9 54.1,23 		"/>
		<path class="st3" d="M44.1,26.6l0-4.6l0,0l0-3.3l0-1.8c0-0.6-0.5-1.1-1.1-1.1c-0.6,0-1.1,0.5-1.1,1.1v1.3l0,4.2l0,0l0,4.7v11.8
			c0,0.6,0.5,1.1,1.1,1.1c0.6,0,1.1-0.5,1.1-1.1V26.6z"/>
		<polygon class="st4" points="48.4,25.8 51.8,23.8 51.8,18.7 48.4,18.7 		"/>
		<rect x="42" y="17.6" class="st5" width="9.8" height="6.2"/>
		<rect x="42" y="20.7" class="st6" width="9.8" height="3.1"/>
	</g>
	<path class="st7" d="M124.7,72V60.4l-10.2-0.3c-0.4,0-0.7-0.1-1.1-0.3c-0.3-0.2-0.7-0.4-1-0.7c-0.2-0.1-0.4-0.3-0.6-0.4
		c-0.1-0.1-0.2-0.1-0.3-0.2c0,0-0.1-0.1-0.2-0.1c-0.1,0-0.2,0-0.3-0.1c-0.2,0-0.5,0-0.6,0.2c-0.2,0.2-0.2,0.3-0.3,0.4
		c-0.1,0.2-0.2,0.4-0.2,0.6c-0.1,0.2-0.1,0.3-0.2,0.5c0,0,0,0.1-0.1,0.1l-0.1,0.1c0,0-0.1,0.1-0.1,0.2c0,0.1-0.1,0.1-0.1,0.2
		c-0.2,0.5-0.3,0.9-0.4,1.3c0,0.2-0.1,0.3-0.2,0.4c-0.1,0.1,0,0-0.1,0.1c0,0-0.1,0,0,0c0,0-0.1,0-0.1,0c0,0-0.1,0-0.1,0
		c-0.1,0-0.1-0.1-0.2-0.2c-0.1-0.2-0.2-0.6-0.3-1l-0.1-0.6c0-0.2-0.1-0.5-0.2-0.7c-0.3-0.8-0.6-1.6-0.9-2.5
		c-0.3-0.8-0.7-1.6-1.1-2.4c-0.1-0.2-0.2-0.4-0.4-0.6c-0.2-0.2-0.3-0.4-0.6-0.7c-0.1-0.1-0.2-0.1-0.3-0.2c-0.1,0-0.3-0.1-0.5-0.1
		c-0.4,0-0.7,0.2-0.8,0.3c-0.4,0.3-0.5,0.5-0.6,0.7c-0.5,0.9-0.7,1.5-1.2,2.1c-0.4,0.5-0.6,1-0.7,1.4c-0.1,0.4-0.2,0.9-0.4,1.2
		c0,0.1-0.1,0.2-0.1,0.3l-1.1,0h-2.5h-0.8l-0.1,0.8l-0.7,4.9l-0.1,0.6c0,0,0,0.1,0,0.2c0,0,0,0,0,0.1c0,0,0,0,0,0l0-0.1l0,0v0l0-0.3
		l0-0.6l-0.4-9.8l-0.7-19.6l-1.8,0c-0.3,5.6-0.7,11.2-1.1,16.8c-0.2,2.4-0.4,4.9-0.6,7.3h-0.5H87c0-0.3-0.1-0.6-0.2-0.9
		c-0.1-0.3-0.2-0.6-0.5-1c-0.1-0.2-0.3-0.3-0.6-0.5C85.5,57,85.2,57,85,57h-0.1h-0.1l-0.1,0c0,0-0.1,0-0.1,0l-0.1,0
		c-0.1,0-0.3,0.1-0.4,0.2c-0.3,0.1-0.4,0.3-0.6,0.5c-0.3,0.3-0.4,0.7-0.5,1c-0.1,0.3-0.2,0.6-0.2,0.9H66.6l0-10.5l0-0.1
		c0,0,0-0.1,0-0.1c0-0.1,0-0.1,0-0.2c0-0.1-0.1-0.2-0.1-0.3c-0.1-0.2-0.2-0.4-0.2-0.5c-0.1-0.2-0.2-0.3-0.3-0.4
		c-0.1-0.1-0.2-0.2-0.4-0.4c-0.3-0.3-0.6-0.5-0.9-0.6c-0.3-0.2-0.5-0.3-0.8-0.4c-1.1-0.5-2.1-0.9-3.2-1.2c-0.5-0.2-1.1-0.3-1.7-0.4
		c-0.6-0.1-1.1-0.2-1.7-0.3c-1.1-0.2-2.1-0.3-3.3-0.4l-2.5-0.8v-0.2V42l-0.4-0.3l-7.6-4.5L43.2,37l-0.4,0.2l-0.2,0.1l-0.1,0l-0.1,0
		l-7.2,4.3L35,41.8l-0.3,0l-1.2-1.1v-0.6v-1.5v-0.4l-0.3-0.3l0,0v-1v-0.5l-0.4-0.3l-2.3-1.6l-0.2-0.2l-0.3,0l-5.9,0.2
		c-2,0.1-3.9,0.2-5.9,0.2l-0.9,0l0,0.9c0,0.3,0,0.5,0,0.8l-0.3,0l-0.1,0.8l0,0.3l0,0.3l0.1,0.2l0.1,0.2L17,46.8l-0.3,0l-0.1,0.5
		l-0.1,0.8l-0.1,0.5l0.4,0.2l0.2,0.1l0,1l-8.2,0.2l-8.7,0.3H0v27.1v5.3l62.4,36l62.4-36L124.7,72L124.7,72z M94.3,65.8L94.3,65.8
		C94.3,65.8,94.3,65.8,94.3,65.8L94.3,65.8z M94.3,65.9L94.3,65.9C94.4,65.9,94.3,65.9,94.3,65.9L94.3,65.9z"/>
	<g>
		<path class="st8" d="M81.3,7.8c-2.4,0-4.3,1.9-4.3,4.3c0,2.4,1.9,4.3,4.3,4.3c2.4,0,4.3-1.9,4.3-4.3S83.7,7.8,81.3,7.8z"/>
		<path class="st9" d="M77.4,8.2c0.2-0.2,0.5-0.4,0.7-0.6l-1.8-1.8l-1.3,1.3l1.8,1.8C76.9,8.7,77.1,8.4,77.4,8.2z"/>
		<path class="st9" d="M85.9,8.9l1.8-1.8l-1.3-1.3l-1.8,1.8c0.2,0.2,0.5,0.4,0.7,0.6C85.5,8.4,85.7,8.7,85.9,8.9z"/>
		<path class="st9" d="M75.7,12.2c0-0.3,0-0.6,0.1-0.9l-2.6,0v1.8h2.6C75.8,12.8,75.7,12.5,75.7,12.2z"/>
		<path class="st9" d="M82.2,6.7V4.1l-1.8,0v2.6c0.3,0,0.6-0.1,0.9-0.1C81.6,6.6,81.9,6.6,82.2,6.7z"/>
		<path class="st9" d="M86.8,11.3c0,0.3,0.1,0.6,0.1,0.9c0,0.3,0,0.6-0.1,0.9l2.6,0v-1.8H86.8z"/>
		<path class="st9" d="M76.8,15.4l-1.8,1.8l1.3,1.3l1.8-1.8c-0.2-0.2-0.5-0.4-0.7-0.6C77.1,15.9,76.9,15.7,76.8,15.4z"/>
		<path class="st9" d="M85.3,16.1c-0.2,0.2-0.5,0.4-0.7,0.6l1.8,1.8l1.3-1.3l-1.8-1.8C85.7,15.7,85.5,15.9,85.3,16.1z"/>
		<path class="st9" d="M80.4,17.7v2.6h1.8v-2.6c-0.3,0.1-0.6,0.1-0.9,0.1C81,17.8,80.7,17.7,80.4,17.7z"/>
	</g>
	<path class="st5" d="M103.6,3.9c-0.5,0-1,0.1-1.4,0.3c0-0.1,0-0.2,0-0.3c0-2.1-1.7-3.9-3.9-3.9c-1.3,0-2.4,0.6-3.1,1.6
		C94.5,0.6,93.3,0,92,0c-2,0-3.6,1.5-3.8,3.4c-0.5-0.2-0.9-0.3-1.5-0.3c-2.1,0-3.9,1.7-3.9,3.9c0,2.1,1.7,3.9,3.9,3.9
		c0.5,0,1-0.1,1.4-0.3c0,0.1,0,0.2,0,0.3c0,2.1,1.7,3.9,3.9,3.9c1.3,0,2.4-0.6,3.1-1.6c0.7,1,1.8,1.6,3.1,1.6c2,0,3.6-1.5,3.8-3.4
		c0.5,0.2,0.9,0.3,1.5,0.3c2.1,0,3.9-1.7,3.9-3.9C107.5,5.6,105.7,3.9,103.6,3.9z"/>
</g>
</svg>
