<?xml version="1.0" encoding="utf-8"?>
<!-- Generator: Adobe Illustrator 17.0.2, SVG Export Plug-In . SVG Version: 6.00 Build 0)  -->
<!DOCTYPE svg PUBLIC "-//W3C//DTD SVG 1.1//EN" "http://www.w3.org/Graphics/SVG/1.1/DTD/svg11.dtd">
<svg version="1.1" id="Layer_1" xmlns="http://www.w3.org/2000/svg" xmlns:xlink="http://www.w3.org/1999/xlink" x="0px" y="0px"
	 width="20px" height="30px" viewBox="0 0 20 30" enable-background="new 0 0 20 30" xml:space="preserve">
<path fill="#042A46" d="M17.768,24.68H2.232c-1.052,0-1.912-0.86-1.912-1.912V7.232c0-1.052,0.86-1.912,1.912-1.912h15.54
	c1.048,0,1.908,0.86,1.908,1.912v15.54C19.68,23.82,18.82,24.68,17.768,24.68z"/>
<rect x="3.384" y="10.164" fill="#D5D9DB" width="10.596" height="11.044"/>
<path fill="#FBFCFC" d="M16.864,9.764c-0.012,0-0.02-0.008-0.02-0.02l0,0c-0.092-0.008-0.18-0.06-0.24-0.164
	c-0.052-0.092-0.224-0.136-0.32-0.18C16.14,9.336,16,9.268,15.884,9.16c-0.216-0.204-0.42-0.472-0.46-0.764
	c-0.028-0.032-0.048-0.072-0.06-0.112H6.076v12.932h10.8V9.776c-0.004,0-0.004-0.004-0.008-0.004
	C16.868,9.768,16.868,9.764,16.864,9.764z"/>
<rect x="5.256" y="10.156" fill="#C2C5C6" width="0.82" height="11.616"/>
<rect x="5.6" y="21.056" fill="#FBFCFC" width="0.692" height="0.724"/>
<polygon fill="#BDC3C7" points="16.88,9.776 15.42,9.736 15.368,8.276 "/>
<path fill="#BDC3C7" d="M15.94,22.168"/>
<path fill="#FBFCFC" d="M16.884,20.012v1.144c0,0-0.08,0.472-0.5,0.624h-0.84"/>
<path fill="#C2C5C6" d="M6.088,20.016L6.072,21.16c0,0-0.076,0.472-0.448,0.616l-0.74-0.008"/>
<path fill="#D5D9DB" d="M5.224,19.984l0.036,1.144c0,0-0.052,0.472-0.4,0.636l-0.704,0.024"/>
<path fill="#D5D9DB" d="M3.384,20.012v1.144c0,0,0.08,0.472,0.5,0.624h0.84"/>
<rect x="6.288" y="21.208" fill="#FBFCFC" width="9.864" height="0.572"/>
<rect x="4.104" y="20.76" fill="#D5D9DB" width="0.708" height="0.8"/>
<rect x="7.416" y="10.156" fill="#34495E" width="7.768" height="1.42"/>
<rect x="7.416" y="12.296" fill="#7F8C8D" width="5.232" height="0.836"/>
<rect x="7.416" y="13.852" fill="#7F8C8D" width="5.232" height="0.836"/>
<rect x="7.416" y="15.408" fill="#7F8C8D" width="7.768" height="0.836"/>
<rect x="7.416" y="16.968" fill="#7F8C8D" width="7.768" height="0.836"/>
<rect x="7.416" y="18.524" fill="#7F8C8D" width="7.768" height="0.836"/>
<rect x="13.008" y="12.296" fill="#2980B9" width="2.176" height="2.396"/>
</svg>
