<?xml version="1.0" ?><svg enable-background="new 0 0 200 200" id="Слой_1" version="1.1" viewBox="0 0 200 200" xml:space="preserve" xmlns="http://www.w3.org/2000/svg" xmlns:xlink="http://www.w3.org/1999/xlink"><g><rect fill="#042A46" height="180" width="129.8" x="35.1" y="10"/><rect fill="#00A3AC" height="14.3" width="87.5" x="47.5" y="25.6"/><rect fill="#FFFFFF" height="4.9" width="36.1" x="114.6" y="50"/><rect fill="#FFFFFF" height="4.9" width="36.1" x="114.6" y="57.4"/><rect fill="#FFFFFF" height="4.9" width="23.9" x="114.6" y="64.9"/><path d="   M57.1,71.1l11.3-14.5l14.9,15.6c0,0,1.9-5.8,2.6-5.8c0.7,0,7.2,2.4,7.2,2.4l9.6-16.3" fill="none" stroke="#91D2D6" stroke-linecap="round" stroke-linejoin="round" stroke-miterlimit="10" stroke-width="2"/><line fill="none" stroke="#FFFFFF" stroke-miterlimit="10" stroke-width="2" x1="56.8" x2="56.8" y1="49.1" y2="80.8"/><rect fill="#FFFFFF" height="35.2" width="66.8" x="51.5" y="95.8"/><line fill="none" stroke="#FFFFFF" stroke-miterlimit="10" stroke-width="2" x1="107.4" x2="51.5" y1="77" y2="77"/><g><path d="M128.3,132.6c-0.4,0-0.7,0-1.1,0c0-0.1,0-0.1,0-0.2c0-7.6,0-15.3,0-22.9c0-0.1,0-0.1,0-0.2    c0,0,0-0.1,0-0.1c0.1,0,0.1,0,0.2,0c7.7,0,15.5,0,23.2,0c0,0.4,0,0.7,0,1.1c-0.1,0.2,0,0.4-0.1,0.6c0,0.4-0.1,0.8-0.1,1.2    c-0.1,0.7-0.2,1.4-0.4,2.1c-0.4,1.7-0.9,3.3-1.6,4.9c-0.6,1.2-1.2,2.4-2,3.5c-0.7,1-1.5,2-2.3,2.9c-0.8,0.8-1.6,1.5-2.4,2.2    c-1.1,0.9-2.3,1.6-3.5,2.3c-1.4,0.8-2.9,1.4-4.5,1.8c-0.9,0.3-1.8,0.5-2.8,0.6c-0.7,0.1-1.5,0.2-2.2,0.3    C128.6,132.5,128.5,132.5,128.3,132.6z" fill="#FFFFFF"/><path d="M150.7,109.1c-7.7,0-15.5,0-23.2,0c-0.1,0-0.1,0-0.2,0c0,0,0,0,0,0c0-0.1,0-0.1,0-0.2c0-7.7,0-15.4,0-23.1    c0-0.1,0-0.1,0-0.2c0,0,0,0,0,0c0.3,0,0.6,0,0.9,0c0.2,0,0.3,0,0.5,0c0.9,0,1.8,0.2,2.7,0.3c2,0.3,3.9,1,5.8,1.8    c2.6,1.2,5,2.9,7,5c1,1,1.9,2.1,2.6,3.3c1.3,1.9,2.3,4,3,6.2c0.5,1.7,0.8,3.5,1,5.2c0,0.2,0,0.5,0.1,0.7    C150.7,108.5,150.7,108.8,150.7,109.1z" fill="#00A3AC"/><path d="M126,132.6c0-0.1-0.1,0-0.1,0c-1,0-2.1-0.2-3.1-0.4c0,0,0,0-0.1,0c0,0,0-0.1,0-0.1    c0.2-1.3,0.5-2.5,0.7-3.8c0.4-1.9,0.7-3.8,1.1-5.8c0.4-1.8,0.7-3.6,1.1-5.5c0.4-1.9,0.7-3.8,1.1-5.8c0.1-0.7,0.3-1.4,0.4-2.1    c0,0,0,0,0,0c0,0.1,0,0.1,0,0.2c0,7.6,0,15.3,0,22.9c0,0.1,0,0.1,0,0.2C126.8,132.6,126.4,132.6,126,132.6z" fill="#C16409"/><path d="M103.7,110.1C103.7,110.1,103.7,110.1,103.7,110.1c0-0.6,0-1.2,0-1.7l0,0l0,0    C103.7,109,103.7,109.6,103.7,110.1z" fill="#B4B4B4"/><path d="M126.3,85.6C126.3,85.6,126.3,85.6,126.3,85.6c0.3,0,0.6,0,0.9,0c0,0,0,0,0,0c0,0,0,0,0,0    C126.9,85.6,126.6,85.6,126.3,85.6z" fill="#ADADAD"/><path d="M127.3,85.6C127.2,85.6,127.2,85.6,127.3,85.6c0.3,0,0.6,0,0.8,0c0,0,0,0,0,0    C127.8,85.6,127.5,85.6,127.3,85.6z" fill="#CECECE"/><path d="M127.2,109.3C127.2,109.3,127.2,109.3,127.2,109.3C127.2,109.2,127.2,109.2,127.2,109.3c0-0.1,0-0.1,0-0.2    c0,0,0,0,0,0c0,0,0,0,0,0C127.2,109.2,127.3,109.2,127.2,109.3z" fill="#ADADAD"/><path d="M127.2,109.1C127.2,109.1,127.2,109.1,127.2,109.1C127.2,109.1,127.1,109.1,127.2,109.1    c-1.9-0.8-3.7-1.5-5.5-2.2c-1.6-0.7-3.2-1.3-4.8-2c-2.1-0.8-4.1-1.7-6.2-2.5c-1.3-0.5-2.7-1.1-4-1.6c-0.4-0.2-0.8-0.3-1.2-0.5    c0.2-0.5,0.4-1,0.6-1.4c1-2.2,2.4-4.2,4-5.9c2.6-2.8,5.7-4.8,9.3-6c1.7-0.6,3.5-1,5.3-1.2c0.5-0.1,1-0.1,1.6-0.1    c0.3,0,0.6,0,0.9,0c0,0.1,0,0.1,0,0.2c0,7.7,0,15.4,0,23.1C127.2,109,127.2,109,127.2,109.1z" fill="#EDDFD0"/><path d="M105.5,100.3c0.4,0.1,0.8,0.3,1.2,0.5c1.3,0.5,2.7,1.1,4,1.6c2.1,0.8,4.1,1.7,6.2,2.5    c1.6,0.7,3.2,1.3,4.8,2c1.8,0.7,3.6,1.5,5.4,2.2c0,0,0,0,0.1,0c0,0,0,0,0,0.1c-0.1,0-0.2,0.1-0.3,0.1c-1.8,1.2-3.5,2.4-5.3,3.6    c-1.7,1.2-3.5,2.3-5.2,3.5c-2.3,1.5-4.5,3.1-6.8,4.6c-0.6,0.4-1.2,0.8-1.9,1.3c-0.2-0.2-0.3-0.5-0.5-0.7c-1.4-2.2-2.5-4.6-3.1-7.2    c-0.2-1-0.4-2.1-0.5-3.2c0-0.3,0-0.6-0.1-1c0-0.6,0-1.2,0-1.7c0-1.4,0.2-2.8,0.5-4.2c0.3-1.3,0.7-2.6,1.2-3.8    C105.4,100.4,105.4,100.4,105.5,100.3z" fill="#DCB084"/><path d="M107.8,122.2c0.6-0.4,1.2-0.8,1.9-1.3c2.3-1.5,4.5-3.1,6.8-4.6c1.7-1.2,3.5-2.3,5.2-3.5    c1.8-1.2,3.5-2.4,5.3-3.6c0.1-0.1,0.1-0.1,0.3-0.1c0,0,0,0.1,0,0.1c-0.1,0.7-0.3,1.4-0.4,2.1c-0.4,1.9-0.7,3.8-1.1,5.8    c-0.4,1.8-0.7,3.6-1.1,5.5c-0.4,1.9-0.7,3.8-1.1,5.8c-0.2,1.3-0.5,2.5-0.7,3.8c0,0,0,0.1,0,0.1c-0.3,0-0.7-0.1-1-0.2    c-1.3-0.3-2.5-0.7-3.7-1.2c-1.2-0.5-2.3-1.1-3.4-1.8c-0.8-0.5-1.5-1-2.2-1.6c-0.8-0.6-1.5-1.3-2.2-2.1    C109.3,124.4,108.5,123.4,107.8,122.2C107.8,122.3,107.8,122.3,107.8,122.2z" fill="#CC8037"/><path d="M143.8,92.5c-0.5,0.5-1.1,1.1-1.6,1.6c-1.9,1.9-3.9,3.9-5.8,5.8c-1.5,1.5-2.9,3-4.4,4.4    c-1.5,1.5-3,3-4.5,4.5c-0.1,0.1-0.1,0.2-0.2,0.2c0,0,0-0.1,0-0.1c0-0.7,0-1.4,0-2.1c0-2,0-3.9,0-5.9c0-1.9,0-3.7,0-5.6    c0-2,0-3.9,0-5.9c0-1.3,0-2.6,0-3.8c0,0,0-0.1,0-0.1c0.3,0,0.7,0,1,0c1.3,0,2.6,0.2,3.9,0.4c1.3,0.2,2.5,0.6,3.7,1.1    c0.9,0.3,1.7,0.7,2.5,1.2c0.9,0.5,1.7,1,2.6,1.6C141.9,90.7,142.8,91.5,143.8,92.5C143.8,92.4,143.8,92.5,143.8,92.5z" fill="#91D2D6"/></g><rect fill="#042A46" height="4.9" width="36.1" x="57.1" y="101.4"/><rect fill="#042A46" height="4.9" width="36.1" x="57.1" y="108.8"/><rect fill="#042A46" height="4.9" width="23.9" x="57.1" y="116.3"/><g><path d="M61.3,160.6l-2.1-10.8c0-0.2-0.1-0.3-0.2-0.5c-0.3-0.4-0.8-0.7-1.3-0.7h0c1.2-0.6,2-1.8,2-3.2    c0-2-1.6-3.5-3.5-3.5c-2,0-3.5,1.6-3.5,3.5c0,1.4,0.8,2.6,2,3.2h0c-0.6,0-1.1,0.4-1.4,0.9c-0.1,0.1-0.1,0.2-0.1,0.4l-2.1,10.8    c-0.1,0.6,0.3,1.1,0.8,1.2c0.6,0.1,1.1-0.3,1.2-0.8l0-0.2v3.1c0,0.1,0,0.2,0,0.2c0,0.1,0,0.1,0,0.2v8.9c0,0.6,0.5,1.1,1.1,1.1h0    c0.6,0,1.1-0.5,1.1-1.1v-7.8h2.1v7.8c0,0.6,0.5,1.1,1.1,1.1h0c0.6,0,1.1-0.5,1.1-1.1v-8.9c0-0.1,0-0.1,0-0.2c0-0.1,0-0.2,0-0.2    v-3.2l0.1,0.3c0.1,0.6,0.7,0.9,1.2,0.8C61.1,161.7,61.5,161.2,61.3,160.6z" fill="#C16409"/><path d="M74.3,160.6l-2.1-10.8c0-0.2-0.1-0.3-0.2-0.5c-0.3-0.4-0.8-0.7-1.3-0.7h0c1.2-0.6,2-1.8,2-3.2    c0-2-1.6-3.5-3.5-3.5s-3.5,1.6-3.5,3.5c0,1.4,0.8,2.6,2,3.2h0c-0.6,0-1.1,0.4-1.4,0.9c-0.1,0.1-0.1,0.2-0.1,0.4l-2.1,10.8    c-0.1,0.6,0.3,1.1,0.8,1.2c0.6,0.1,1.1-0.3,1.2-0.8l0-0.2v3.1c0,0.1,0,0.2,0,0.2c0,0.1,0,0.1,0,0.2v8.9c0,0.6,0.5,1.1,1.1,1.1h0    c0.6,0,1.1-0.5,1.1-1.1v-7.8h2.1v7.8c0,0.6,0.5,1.1,1.1,1.1h0c0.6,0,1.1-0.5,1.1-1.1v-8.9c0-0.1,0-0.1,0-0.2c0-0.1,0-0.2,0-0.2    v-3.2l0.1,0.3c0.1,0.6,0.7,0.9,1.2,0.8C74.1,161.7,74.4,161.2,74.3,160.6z" fill="#C16409"/><path d="M87.3,160.6l-2.1-10.8c0-0.2-0.1-0.3-0.2-0.5c-0.3-0.4-0.8-0.7-1.3-0.7h0c1.2-0.6,2-1.8,2-3.2    c0-2-1.6-3.5-3.5-3.5c-2,0-3.5,1.6-3.5,3.5c0,1.4,0.8,2.6,2,3.2h0c-0.6,0-1.1,0.4-1.4,0.9c-0.1,0.1-0.1,0.2-0.1,0.4l-2.1,10.8    c-0.1,0.6,0.3,1.1,0.8,1.2c0.6,0.1,1.1-0.3,1.2-0.8l0-0.2v3.1c0,0.1,0,0.2,0,0.2c0,0.1,0,0.1,0,0.2v8.9c0,0.6,0.5,1.1,1.1,1.1h0    c0.6,0,1.1-0.5,1.1-1.1v-7.8H83v7.8c0,0.6,0.5,1.1,1.1,1.1h0c0.6,0,1.1-0.5,1.1-1.1v-8.9c0-0.1,0-0.1,0-0.2c0-0.1,0-0.2,0-0.2    v-3.2l0.1,0.3c0.1,0.6,0.7,0.9,1.2,0.8C87,161.7,87.4,161.2,87.3,160.6z" fill="#C16409"/><path d="M100.2,160.6l-2.1-10.8c0-0.2-0.1-0.3-0.2-0.5c-0.3-0.4-0.8-0.7-1.3-0.7h0c1.2-0.6,2-1.8,2-3.2    c0-2-1.6-3.5-3.5-3.5s-3.5,1.6-3.5,3.5c0,1.4,0.8,2.6,2,3.2h0c-0.6,0-1.1,0.4-1.4,0.9c-0.1,0.1-0.1,0.2-0.1,0.4l-2.1,10.8    c-0.1,0.6,0.3,1.1,0.8,1.2c0.6,0.1,1.1-0.3,1.2-0.8l0-0.2v3.1c0,0.1,0,0.2,0,0.2c0,0.1,0,0.1,0,0.2v8.9c0,0.6,0.5,1.1,1.1,1.1h0    c0.6,0,1.1-0.5,1.1-1.1v-7.8H96v7.8c0,0.6,0.5,1.1,1.1,1.1h0c0.6,0,1.1-0.5,1.1-1.1v-8.9c0-0.1,0-0.1,0-0.2c0-0.1,0-0.2,0-0.2    v-3.2l0.1,0.3c0.1,0.6,0.7,0.9,1.2,0.8C100,161.7,100.4,161.2,100.2,160.6z" fill="#C16409"/></g><path d="M113.2,160.6l-2.1-10.8c0-0.2-0.1-0.3-0.2-0.5c-0.3-0.4-0.8-0.7-1.3-0.7h0c1.2-0.6,2-1.8,2-3.2   c0-2-1.6-3.5-3.5-3.5c-2,0-3.5,1.6-3.5,3.5c0,1.4,0.8,2.6,2,3.2h0c-0.6,0-1.1,0.4-1.4,0.9c-0.1,0.1-0.1,0.2-0.1,0.4l-2.1,10.8   c-0.1,0.6,0.3,1.1,0.8,1.2c0.6,0.1,1.1-0.3,1.2-0.8l0-0.2v3.1c0,0.1,0,0.2,0,0.2c0,0.1,0,0.1,0,0.2v8.9c0,0.6,0.5,1.1,1.1,1.1h0   c0.6,0,1.1-0.5,1.1-1.1v-7.8h2.1v7.8c0,0.6,0.5,1.1,1.1,1.1h0c0.6,0,1.1-0.5,1.1-1.1v-8.9c0-0.1,0-0.1,0-0.2c0-0.1,0-0.2,0-0.2   v-3.2l0.1,0.3c0.1,0.6,0.7,0.9,1.2,0.8C112.9,161.7,113.3,161.2,113.2,160.6z" fill="#FFFFFF"/><path d="M126.2,160.6l-2.1-10.8c0-0.2-0.1-0.3-0.2-0.5c-0.3-0.4-0.8-0.7-1.3-0.7h0c1.2-0.6,2-1.8,2-3.2   c0-2-1.6-3.5-3.5-3.5c-2,0-3.5,1.6-3.5,3.5c0,1.4,0.8,2.6,2,3.2h0c-0.6,0-1.1,0.4-1.4,0.9c-0.1,0.1-0.1,0.2-0.1,0.4l-2.1,10.8   c-0.1,0.6,0.3,1.1,0.8,1.2c0.6,0.1,1.1-0.3,1.2-0.8l0-0.2v3.1c0,0.1,0,0.2,0,0.2c0,0.1,0,0.1,0,0.2v8.9c0,0.6,0.5,1.1,1.1,1.1h0   c0.6,0,1.1-0.5,1.1-1.1v-7.8h2.1v7.8c0,0.6,0.5,1.1,1.1,1.1h0c0.6,0,1.1-0.5,1.1-1.1v-8.9c0-0.1,0-0.1,0-0.2c0-0.1,0-0.2,0-0.2   v-3.2l0.1,0.3c0.1,0.6,0.7,0.9,1.2,0.8C125.9,161.7,126.3,161.2,126.2,160.6z" fill="#FFFFFF"/></g></svg>