<?xml version="1.0" encoding="utf-8"?>
<!-- Generator: Adobe Illustrator 19.1.0, SVG Export Plug-In . SVG Version: 6.00 Build 0)  -->
<!DOCTYPE svg PUBLIC "-//W3C//DTD SVG 1.1//EN" "http://www.w3.org/Graphics/SVG/1.1/DTD/svg11.dtd">
<svg version="1.1" id="Layer_1" xmlns="http://www.w3.org/2000/svg" xmlns:xlink="http://www.w3.org/1999/xlink" x="0px" y="0px"
	 viewBox="0 0 201 69" style="enable-background:new 0 0 201 69;" xml:space="preserve">
<style type="text/css">
	.st0{fill-rule:evenodd;clip-rule:evenodd;}
	.st1{fill:#808285;}
</style>
<g>
	<path class="st0" d="M200.8,20c-0.1,0.5-0.2,0.9-0.4,1.4c-0.2,0.6-0.5,1.1-0.7,1.7c-0.2,0.6-0.4,1.3-0.7,1.9
		c-0.2,0.6-0.5,1.1-0.7,1.7c-0.2,0.6-0.5,1.2-0.7,1.8c0,0.1-0.1,0.2-0.1,0.3c-0.1,0.4,0,0.8-0.1,1.2c0,0.5-0.1,0.9-0.2,1.4
		c-0.1,0.5-0.2,1-0.3,1.5c-0.2,0.7-0.5,1.3-0.7,2c-0.1,0.4-0.1,0.9-0.3,1.3c0,0.1-0.1,0.1-0.1,0.1c0,0,0,0,0,0.1c0,0,0.1,0,0.1,0.1
		c0.1,0,0.1,0.1,0.1,0.1c0.1,0.1,0.3,0.1,0.4,0.2c0.1,0.1,0.2,0.4,0.3,0.5c0.1,0.1,0.2,0.2,0.3,0.3c0.1,0,0.1,0,0.2,0
		c0.1,0,0.3-0.1,0.3,0.1c0,0.1,0.2,0.4,0.3,0.6c0.2,0.3,0.5,0.5,0.7,0.8c0.2,0.2,0.3,0.3,0.5,0.5c0.1,0.1,0.3,0.3,0.4,0.4
		c0.1,0.2,0.3,0.4,0.4,0.6c0.1,0.1,0.1,0.2,0.1,0.4c0,0.1,0,0.2,0,0.3c-0.1,0.1-0.2,0.2-0.3,0.3c-0.2,0.2-0.4,0.3-0.7,0.4
		c-0.4,0.2-0.9,0.3-1.3,0.3c-0.3,0-0.6,0-0.9-0.1c-0.2,0-0.3,0-0.4-0.1c-0.1-0.1-0.2-0.3-0.3-0.4c-0.1-0.1-0.1-0.2-0.1-0.3
		c0,0,0-0.1-0.1-0.1c0,0-0.1-0.1-0.1-0.1c-0.1-0.1-0.2-0.2-0.2-0.3c-0.1-0.1-0.1-0.2-0.1-0.3c-0.1-0.1-0.1-0.3-0.1-0.4
		c-0.1-0.2-0.2-0.5-0.3-0.7c0-0.1-0.1-0.3-0.1-0.4c-0.1-0.2-0.2-0.4-0.3-0.6c0,0,0-0.1-0.1-0.1c0,0,0-0.1-0.1-0.1
		c-0.2,0.1,0,0.4,0,0.6c0,0.1,0.1,0.3,0,0.4c0,0-0.1,0-0.1,0c0,0,0,0.1,0,0.1c0,0.2,0.1,0.5,0.2,0.7c0.2,0.9,0.4,1.7,0.5,2.6
		c0.1,0.6,0.2,1.1,0.2,1.7c0,0.4,0,0.9,0.1,1.3c0,0.6,0.1,1.1,0.1,1.7c0,0.5,0.1,1,0.1,1.5c0,0.2,0,0.4,0,0.6c0,0.2,0.2,0.4,0.3,0.6
		c0,0.1,0.1,0.3,0.1,0.4c0.3,2,0.3,4,0.6,6c0.3,1.9,0.8,3.8,1,5.7c0.1,0.8,0.3,1.6,0,2.4c-0.2,0.6-0.7,0.7-0.9,1.3
		c0,0.2,0.1,0.5,0.1,0.7c0.1,0.4,0.5,1.4,0.3,1.7c-0.3,0.5-1.5,0.8-2.1,0.9c-0.4,0.1-1.1-0.2-1.5-0.4c-0.3-0.2-0.1-0.4-0.3-0.7
		c-0.2-0.2-0.1-0.8,0.1-1.1c0.2-0.3,0.2-0.4,0.3-0.8c0-0.2,0-0.4-0.2-0.6c-0.2-0.2-0.4-0.3-0.6-0.6c-0.4-0.7-0.4-1.6-0.7-2.4
		c-0.3-0.9-1-1.8-1.2-2.8c-0.3-0.9-0.2-1.9-0.4-2.8c-0.3-1.3-0.7-2.5-1-3.7c-0.3-1.1,0.3-2.9-0.7-3.2c-0.2-0.1-0.3,0.2-0.4,0.4
		c-0.3,0.6,0,1.4,0,2.1c0,1.2,0.2,2.3,0.3,3.5c0.1,1.1,0.1,2.1,0.3,3.2c0.2,1,0.6,2,0.7,3c0.1,0.5,0.1,0.9,0,1.4
		c0,0.4-0.1,0.8-0.3,1.1c-0.1,0.3-0.4,0.5-0.6,0.7c-0.1,0.1,0.1,0.1,0.1,0.3c0,0.1-0.2,0.3-0.1,0.4c0.3,0.3,0.5,0.5,0.6,1
		c0,0.3,0.2,0.4,0.2,0.7c0,0.4,0.2,0.3-0.1,0.5c-0.6,0.4-1.2,0.3-1.8,0.3c-0.5,0-1,0-1.5-0.2c-0.5-0.2-1-0.2-1.2-0.7
		c-0.2-0.4,0-0.7,0.1-1.1c0.1-0.2-0.1-0.3-0.1-0.5c0-0.3,0.1-0.4-0.2-0.6c-0.4-0.3-0.8-0.4-1.1-0.7c-0.4-0.5-0.6-1.1-0.8-1.7
		c-0.4-1.3-0.4-2.7-0.6-4c-0.2-1.7-0.4-3.4-0.6-5.1c-0.1-1.1,0-2.1-0.1-3.2c-0.1-0.7-0.4-1.3-0.5-1.9v0c-0.2-1.6-0.1-3.3-0.2-5
		c-0.1-1.9-0.1-3.8-0.1-5.7c0-1,0-2.1,0.1-3.1c0.1-1,0.2-2,0.3-3c0-0.5,0.3-1,0.1-1.4c0-0.1-0.1-0.1-0.2-0.1c-0.1,0-0.2,0.1-0.3,0.1
		c-0.1,0-0.2,0.1-0.3,0.1c-0.1,0-0.3-0.1-0.4-0.2c-0.1-0.1-0.3-0.3-0.4-0.4c-0.1-0.2-0.3-0.3-0.4-0.5c0-0.1,0-0.3,0-0.4
		c0-0.3,0.2-0.6,0.2-0.9c0-0.2-0.1-0.3-0.2-0.5c0-0.1,0-0.2,0-0.2c-0.1-0.2-0.5-0.3-0.5-0.4c0-0.1-0.1-0.4-0.1-0.6
		c0-0.2,0.2-0.3,0.2-0.5c0-0.1,0-0.3-0.1-0.4c0-0.1-0.1-0.4-0.1-0.6c0-0.1,0.1-0.2,0.1-0.3c0.1-0.5-0.3-1.5-0.3-1.6
		c0-0.1-0.2-1.2-0.3-1.8c0-0.5-0.1-0.9,0-1.4c0-0.3,0.1-0.5,0.2-0.8c0.1-0.5,0.2-1.1,0.2-1.6c0-0.4,0-0.9,0-1.3c0-0.4,0-0.8,0.2-1.2
		c0.1-0.4,0.5-0.7,0.7-1.1c0.4-0.6,0.7-1.1,1.1-1.7c0.2-0.2,0.3-0.4,0.5-0.6c0.2-0.1,0.4-0.1,0.6-0.2c0.2-0.2,0.2-0.4,0.2-0.7
		c0.1-0.2,0.3-0.4,0.2-0.6c0-0.1-0.2-0.1-0.3-0.1c-0.1-0.1-0.1-0.2-0.2-0.3c-0.1-0.3-0.3-0.6-0.4-0.9c-0.1-0.2-0.2-0.5-0.3-0.8
		c0-0.2-0.1-0.4,0-0.6c0-0.1,0.1-0.2,0.2-0.3c0-0.1,0.1-0.1,0.1-0.1c0,0,0.1,0,0.1,0c0,0,0.1,0,0.1,0c0,0,0,0,0,0c0,0,0-0.1,0-0.1
		c0-0.3,0-0.6,0-0.9c0-0.5,0.1-0.9,0.2-1.3c0.1-0.4,0.3-0.8,0.6-1.1c0.3-0.3,0.7-0.6,1.2-0.7c0.3-0.1,0.7-0.1,1-0.1
		c0.4,0,0.7,0,1.1,0c0.6,0.1,1.3,0.1,1.9,0.4c0.4,0.2,0.7,0.4,1,0.7c0.3,0.3,0.5,0.6,0.7,0.9c0.1,0.2,0.2,0.4,0.3,0.6
		c0.1,0.1,0.1,0.2,0.2,0.3c0,0,0,0.1,0,0.1c0.1,0.4,0.1,0.7,0.1,1.1c0,0.2,0,0.4,0,0.7c0,0.3-0.1,0.7-0.2,1
		c-0.1,0.1-0.2,0.2-0.3,0.4c0,0,0,0.1,0,0.1c0,0,0,0.1,0.1,0.1c0,0,0.1,0.1,0.1,0.1c0,0.1,0,0.2,0,0.3c0,0.1-0.1,0.2-0.1,0.3
		c-0.1,0.1-0.2,0.3-0.3,0.4c-0.1,0.1-0.3,0.2-0.4,0.3c0,0-0.1,0.1-0.1,0.1c-0.1,0.1-0.1,0.2-0.2,0.2c-0.1,0.1-0.1,0.3-0.2,0.4
		c-0.1,0.2-0.2,0.3-0.3,0.5c-0.1,0.2-0.3,0.3-0.5,0.4c-0.1,0.1-0.3,0.2-0.4,0.3c-0.1,0.1-0.2,0.1-0.3,0.1c0,0,0,0,0,0
		c0,0,0,0.1,0,0.1c0.1,0.1,0.2,0.1,0.3,0.1c0.2,0.1,0.3,0.1,0.5,0.2c0.1,0.1,0.3,0.1,0.4,0.2c0.2,0.2,0.3,0.4,0.4,0.7
		c0.1,0.3,0,0.6,0.1,0.8c0.1,0.1,0.2,0.3,0.3,0.3c0.1,0,0.2,0,0.3,0c0.1-0.1,0.1-0.2,0.2-0.3c0.1-0.1,0.2-0.3,0.2-0.4
		c0-0.1,0.1-0.3,0.1-0.4c0-0.1-0.1-0.3-0.1-0.4c-0.1-0.2-0.2-0.3-0.2-0.4c-0.1-0.3-0.1-0.6,0-0.8c0-0.2,0.1-0.5,0.1-0.7
		c0.1-0.2,0.1-0.4,0.2-0.7c0-0.1,0.1-0.2,0.2-0.3c0.1-0.1,0.2-0.2,0.2-0.3c0.1-0.1,0.1-0.3,0.1-0.4c0-0.3,0-0.5,0-0.8
		c0-0.2,0-0.4,0-0.7c0-0.3,0.1-0.5,0.1-0.8c0-0.2,0.1-0.5,0.2-0.7c0.1-0.3,0.2-0.6,0.3-0.9c0.2-0.3,0.4-0.7,0.6-0.9
		c0.3-0.3,0.7-0.6,1.1-0.8c0.3-0.2,0.7-0.3,1-0.4c0.4-0.1,0.8-0.2,1.2-0.2c0.5,0,1,0.1,1.4,0.2c0.5,0.2,0.9,0.4,1.3,0.7
		c0.3,0.2,0.7,0.4,0.9,0.7c0.2,0.2,0.5,0.5,0.6,0.8c0.2,0.4,0.2,0.8,0.3,1.1c0.1,0.3,0.1,0.6,0.1,0.9c0,0.2,0.1,0.3,0.1,0.5
		c0,0.2,0,0.5,0,0.7c0,0.3-0.2,0.5-0.3,0.8c-0.1,0.2-0.3,0.4-0.4,0.7c-0.1,0.2-0.1,0.3-0.2,0.5c-0.1,0.2-0.1,0.4-0.2,0.6
		c0,0.1-0.1,0.2-0.1,0.3c-0.1,0.2-0.2,0.3-0.2,0.5c-0.1,0.1-0.1,0.2-0.2,0.3c0,0-0.1,0.1-0.1,0.1c0,0,0,0,0,0c0,0.1,0.1,0.2,0.2,0.3
		c0.1,0.1,0.2,0.3,0.2,0.4c0,0.1,0,0.2,0,0.3c0,0.2,0.1,0.4,0.2,0.7c0,0.2,0.1,0.4,0.1,0.6c0,0.2,0,0.4,0,0.6c0,0.1,0,0.2,0,0.2
		s0.2,0.2,0.3,0.2c0.1,0,0.3,0,0.4,0c0.2,0,0.3,0.1,0.5,0.1c0.2,0.1,0.5,0.1,0.7,0.2c0.2,0.1,0.3,0.2,0.5,0.3
		c0.2,0.1,0.3,0.3,0.4,0.4c0.1,0.1,0.1,0.3,0.1,0.4c0.1,0.3,0.1,0.6,0.1,1C201,19.2,200.9,19.6,200.8,20z M179.6,35.7
		c0.2,0.1,0.4,0.3,0.5,0.5c0.1,0.1,0.1,0.3,0.2,0.5c0,0.2,0,0.5,0,0.7c0,0.2-0.2,0.4-0.2,0.6c-0.1,0.2-0.1,0.4-0.2,0.6
		c-0.1,0.2-0.3,0.5-0.4,0.7c-0.1,0.2-0.3,0.5-0.3,0.6c0,0.2-0.2,0.6-0.3,0.9c-0.1,0.2-0.1,0.4-0.2,0.6c0,0.2,0,0.4-0.1,0.5
		c0,0.2-0.1,0.3-0.2,0.4c-0.1,0.1-0.1,0.2-0.2,0.4c-0.1,0.1-0.2,0.2-0.2,0.4c-0.1,0.1-0.1,0.2-0.2,0.3c0,0-0.1,0-0.1,0
		c-0.1,0-0.1,0.1-0.2,0c-0.1,0-0.2-0.1-0.3-0.2c0,0,0,0-0.1,0c0,0-0.1,0-0.1,0c0,0-0.1,0.1-0.1,0.1c-0.1,0.1-0.1,0.2-0.1,0.2
		c0,0-0.1,0-0.1,0c-0.1,0-0.1,0-0.2,0c0,0-0.1,0-0.1,0c-0.1,0-0.1,0.1-0.1,0.1c0,0-0.1,0-0.1,0c-0.1,0-0.1,0-0.2,0
		c-0.1,0-0.1,0-0.2-0.1c-0.1,0-0.1-0.1-0.2-0.1c0,0-0.1,0-0.1,0c-0.1,0.1-0.1,0.3-0.2,0.5c0,0.2,0.1,0.4,0.1,0.6c0,0.2,0,0.4,0,0.5
		c0,0.1-0.1,0.5-0.2,0.7c0,0.2-0.1,0.4-0.1,0.6c-0.1,0.4-0.2,0.8-0.2,1.2c0,0.2-0.1,0.4-0.1,0.7c0,0.1,0,0.2-0.1,0.4
		c0,0.1-0.1,0.2-0.2,0.4c0,0,0,0.1,0,0.1c0,0,0,0.1,0,0.1c0.1,0.6,0.3,1.2,0.4,1.9c0,0.5,0,1,0,1.4c0,0.2-0.1,0.5-0.2,0.7
		c0,0.2,0,0.5,0,0.7c0,0.2,0.1,0.4,0.1,0.6c0,0.2,0,0.4,0,0.5c0,0.1,0,0.2,0,0.4c0,0.1,0.1,0.3,0.1,0.4c0,0.1,0,0.1-0.1,0.2
		c0,0.1,0,0.1,0,0.2c0,0,0,0.1,0,0.1c0,0.1,0.1,0.1,0.1,0.1c0,0,0,0.1,0,0.2c-0.1,0.5-0.4,1-0.6,1.4c-0.1,0.2-0.3,0.6-0.3,0.6
		c0,0.1-0.1,0.4-0.2,0.6c-0.1,0.1-0.1,0.3-0.2,0.4c-0.1,0.1-0.1,0.1-0.2,0.2c0,0,0,0.1,0,0.1c0,0.1,0.1,0.1,0.1,0.2
		c0.1,0.3,0.1,0.7,0.1,1.1c0,0.1-0.2,0.3-0.2,0.4c-0.1,0.2-0.2,0.4-0.2,0.6c0,0.2,0,0.3,0.1,0.5c0.1,0.1,0.2,0.2,0.3,0.4
		c0.1,0.2-0.1,0.4-0.1,0.6c0,0.2,0.1,0.4,0.1,0.6c0,0.1,0,0.3,0,0.4c0,0.2,0.1,0.3,0,0.5c-0.1,0.2-0.2,0.3-0.4,0.4
		c-0.2,0.1-0.5,0.1-0.7,0.1c-0.2,0-0.4-0.1-0.6-0.1c-0.2-0.1-0.3-0.3-0.5-0.2c-0.1,0,0,0.1-0.1,0.2c0,0.2,0,0.5,0.1,0.7
		c0,0.1,0.1,0.2,0.2,0.3c0.1,0.3,0.3,0.7,0.2,1c0,0.3-0.2,0.6-0.4,0.8c-0.1,0.2-0.3,0.3-0.6,0.4c-0.3,0.1-0.7,0-1-0.1
		c-0.3,0-0.6,0.1-0.9-0.1c-0.2-0.1-0.3-0.4-0.4-0.6c0-0.2,0-0.3,0-0.5c0-0.2,0.1-0.4,0.1-0.6c0-0.2-0.1-0.3-0.1-0.5
		c0-0.3,0.1-0.5,0.1-0.8c0-0.1-0.1-0.2-0.2-0.3c-0.1-0.2-0.3-0.2-0.4-0.4c-0.1-0.1-0.2-0.2-0.2-0.3c0-0.1-0.1-0.3,0-0.4
		c0.1-0.1,0.3-0.1,0.4-0.3c0.1-0.2,0-0.3-0.1-0.5c-0.1-0.2-0.3-0.4-0.4-0.6c-0.2-0.4-0.4-0.9-0.5-1.4c-0.1-0.5,0-1.1-0.1-1.6
		c-0.1-0.4-0.3-0.8-0.4-1.2c-0.1-0.6,0-1.1,0-1.7c-0.1-0.7-0.3-1.3-0.3-2c0-0.3,0-0.7,0-1.1c0-0.6-0.3-1.1-0.3-1.7
		c0-0.4,0.1-0.8,0.2-1.2c0-0.4,0.1-0.8,0.1-1.2c0,0,0-0.1,0-0.1c-0.1-0.1-0.4,0-0.5-0.2c-0.1-0.1,0.1-0.3,0.1-0.4
		c0-0.5-0.1-1-0.1-1.4c0-0.4,0-0.7-0.1-1.1c0-0.3,0-0.7-0.2-0.9c-0.1-0.2-0.3-0.2-0.4-0.3c-0.2-0.2-0.5-0.2-0.7-0.4
		c-0.1-0.2,0.1-0.5-0.1-0.7c-0.1-0.1-0.2-0.2-0.3-0.2c-0.2,0.1-0.2,0.5-0.2,0.7c-0.1,0.2-0.1,0.4-0.2,0.6c-0.1,0.3-0.3,0.5-0.4,0.8
		c-0.2,0.3-0.5,0.6-0.7,0.9c-0.1,0.2-0.3,0.4-0.4,0.6c-0.1,0.1-0.1,0.2-0.2,0.3c-0.1,0-0.1,0-0.2-0.1c-0.1,0-0.2-0.1-0.3-0.1
		c0,0-0.1,0-0.1,0c0,0.1,0,0.1,0.1,0.2c0,0.1,0.1,0.2,0.1,0.3c0,0.1,0.1,0.2,0.1,0.3c0,0.1,0.1,0.1,0.1,0.2c0,0,0,0.1,0,0.1
		c0,0,0,0.1,0,0.1c0,0-0.1,0-0.1,0c0,0-0.1,0-0.1,0c0,0-0.1-0.1-0.1-0.2c0,0-0.1-0.1-0.1-0.1c0,0-0.1-0.1-0.1-0.1c0,0,0-0.1,0-0.1
		c0,0,0,0,0,0c0,0,0,0,0,0c0,0,0,0,0,0c0,0,0,0,0,0c0,0,0,0.1,0,0.1c0,0.1,0,0.1,0,0.1c0,0.1,0.1,0.2,0.1,0.2c0,0.1,0.1,0.1,0.1,0.2
		c0,0.1,0.1,0.1,0.1,0.2c0,0,0,0.1,0,0.1c0,0,0,0.1,0,0.1c0,0,0,0-0.1,0.1c0,0-0.1,0-0.1,0c0,0-0.1-0.1-0.1-0.1c0,0,0-0.1-0.1-0.1
		c0,0,0,0,0-0.1c0,0,0,0,0,0c0,0,0,0.1,0,0.1c0,0-0.1,0-0.1,0c0,0-0.1,0-0.1,0c0,0-0.1,0-0.1,0c0,0,0,0,0,0c0,0,0,0-0.1,0
		c0,0,0,0,0,0c0,0,0,0,0,0c0,0.1,0,0.1,0.1,0.2c0,0.1,0,0.1,0,0.2c0,0.1,0,0.1,0,0.2c0,0,0,0.1-0.1,0.1c0,0-0.1,0-0.1,0
		c0,0-0.1,0-0.1,0c0,0,0,0-0.1-0.1c0,0,0,0,0,0c0,0,0,0,0,0c0,0,0,0,0,0c0,0,0,0,0,0c0,0-0.1,0.1-0.1,0.1c0,0-0.1,0-0.1,0
		c-0.1,0-0.1,0-0.1-0.1c0,0,0,0,0-0.1c0,0,0-0.1,0-0.1c0-0.1,0-0.1,0-0.2c0-0.1-0.1-0.1-0.1-0.2c0-0.1-0.1-0.2-0.1-0.3
		c0,0.4-0.1,0.7-0.1,1.1c0,0.7,0,1.4,0,2.2c0,0.6,0,1.2,0,1.8c0,0.5,0.1,0.9,0.1,1.4c0,0.4,0.1,0.9,0.1,1.3c0,0.7,0.1,1.4,0,2.1
		c-0.1,0.4-0.3,0.7-0.3,1.1c-0.1,0.5,0,1,0,1.5c0,0.5-0.1,0.9-0.2,1.4c-0.1,0.4-0.2,0.8-0.3,1.2c0,0.1-0.2,0.2-0.2,0.4
		c0,0,0,0.1,0,0.1c0.1,0.2,0.3,0.4,0.4,0.6c0.1,0.2,0.1,0.4,0.1,0.6c0.1,0.2,0.1,0.4,0.2,0.5c0.1,0.2,0.3,0.2,0.5,0.4
		c0.1,0.1,0.3,0.3,0.4,0.4c0,0.1,0.1,0.2,0.1,0.3c0,0.2-0.3,0.5-2.3,0.6c-1.1,0.1-1.6-0.1-2.1-0.5c-0.1-0.1-0.1-0.3-0.2-0.5
		c0-0.1,0-0.3-0.1-0.4c-0.1-0.1-0.2-0.2-0.3-0.4c-0.1-0.1-0.2-0.3-0.3-0.4c-0.1-0.2-0.1-0.3-0.1-0.5c0-0.2,0.1-0.4,0.2-0.6
		c0.1-0.1,0.2-0.2,0.2-0.3c0-0.1,0.1-0.2,0.1-0.3c0-0.4-0.1-0.8-0.1-1.2c0-0.5-0.1-0.9-0.1-1.4c0-0.9,0.2-1.8,0.3-2.7
		c0.1-0.6,0.2-1.2,0.2-1.8c0-0.8,0-1.6,0-2.4c0-0.4,0-0.8,0-1.2c-0.1-0.7-0.3-1.4-0.5-2.1c-0.2-1.1-0.2-2.1-0.4-3.2
		c-0.1-0.7-0.3-1.4-0.5-2.1c-0.1-0.4-0.1-0.8-0.3-1.2c-0.1-0.1-0.2-0.2-0.3-0.3c0,0-0.1,0-0.1,0c-0.1,0-0.1,0.1-0.1,0.2
		c-0.3,0.7-0.2,1.4-0.4,2.1c-0.2,1-0.5,1.9-0.7,2.9c-0.2,1.1-0.3,2.2-0.4,3.3c-0.1,0.5-0.1,1-0.1,1.5c-0.1,0.6-0.1,1.1-0.2,1.7
		c0,0.4-0.1,0.8-0.1,1.2c0,0.5,0,1.1,0,1.6c-0.1,0.6-0.2,1.1-0.3,1.7c-0.1,0.7-0.1,1.3-0.1,2c0,0.5-0.1,1.1,0,1.6
		c0,0.2,0.1,0.3,0.2,0.5c0.1,0.2,0.2,0.3,0.2,0.4c0.1,0.2,0.1,0.4,0.1,0.6c0,0.2-0.1,0.4-0.2,0.7c-0.1,0.2-0.1,0.5-0.2,0.7
		c-0.1,0.2-0.3,0.3-0.5,0.5c-0.1,0.1-0.2,0.2-0.3,0.2c-0.7,0.3-1.5,0.2-2.3,0.2c-1.7,0.1-1.3-0.8-1.2-1l0.2-0.8
		c0.1-0.2,0.2-1.4,0.2-1.6c0-0.3-0.4-0.9-0.4-1.3c0-1-0.6-0.9-0.4-2.8c0.1-0.8,0-1.6,0-2.4l0,0c-0.1,0.4-0.3,0.8-0.5,1.1
		c0,0,0,0.1-0.1,0.1c-0.1,0.1-0.2,0.3-0.2,0.4c-0.1,0.2-0.2,0.3-0.3,0.5c-0.5,0.7-1.7,0.4-2.5,0.5c-1.5,0.1-3.1,0.1-4.6,0
		c-0.1,0-0.3,0-0.4,0c0,0-0.1,0-0.1,0c-0.1,0-0.3,0-0.4,0c0,0-0.1,0-0.1,0c-0.1,0-0.2,0-0.3,0c-0.2,0-0.4,0-0.5,0c0,0.3,0,0.5,0,0.8
		c0,0.5-0.2,0.9-0.2,1.4c0,0.3,0.1,0.7,0.1,1c-0.1,0.3-0.5,0.6-0.5,0.9c0,0.2,0.2,0.3,0.2,0.5c0,0.2,0,0.4-0.1,0.6
		c-0.1,0.2-0.2,0.3-0.3,0.5c0,0.2,0.2,0.4,0.1,0.6c-0.1,0.3-0.3,0.6-0.6,0.7c-0.4,0.2-0.8,0-1.2,0c-0.5,0-1,0.1-1.4,0.1
		c-0.3,0-0.6-0.2-0.9-0.3c-0.1,0-0.2-0.2-0.3-0.1c-0.2,0-0.3,0.3-0.5,0.4c-0.4,0.2-0.9,0.2-1.3,0.3c-0.6,0.1-1.3,0.2-1.9,0.1
		c-0.2,0-0.5-0.1-0.7-0.2c-0.1-0.1-0.2-0.3-0.2-0.4c-0.1-0.3-0.1-0.7,0-1c0.1-0.5,0.5-0.9,0.6-1.5c0-0.2,0.1-0.4,0-0.6
		c-0.1-0.1-0.4,0.1-0.6,0c-0.2-0.1-0.3-0.4-0.3-0.6c-0.3-0.7-0.5-1.6-0.8-2.4c-0.2-0.7-0.4-1.5-0.7-2.1c-0.2-0.6-0.7-1.1-0.9-1.7
		c-0.1-0.3,0-0.6,0-0.8c0-0.4,0.1-0.8,0.1-1.2c0-0.6-0.2-1.1-0.2-1.7c-0.1-1.2,0-2.4-0.1-3.6c-0.1-0.7-0.4-1.5-0.5-2.2
		c-0.1-0.9,0-1.9,0-2.8c0-1-0.1-2-0.1-3c-0.1-0.9-0.2-1.8-0.3-2.7c-0.1-0.8-0.4-2-0.4-2.5c0-0.5,0-1.2,0-1.8c0-0.7,0.2-1.4-0.1-2.1
		c0-0.1-0.1-0.1-0.2-0.2c-0.1-0.1-0.2-0.1-0.3-0.2c-0.2-0.2-0.6-0.3-0.6-0.6c0-0.3,0-0.8,0-1.2c0-1.4,0.3-2.9,0.3-4.3
		c0-0.7-0.2-1.4-0.3-2.1c-0.1-1,0-1.9,0-2.9c0-0.8-0.2-1.5-0.2-2.3c0-0.6,0-1.2,0-1.8c0-0.2,0-0.5,0-0.7c0-0.1,0-0.2-0.1-0.2
		c-0.1-0.1-0.2,0-0.3,0c-0.5,0.1-1,0.3-1.5,0.3c-0.7,0.1-1.5,0.1-2.2,0.1c-0.9,0-1.9,0.1-2.8-0.1c-0.6-0.1-1.2-0.4-1.8-0.7
		c-0.3-0.2-0.6-0.4-0.8-0.6c-0.2-0.1-0.4-0.2-0.5-0.4c-0.1-0.2-0.2-0.4-0.2-0.6c-0.1-0.5,0-0.9,0.1-1.4c0-0.7,0-1.4,0.1-2.1
		c0.1-0.5,0.2-0.9,0.4-1.3c0.2-0.3,0.6-0.6,0.6-1c0-0.2-0.2-0.3-0.3-0.4c-0.3-0.7-0.4-1.4-0.3-2.1c0-0.7,0.1-1.5,0.4-2.1
		c0.3-0.7,0.7-1.3,1.2-1.9c0.5-0.5,1.1-0.9,1.7-1.3c0.6-0.5,1.3-1,2-1.2c1.1-0.4,2.2-0.6,3.4-0.7c1.3-0.1,2.7,0,4-0.1
		c1.1,0,2.1-0.1,3.2-0.1c0.9,0.1,1.9,0.1,2.8,0.4c0.8,0.3,1.5,0.7,2.1,1.2c0.6,0.4,1.2,0.9,1.7,1.3c0.6,0.4,1.1,0.9,1.7,1.4
		c0.7,0.7,1.3,1.4,2,2.1c0.5,0.5,0.9,1,1.4,1.4c0.5,0.4,1,0.8,1.5,1.1c0.3,0.2,0.6,0.3,1,0.4c0.3,0.1,0.7,0.1,0.9,0.3
		c0.1,0.1,0.1,0.2,0.1,0.3c0,0.1,0.1,0.2,0,0.3c-0.1,0.1-0.2,0.1-0.3,0.2c-0.5,0.4-0.9,0.8-1.4,1.1c-0.8,0.5-2.2,1.3-2.5,1.4
		c-0.3,0.1-1.1,0.2-1.3,0.7c0,0.1,0,0.2,0.1,0.2c0.1,0.1,0.1,0,0.2,0.1c0.1,0.1,0.2,0.1,0.3,0.2c0.1,0.2,0.2,0.5,0.2,0.7
		c0,0.2,0,0.5,0,0.7c0,0.1-0.1,0.2-0.1,0.3c0,0.1,0.1,0.2,0.1,0.3c0.2,0.3,0.4,0.5,0.5,0.8c0.3,0.7,0.3,1.6,0.5,2.4
		c0.2,1.2,0.6,2.3,0.8,3.5c0.2,1.3,0.3,2.7,0.5,4c0.1,1.1,0.3,2.1,0.4,3.2c0.1,0.9,0.3,1.8,0.3,2.8c0,1.3-0.1,2.6-0.2,3.9
		c0,0.3,0,0.6-0.1,0.9c0,0.2-0.1,0.5-0.2,0.7c-0.1,0.2-0.2,0.4-0.3,0.6c-0.1,0.4-0.1,0.8,0.1,1.2c0.1,0.3,0.4,0.4,0.4,0.7
		c0.1,0.3,0,0.7-0.1,1c0,0,0,0,0,0.1c0.5,2.3,1.3,5.5,1.8,7.9c0,0.1,0,0.1,0,0.2c0.1,0.4,0.2,0.7,0.2,1c0.2,0.9,2.1-0.3,2.8,0.3
		c0.1,0.2,0.3,0.3,0.4,0.5c0,0.1,0.1,0.1,0.1,0.2c0.1,0.1,0.2,0.3,0.2,0.4c0,0.1,0.1,0.1,0.1,0.2c0.1,0.1,0.1,0.3,0.2,0.4
		c0,0.1,0,0.1,0.1,0.2c0.1,0.2,0.1,0.3,0.2,0.5c0,0.1,0,0.1,0,0.2c0,0.2,0.1,0.3,0.1,0.5c0,0,0,0.1,0,0.1c0,0.2,0.1,0.4,0.1,0.6
		c0,0,0,0.1,0,0.1c0,0.2,0,0.4,0.1,0.7c0,0,0,0,0,0c0,0.2,0,0.5,0,0.7c0-0.2,0.1-0.4,0.1-0.6c0.1-0.4,0.2-0.8,0.3-1.2
		c0.1-0.6,0.1-1.2,0.1-1.8c0.1-1,0.1-2,0.2-3c0.1-1.1,0.2-2.1,0.3-3.2c0.1-1.1,0.1-2.1,0.2-3.2c0-0.6,0-1.3,0.1-1.9
		c0-0.2,0.1-0.4,0.2-0.6c0.1-1.2-0.1-2.3-0.1-3.5c0-1,0-2.1-0.1-3.1c0-0.4-0.1-0.8-0.1-1.2c0,0,0,0,0-0.1c-0.1-0.1-0.4-0.1-0.6-0.1
		c-0.5-0.1-1-0.1-1.5-0.3c-0.2,0-0.4-0.1-0.5-0.2c-0.2-0.1-0.4-0.3-0.6-0.5c-0.1-0.2-0.2-0.5-0.3-0.7c0-0.4,0.1-0.8,0.1-1.2
		c0.1-0.4,0.1-0.9,0.2-1.3c0-0.1,0.1-0.2,0.1-0.3c0,0,0,0,0,0c0,0-0.1,0-0.1,0c-0.2-0.3,0-0.7,0.1-1c0.1-0.7,0.4-1.4,0.6-2
		c0.2-0.5,0.3-1,0.5-1.5c0.2-0.5,0.4-1,0.8-1.5c0.2-0.3,0.5-0.5,0.9-0.7c0.5-0.2,1-0.3,1.5-0.4c0.3-0.1,0.6,0,0.9-0.1
		c0.2-0.1,0.4-0.2,0.6-0.3c0.1,0,0.2-0.1,0.3-0.1c0.1,0,0.1,0,0.2,0c0.1,0,0.1,0,0.2,0c0.2,0,0.3-0.1,0.5-0.1
		c0.1-0.1,0.2-0.2,0.3-0.3c0.1-0.1,0.1-0.2,0.1-0.4c0-0.1,0-0.2,0-0.3c-0.1-0.2-0.2-0.3-0.3-0.5c-0.1-0.2-0.3-0.3-0.4-0.5
		c-0.2-0.3-0.4-0.6-0.5-0.9c-0.2-0.4-0.3-0.8-0.4-1.2c-0.1-0.4-0.2-0.9-0.2-1.3c0-0.3,0-0.6,0.1-0.9c0.1-0.3,0.2-0.5,0.4-0.8
		c0.2-0.3,0.4-0.6,0.7-0.8c0.3-0.3,0.7-0.5,1.2-0.6c0.2-0.1,0.5-0.1,0.7-0.1l0,0c0.1,0,0.2,0,0.2,0c0.4,0,0.8,0,1.3,0.1
		c0.4,0.1,0.7,0.3,1,0.5c0.3,0.2,0.7,0.5,0.9,0.8c0.2,0.3,0.4,0.6,0.5,0.9c0.1,0.3,0.2,0.6,0.2,0.9c0.1,0.3,0.1,0.7,0.1,1
		c0,0.3-0.1,0.5-0.3,0.8c-0.1,0.2-0.2,0.3-0.3,0.5c-0.1,0.2-0.1,0.4-0.1,0.6c0,0.2,0,0.4-0.1,0.6c-0.1,0.2-0.2,0.4-0.3,0.6
		c-0.1,0.2-0.1,0.3-0.2,0.4c-0.1,0.1-0.2,0.2-0.2,0.3c0,0,0,0,0,0.1c0,0,0,0,0,0.1c0,0.4,0,0.7,0,1.1c0,0.2,0,0.3,0.1,0.5
		c0,0,0,0.1,0.1,0.1c0.1,0.1,0.3,0.2,0.4,0.2c0.4,0.2,0.7,0.3,1.1,0.5c0.4,0.2,0.9,0.4,1.2,0.6c0.4,0.3,0.8,0.6,1.2,0.9
		c0.2,0.2,0.5,0.5,0.6,0.8c0.2,0.4,0.4,0.8,0.5,1.3c0,0.3,0,0.5,0,0.8c0.2,2.1,0.6,6.3,0.8,6.8c0.1,0.7,0.3,1.4,0.4,2.1
		c0.1,1,0.1,2,0.1,3.1c0,0,0,0.1,0,0.1c0.2-0.5,0.3-0.9,0.4-1c0.1-0.1,0.4-1.1,0.7-1.6c0.2-0.3,0.4-0.6,0.6-0.9
		c0-0.1,0.1-0.1,0.1-0.2c0-0.1,0-0.3,0-0.4c0-0.1,0-0.1,0-0.2c0-0.2,0.1-0.3,0.2-0.5c0-0.1,0.1-0.2,0.1-0.3c0,0,0.1-0.1,0.1-0.1
		c0.1,0,0.1,0,0.2-0.1c0.1,0,0.1,0,0.2,0c0.3-0.1,0.6-0.1,0.8-0.2c0.2-0.1,0.4-0.1,0.6-0.2c0.2-0.1,0.3-0.1,0.5-0.1
		c0.1,0,0.2-0.1,0.3-0.1c0,0,0,0,0,0c0,0,0,0,0-0.1c-0.1-0.2-0.3-0.3-0.4-0.5c-0.1-0.2-0.2-0.3-0.3-0.5c-0.1-0.2-0.1-0.4-0.2-0.6
		c0-0.1-0.1-0.3-0.1-0.5c0,0,0-0.1,0-0.1c0,0-0.1-0.1-0.1-0.1c-0.1-0.1-0.1-0.2-0.1-0.2c0-0.1,0-0.2-0.1-0.3
		c-0.1-0.2-0.1-0.4-0.2-0.5c-0.1-0.2-0.1-0.3-0.2-0.5c-0.1-0.3-0.1-0.6-0.1-0.9c0-0.3,0-0.6,0.1-0.9c0.1-0.3,0.2-0.7,0.4-1
		c0.1-0.2,0.2-0.5,0.4-0.7c0.2-0.2,0.5-0.4,0.7-0.5c0.2-0.1,0.5-0.2,0.7-0.3c0.2,0,0.4-0.1,0.7-0.1v0c0.1,0,0.2,0,0.2,0
		c0.4,0,0.7,0,1.1,0.1c0.2,0.1,0.4,0.1,0.6,0.2c0.2,0.1,0.4,0.2,0.5,0.4c0.2,0.1,0.3,0.3,0.4,0.5c0.2,0.3,0.3,0.5,0.4,0.8
		c0.1,0.2,0.1,0.4,0.1,0.6c0,0.2,0,0.3,0,0.5c0,0.2,0,0.4,0,0.6c0,0.1,0.1,0.2,0.1,0.3c0,0.1,0,0.2,0,0.2c0,0,0,0,0,0.1
		c0,0.1,0,0.1,0,0.2c0,0.1,0,0.3,0,0.4c0,0.1-0.1,0.2-0.1,0.4c0,0.1-0.1,0.1-0.1,0.2c0,0.1-0.1,0.1-0.1,0.2c0,0.1-0.1,0.1-0.1,0.2
		c0,0,0,0.1,0,0.1c0,0.1,0,0.1-0.1,0.2c0,0-0.1,0.1-0.1,0.1c0,0-0.1,0-0.1,0c-0.1,0-0.1,0-0.2,0c0,0,0,0.1,0,0.1c0,0.1,0,0.2,0,0.2
		c0,0.1,0,0.2,0,0.3c0,0.1,0.1,0.2,0.1,0.3c0.1,0.1,0.1,0.2,0.2,0.2c0.1,0.1,0.2,0.1,0.3,0.2c0.1,0,0.2,0.1,0.2,0.1
		c0.1,0,0.1,0,0.2,0c0.2,0,0.4,0,0.5,0.1c0.3,0,0.5,0.1,0.8,0.2c0.2,0.1,0.5,0.1,0.7,0.2c0.1,0,0.2,0,0.3,0.1c0.1,0,0.2,0,0.3,0.1
		c0,0,0.1,0,0.1,0c0,0,0.1,0.1,0.1,0.1c0,0,0,0.1,0,0.1c0,0,0.1,0,0.1,0c0.1,0,0.1,0,0.2,0c0.1,0,0.1,0.1,0.2,0.2
		c0.1,0.1,0.1,0.1,0.2,0.2c0.1,0,0.2,0,0.3,0c0.1,0,0.1,0,0.2,0.1c0.1,0.1,0.1,0.2,0.2,0.2c0.4,0.3,1,0.2,1.5,0.3
		c0.4,0.1,0.8,0.3,1.2,0.5C179.1,35.4,179.4,35.5,179.6,35.7z M138.1,43.7c0,0-0.1,0-0.1,0c-0.2-0.1-0.5-0.2-0.6-0.3
		c-0.1-0.1-0.2-0.4-0.3-0.6c-0.1-0.3-0.2-0.6-0.2-1c0-0.4,0.1-0.9,0.2-1.3c0-0.2,0.1-0.4,0.1-0.6c0-0.2,0-0.3,0-0.5
		c0-0.2,0.2-0.3,0.2-0.5c0-0.1-0.2-0.2-0.2-0.3c0-0.1,0.1-0.3,0.1-0.4c0-0.2,0-0.4,0-0.6c0-0.3-0.2-0.5-0.2-0.8c0-0.2,0-0.5-0.1-0.7
		c-0.1-0.5-0.1-1-0.2-1.5c-0.1-0.6-0.3-1.1-0.3-1.7c-0.1-0.6,0-1.1-0.1-1.7c-0.1-0.4-0.3-0.8-0.4-1.2c-0.1-0.4-0.1-0.8-0.1-1.2
		c0-0.3-0.1-0.5-0.2-0.7c-0.1,0.5-0.2,1-0.1,1.4c0.1,0.4,0.1,0.9,0.2,1.3c0.1,0.3,0.2,0.5,0.2,0.8c0,0.2,0.1,0.4,0.1,0.6
		c0,0.2-0.2,0.4-0.2,0.6c0,0.2,0.1,0.4,0.1,0.6c0,0.3,0.1,0.6,0.1,0.9c0,0.3,0,0.5,0,0.8c0,0.7,0.1,1.4,0.1,2.1
		c0.1,1.3,0.2,2.6,0.1,3.9c0,0.7-0.2,1.4-0.3,2.1c-0.1,0.7-0.2,1.4-0.2,2.1c-0.1,1.4-0.1,2.8-0.1,4.2c0,0.7-0.1,1.4-0.1,2.1
		c0,0,0,0,0,0c0,0,0.1,0,0.1,0c0.1,0,0.1,0,0.2,0c0,0,0.1,0,0.1,0c0.1,0,0.1,0,0.2,0c0,0,0.1,0,0.1,0c0,0,0.1,0,0.1,0
		c0,0,0.1,0,0.1,0c0,0,0.1,0,0.1,0c0,0,0.1,0,0.1,0c0,0,0.1,0,0.1-0.1c0,0,0,0,0.1,0c0,0,0.1-0.1,0.1-0.1c0,0,0,0,0,0
		c0-0.1,0.1-0.1,0.1-0.2c0.1-1.1,0.3-2.2,0.4-3.3C137.7,46.4,137.9,45,138.1,43.7L138.1,43.7z M141.9,50c0-0.1,0-0.2,0-0.2
		c0-0.2-0.1-0.3-0.1-0.5c0-0.1,0-0.2,0-0.2c0-0.1-0.1-0.3-0.1-0.4c0-0.1,0-0.2,0-0.2c0-0.1,0-0.2-0.1-0.4c0-0.1,0-0.2,0-0.2
		c0-0.1,0-0.2-0.1-0.3c0-0.1,0-0.1,0-0.2c0-0.1-0.1-0.2-0.1-0.4c0-0.1,0-0.1,0-0.2c0-0.1-0.1-0.3-0.1-0.4c0,0,0,0,0-0.1
		c-0.2-1.1-0.5-2-0.7-3.1c0,0,0,0,0,0c0-0.2-0.1-0.3-0.1-0.5v0c0,0.1-0.1,0.1-0.1,0.2c-0.2,0.2-0.4,0.5-0.6,0.6
		c-0.2,0.1-0.4,0.1-0.6,0.1c-0.1,0-0.3,0-0.3-0.1c0,0,0,0,0,0c-0.4,2.4-0.6,4.5-0.8,7.4c-0.1,0.6,1.1-0.2,1.7-0.2
		c0.8,0,2.7,0.9,2.5,0.1C142,50.5,141.9,50.3,141.9,50z M160.8,44.9c-0.2,0-0.4-0.1-0.5-0.2c-0.1-0.1-0.2-0.3-0.3-0.4
		c-0.1-0.2-0.2-0.5-0.2-0.7c0-0.3,0-0.7,0.1-1.1c0-0.2,0.1-0.3,0.1-0.5c0-0.1,0-0.2,0-0.4c0-0.1,0.2-0.3,0.1-0.4
		c0-0.1-0.2-0.1-0.2-0.3c0-0.1,0.1-0.2,0.1-0.3c0-0.1,0-0.3,0-0.4c0-0.2-0.2-0.4-0.2-0.6c0-0.2-0.1-0.4-0.1-0.5
		c-0.1-0.4-0.2-0.7-0.3-1.1c-0.1-0.4-0.2-0.7-0.3-1.1l0-0.8l-0.6-2.6c-0.1,0-0.1,0.1-0.2,0.2c0,0-0.1,0.1-0.1,0.2
		c0,0.1-0.1,0.1-0.1,0.2c-0.1,0.6,0.1,1.2,0.2,1.9c0.2,1.3,0.2,2.7,0.7,4c0.1,0.2,0.2,0.3,0.2,0.4c0,0.2,0,0.3,0,0.5
		c0,0.2,0,0.3,0.1,0.5c0.1,1,0.3,2,0.4,3c0.1,0.7,0.2,1.5,0.2,2.2c0,0.5-0.1,1-0.2,1.6c0,0.1,0,0.1,0,0.2c0-0.1,0-0.2,0.1-0.2
		c0-0.1,0-0.2,0.1-0.2c0-0.1,0.1-0.1,0.1-0.2c0,0,0-0.1,0-0.1c0-0.1,0-0.1,0-0.2c0.1-0.3,0.2-0.6,0.3-0.9c0.2-0.5,0.4-0.9,0.5-1.4
		c0-0.1,0-0.1,0-0.2C160.9,44.9,160.8,44.9,160.8,44.9z M171.8,54.7c0-0.1-0.1-0.2-0.1-0.3c0-0.1-0.1-0.1-0.1-0.2
		c0-0.1,0-0.1-0.1-0.2c0-0.1,0-0.3-0.1-0.4c0-0.2,0.1-0.5-0.1-0.5l0,0c0,0,0,0,0,0c0,0,0,0.1,0,0.1c0,0.2,0.1,0.4,0.1,0.6
		c0,0.2,0,0.4,0,0.6c-0.1,0.7-0.2,1.4-0.3,2c-0.1,0.4-0.5,0.9-0.2,1.2c0.1,0.1,0.1,0,0.2,0c0.1,0,0.1,0,0.2-0.1c0,0,0,0,0,0
		c0,0,0-0.1,0-0.1c0-0.1,0-0.2,0-0.2c0-0.2-0.1-0.3-0.1-0.4c0-0.1,0-0.3,0.1-0.4c0-0.2,0.1-0.3,0.1-0.5c0.1-0.2,0.2-0.4,0.3-0.6
		c0-0.1,0.1-0.2,0.1-0.4C171.8,54.9,171.8,54.8,171.8,54.7z M176.9,38.3c0,0-0.1-0.1-0.1-0.1c0,0,0-0.1-0.1-0.2c0,0-0.1,0-0.1,0
		c-0.2,0-0.3-0.1-0.5-0.1c0,0,0,0,0,0v0c-0.1,0-0.2,0-0.3,0c-0.2,0-0.4,0.1-0.5,0.2c-0.1,0.1-0.2,0.2-0.3,0.4c0,0.2,0.1,0.4,0.1,0.5
		c0,0.1,0.1,0.3,0.1,0.4c0,0.1-0.1,0.3-0.1,0.4c0,0.1,0.1,0.2,0.1,0.3c0,0.1,0,0.2,0,0.4c0,0.1-0.1,0.2-0.2,0.3c0,0.1,0,0.3,0,0.4
		c0,0.1-0.1,0.2-0.1,0.3c0,0.1,0,0.2,0.1,0.2c0.1,0,0.1,0,0.2,0c0.1,0,0.1-0.1,0.1-0.1c0-0.1,0.1-0.1,0.1-0.2
		c0.1-0.1,0.2-0.1,0.3-0.2c0.1-0.1,0.1-0.1,0.2-0.2c0.1,0,0.2,0,0.3-0.1c0.1,0,0.1-0.1,0.2-0.1c0.1-0.1,0.1-0.2,0.1-0.3
		c0.1-0.1,0.1-0.3,0.2-0.4c0-0.1,0.1-0.1,0.1-0.1c0-0.1,0-0.2,0-0.2c0-0.1-0.1-0.2-0.1-0.2c0-0.1,0-0.2,0-0.3c0-0.1,0-0.2,0-0.4
		c0-0.1,0-0.1,0.1-0.2C176.9,38.5,177,38.4,176.9,38.3C177,38.3,176.9,38.3,176.9,38.3z M98.2,34c-0.6,0.6-1.5,0.9-2.8,0.9
		c-0.3,0-0.6,0-0.8-0.1c-0.2,0-0.5-0.1-0.9-0.2l0.4-2.5c0.1,0,0.2,0,0.3,0c0.1,0,0.2,0,0.3,0c0.6,0,1-0.1,1.3-0.4
		c0.3-0.3,0.5-0.6,0.7-1l0.4-1l-4.5-12.7h3.7l2.1,7.4l0.1,0.7h0.1l2.4-8.1h3.7l-5.1,14.6C99.3,32.6,98.8,33.4,98.2,34z M84.9,26.4
		c0.4,0.7,1,1,1.9,1c0.6,0,1.1-0.2,1.5-0.5c0.4-0.4,0.6-0.8,0.6-1.4h3.1l0,0.1c0,1.3-0.5,2.4-1.4,3.2c-1,0.9-2.2,1.3-3.7,1.3
		c-1.9,0-3.3-0.6-4.4-1.8c-1-1.2-1.5-2.7-1.5-4.6v-0.4c0-1.9,0.5-3.4,1.5-4.6c1-1.2,2.5-1.8,4.4-1.8c1.6,0,2.8,0.4,3.8,1.3
		c1,0.9,1.4,2.1,1.4,3.5l0,0.1h-3.1c0-0.7-0.2-1.2-0.5-1.6c-0.4-0.4-0.9-0.7-1.5-0.7c-0.9,0-1.5,0.4-1.9,1.1
		c-0.4,0.7-0.6,1.6-0.6,2.7v0.4C84.3,24.8,84.5,25.7,84.9,26.4z M69,27.8l6-8h-5.8v-2.6h10.1v1.9l-6.1,8.1h6.3v2.6H69V27.8z
		 M72.6,15.5l2.3-3.1h3.6l0,0.1l-3.2,3H72.6z M63.6,28.2c-0.4,0.6-0.9,1-1.4,1.3C61.6,29.9,61,30,60.3,30c-1.6,0-2.8-0.6-3.6-1.7
		c-0.9-1.1-1.3-2.6-1.3-4.5v-0.2c0-2,0.4-3.6,1.3-4.8c0.9-1.2,2.1-1.8,3.7-1.8c0.6,0,1.2,0.1,1.7,0.4c0.5,0.3,1,0.7,1.3,1.2v-6.9
		h3.4v18.3h-2.9L63.6,28.2z M63.4,20.8c-0.2-0.4-0.5-0.7-0.9-0.9c-0.4-0.2-0.8-0.3-1.3-0.3c-0.8,0-1.4,0.4-1.8,1.1
		c-0.4,0.7-0.6,1.7-0.6,2.9v0.2c0,1.1,0.2,2,0.6,2.6c0.4,0.6,1,1,1.8,1c0.5,0,0.9-0.1,1.3-0.3c0.4-0.2,0.7-0.5,0.9-0.9V20.8z
		 M47.8,30c-1.9,0-3.3-0.6-4.4-1.8c-1.1-1.2-1.6-2.8-1.6-4.7v-0.2c0-1.9,0.5-3.4,1.6-4.6c1.1-1.2,2.5-1.8,4.4-1.8
		c1.9,0,3.3,0.6,4.4,1.8c1.1,1.2,1.6,2.8,1.6,4.7v0.2c0,1.9-0.5,3.5-1.6,4.7C51.2,29.4,49.7,30,47.8,30z M50.4,23.3
		c0-1.1-0.2-2-0.6-2.7c-0.4-0.7-1.1-1.1-2-1.1c-0.9,0-1.5,0.4-1.9,1.1c-0.4,0.7-0.6,1.6-0.6,2.7v0.2c0,1.2,0.2,2.1,0.6,2.8
		c0.4,0.7,1.1,1,2,1c0.9,0,1.5-0.4,1.9-1.1c0.4-0.7,0.6-1.6,0.6-2.8V23.3z M36.4,22.2c0-1-0.2-1.7-0.5-2.1c-0.3-0.4-0.9-0.6-1.6-0.6
		c-0.5,0-0.9,0.1-1.2,0.3c-0.4,0.2-0.7,0.4-0.9,0.7v9.3h-3.4V11.5h3.4v7.2c0.4-0.6,0.9-1,1.5-1.4c0.6-0.3,1.2-0.5,1.9-0.5
		c1.3,0,2.4,0.4,3.1,1.3c0.8,0.9,1.1,2.2,1.1,4.1v7.5h-3.4V22.2z M19.8,26.4c0.4,0.7,1,1,1.9,1c0.6,0,1.1-0.2,1.5-0.5
		c0.4-0.4,0.6-0.8,0.6-1.4h3.1l0,0.1c0,1.3-0.5,2.4-1.4,3.2c-1,0.9-2.2,1.3-3.7,1.3c-1.9,0-3.3-0.6-4.4-1.8c-1-1.2-1.5-2.7-1.5-4.6
		v-0.4c0-1.9,0.5-3.4,1.5-4.6c1-1.2,2.5-1.8,4.4-1.8c1.6,0,2.8,0.4,3.8,1.3c1,0.9,1.4,2.1,1.4,3.5l0,0.1h-3.1c0-0.7-0.2-1.2-0.5-1.6
		c-0.4-0.4-0.9-0.7-1.5-0.7c-0.9,0-1.5,0.4-1.9,1.1c-0.4,0.7-0.6,1.6-0.6,2.7v0.4C19.2,24.8,19.4,25.7,19.8,26.4z M6.8,30
		c-2,0-3.7-0.5-4.9-1.6C0.6,27.4,0,26,0,24V12.7h3.4V24c0,1.1,0.3,2,0.9,2.5c0.6,0.6,1.4,0.8,2.5,0.8c1.1,0,1.9-0.3,2.5-0.8
		c0.6-0.6,0.9-1.4,0.9-2.5V12.7h3.4V24c0,1.9-0.6,3.4-1.9,4.4C10.5,29.5,8.9,30,6.8,30z"/>
	<g>
		<g>
			<path class="st1" d="M0,42.8h1.7v-1.5H0V42.8z M3.4,42.8h1.7v-6.3H3.4V42.8z M3.4,34.9h1.7v-1.3H3.4V34.9z M10,36.3
				c-0.4,0-0.7,0.1-1,0.3c-0.3,0.2-0.6,0.4-0.8,0.8l-0.1-0.9H6.5v6.3h1.7v-4.6c0.1-0.2,0.3-0.3,0.5-0.4c0.2-0.1,0.4-0.1,0.6-0.1
				c0.3,0,0.6,0.1,0.8,0.3c0.2,0.2,0.3,0.5,0.3,0.9v4H12v-4c0-0.9-0.2-1.5-0.5-1.9C11.1,36.5,10.6,36.3,10,36.3z M16.1,33.5
				c-0.7,0-1.3,0.2-1.7,0.6c-0.4,0.4-0.6,0.9-0.6,1.6v0.7h-0.9v1.2h0.9v5.1h1.7v-5.1h1.3v-1.2h-1.3v-0.7c0-0.3,0.1-0.5,0.2-0.7
				c0.1-0.2,0.4-0.2,0.6-0.2c0.1,0,0.2,0,0.3,0c0.1,0,0.2,0,0.3,0l0.1-1.3c-0.2,0-0.3-0.1-0.5-0.1C16.4,33.5,16.2,33.5,16.1,33.5z
				 M22.5,37.2c-0.5-0.6-1.3-0.9-2.2-0.9c-0.9,0-1.7,0.3-2.2,0.9c-0.5,0.6-0.8,1.4-0.8,2.3v0.1c0,1,0.3,1.7,0.8,2.3
				c0.5,0.6,1.3,0.9,2.2,0.9c0.9,0,1.7-0.3,2.2-0.9c0.5-0.6,0.8-1.4,0.8-2.3v-0.1C23.3,38.6,23,37.8,22.5,37.2z M21.6,39.7
				c0,0.6-0.1,1-0.3,1.4c-0.2,0.4-0.5,0.5-1,0.5c-0.5,0-0.8-0.2-1-0.5c-0.2-0.3-0.3-0.8-0.3-1.4v-0.1c0-0.6,0.1-1,0.3-1.4
				c0.2-0.4,0.5-0.5,1-0.5c0.4,0,0.8,0.2,1,0.5c0.2,0.4,0.3,0.8,0.3,1.4V39.7z"/>
		</g>
	</g>
</g>
</svg>
