<?xml version="1.0" encoding="utf-8"?>
<!-- Generator: Adobe Illustrator 19.2.0, SVG Export Plug-In . SVG Version: 6.00 Build 0)  -->
<!DOCTYPE svg PUBLIC "-//W3C//DTD SVG 1.1//EN" "http://www.w3.org/Graphics/SVG/1.1/DTD/svg11.dtd">
<svg version="1.1" id="Layer_1" xmlns="http://www.w3.org/2000/svg" xmlns:xlink="http://www.w3.org/1999/xlink" x="0px" y="0px"
	 viewBox="0 0 55.5 64.1" style="enable-background:new 0 0 55.5 64.1;" xml:space="preserve">
<style type="text/css">
	.st0{fill:#E5E7EA;}
	.st1{opacity:0.5;fill:#010101;fill-opacity:0.4;enable-background:new    ;}
	.st2{fill:#FBCC1E;}
	.st3{fill:#FAE158;}
	.st4{fill:#21B2D1;}
	.st5{fill:#48C6E4;}
	.st6{fill:#5C5D60;}
	.st7{fill:#3F3F40;}
	.st8{fill:#FFFFFF;}
	.st9{fill:#F15757;}
</style>
<g id="hexagon-flat_32_" transform="translate(173.000000, 138.000000)">
	<polygon id="Polygon-48_32_" class="st0" points="-145.3,-138 -117.5,-122 -117.5,-90 -145.3,-73.9 -173,-90 -173,-122 	"/>
</g>
<g>
	<g>
		<polygon class="st1" points="41.2,37.6 39.1,33.6 31.3,32 28.9,27.8 30.3,24.5 26.6,25.9 23.2,28.2 14.1,15.6 0,31.5 0,48 
			27.7,64.1 41.1,50.1 39.7,41.8 		"/>
	</g>
</g>
<g id="Multicolor">
	<g>
		<g>
			
				<rect x="18" y="10.2" transform="matrix(0.7071 -0.7071 0.7071 0.7071 -14.0439 29.643)" class="st2" width="21.6" height="43.1"/>
		</g>
		<g>
			
				<rect x="19.6" y="14.1" transform="matrix(0.7071 -0.7071 0.7071 0.7071 -17.9093 28.0789)" class="st3" width="10.7" height="43.1"/>
		</g>
		<g>
			
				<rect x="29.2" y="37.2" transform="matrix(0.7071 -0.7071 0.7071 0.7071 -18.6725 40.8431)" class="st4" width="21.6" height="11.5"/>
		</g>
		<g>
			
				<rect x="30.8" y="41.1" transform="matrix(0.7071 -0.7071 0.7071 0.7071 -22.5372 39.279)" class="st5" width="10.7" height="11.5"/>
		</g>
		<g>
			<path class="st6" d="M11.9,21.2c-0.6,0.6-0.6,1.5,0,2l2.4,2.3c-0.5,1.3-0.7,5.1,0.5,5.6c0.3,0.1,0.6,0,0.8-0.2l1.2-2.8l1.9,1.9
				l0.8,3.2c0.1,0.3,0.4,0.4,0.7,0.4c0.3,0,0.6-0.2,0.7-0.5l0.4-2.7L24,30c0.3-0.1,0.5-0.4,0.5-0.7c0-0.3-0.2-0.6-0.4-0.7L20.8,28
				l-1.9-1.9l2.9-1.2c0.3-0.2,0.3-0.5,0.2-0.8c-0.5-1.3-4.3-1-5.6-0.5L14,21.2C13.4,20.7,12.5,20.7,11.9,21.2z"/>
		</g>
		<g>
			<g>
				<path class="st7" d="M38.9,32.4l-1.6,0.2l-0.2,1.5c0,0.1,0,0.2-0.1,0.2c-0.1,0.1-0.3,0.1-0.4,0c-0.1-0.1-0.1-0.2-0.1-0.3
					l0.2-1.4l-1.4,0.2c-0.1,0-0.2,0-0.3-0.1s-0.1-0.3,0-0.4c0.1-0.1,0.1-0.1,0.2-0.1l1.5-0.2l0.2-1.6c0-0.1,0-0.2,0.1-0.2
					c0.1-0.1,0.3-0.1,0.4,0c0.1,0.1,0.1,0.2,0.1,0.3L37.3,32l1.5-0.2c0.1,0,0.2,0,0.3,0.1s0.1,0.3,0,0.4
					C39,32.4,38.9,32.4,38.9,32.4z"/>
			</g>
			<g>
				<path class="st7" d="M36.6,29.9c0,0.1,0,0.2-0.1,0.2c-0.1,0.1-0.3,0.1-0.4,0c-0.1,0-0.1,0-0.1-0.1c0-0.2,0-0.4-0.2-0.6
					s-0.5-0.2-0.9,0.1l-1.4,1.4c-0.1,0.1-0.3,0.1-0.4,0c-0.1-0.1-0.1-0.3,0-0.4l1.4-1.4c0.3-0.3,0.6-0.4,0.9-0.4s0.6,0.1,0.8,0.4
					C36.5,29.3,36.6,29.6,36.6,29.9z"/>
			</g>
			<g>
				<path class="st7" d="M33.1,27.1l1.1,1.1c0.1,0.1,0.1,0.3,0,0.4s-0.2,0.1-0.3,0.1l-2.5,0.2c-0.2,0-0.3,0-0.4-0.1s-0.1-0.3,0-0.4
					l1.4-1.4l-0.2-0.2c-0.1-0.1-0.1-0.3,0-0.4s0.2-0.1,0.3,0l0.2,0.2l0.4-0.4c0.1-0.1,0.3-0.1,0.4,0c0.1,0.1,0.1,0.3,0,0.4
					L33.1,27.1z M32.8,27.5l-1,1l1.7-0.2L32.8,27.5z"/>
			</g>
			<g>
				<path class="st7" d="M32,25.5l-2.7,0.8l1,1c0.1,0.1,0.1,0.3,0,0.4s-0.3,0.1-0.4,0l-1.4-1.4c-0.1-0.1-0.1-0.3,0-0.4
					s0.2-0.1,0.3-0.1l2.9-0.9c0.1,0,0.3,0,0.3,0.1c0.1,0.1,0.1,0.3,0,0.4C32.1,25.5,32.1,25.5,32,25.5z"/>
			</g>
		</g>
		<g>
			<g>
				<path class="st8" d="M37.9,49.2l-0.2-1.6l-1.5-0.2c-0.1,0-0.2,0-0.2-0.1c-0.1-0.1-0.1-0.3,0-0.4c0.1-0.1,0.2-0.1,0.3-0.1
					l1.4,0.2l-0.2-1.4c0-0.1,0-0.2,0.1-0.3s0.3-0.1,0.4,0c0.1,0.1,0.1,0.1,0.1,0.2l0.2,1.5l1.6,0.2c0.1,0,0.2,0,0.2,0.1
					c0.1,0.1,0.1,0.3,0,0.4c-0.1,0.1-0.2,0.1-0.3,0.1l-1.5-0.2l0.2,1.5c0,0.1,0,0.2-0.1,0.3s-0.3,0.1-0.4,0
					C37.9,49.3,37.9,49.2,37.9,49.2z"/>
			</g>
			<g>
				<path class="st8" d="M40.3,46.9c-0.1,0-0.2,0-0.2-0.1c-0.1-0.1-0.1-0.3,0-0.4c0.1-0.1,0.1-0.1,0.2-0.1c0.2,0,0.4,0,0.6-0.2
					c0.2-0.2,0.2-0.5-0.1-0.9l-1.4-1.4c-0.1-0.1-0.1-0.3,0-0.4c0.1-0.1,0.3-0.1,0.4,0l1.4,1.4c0.3,0.3,0.4,0.6,0.4,0.9
					c0,0.3-0.1,0.6-0.4,0.8C41,46.8,40.6,46.9,40.3,46.9z"/>
			</g>
			<g>
				<path class="st8" d="M43.2,43.4l-1.1,1.1c-0.1,0.1-0.3,0.1-0.4,0c-0.1-0.1-0.1-0.2-0.1-0.3l-0.2-2.5c0-0.2,0-0.3,0.1-0.4
					c0.1-0.1,0.3-0.1,0.4,0l1.4,1.4l0.2-0.2c0.1-0.1,0.3-0.1,0.4,0c0.1,0.1,0.1,0.2,0,0.3L43.6,43l0.4,0.4c0.1,0.1,0.1,0.3,0,0.4
					c-0.1,0.1-0.3,0.1-0.4,0L43.2,43.4z M42.8,43.1l-1-1l0.2,1.7L42.8,43.1z"/>
			</g>
			<g>
				<path class="st8" d="M44.7,42.3l-0.8-2.7l-1,1c-0.1,0.1-0.3,0.1-0.4,0c-0.1-0.1-0.1-0.3,0-0.4l1.4-1.4c0.1-0.1,0.3-0.1,0.4,0
					c0.1,0.1,0.1,0.2,0.1,0.3l0.9,2.9c0,0.1,0,0.3-0.1,0.3c-0.1,0.1-0.3,0.1-0.4,0C44.8,42.5,44.8,42.4,44.7,42.3z"/>
			</g>
		</g>
		<g>
			<g>
				
					<rect x="27.6" y="40.2" transform="matrix(0.7071 -0.7071 0.7071 0.7071 -20.1945 33.0502)" class="st9" width="4.3" height="1.4"/>
			</g>
			<g>
				
					<rect x="23.6" y="36.2" transform="matrix(0.7071 -0.7071 0.7071 0.7071 -18.5521 29.0208)" class="st9" width="4.3" height="1.4"/>
			</g>
			<g>
				
					<rect x="20.8" y="33.7" transform="matrix(0.7071 -0.7071 0.7071 0.7071 -17.3804 26.1856)" class="st9" width="4.3" height="0.7"/>
			</g>
			<g>
				
					<rect x="24.9" y="37.8" transform="matrix(0.7071 -0.7071 0.7071 0.7071 -19.0522 30.2856)" class="st9" width="4.3" height="0.7"/>
			</g>
			<g>
				
					<rect x="26.1" y="38.7" transform="matrix(0.7071 -0.7071 0.7071 0.7071 -19.6225 31.521)" class="st9" width="4.3" height="1.4"/>
			</g>
			<g>
				
					<rect x="22.1" y="34.7" transform="matrix(0.7071 -0.7071 0.7071 0.7071 -17.9098 27.521)" class="st9" width="4.3" height="1.4"/>
			</g>
		</g>
		<g>
			
				<rect x="22" y="13.1" transform="matrix(0.7071 -0.7071 0.7071 0.7071 -7.2021 21.7571)" class="st8" width="1.4" height="12.9"/>
		</g>
		<g>
			
				<rect x="24" y="11.1" transform="matrix(0.7071 -0.7071 0.7071 0.7071 -5.2024 22.6135)" class="st8" width="1.4" height="12.9"/>
		</g>
		<g>
			
				<rect x="30.2" y="40.5" transform="matrix(0.7071 -0.7071 0.7071 0.7071 -18.066 38.7353)" class="st8" width="15.1" height="1.4"/>
		</g>
	</g>
</g>
</svg>
