<?xml version="1.0" encoding="utf-8"?>
<!-- Generator: Adobe Illustrator 19.2.0, SVG Export Plug-In . SVG Version: 6.00 Build 0)  -->
<!DOCTYPE svg PUBLIC "-//W3C//DTD SVG 1.1//EN" "http://www.w3.org/Graphics/SVG/1.1/DTD/svg11.dtd">
<svg version="1.1" id="Layer_1" xmlns="http://www.w3.org/2000/svg" xmlns:xlink="http://www.w3.org/1999/xlink" x="0px" y="0px"
	 viewBox="0 0 55.5 64.1" style="enable-background:new 0 0 55.5 64.1;" xml:space="preserve">
<style type="text/css">
	.st0{fill:#8DA451;}
	.st1{opacity:0.5;fill:#010101;fill-opacity:0.4;enable-background:new    ;}
	.st2{fill:#FCB717;}
	.st3{fill:#BB792A;}
</style>
<g id="hexagon-flat_5_" transform="translate(173.000000, 138.000000)">
	<polygon id="Polygon-48_5_" class="st0" points="-145.3,-138 -117.5,-122 -117.5,-90 -145.3,-73.9 -173,-90 -173,-122 	"/>
</g>
<polygon class="st1" points="39.5,16.3 15.8,16.4 0,29.9 0,48 25.1,62.6 42.2,46.4 "/>
<g>
	<g>
		<ellipse class="st2" cx="27.2" cy="32.6" rx="20.3" ry="20.3"/>
		<g>
			<path class="st3" d="M27.2,50.1c-9.6,0-17.4-7.8-17.4-17.5c0-9.6,7.8-17.5,17.4-17.5s17.4,7.8,17.4,17.5
				C44.7,42.2,36.9,50.1,27.2,50.1z M27.2,16.5c-8.9,0-16.1,7.2-16.1,16.1s7.2,16.1,16.1,16.1s16.1-7.2,16.1-16.1
				C43.4,23.7,36.1,16.5,27.2,16.5z"/>
		</g>
	</g>
	<g>
		<path class="st3" d="M31.3,40c-0.8,0.5-2,1-3.7,1c-2,0-3.8-0.8-5-2.2c-0.9-1-1.5-2.5-1.8-4.2h-1.5v-1.2h1.4c0-0.1,0-0.2,0-0.4
			c0-0.4,0-0.8,0-1.1h-1.4v-1.2H21c0.3-1.7,1-3.1,2-4.2c1.3-1.3,2.8-2,4.9-2c1.4,0,2.6,0.4,3.3,0.8l-0.5,1.6
			c-0.6-0.4-1.6-0.7-2.8-0.7c-1.3,0-2.4,0.5-3.2,1.4c-0.7,0.7-1.2,1.8-1.5,3.1H30v1.2h-7c0,0.3,0,0.7,0,1c0,0.1,0,0.3,0,0.4h7v1.2
			h-7c0.2,1.4,0.7,2.5,1.4,3.2c0.9,1,2.1,1.4,3.5,1.4c1.3,0,2.4-0.5,3-0.8L31.3,40z"/>
	</g>
</g>
</svg>
