<?xml version="1.0" encoding="utf-8"?>
<!-- Generator: Adobe Illustrator 19.2.0, SVG Export Plug-In . SVG Version: 6.00 Build 0)  -->
<!DOCTYPE svg PUBLIC "-//W3C//DTD SVG 1.1//EN" "http://www.w3.org/Graphics/SVG/1.1/DTD/svg11.dtd">
<svg version="1.1" id="Layer_1" xmlns="http://www.w3.org/2000/svg" xmlns:xlink="http://www.w3.org/1999/xlink" x="0px" y="0px"
	 viewBox="0 0 79.6 62.6" style="enable-background:new 0 0 79.6 62.6;" xml:space="preserve">
<style type="text/css">
	.st0{fill:#FCB717;}
	.st1{fill:#D59A29;}
	.st2{fill:#BB792A;}
</style>
<g>
	<g>
		<g>
			<g>
				<path class="st0" d="M33.2,51.4H1.6C0.7,51.4,0,52.1,0,53v8c0,0.9,0.7,1.6,1.6,1.6h40.9C38.4,59.9,35.2,56,33.2,51.4z"/>
				<g>
					<rect x="5.1" y="51.4" class="st1" width="4.2" height="11.1"/>
					<rect x="14.1" y="51.4" class="st1" width="4.2" height="11.1"/>
					<rect x="23.1" y="51.4" class="st1" width="4.2" height="11.1"/>
					<path class="st1" d="M33.2,51.4h-1v11.1h4.2v-5.8C35.1,55.1,34,53.3,33.2,51.4z"/>
					<path class="st1" d="M41.2,61.7v0.9h1.2C42,62.3,41.6,62,41.2,61.7z"/>
				</g>
			</g>
			<g>
				<path class="st0" d="M31,41c0-0.8,0-1.6,0.1-2.4H5c-0.9,0-1.6,0.7-1.6,1.6v8c0,0.9,0.7,1.6,1.6,1.6h27.5C31.6,47,31,44.1,31,41z
					"/>
				<g>
					<rect x="8.5" y="38.6" class="st1" width="4.2" height="11.1"/>
					<rect x="17.6" y="38.6" class="st1" width="4.2" height="11.1"/>
					<rect x="26.6" y="38.6" class="st1" width="4.2" height="11.1"/>
				</g>
			</g>
			<g>
				<path class="st0" d="M36,25.7H2.4c-0.9,0-1.6,0.7-1.6,1.6v8c0,0.9,0.7,1.6,1.6,1.6h29C32,32.8,33.6,29,36,25.7z"/>
				<g>
					<rect x="5.9" y="25.7" class="st1" width="4.2" height="11.1"/>
					<rect x="14.9" y="25.7" class="st1" width="4.2" height="11.1"/>
					<rect x="23.9" y="25.7" class="st1" width="4.2" height="11.1"/>
					<path class="st1" d="M35.9,25.7h-3v5.4C33.7,29.2,34.7,27.4,35.9,25.7z"/>
				</g>
			</g>
			<g>
				<path class="st0" d="M57.1,14.9c2,0,3.9,0.2,5.8,0.6v-1.1c0-0.9-0.7-1.6-1.6-1.6H5c-0.9,0-1.6,0.7-1.6,1.6v8
					C3.4,23.3,4.1,24,5,24h32.2C42,18.4,49.2,14.9,57.1,14.9z"/>
				<g>
					<rect x="8.5" y="12.9" class="st1" width="4.2" height="11.1"/>
					<rect x="17.6" y="12.9" class="st1" width="4.2" height="11.1"/>
					<rect x="26.6" y="12.9" class="st1" width="4.2" height="11.1"/>
					<path class="st1" d="M39.8,21.5v-8.6h-4.2V24h1.7C38.1,23.1,38.9,22.3,39.8,21.5z"/>
					<path class="st1" d="M48.8,16.2v-3.4h-4.2V18C46,17.3,47.4,16.7,48.8,16.2z"/>
					<path class="st1" d="M57.1,14.9c0.2,0,0.4,0,0.7,0v-2h-4.2v2.2C54.8,14.9,56,14.9,57.1,14.9z"/>
				</g>
			</g>
			<g>
				<path class="st0" d="M60,9.6c0,0.9-0.7,1.6-1.6,1.6H2.1c-0.9,0-1.6-0.7-1.6-1.6v-8C0.5,0.7,1.2,0,2.1,0h56.3
					C59.3,0,60,0.7,60,1.6V9.6L60,9.6z"/>
				<g>
					<rect x="5.6" y="0" class="st1" width="4.2" height="11.1"/>
					<rect x="14.6" y="0" class="st1" width="4.2" height="11.1"/>
					<rect x="23.7" y="0" class="st1" width="4.2" height="11.1"/>
					<rect x="32.7" y="0" class="st1" width="4.2" height="11.1"/>
					<rect x="41.7" y="0" class="st1" width="4.2" height="11.1"/>
					<rect x="50.7" y="0" class="st1" width="4.2" height="11.1"/>
				</g>
			</g>
		</g>
		<g>
			<ellipse class="st0" cx="57.1" cy="41" rx="22.5" ry="22.5"/>
			<g>
				<path class="st2" d="M57.1,60.4c-10.7,0-19.3-8.7-19.3-19.4s8.7-19.4,19.3-19.4c10.7,0,19.4,8.7,19.4,19.4S67.8,60.4,57.1,60.4z
					 M57.1,23.1c-9.9,0-17.9,8-17.9,17.9s8,17.9,17.9,17.9S75,50.9,75,41S67,23.1,57.1,23.1z"/>
			</g>
			<g>
				<path class="st2" d="M62.7,46.6c0,1.9-0.5,3.4-1.6,4.5c-0.7,0.6-1.5,1-2.5,1.2v1.6h-2.9v-1.6c-1.4-0.3-2.4-1.1-3.1-2.4
					c-0.6-1.1-1-2.3-1.1-3.8l3.2-0.2c0.1,1.3,0.5,2.3,1,2.8c0.4,0.4,0.9,0.7,1.4,0.6c0.7,0,1.3-0.4,1.8-1.1c0.2-0.3,0.3-0.8,0.3-1.5
					c0-0.9-0.4-1.8-1.3-2.8c-0.7-0.6-1.7-1.6-3-2.9c-1-1-1.8-1.9-2.3-2.7c-0.6-1-0.9-2.1-0.9-3.4c0-1.2,0.3-2.2,0.8-3.2
					c0.7-1.2,1.7-1.9,3-2.3v-1.5h2.9v1.5c0.9,0.2,1.7,0.6,2.3,1.1c1.1,1,1.6,2.3,1.8,3.9L59.2,35c-0.1-0.9-0.4-1.6-0.8-2.2
					c-0.3-0.4-0.7-0.5-1.3-0.5s-1.1,0.3-1.4,0.8c-0.3,0.4-0.4,1-0.4,1.7c0,1,0.4,2.1,1.3,3.2c0.3,0.4,0.8,0.9,1.5,1.4
					c0.8,0.6,1.3,1.1,1.6,1.4c0.8,0.9,1.5,1.7,1.9,2.5C62.4,44.5,62.7,45.6,62.7,46.6z"/>
			</g>
		</g>
	</g>
</g>
</svg>
