<?xml version="1.0" encoding="utf-8"?>
<!-- Generator: Adobe Illustrator 19.2.0, SVG Export Plug-In . SVG Version: 6.00 Build 0)  -->
<!DOCTYPE svg PUBLIC "-//W3C//DTD SVG 1.1//EN" "http://www.w3.org/Graphics/SVG/1.1/DTD/svg11.dtd">
<svg version="1.1" id="Layer_1" xmlns="http://www.w3.org/2000/svg" xmlns:xlink="http://www.w3.org/1999/xlink" x="0px" y="0px"
	 viewBox="0 0 55.5 64.1" style="enable-background:new 0 0 55.5 64.1;" xml:space="preserve">
<style type="text/css">
	.st0{fill:#EF4639;}
	.st1{opacity:0.5;fill:#010101;fill-opacity:0.4;enable-background:new    ;}
	.st2{fill:#FFC81A;}
	.st3{fill:#F9F4A8;}
	.st4{fill:#5E5F62;}
	.st5{fill:#454645;}
</style>
<g id="hexagon-flat_9_" transform="translate(173.000000, 138.000000)">
	<polygon id="Polygon-48_9_" class="st0" points="-145.3,-137.8 -117.5,-121.8 -117.5,-89.8 -145.3,-73.8 -173,-89.8 -173,-121.8 	
		"/>
</g>
<polygon class="st1" points="33.8,19.5 24.7,13 0,34.8 0,48.2 25.1,62.7 47.2,39.5 26.5,24.7 "/>
<g>
	<g>
		<g>
			<path class="st2" d="M31.7,22.5L22.6,16c-0.3-0.2-0.4-0.6-0.2-0.9l1.4-2c0.2-0.3,0.6-0.4,0.9-0.2l9.1,6.5
				c0.3,0.2,0.4,0.6,0.2,0.9l-1.4,2C32.4,22.6,32,22.7,31.7,22.5z"/>
		</g>
		<g>
			<path class="st2" d="M24.1,33.1L15,26.6c-0.3-0.2-0.4-0.6-0.2-0.9l1.4-2c0.2-0.3,0.6-0.4,0.9-0.2l9.1,6.5
				c0.3,0.2,0.4,0.6,0.2,0.9l-1.4,2C24.8,33.2,24.4,33.3,24.1,33.1z"/>
		</g>
		<g>
			<rect x="19.8" y="18.1" transform="matrix(0.581 -0.8139 0.8139 0.581 -8.4745 29.5476)" class="st3" width="9.4" height="9.9"/>
		</g>
		<g>
			<path class="st4" d="M45.3,39.8L27.5,27.2l1.8-2.5L47,37.3c0.7,0.5,0.8,1.3,0.3,2l-0.2,0.2C46.8,40.1,45.9,40.2,45.3,39.8z"/>
		</g>
		<g>
			<rect x="12" y="36.3" class="st4" width="17.3" height="3.7"/>
		</g>
		<g>
			<rect x="7.9" y="40" class="st5" width="25.6" height="3.9"/>
		</g>
	</g>
</g>
</svg>
