<?xml version="1.0" encoding="utf-8"?>
<!-- Generator: Adobe Illustrator 19.2.0, SVG Export Plug-In . SVG Version: 6.00 Build 0)  -->
<!DOCTYPE svg PUBLIC "-//W3C//DTD SVG 1.1//EN" "http://www.w3.org/Graphics/SVG/1.1/DTD/svg11.dtd">
<svg version="1.1" id="Layer_1" xmlns="http://www.w3.org/2000/svg" xmlns:xlink="http://www.w3.org/1999/xlink" x="0px" y="0px"
	 viewBox="0 0 173 112.2" style="enable-background:new 0 0 173 112.2;" xml:space="preserve">
<style type="text/css">
	.st0{fill:#A8D7D8;}
	.st1{fill:#828182;}
	.st2{fill:#424143;}
	.st3{fill:#FECE9B;}
	.st4{fill:#F0EFEF;}
	.st5{fill:#C52528;}
	.st6{fill:#E02E27;}
	.st7{fill:#DCAB62;}
	.st8{fill:#EC8344;}
	.st9{fill:#333333;}
	.st10{fill:#8F8F94;}
	.st11{fill:#F9F4A8;}
</style>
<g>
	<path class="st0" d="M45.8,18.8c-1.1,0-2.2,0.2-3.2,0.6c0-0.2,0.1-0.4,0.1-0.6c0-4.7-3.8-8.5-8.5-8.5c-2.9,0-5.4,1.4-6.9,3.6
		c-1.5-2.2-4.1-3.6-6.9-3.6c-4.4,0-7.9,3.3-8.4,7.5c-1-0.4-2.1-0.6-3.2-0.6C3.8,17.1,0,21,0,25.7c0,4.7,3.8,8.5,8.5,8.5
		c1.1,0,2.2-0.2,3.2-0.6c0,0.2-0.1,0.4-0.1,0.6c0,4.7,3.8,8.5,8.5,8.5c2.9,0,5.4-1.4,6.9-3.6c1.5,2.2,4.1,3.6,6.9,3.6
		c4.4,0,7.9-3.3,8.4-7.5c1,0.4,2.1,0.6,3.2,0.6c4.7,0,8.5-3.8,8.5-8.5C54.3,22.6,50.5,18.8,45.8,18.8z"/>
	<path class="st0" d="M167.7,5.4c-0.7,0-1.4,0.1-2,0.4c0-0.1,0-0.3,0-0.4c0-3-2.4-5.4-5.4-5.4c-1.8,0-3.4,0.9-4.4,2.3
		c-1-1.4-2.6-2.3-4.4-2.3c-2.8,0-5,2.1-5.3,4.7c-0.6-0.3-1.3-0.4-2-0.4c-3,0-5.4,2.4-5.4,5.4c0,3,2.4,5.4,5.4,5.4
		c0.7,0,1.4-0.1,2-0.4c0,0.1,0,0.3,0,0.4c0,3,2.4,5.4,5.4,5.4c1.8,0,3.4-0.9,4.4-2.3c1,1.4,2.6,2.3,4.4,2.3c2.8,0,5-2.1,5.3-4.7
		c0.6,0.3,1.3,0.4,2,0.4c3,0,5.4-2.4,5.4-5.4C173,7.8,170.6,5.4,167.7,5.4z"/>
	<g id="g2321" transform="matrix(1.0065004,0,0,1.0065004,-1278.1555,-108.40347)">
		<g id="g2323">
			<path id="path2325" class="st1" d="M1346.2,219.2h-4.3c-1.2,0-2.1-1-2.1-2.1v-33.8h8.5v33.8
				C1348.4,218.3,1347.4,219.2,1346.2,219.2L1346.2,219.2z"/>
		</g>
		<g id="g2327">
			<path id="path2329" class="st1" d="M1359.2,219.2h-4.3c-1.2,0-2.1-1-2.1-2.1v-33.8h8.5v33.8
				C1361.3,218.3,1360.3,219.2,1359.2,219.2L1359.2,219.2z"/>
		</g>
		<g id="g2331">
			<path id="path2333" class="st2" d="M1346.2,219.2h-4.3c-1.2,0-2.1-1-2.1-2.1v-0.2c0-2.3,1.9-4.3,4.3-4.3l0,0
				c2.3,0,4.3,1.9,4.3,4.3v0.2C1348.4,218.3,1347.4,219.2,1346.2,219.2L1346.2,219.2z"/>
		</g>
		<g id="g2335">
			<path id="path2337" class="st2" d="M1359.2,219.2h-4.3c-1.2,0-2.1-1-2.1-2.1v-0.2c0-2.3,1.9-4.3,4.3-4.3l0,0
				c2.3,0,4.3,1.9,4.3,4.3v0.2C1361.3,218.3,1360.3,219.2,1359.2,219.2L1359.2,219.2z"/>
		</g>
		<g id="g2339">
			<path id="path2341" class="st3" d="M1329.9,178.2L1329.9,178.2c-1.1-0.3-1.8-1.5-1.5-2.6l7.7-27.3h6.1v4.3h-2.9l-6.9,24.2
				C1332.2,177.8,1331,178.5,1329.9,178.2L1329.9,178.2z"/>
		</g>
		<rect id="rect2343" x="1339.9" y="147.2" class="st4" width="21.5" height="36.5"/>
		<path id="path2345" class="st5" d="M1350.6,147.9c-0.5,0-1,0-1.4-0.1l0.4,2.6h2l0.4-2.6C1351.5,147.9,1351.1,147.9,1350.6,147.9z"
			/>
		<polygon id="polygon2347" class="st6" points="1352.1,162 1351.6,150.4 1349.6,150.4 1349.1,162 1350.6,164.1 		"/>
		<path id="path2349" class="st3" d="M1350.6,148.3c1.9,0,3.6-0.4,5-1v-7.7h-10v7.7C1347,147.9,1348.7,148.3,1350.6,148.3
			L1350.6,148.3z"/>
		<path id="path2351" class="st7" d="M1355.6,139.5h-10v3.5c1.4,1.6,3.1,2.7,5,2.7c1.9,0,3.6-1.1,5-2.7V139.5L1355.6,139.5z"/>
		<path id="path2353" class="st3" d="M1358.7,133.5c0,5-3.6,11.1-8.1,11.1c-4.5,0-8.1-6.1-8.1-11.1c0-5,3.6-9,8.1-9
			C1355.1,124.5,1358.7,128.5,1358.7,133.5z"/>
		<path id="path2355" class="st8" d="M1358.5,131.6c0-0.1,0-0.1,0-0.2v0c0-0.1,0-0.1-0.1-0.2c0,0,0,0,0,0c0-0.1,0-0.1-0.1-0.2l0,0
			c-0.4-1.6-1.2-3-2.3-4l0,0c-1.4-1.5-3.4-2.4-5.5-2.4c-4,0-7.3,3.2-8,7.4c0.9,0.2,1.9,0.3,2.9,0.3c3,0,5.6-0.9,7.6-2.2
			c1.5,1,3.4,1.7,5.5,1.8C1358.5,131.7,1358.5,131.7,1358.5,131.6C1358.5,131.6,1358.5,131.6,1358.5,131.6L1358.5,131.6z"/>
		<rect id="rect2357" x="1339.9" y="177" class="st1" width="21.4" height="6.7"/>
		<g id="g2359">
			<path id="path2361" class="st3" d="M1367.4,162.7c0.4,0,0.7-0.1,1.1-0.2l10.5-4.1c1-0.4,1.5-1.5,1.1-2.5l0,0
				c-0.4-1-1.5-1.5-2.5-1.1l-9.5,3.7l-2.3-8.1c-0.4-1.3-1.5-2.1-2.8-2.1h-3.4v3.9h2.7l2.4,8.4c0.1,0.3,0.2,0.7,0.5,1
				C1365.6,162.3,1366.5,162.7,1367.4,162.7L1367.4,162.7z"/>
		</g>
		<g id="g2363">
			<path id="path2365" class="st9" d="M1341.3,147.2C1341.2,147.2,1341.2,147.2,1341.3,147.2l-1.9,0c-2.4,0-4.5,1.6-5.1,3.9l-6,21.1
				c-0.2,0.6,0.2,1.2,0.7,1.3l4.1,1.2c0.6,0.2,1.2-0.2,1.3-0.7v18.6c0,1.7,1.4,3.2,3.2,3.2h6.7c1.9,0,3.4-1.6,3.4-3.5l-2-45H1341.3z
				"/>
			<path id="path2367" class="st9" d="M1377.6,159l-1.4-3.7c-0.2-0.5-0.8-0.8-1.3-0.6l-6.2,2.3l-2-7.1c-0.5-1.7-2-2.8-3.8-2.8h-1.1
				h-1.8h-0.5v0h-4l-2,45c-0.1,1.9,1.4,3.5,3.4,3.5h7.5c1.4,0,2.6-0.9,3-2.3l10-33C1377.6,159.8,1377.8,159.7,1377.6,159z"/>
		</g>
		<path id="path2369" class="st10" d="M1369.4,179.3L1369.4,179.3C1369.4,179.4,1369.3,179.4,1369.4,179.3z"/>
		<g id="g2371">
			<g id="g2373">
				<path id="path2375" class="st11" d="M1384.8,147.6L1384.8,147.6C1384.8,147.6,1384.8,147.6,1384.8,147.6z"/>
			</g>
			<g id="g2377">
				<path id="path2379" class="st11" d="M1377.6,147.3C1377.6,147.3,1377.6,147.2,1377.6,147.3l-2.6-6.3c0-0.1-0.1-0.2-0.3-0.2
					c-0.1,0-0.2,0.1-0.2,0.1l-3.7,6.2c0,0,0,0.1,0,0.1c-0.5,0.2-0.8,0.5-0.8,0.8c0,0.9,2.2,1.3,4.2,1.3c2,0,4.2-0.4,4.2-1.3
					C1378.3,147.7,1378,147.5,1377.6,147.3L1377.6,147.3z M1372.4,146.9c-0.4,0-0.7,0.1-1,0.1l3.3-5.5l2.3,5.5c-0.1,0-0.2,0-0.4-0.1
					c-0.3,0-0.5-0.1-0.8-0.1c0,0,0,0,0,0c0,0-0.1,0-0.1,0c-0.5-0.1-1-0.1-1.5-0.1c0,0,0,0,0,0c0,0,0,0,0,0c-0.1,0-0.2,0-0.3,0
					C1373.3,146.8,1372.9,146.8,1372.4,146.9L1372.4,146.9z"/>
				<path id="path2381" class="st11" d="M1392.2,145C1392.2,145,1392.2,145,1392.2,145l-2.8-6.4c0-0.1-0.1-0.2-0.3-0.2
					c-0.1,0-0.2,0.1-0.2,0.1l-3.5,6.3c0,0,0,0,0,0.1c-0.5,0.2-0.8,0.5-0.8,0.8c0,0.9,2.2,1.3,4.2,1.3c2,0,4.2-0.4,4.2-1.3
					C1392.9,145.4,1392.6,145.2,1392.2,145L1392.2,145z M1386,144.8l3.1-5.6l2.5,5.6c-0.1,0-0.2,0-0.3-0.1c-0.1,0-0.1,0-0.2,0
					c-0.7-0.1-1.5-0.2-2.4-0.2c-0.9,0-1.7,0.1-2.5,0.2C1386.1,144.7,1386,144.7,1386,144.8L1386,144.8z"/>
			</g>
			<g id="g2383">
				<path id="path2385" class="st11" d="M1387.5,153.7c0.1,0.1,0.1,0.1,0.1,0.1c0,0,0,0.1,0,0.1s0,0,0,0c0,0,0,0,0,0
					c0,0,0,0.1,0,0.1c0,0,0,0,0,0v0c0,0,0,0,0,0.1c0,0,0,0.1,0,0.1c0,0,0,0,0,0.1c0,0,0,0,0,0.1c0,0,0,0,0,0.1c0,0,0,0,0,0.1
					c-0.1,0.1-0.2,0.2-0.4,0.3c-0.4,0.2-0.8,0.4-1.2,0.5c-1.2,0.4-2.5,0.5-3.8,0.5c-1.3,0-2.6-0.1-3.9-0.5c-0.5-0.1-0.9-0.3-1.3-0.5
					c-0.2-0.1-0.3-0.2-0.4-0.3c-0.1-0.1-0.2-0.2-0.3-0.3l0,0v0c0,0,0-0.1,0-0.1l0,0c0,0,0,0,0,0c0,0,0-0.1,0-0.1c0,0.1,0,0,0-0.1
					c0,0,0,0,0-0.1c0,0,0-0.1,0.1-0.1c0,0,0-0.1,0-0.1c0,0,0.1-0.1,0.1-0.1c0.1-0.1,0.1-0.1,0.2-0.1c0.2-0.1,0.4-0.2,0.6-0.3
					c1.1-0.5,2.3-0.7,3.5-0.8c0.1,0,0.2,0,0.4,0c0.2,0,0.4-0.2,0.4-0.4c0-2.2,0-4.5,0-6.8c0-1.3,0-2.7,0-4c0-0.2-0.2-0.4-0.4-0.4
					c-2.1,0-4.3,0.1-6.5,0.1c0,0,0,0,0,0l0,0c-0.1,0-0.2-0.2,0-0.2c0.9-0.3,1.8-0.6,2.8-0.9c1.2-0.4,2.5-0.8,3.7-1.1
					c0.2-0.1,0.5-0.2,0.7-0.2c0,0,0,0,0,0c0.1,0,0.2,0,0.4,0c2.4-0.1,4.7-0.1,7.1-0.2c0.1,0,0.2,0.2,0,0.2c-0.1,0-0.2,0.1-0.3,0.1
					c-2,0.6-4.1,1.3-6.2,1.9c0,0,0,0,0,0c-0.2,0.1-0.3,0.2-0.3,0.4c0,2.2,0,4.5,0,6.7c0,1.4,0,2.8,0,4.3c0,0.2,0.2,0.4,0.4,0.4
					c1.2,0.1,2.5,0.2,3.7,0.7C1386.8,153.3,1387.2,153.5,1387.5,153.7L1387.5,153.7z"/>
			</g>
		</g>
	</g>
</g>
</svg>
