<?xml version="1.0" ?><!DOCTYPE svg  PUBLIC '-//W3C//DTD SVG 1.1//EN'  'http://www.w3.org/Graphics/SVG/1.1/DTD/svg11.dtd'><svg height="2048px" style="shape-rendering:geometricPrecision; text-rendering:geometricPrecision; image-rendering:optimizeQuality; fill-rule:evenodd; clip-rule:evenodd" viewBox="0 0 2048 2048" width="2048px" xml:space="preserve" xmlns="http://www.w3.org/2000/svg" xmlns:xlink="http://www.w3.org/1999/xlink"><defs><style type="text/css">
   <![CDATA[
    .fil2 {fill:none}
    .fil1 {fill:#B0BEC5}
    .fil0 {fill:#CFD8DC}
    .fil5 {fill:#558B2F;fill-rule:nonzero}
    .fil4 {fill:#689F38;fill-rule:nonzero}
    .fil3 {fill:#D32F2F;fill-rule:nonzero}
    .fil6 {fill:#F9A825;fill-rule:nonzero}
   ]]>
  </style><clipPath id="id0"><path d="M1024 0c565.539,0 1024,458.461 1024,1024 0,565.539 -458.461,1024 -1024,1024 -565.539,0 -1024,-458.461 -1024,-1024 0,-565.539 458.461,-1024 1024,-1024z"/></clipPath></defs><g id="Layer_x0020_1"><path class="fil0" d="M1024 0c565.539,0 1024,458.461 1024,1024 0,565.539 -458.461,1024 -1024,1024 -565.539,0 -1024,-458.461 -1024,-1024 0,-565.539 458.461,-1024 1024,-1024z"/><g style="clip-path:url(#id0)"><g id="_552164256"><g><polygon class="fil1" id="_5513828881" points="1164.74,729.937 2300.62,1865.82 2300.9,1866.44 2301.55,1867.86 2302.58,1870.05 2303.95,1872.99 2305.68,1876.64 2307.74,1880.98 2310.14,1885.98 2312.86,1891.6 2315.9,1897.81 2319.24,1904.6 2322.87,1911.91 2326.8,1919.74 2331.01,1928.04 2335.49,1936.79 2340.23,1945.95 2345.23,1955.5 2350.48,1965.41 2355.96,1975.65 2361.68,1986.18 2367.62,1996.99 2373.77,2008.03 2380.12,2019.28 2386.67,2030.7 2393.41,2042.28 2400.33,2053.98 2407.42,2065.76 2414.67,2077.61 2422.07,2089.48 2429.62,2101.36 2437.31,2113.2 2445.13,2124.99 2453.07,2136.68 1317.18,1000.8 1309.25,989.103 1301.43,977.318 1293.74,965.473 1286.19,953.599 1278.79,941.724 1271.53,929.879 1264.45,918.094 1257.53,906.399 1250.79,894.822 1244.24,883.393 1237.88,872.144 1231.73,861.103 1225.8,850.301 1220.08,839.766 1214.6,829.529 1209.35,819.62 1204.35,810.068 1199.61,800.904 1195.13,792.157 1190.92,783.856 1186.99,776.031 1183.36,768.713 1180.02,761.932 1176.98,755.716 1174.26,750.095 1171.86,745.101 1169.8,740.762 1168.07,737.108 1166.69,734.168 1165.67,731.973 1165.02,730.554 "/><polygon class="fil1" id="_551391312" points="1317.18,1000.8 2453.07,2136.68 2457.02,2142.4 2461,2148.09 2465,2153.74 2469.02,2159.35 2473.07,2164.91 2477.13,2170.42 2481.22,2175.88 2485.32,2181.28 2489.43,2186.62 2493.57,2191.9 2497.72,2197.1 2501.88,2202.24 2506.05,2207.3 2510.23,2212.27 2514.42,2217.17 2518.63,2221.97 2522.84,2226.69 2527.05,2231.31 2531.27,2235.83 1395.39,1099.95 1391.17,1095.43 1386.96,1090.81 1382.75,1086.09 1378.54,1081.28 1374.35,1076.39 1370.17,1071.41 1365.99,1066.35 1361.83,1061.22 1357.69,1056.01 1353.55,1050.74 1349.44,1045.4 1345.33,1040 1341.25,1034.54 1337.19,1029.03 1333.14,1023.47 1329.12,1017.86 1325.12,1012.21 1321.14,1006.52 "/><polygon class="fil1" id="_551390208" points="1522.61,1196.79 2658.49,2332.67 2618.42,2350.87 1482.54,1214.99 "/><polygon class="fil1" id="_551373912" points="717.074,472.385 1852.95,1608.27 1854.43,1610.12 1855.73,1612.14 1856.85,1614.32 720.971,478.434 719.851,476.257 718.547,474.239 "/><polygon class="fil1" id="_551391864" points="1234,1327.88 2369.88,2463.76 2371.76,2469.69 2373.33,2475.65 2374.62,2481.64 2375.62,2487.65 2376.33,2493.66 2376.75,2499.68 2376.9,2505.68 2376.78,2511.66 2376.38,2517.61 2375.71,2523.52 2374.78,2529.39 2373.59,2535.2 2372.14,2540.94 2370.43,2546.61 2368.47,2552.2 2366.27,2557.69 2363.82,2563.08 2361.13,2568.36 2358.2,2573.52 2355.03,2578.54 2351.64,2583.43 2348.02,2588.18 2344.17,2592.76 2340.1,2597.18 2335.82,2601.42 2331.32,2605.48 2326.61,2609.34 2321.69,2613.01 2316.57,2616.46 2311.25,2619.69 2305.74,2622.68 2300.03,2625.44 1164.15,1489.56 1169.86,1486.8 1175.37,1483.8 1180.69,1480.57 1185.81,1477.12 1190.73,1473.46 1195.44,1469.6 1199.94,1465.54 1204.22,1461.3 1208.29,1456.88 1212.14,1452.29 1215.76,1447.55 1219.15,1442.66 1222.32,1437.63 1225.25,1432.48 1227.94,1427.2 1230.39,1421.81 1232.59,1416.32 1234.55,1410.73 1236.26,1405.06 1237.71,1399.32 1238.9,1393.51 1239.83,1387.64 1240.5,1381.73 1240.9,1375.78 1241.02,1369.8 1240.87,1363.79 1240.45,1357.78 1239.73,1351.77 1238.74,1345.76 1237.45,1339.77 1235.88,1333.81 "/><polygon class="fil1" id="_551369160" points="996.428,1435.78 2132.31,2571.66 1846.06,2701.68 710.177,1565.8 "/><polygon class="fil1" id="_551395464" points="1164.15,1489.56 2300.03,2625.44 2294.2,2627.93 2288.31,2630.11 2282.38,2631.99 2276.42,2633.57 2270.43,2634.86 2264.42,2635.86 2258.41,2636.58 2252.4,2637.02 2246.39,2637.17 2240.41,2637.05 2234.46,2636.66 2228.54,2636 2222.67,2635.07 2216.86,2633.89 2211.12,2632.44 2205.44,2630.74 2199.86,2628.79 2194.36,2626.59 2188.97,2624.14 2183.69,2621.46 2178.52,2618.53 2173.49,2615.37 2168.6,2611.99 2163.85,2608.37 2159.26,2604.53 1023.38,1468.65 1027.97,1472.49 1032.72,1476.1 1037.61,1479.49 1042.64,1482.65 1047.8,1485.57 1053.09,1488.26 1058.48,1490.7 1063.97,1492.9 1069.56,1494.86 1075.23,1496.56 1080.98,1498 1086.79,1499.19 1092.66,1500.12 1098.58,1500.78 1104.53,1501.17 1110.51,1501.29 1116.51,1501.13 1122.53,1500.7 1128.54,1499.98 1134.55,1498.98 1140.54,1497.69 1146.5,1496.1 1152.43,1494.22 1158.32,1492.05 "/><polygon class="fil1" id="_551397456" points="710.177,1565.8 1846.06,2701.68 1805.98,2719.88 670.104,1584 "/><polygon class="fil1" id="_551390808" points="720.971,478.434 1856.85,1614.32 1890.93,1689.36 755.053,553.476 "/><polygon class="fil1" id="_551386896" points="1482.54,1214.99 2618.42,2350.87 2369.88,2463.76 1234,1327.88 "/><polygon class="fil1" id="_551380536" points="1103.92,638.239 2239.8,1774.12 2244.97,1779.83 2250.03,1785.67 2254.96,1791.65 2259.78,1797.75 2264.47,1803.99 2269.03,1810.36 2273.46,1816.86 2277.76,1823.48 2281.93,1830.23 2285.95,1837.1 2289.84,1844.1 2293.58,1851.22 2297.17,1858.46 2300.62,1865.82 1164.74,729.937 1161.29,722.578 1157.7,715.339 1153.96,708.219 1150.07,701.222 1146.05,694.348 1141.88,687.598 1137.58,680.975 1133.15,674.478 1128.59,668.11 1123.9,661.871 1119.08,655.764 1114.15,649.789 1109.09,643.947 "/></g><path class="fil1" d="M1164.74 729.937c0.988583,2.17559 67.1741,146.692 152.449,270.861 42.0402,61.2154 88.4422,117.156 133.048,147.234l24.952 16.8071 10.9287 7.363 10.728 7.22599 25.7717 17.361 -40.0748 18.2008 -248.535 112.885c21.5717,63.0355 -7.9252,133.557 -69.8564,161.687 -61.8792,28.1055 -134.438,3.93662 -167.718,-53.7804l-286.251 130.017 -40.0737 18.202 1.89685 -15.065 3.32481 -26.3858 0.27874 -2.21221 5.40827 -42.9248c6.7063,-53.4036 -4.88386,-125.159 -23.3221,-197.094 -37.3973,-145.913 -102.691,-290.814 -103.68,-292.989 -36.3355,-80.0008 -36.7063,-167.679 -8.85473,-245.532 28.1811,-78.7772 85.4434,-147.514 163.694,-187.935l1.17874 -0.53504 -33.8575 -74.5465c-5.61851,-12.3697 -0.145276,-26.954 12.2256,-32.5736 0.122835,-0.0555119 0.245669,-0.109843 0.369685,-0.161811 0.226772,-0.101575 0.455906,-0.196063 0.68504,-0.287008 12.1335,-4.85433 26.0587,0.654331 31.5201,12.6756l34.0819 75.0414 1.76102 -0.777166 0.090945 -0.0413386c80.3162,-29.1425 164.162,-24.4004 236.999,7.34646 73.0312,31.8331 134.891,90.8032 170.831,169.934z" id="_552164592"/></g></g><path class="fil2" d="M1024 0c565.539,0 1024,458.461 1024,1024 0,565.539 -458.461,1024 -1024,1024 -565.539,0 -1024,-458.461 -1024,-1024 0,-565.539 458.461,-1024 1024,-1024z"/><path class="fil3" d="M1164.15 1489.56c-65.7945,29.8843 -143.663,0.668504 -173.551,-65.1355 -5.52756,-12.1689 -0.106299,-26.5158 12.0189,-32.0233 78.5623,-35.6835 159.561,-72.4737 194.652,-88.4115 12.1748,-5.52993 26.4969,-0.15 32.0233,12.0189 29.889,65.804 0.707481,143.641 -65.1426,173.551z"/><path class="fil4" d="M688.766 466.046l-0.370866 0.161811c-12.3697,5.61969 -17.8429,20.204 -12.2244,32.5736l33.8575 74.5465 -1.17874 0.53504c-78.2505,40.4209 -135.513,109.158 -163.694,187.935 -27.8516,77.8536 -27.4807,165.532 8.85473,245.532 0.988583,2.17559 66.2823,147.076 103.68,292.989 18.4382,71.9351 30.0284,143.691 23.3221,197.094l-5.40827 42.9248 -5.5004 43.663 40.0737 -18.202 413.772 -187.938 -435.183 -911.815z"/><path class="fil5" d="M720.971 478.434c-5.46142,-12.0213 -19.3866,-17.5288 -31.5201,-12.6756 -0.229134,0.090945 -0.458268,0.187795 -0.68504,0.287008l435.183 911.815 0.0472441 -0.0212599 358.54 -162.849 40.0748 -18.2008 -36.4996 -24.587 -35.8807 -24.1701c-44.6055,-30.078 -91.0076,-86.0186 -133.048,-147.234 -85.2745,-124.169 -151.46,-268.686 -152.449,-270.861 -35.9398,-79.1304 -97.8001,-138.1 -170.831,-169.934 -72.8375,-31.7469 -156.683,-36.489 -236.999,-7.34646l-1.57559 0.715749 -0.26811 0.119291 -34.0902 -75.0579z"/><polygon class="fil6" points="675.325,1542.55 672.001,1568.94 1115.25,1359.63 1105.58,1339.37 "/><polygon class="fil6" points="1105.58,1339.37 1115.25,1359.63 1496.84,1179.43 1486.11,1172.2 1475.18,1164.84 "/><path class="fil3" d="M720.97 478.433c-5.61851,-12.3697 -20.2028,-17.8441 -32.5736,-12.2256 -12.3709,5.61969 -17.8441,20.204 -12.2268,32.5736l33.8587 74.5465 -1.17756 0.53504 48.0544 -21.2043 -1.57559 0.714567 -0.26811 0.11811 -34.0914 -75.0579z"/></g></svg>