<?xml version="1.0" ?><!DOCTYPE svg  PUBLIC '-//W3C//DTD SVG 1.1//EN'  'http://www.w3.org/Graphics/SVG/1.1/DTD/svg11.dtd'><svg enable-background="new 0 0 128 128" height="128px" id="Layer_1" version="1.1" viewBox="0 0 128 128" width="128px" xml:space="preserve" xmlns="http://www.w3.org/2000/svg" xmlns:xlink="http://www.w3.org/1999/xlink"><g><circle cx="64" cy="64" fill="#7BB1BA" r="64"/><path d="M108.413,47.53l-2.801,4.052L36.736,85.873l-4.778,4.962l37.294,36.933   c31.948-2.598,57.258-28.643,58.676-60.912L108.413,47.53z" fill="#639FA5"/><path d="M91.147,41.618H63.143c-1.188-3.545-4.012-5.896-9.253-5.896H34.595c-2.189,0-3.981,1.719-3.981,3.822v4.51   c0,0.239,0.03,0.468,0.073,0.694c-0.043,0.226-0.073,0.455-0.073,0.692V88.07c0,2.104,1.793,3.822,3.981,3.822h56.553   c2.188,0,3.982-1.719,3.982-3.822V45.439C95.13,43.338,93.336,41.618,91.147,41.618z" fill="#C99F4B"/><rect fill="#F9F3D3" height="45.38" width="59.334" x="32.451" y="46.122"/><path d="M95.796,88.676c-0.698,1.981-2.99,3.604-5.093,3.604H35.208c-2.102,0-3.251-1.622-2.551-3.604   l13.386-37.963c0.7-1.981,2.991-3.605,5.093-3.605h55.495c2.103,0,3.249,1.624,2.551,3.605L95.796,88.676z" fill="#EFCF7B"/></g></svg>