<?xml version="1.0" ?><svg height="41px" version="1.1" viewBox="0 0 58 41" width="58px" xmlns="http://www.w3.org/2000/svg" xmlns:sketch="http://www.bohemiancoding.com/sketch/ns" xmlns:xlink="http://www.w3.org/1999/xlink"><title/><desc/><defs/><g fill="none" fill-rule="evenodd" id="Page-1" stroke="none" stroke-width="1"><g id="20---Letter-(Flat)"><path d="M0,41 L58,41 L58,0 L0,0 L0,41 Z" fill="#E5E5DA" id="Fill-343"/><path d="M43,7 L51,7 L51,15 L43,15 L43,7 Z" fill="#ED8A19" id="Fill-344"/><path d="M27,12 L7,12 C6.448,12 6,11.553 6,11 C6,10.447 6.448,10 7,10 L27,10 C27.552,10 28,10.447 28,11 C28,11.553 27.552,12 27,12" fill="#BAB395" id="Fill-345"/><path d="M27,17 L7,17 C6.448,17 6,16.553 6,16 C6,15.447 6.448,15 7,15 L27,15 C27.552,15 28,15.447 28,16 C28,16.553 27.552,17 27,17" fill="#BAB395" id="Fill-346"/><path d="M15,7 L7,7 C6.448,7 6,6.553 6,6 C6,5.447 6.448,5 7,5 L15,5 C15.552,5 16,5.447 16,6 C16,6.553 15.552,7 15,7" fill="#BAB395" id="Fill-347"/><path d="M28,24 C24.691,24 22,26.691 22,30 C22,33.309 24.691,36 28,36 C31.309,36 34,33.309 34,30 C34,26.691 31.309,24 28,24 L28,24 Z M28,34 C25.794,34 24,32.206 24,30 C24,27.794 25.794,26 28,26 C30.206,26 32,27.794 32,30 C32,32.206 30.206,34 28,34 L28,34 Z" fill="#7383BF" id="Fill-519"/><path d="M36.77,27.639 C37.452,26.814 38.548,26.814 39.231,27.639 C39.959,28.517 40.942,29 42,29 C43.058,29 44.042,28.517 44.77,27.639 C45.452,26.814 46.548,26.814 47.231,27.639 C47.958,28.517 48.942,29 50,29 C51.058,29 52.042,28.517 52.77,27.639 C53.122,27.213 53.064,26.583 52.638,26.23 C52.214,25.878 51.584,25.937 51.231,26.361 C50.548,27.186 49.452,27.186 48.77,26.361 C48.042,25.483 47.058,25 46,25 C44.942,25 43.958,25.483 43.231,26.361 C42.548,27.186 41.452,27.186 40.77,26.361 C40.042,25.483 39.058,25 38,25 C36.942,25 35.958,25.483 35.231,26.361 C34.878,26.787 34.937,27.417 35.362,27.769 C35.787,28.123 36.417,28.064 36.77,27.639" fill="#7383BF" id="Fill-520"/><path d="M51.231,32.361 C50.548,33.186 49.452,33.186 48.77,32.361 C48.042,31.483 47.058,31 46,31 C44.942,31 43.958,31.483 43.231,32.361 C42.548,33.186 41.452,33.186 40.77,32.361 C40.042,31.483 39.058,31 38,31 C36.942,31 35.958,31.483 35.231,32.361 C34.878,32.787 34.937,33.417 35.362,33.769 C35.787,34.123 36.417,34.064 36.77,33.639 C37.452,32.814 38.548,32.814 39.231,33.639 C39.959,34.517 40.942,35 42,35 C43.058,35 44.042,34.517 44.77,33.639 C45.452,32.814 46.548,32.814 47.231,33.639 C47.958,34.517 48.942,35 50,35 C51.058,35 52.042,34.517 52.77,33.639 C53.122,33.213 53.064,32.583 52.638,32.23 C52.214,31.878 51.584,31.937 51.231,32.361" fill="#7383BF" id="Fill-521"/></g></g></svg>