<?xml version="1.0" ?><!DOCTYPE svg  PUBLIC '-//W3C//DTD SVG 1.1//EN'  'http://www.w3.org/Graphics/SVG/1.1/DTD/svg11.dtd'><svg enable-background="new 0 0 142 142" height="142px" id="Layer_1" version="1.1" viewBox="0 0 142 142" width="142px" xml:space="preserve" xmlns="http://www.w3.org/2000/svg" xmlns:xlink="http://www.w3.org/1999/xlink"><g><path d="M0,70.998C0,31.787,31.788,0,71,0c39.212,0,71,31.787,71,70.998C142,110.212,110.212,142,71,142   C31.788,142,0,110.212,0,70.998z" fill="#FF6D3C"/><path d="M109.09,47.935c-0.056-0.083-0.125-0.155-0.186-0.235c-0.063-0.083-0.13-0.159-0.197-0.237   c-0.112-0.134-0.223-0.269-0.35-0.39c-0.188-0.183-0.391-0.35-0.606-0.5c-0.093-0.064-0.192-0.115-0.289-0.174   c-0.163-0.1-0.328-0.193-0.504-0.274c-0.102-0.046-0.206-0.087-0.312-0.128c-0.191-0.073-0.388-0.134-0.59-0.183   c-0.096-0.024-0.189-0.051-0.287-0.07c-0.301-0.056-0.611-0.094-0.93-0.094H36.538c-0.318,0-0.626,0.038-0.93,0.094   c-0.1,0.02-0.196,0.048-0.295,0.072c-0.195,0.049-0.389,0.107-0.575,0.179c-0.112,0.041-0.222,0.085-0.329,0.135   c-0.164,0.076-0.319,0.164-0.474,0.257c-0.106,0.063-0.216,0.12-0.316,0.189c-0.212,0.15-0.411,0.314-0.598,0.493   c-0.127,0.121-0.236,0.257-0.351,0.389c-0.07,0.082-0.141,0.163-0.205,0.25c-0.109,0.145-0.207,0.294-0.3,0.45   c-0.053,0.088-0.101,0.181-0.149,0.272c-0.083,0.162-0.165,0.324-0.233,0.496c-0.004,0.01-0.009,0.018-0.013,0.027l0.004,0.004   c-0.213,0.561-0.344,1.163-0.344,1.799v44.684c0,0.638,0.131,1.24,0.344,1.804l-0.004,0.002c0.004,0.011,0.009,0.019,0.013,0.028   c0.067,0.174,0.15,0.335,0.234,0.499c0.047,0.09,0.094,0.18,0.146,0.267c0.095,0.158,0.194,0.311,0.306,0.457   c0.06,0.082,0.127,0.158,0.192,0.235c0.118,0.139,0.232,0.277,0.363,0.403c0.183,0.175,0.382,0.339,0.59,0.485   c0.105,0.075,0.22,0.134,0.333,0.199c0.133,0.079,0.264,0.16,0.402,0.227L76.103,141.8c33.757-2.388,60.983-28.359,65.306-61.546   L109.09,47.935z" fill="#E76134"/><g><path d="M31.431,50.756c0-2.816,2.286-5.106,5.106-5.106h68.303c2.814,0,5.105,2.29,5.105,5.106v44.684    c0,2.824-2.291,5.108-5.105,5.108H36.538c-2.82,0-5.106-2.284-5.106-5.108V50.756z" fill="#D1ECFB"/><path d="M58.434,71.992L31.771,97.065c0.735,2.03,2.585,3.482,4.767,3.482h68.303c2.182,0,4.033-1.452,4.758-3.482    L82.645,71.711L58.434,71.992z" fill="#8FC4D7"/><path d="M58.434,73.474L31.771,97.245c0.735,1.925,2.585,3.303,4.767,3.303h68.303    c2.182,0,4.033-1.378,4.758-3.303L82.645,73.207L58.434,73.474z" fill="#FFFFFF"/><path d="M31.771,49.272l38.918,38.043l38.909-38.043c-0.725-2.112-2.576-3.622-4.758-3.622H36.538    C34.356,45.649,32.506,47.159,31.771,49.272z" fill="#8FC4D7"/><path d="M31.771,48.953l38.918,34.698l38.909-34.698c-0.725-1.925-2.576-3.304-4.758-3.304H36.538    C34.356,45.649,32.506,47.028,31.771,48.953z" fill="#FFFFFF"/></g></g></svg>