<?xml version="1.0" encoding="utf-8"?>
<!-- Generator: Adobe Illustrator 19.2.0, SVG Export Plug-In . SVG Version: 6.00 Build 0)  -->
<!DOCTYPE svg PUBLIC "-//W3C//DTD SVG 1.1//EN" "http://www.w3.org/Graphics/SVG/1.1/DTD/svg11.dtd">
<svg version="1.1" id="Layer_1" xmlns="http://www.w3.org/2000/svg" xmlns:xlink="http://www.w3.org/1999/xlink" x="0px" y="0px"
	 viewBox="0 0 55.5 64.1" style="enable-background:new 0 0 55.5 64.1;" xml:space="preserve">
<style type="text/css">
	.st0{fill:#2BACE2;}
	.st1{opacity:0.5;fill:#010101;fill-opacity:0.4;enable-background:new    ;}
	.st2{fill:#FFC81A;}
	.st3{fill:#736759;}
	.st4{opacity:0.17;fill:#3C2517;enable-background:new    ;}
	.st5{fill:#5A4B43;}
	.st6{opacity:0.44;fill:#3C2517;enable-background:new    ;}
	.st7{fill:#939598;}
	.st8{fill:#C3996C;}
	.st9{fill:#424143;}
</style>
<g id="hexagon-flat_23_" transform="translate(173.000000, 138.000000)">
	<polygon id="Polygon-48_23_" class="st0" points="-145.3,-138 -117.5,-122 -117.5,-90 -145.3,-73.9 -173,-90 -173,-122 	"/>
</g>
<g>
	<g>
		<polygon class="st1" points="47.1,32 39.3,15.5 27.3,16.3 28.9,27.8 30.3,24.5 26.6,25.9 25.4,9.5 11.3,19.5 0,29.1 0,48 
			25.3,62.7 36.6,52.7 35.3,49.3 47.2,34.6 		"/>
	</g>
</g>
<g id="law">
	<path class="st2" d="M24.5,48c0,1.2,1,2.1,2.1,2.1l0,0c1.2,0,2.1-1,2.1-2.1V11.2c0-1.2-1-2.1-2.1-2.1l0,0c-1.2,0-2.1,1-2.1,2.1V48
		L24.5,48z"/>
	<path class="st3" d="M20.3,50.3c0,1.3,1,2.3,2.3,2.3h8.1c1.3,0,2.3-1,2.3-2.3l0,0c0-1.3-1-2.3-2.3-2.3h-8.1
		C21.3,48,20.3,49,20.3,50.3L20.3,50.3z"/>
	<path class="st4" d="M30.7,48h-2.1c1.3,0,2.3,1,2.3,2.3s-1,2.3-2.3,2.3h2.1c1.3,0,2.3-1,2.3-2.3C32.9,49,31.9,48,30.7,48z"/>
	<rect x="16.6" y="49.3" class="st5" width="19.9" height="3.4"/>
	<rect x="31.9" y="49.3" class="st6" width="4.7" height="3.4"/>
	<g>
		<path class="st7" d="M20.9,37.3c-0.2,0-0.5-0.1-0.6-0.4l-6.9-16.1c-0.1-0.3,0-0.7,0.3-0.8c0.3-0.1,0.7,0,0.8,0.3l6.9,16.1
			c0.1,0.3,0,0.7-0.3,0.8C21.1,37.3,21,37.3,20.9,37.3z"/>
		<path class="st7" d="M6.9,37.3c-0.1,0-0.2,0-0.3-0.1c-0.3-0.1-0.5-0.5-0.3-0.8l6.9-16.1c0.1-0.3,0.5-0.5,0.8-0.3
			c0.3,0.1,0.5,0.5,0.3,0.8L7.5,37C7.4,37.2,7.2,37.3,6.9,37.3z"/>
	</g>
	<g>
		<path class="st7" d="M46.5,32.9c-0.2,0-0.5-0.1-0.6-0.4L39,16.4c-0.1-0.3,0-0.7,0.3-0.8s0.7,0,0.8,0.3l7,16.1
			c0.1,0.3,0,0.7-0.3,0.8C46.7,32.8,46.6,32.9,46.5,32.9z"/>
		<path class="st7" d="M32.5,32.9c-0.1,0-0.2,0-0.3-0.1C32,32.7,31.8,32.3,32,32l6.9-16.1c0.1-0.3,0.5-0.5,0.8-0.3
			c0.3,0.1,0.5,0.5,0.3,0.8l-6.9,16.1C33,32.7,32.8,32.9,32.5,32.9z"/>
	</g>
	<path class="st5" d="M11.9,22c-0.5,0-0.9-0.3-1.2-0.7c-0.3-0.6,0-1.4,0.6-1.7C26.9,12.3,41,15,41.6,15.1c0.7,0.1,1.1,0.8,1,1.5
		c-0.1,0.7-0.8,1.1-1.5,1c-0.1,0-13.9-2.6-28.6,4.3C12.3,21.9,12.1,22,11.9,22z"/>
	<g>
		<path class="st8" d="M27.3,16.3c0,0.4-0.3,0.7-0.7,0.7c-0.4,0-0.7-0.3-0.7-0.7c0-0.4,0.3-0.7,0.7-0.7C27,15.6,27.3,15.9,27.3,16.3
			z"/>
	</g>
	<g>
		<path class="st9" d="M31.3,32c0.4,4,3.9,7.1,8.2,7.1s7.8-3.1,8.2-7.1C47.7,32,31.3,32,31.3,32z"/>
	</g>
	<g>
		<path class="st9" d="M5.7,36.5c0.4,4,3.9,7.1,8.2,7.1s7.8-3.1,8.2-7.1H5.7z"/>
	</g>
</g>
</svg>
