<?xml version="1.0" encoding="utf-8"?>
<!-- Generator: Adobe Illustrator 19.2.0, SVG Export Plug-In . SVG Version: 6.00 Build 0)  -->
<!DOCTYPE svg PUBLIC "-//W3C//DTD SVG 1.1//EN" "http://www.w3.org/Graphics/SVG/1.1/DTD/svg11.dtd">
<svg version="1.1" id="Layer_1" xmlns="http://www.w3.org/2000/svg" xmlns:xlink="http://www.w3.org/1999/xlink" x="0px" y="0px"
	 viewBox="0 0 91.9 69.8" style="enable-background:new 0 0 91.9 69.8;" xml:space="preserve">
<style type="text/css">
	.st0{fill:#FFFFFF;}
	.st1{fill:#CCCBCA;}
	.st2{fill:#48505A;}
	.st3{fill:#36404A;}
	.st4{fill:#242E39;}
	.st5{fill:#666B74;}
	.st6{fill:#FFC81A;}
	.st7{fill:#5A4B43;}
	.st8{fill:#F9F4A8;}
</style>
<g>
	<g>
		<g>
			<path class="st0" d="M7.1,56.5c-1.6,0-3.2,0.6-4.4,1.8c-1.2,1.2-1.8,2.8-1.8,4.4c0,1.6,0.6,3.2,1.8,4.4c1.2,1.2,2.8,1.8,4.4,1.8
				h41.5V56.5L7.1,56.5z"/>
			<polygon class="st1" points="48.7,62.7 48.7,57.4 7.1,57.4 			"/>
			<g>
				<path class="st2" d="M7.1,0C3.2,0,0,3.2,0,7.1v55.6h1.9c0-1.4,0.5-2.7,1.5-3.7c1-1,2.3-1.5,3.7-1.5h43.4V0H7.1z"/>
				<g>
					<g>
						<rect x="16.8" y="28.9" class="st0" width="24.1" height="1.8"/>
						<rect x="19.1" y="32.8" class="st0" width="19.4" height="1.8"/>
						<rect x="16.8" y="24.9" class="st0" width="24.1" height="1.8"/>
						<rect x="22.5" y="20.9" class="st0" width="12.7" height="1.8"/>
					</g>
				</g>
				<path class="st3" d="M0,7.1v55.6h1.9c0-1.4,0.5-2.7,1.5-3.7c1-1,2.3-1.5,3.7-1.5V0C3.2,0,0,3.2,0,7.1z"/>
				<path class="st4" d="M7.1,68c-1.4,0-2.7-0.5-3.7-1.5c-1-1-1.5-2.3-1.5-3.7c0-1.4,0.5-2.7,1.5-3.7c1-1,2.3-1.5,3.7-1.5h43.4v-1.9
					H7.1c-1.9,0-3.7,0.7-5,2.1C0.7,59,0,60.8,0,62.7c0,1.9,0.7,3.7,2.1,5c1.3,1.3,3.1,2.1,5,2.1h43.4V68L7.1,68L7.1,68z"/>
			</g>
			<path class="st5" d="M47.1,52.2H10.5V3.4h36.6L47.1,52.2L47.1,52.2z M11.7,51h34.2V4.6H11.7V51z"/>
		</g>
	</g>
	<g>
		<g>
			<g>
				<path class="st6" d="M85.6,31.3l0.2-18.6c0-0.5,0.5-1,1-1l4.1,0c0.5,0,1,0.5,1,1l-0.2,18.6c0,0.5-0.5,1-1,1l-4.1,0
					C86,32.3,85.5,31.8,85.6,31.3z"/>
			</g>
			<g>
				<path class="st6" d="M63.9,31l0.2-18.6c0-0.5,0.5-1,1-1l4.1,0c0.5,0,1,0.5,1,1L70,31.1c0,0.5-0.5,1-1,1l-4.1,0
					C64.3,32.1,63.9,31.6,63.9,31z"/>
			</g>
			<g>
				<path class="st7" d="M74.9,66.2l0.4-36.1l5.1,0l-0.4,36.1c0,1.3-1.1,2.3-2.4,2.3l-0.4,0C75.9,68.5,74.9,67.5,74.9,66.2z"/>
			</g>
			<g>
				
					<rect x="69.6" y="14.1" transform="matrix(1.124604e-002 -0.9999 0.9999 1.124604e-002 55.0744 99.5352)" class="st8" width="16.5" height="15.5"/>
			</g>
		</g>
	</g>
</g>
</svg>
