<?xml version="1.0" encoding="utf-8"?>
<!-- Generator: Adobe Illustrator 18.1.1, SVG Export Plug-In . SVG Version: 6.00 Build 0)  -->
<!DOCTYPE svg PUBLIC "-//W3C//DTD SVG 1.1//EN" "http://www.w3.org/Graphics/SVG/1.1/DTD/svg11.dtd">
<svg version="1.1" id="Layer_2" xmlns="http://www.w3.org/2000/svg" xmlns:xlink="http://www.w3.org/1999/xlink" x="0px" y="0px"
	 viewBox="0 0 44.1 49.8" enable-background="new 0 0 44.1 49.8" xml:space="preserve">
<g>
	<g>
		<path fill="#FFFFFF" d="M40.6,49.8H9.5c-0.6,0-1.1-0.5-1.1-1.1c0-0.6,0.5-1.1,1.1-1.1h31.1c0.7,0,1.3-0.6,1.3-1.3V3.5
			c0-0.7-0.6-1.3-1.3-1.3H9.5c-0.7,0-1.3,0.6-1.3,1.3v38.5c0,0.6-0.5,1.1-1.1,1.1c-0.6,0-1.1-0.5-1.1-1.1V3.5C6,1.6,7.6,0,9.5,0
			h31.1c1.9,0,3.5,1.6,3.5,3.5v42.8C44.1,48.3,42.5,49.8,40.6,49.8L40.6,49.8z"/>
	</g>
	<g>
		<path fill="#FFFFFF" d="M22.7,20.2h-9.5c-0.6,0-1.1-0.5-1.1-1.1c0-0.6,0.5-1.1,1.1-1.1h9.5c0.6,0,1.1,0.5,1.1,1.1
			C23.8,19.7,23.4,20.2,22.7,20.2L22.7,20.2z"/>
	</g>
	<g>
		<path fill="#FFFFFF" d="M22.7,25.8h-9.5c-0.6,0-1.1-0.5-1.1-1.1c0-0.6,0.5-1.1,1.1-1.1h9.5c0.6,0,1.1,0.5,1.1,1.1
			C23.8,25.3,23.4,25.8,22.7,25.8L22.7,25.8z"/>
	</g>
	<g>
		<path fill="#FFFFFF" d="M22.7,31.5h-9.5c-0.6,0-1.1-0.5-1.1-1.1s0.5-1.1,1.1-1.1h9.5c0.6,0,1.1,0.5,1.1,1.1S23.4,31.5,22.7,31.5
			L22.7,31.5z"/>
	</g>
	<g>
		<path fill="#FFFFFF" d="M22.7,37.2h-9.5c-0.6,0-1.1-0.5-1.1-1.1s0.5-1.1,1.1-1.1h9.5c0.6,0,1.1,0.5,1.1,1.1S23.4,37.2,22.7,37.2
			L22.7,37.2z"/>
	</g>
	<g>
		<path fill="#FFFFFF" d="M22.7,42.8h-9.5c-0.6,0-1.1-0.5-1.1-1.1c0-0.6,0.5-1.1,1.1-1.1h9.5c0.6,0,1.1,0.5,1.1,1.1
			C23.8,42.3,23.4,42.8,22.7,42.8L22.7,42.8z"/>
	</g>
	<g>
		<path fill="#FFFFFF" d="M36.3,20.2h-9.5c-0.6,0-1.1-0.5-1.1-1.1c0-0.6,0.5-1.1,1.1-1.1h9.5c0.6,0,1.1,0.5,1.1,1.1
			C37.4,19.7,36.9,20.2,36.3,20.2L36.3,20.2z"/>
	</g>
	<g>
		<path fill="#FFFFFF" d="M36.3,25.8h-9.5c-0.6,0-1.1-0.5-1.1-1.1c0-0.6,0.5-1.1,1.1-1.1h9.5c0.6,0,1.1,0.5,1.1,1.1
			C37.4,25.3,36.9,25.8,36.3,25.8L36.3,25.8z"/>
	</g>
	<g>
		<path fill="#FFFFFF" d="M36.3,31.5h-9.5c-0.6,0-1.1-0.5-1.1-1.1s0.5-1.1,1.1-1.1h9.5c0.6,0,1.1,0.5,1.1,1.1S36.9,31.5,36.3,31.5
			L36.3,31.5z"/>
	</g>
	<g>
		<path fill="#FFFFFF" d="M36.3,37.2h-9.5c-0.6,0-1.1-0.5-1.1-1.1s0.5-1.1,1.1-1.1h9.5c0.6,0,1.1,0.5,1.1,1.1S36.9,37.2,36.3,37.2
			L36.3,37.2z"/>
	</g>
	<g>
		<path fill="#FFFFFF" d="M36.3,42.8h-9.5c-0.6,0-1.1-0.5-1.1-1.1c0-0.6,0.5-1.1,1.1-1.1h9.5c0.6,0,1.1,0.5,1.1,1.1
			C37.4,42.3,36.9,42.8,36.3,42.8L36.3,42.8z"/>
	</g>
	<g>
		<path fill="#FFFFFF" d="M22,49.8H3.5c-1.9,0-3.5-1.6-3.5-3.5V10.2c0-1,0.1-2,0.8-2.7C1.6,6.7,2.7,6.7,5,6.7l1.3,0c0,0,0,0,0,0
			c0.6,0,1.1,0.5,1.1,1.1c0,0.6-0.5,1.1-1.1,1.1L5,8.9c-1.2,0-2.4,0-2.7,0.2c0,0-0.1,0.2-0.1,1.1v36.1c0,0.7,0.6,1.3,1.3,1.3H22
			c0.6,0,1.1,0.5,1.1,1.1C23.1,49.4,22.6,49.8,22,49.8L22,49.8z"/>
	</g>
	<g>
		<path fill="#FFFFFF" d="M36.3,14.1H13.4c-0.6,0-1.1-0.5-1.1-1.1V7c0-0.6,0.5-1.1,1.1-1.1h22.9c0.6,0,1.1,0.5,1.1,1.1v6
			C37.4,13.6,36.9,14.1,36.3,14.1L36.3,14.1z M14.5,11.9h20.7V8.1H14.5V11.9L14.5,11.9z"/>
	</g>
</g>
</svg>
