<?xml version="1.0" encoding="utf-8"?>
<!-- Generator: Adobe Illustrator 18.1.1, SVG Export Plug-In . SVG Version: 6.00 Build 0)  -->
<!DOCTYPE svg PUBLIC "-//W3C//DTD SVG 1.1//EN" "http://www.w3.org/Graphics/SVG/1.1/DTD/svg11.dtd">
<svg version="1.1" id="Layer_2" xmlns="http://www.w3.org/2000/svg" xmlns:xlink="http://www.w3.org/1999/xlink" x="0px" y="0px"
	 viewBox="0 0 503.8 294.5" enable-background="new 0 0 503.8 294.5" xml:space="preserve">
<g>
	<path d="M200,294.5h-16l-24.6-19.4l-7-4.1l-15.2,0.5l-7.1-3h-16.4l-11.2,15.8l-15.2-1.5l-4-6l-9.5-0.9l5.4-15.1l-17.5-5.1v-16.5
		l-29.1-4.4l-8.1,9.2L3,234.4l-3-33.8l9.9-9.3l5.3-14.8l13.1-6.1l7.3,9.9l6.7-2.1l-1.6-7.5l-13.4-8.4l-3.5-13.4l10.1-16.6l1.3-7.7
		H33l-13.4-6.7L17,101.3L27,79.1l21.3-8.5l10.5-7.5L83,53.7l7.6,2.4l3.9-5.8l-7.1-18.8H97l11.1-8.7l6.9-16l10.2-2.9l1.3-3.9h16.2
		L156,27l3,19.4l5.3-2.8l-0.7-6.9l-2.3-12.9l18.2-4.4l1.3-4.6l14.9,0.9l8.6,17.2l5.3-2.5l26.9,13.7l13.8-4.3l25.3,4.8l6,2.7
		l9.4-11.5l6.1-4.9l10.6,8.7l7.5-7.5l29.3,3.9v4.9l9.2-1.6l7.1-13.7l33.3,7l1.5,13.8l17.7,2.8l10.1-18.8l14.4-7.2l24.5,9.4l23.1-2.2
		l3,5.4l15.4,3.4l-14,15l-9.5,5.2l-5.6,35.7l-2.5,0.7l9.8,20.2l-5.8,4.7l12,8l11.7,25.2l-11.4,19.1l-12.3,3l-14.4-9.1l-24.5,4.2
		l-17.3,1.6l-15.6-3.6L392.8,181l-16.2-7.5h-9.1l-8,6.5h-12.7l-1.6-6.8l-5.8,9.5l-8.7,5.1l-6.7,9l3.5,8.8l-4.9,22.5l-12.8,5.7
		l-7.5,2.4v13.6l-26.6-10l-6.4,5.1l-9.5-10l-8.8,2.9l0.7,2.4l10.4,12.7l9.6,11.2l-16.1,10.7l-0.5,11.3H240l-25.8,3.1V274h-2
		l-8.5,3.4v3.8L200,294.5z M187.4,284.5h5l1.3-4.7v-9.2l16.5-6.6h14v13.9l15.5-1.9h5.8l0.3-6.7l10.9-7.3l-2.4-2.8l-11.6-14.2
		l-4.3-13.6l24.2-8.1l7.5,8l3.6-2.9l18.4,7v-6.4l14.2-4.5l7.4-3.3l3.1-14.5l-4.5-11.2l11.3-15l8.3-4.9l0.5-0.8l-6.8-3.4l25.1-16.8
		l3.8,15.6h1.3l8-6.5h14.9l11.8,5.5l10.5-10.5l19.4,4.4l15.5-1.4l27.7-4.8l14.1,8.9l4.2-1l6.6-10.9l-8.3-17.8l-21-14l10.2-8.3
		l-5.5-11.4l-18-9l19.8-5.7l5.4-34.3l12.5-6.8l1-1l-2.6-0.6l-2-3.6L461,43.1l-22.5-8.6l-7.6,3.8l-11.9,22.2l-32.3-5.2l-1.5-14.2
		l-18.7-4l-5.9,11.3l-25.8,4.4v-8.1L319,42.8l-10.5,10.5l-11.2-9.1l-12.7,15.5l-12-5.3L251,50.1l-15.2,4.7l-26.1-13.3l-9.7,4.5
		l-10.4-20.8l-1.1-0.1l-0.7,2.4l-14.8,3.6l0.7,4.3l1.3,13.9l-23.7,12.2l-5-31.6l-9.8-20h-2.8l-0.7,2.1l-10.8,3.1l-6.1,14l-14.7,11.4
		l4.2,11.1L94.7,67.9l-11.4-3.6l-19.8,7.6l-10.5,7.5l-18.7,7.5l-7.1,15.8l1.4,8.5l6.6,3.3h11.8l-3.7,21.3l-8.9,14.5l1.5,5.5
		l13.6,8.6l4.4,20.5l-22.3,6.9l-6.7-9.1l-1.9,0.9l-4.7,13.2l-8.1,7.7l2,23.2l9.5,4.3l6.9-7.8l42.9,6.6v17.5l20.5,5.9l-4.6,12.9
		l1.5,0.1l4,6l4.8,0.5l10.8-15.2h23.6l6.9,3L155,261l10.3,6.1L187.4,284.5z"/>
</g>
<g>
	<polygon points="186.5,98.7 173.7,92.3 122.5,85 119,75.1 95.5,57.5 101.5,49.5 127.4,68.9 129.9,76 176.7,82.7 183.9,86.3 
		202.4,64.2 233.6,45.2 238.8,53.8 209,71.8 	"/>
</g>
<g>
	<polygon points="257,85.5 213.8,85.5 232,65.7 236.3,55.9 236.3,47.9 246.3,47.9 246.3,58.1 240.4,71.3 236.6,75.5 253.4,75.5 
		264.9,66 282.2,66 282.2,60.5 284.8,48.4 286.5,48.8 286.5,44.5 295.9,44.5 292.2,61.5 292.2,76 268.5,76 	"/>
</g>
<g>
	<polygon points="220.1,121.6 203,96.7 188.1,91.9 191.2,82.4 209.3,88.3 223.2,108.4 231.2,104 231.2,95.7 220.2,90.7 220.2,80.5 
		230.2,80.5 230.2,84.3 241.2,89.3 241.2,110 	"/>
</g>
<g>
	<polygon points="44.4,170 39.7,161.1 71.5,144.6 97.2,144.5 109.2,156 125,156 138.5,135.8 157.9,133.2 157,131.2 142.1,127.1 
		114.2,108.7 114.2,93.7 133.5,99.7 139.4,81.5 148.9,84.6 139.9,112.3 135.8,110.9 146.3,117.9 164.3,122.8 168.7,133 168.7,141.9 
		144.3,145.2 130.4,166 105.2,166 93.2,154.5 73.9,154.6 	"/>
</g>
<g>
	<polygon points="117.9,110.8 101.2,106.2 79.7,96.9 62,83.6 56.5,69.3 65.9,65.7 70.3,77.4 84.7,88.1 104.5,96.8 120.5,101.2 	"/>
</g>
<g>
	<polygon points="165.6,127.9 155.8,126.1 159.1,107.5 171.5,99.1 181.7,89 188.7,96 177.9,106.9 168.2,113.5 	"/>
</g>
<g>
	<polygon points="182,158.5 169.2,150.8 162.9,138.8 163.9,138.3 162.4,132.7 169.9,130.6 176.7,143.7 181.4,146.5 188.1,141.3 
		182.3,127.1 187.7,112.8 201.9,89.9 210.4,95.1 196.7,117.2 193.1,126.9 200.3,144.7 	"/>
</g>
<g>
	<polygon points="106.2,264.2 105,255 115,237.7 131.7,213 131.7,200.9 147.1,189.9 156.1,177.8 159.1,167.4 172.6,146.8 181,152.3 
		168.3,171.6 165.3,182.2 154.2,197.1 141.7,206.1 141.7,216 123.4,243.2 115.4,257 116.1,262.8 	"/>
</g>
<g>
	<polygon points="188,246.2 174.4,234.1 157.5,230.2 159.7,222.4 145.2,219.5 136.7,219.5 136.7,209.5 146.2,209.5 172.2,214.6 
		169.9,222.8 179.2,224.9 191.3,235.8 209.3,233.6 233.5,227.4 245.6,229.6 243.8,239.4 233.9,237.6 210.8,243.5 	"/>
</g>
<g>
	<polygon points="195.6,147.8 192.8,138.2 205.5,134.5 218.5,134.5 226.1,128.9 220.3,122.8 231,117.7 227.2,112.8 235.2,106.7 
		246.4,121.3 237.1,125.8 241.2,130.1 221.8,144.5 206.9,144.5 	"/>
</g>
<g>
	<polygon points="306.2,105.9 306.2,97.5 299.2,97.5 299.2,85.5 285.8,85.5 282.4,72.3 292,69.7 293.5,75.5 309.2,75.5 309.2,87.5 
		316.2,87.5 316.2,94.1 322.4,93 352.5,75.4 383.6,78 403.4,75.6 422.2,71.7 427.2,53.3 427.2,32 437.2,32 437.2,54.7 430.2,80.3 
		404.8,85.5 383.8,88.1 354.8,85.6 325.9,102.5 	"/>
</g>
<g>
	<polygon points="271.8,108.7 251.3,83.7 259.1,77.3 274.6,96.3 294.1,87 313.2,95.4 309.2,104.6 294.3,98 	"/>
</g>
<g>
	<polygon points="358,172.5 355.3,164.5 346.9,154.5 327.6,154.5 298.5,147.7 281.6,139.7 288.4,131.8 274.7,125.8 274.7,114.8 
		258.7,114.8 269.1,99.7 276.5,104.8 284.7,104.8 284.7,119.2 304.9,128.2 297.8,136.3 301.9,138.3 328.8,144.5 351.5,144.5 
		364.1,159.5 367.5,169.3 	"/>
</g>
<g>
	<polygon points="263.2,167.3 240.8,146.2 229.8,132.7 237.6,126.3 248.4,139.6 261.2,151.7 270.2,137.6 287.5,148.7 304.4,140.1 
		308.9,148.9 286.9,160.3 273.2,151.4 	"/>
</g>
<g>
	<polygon points="278.9,197 234.9,186.9 228.9,191.5 214.4,191.5 205.2,182.6 193.9,188.3 184.5,182.1 177.8,185 160.7,185 
		160.7,175 175.8,175 185.4,170.9 194.5,176.7 207.1,170.4 218.5,181.5 225.5,181.5 232.5,176.1 271.5,185 274.8,171.1 307.5,174.1 
		328.4,179.1 326,188.9 305.8,183.9 282.5,181.9 	"/>
</g>
<g>
	<polygon points="240.1,232.9 232.6,214.5 202.4,210 211.4,200.9 211.4,186.5 221.4,186.5 221.4,202.7 239.8,205.5 249.3,229.1 	"/>
</g>
<g>
	<polygon points="181.7,230.5 171.9,228.5 175.2,211.5 175.2,178.5 185.2,178.5 185.2,212.5 	"/>
</g>
</svg>
