<?xml version="1.0" encoding="utf-8"?>
<!-- Generator: Adobe Illustrator 18.1.1, SVG Export Plug-In . SVG Version: 6.00 Build 0)  -->
<!DOCTYPE svg PUBLIC "-//W3C//DTD SVG 1.1//EN" "http://www.w3.org/Graphics/SVG/1.1/DTD/svg11.dtd">
<svg version="1.1" id="Layer_1" xmlns="http://www.w3.org/2000/svg" xmlns:xlink="http://www.w3.org/1999/xlink" x="0px" y="0px"
	 viewBox="0 0 29.6 35.6" enable-background="new 0 0 29.6 35.6" xml:space="preserve">
<g>
	<path d="M29.6,8.2L29.6,8.2c0-0.1,0-0.1,0-0.1c0-0.1,0-0.2-0.1-0.3c0-0.1-0.1-0.1-0.1-0.2c0,0,0-0.1-0.1-0.1l-7-7.2c0,0,0,0,0,0
		c-0.1-0.1-0.2-0.2-0.3-0.2C21.9,0,21.7,0,21.6,0c0,0,0,0,0,0H8C6.3,0,5,1.3,5,3v2.4H3c-1.7,0-3,1.3-3,3v24.2c0,1.7,1.3,3,3,3h18.6
		c1.7,0,3-1.3,3-3v-2.4h2c1.7,0,3-1.3,3-3V8.2C29.6,8.2,29.6,8.2,29.6,8.2z M22.6,3.5l3.6,3.7h-3.6V3.5z M22.6,32.6c0,0.6-0.4,1-1,1
		H3c-0.6,0-1-0.4-1-1V8.4c0-0.6,0.4-1,1-1h2v19.8c0,1.7,1.3,3,3,3h14.6V32.6z M26.6,28.2H8c-0.6,0-1-0.4-1-1V3c0-0.6,0.4-1,1-1h12.6
		v6.2c0,0.6,0.4,1,1,1h6v18C27.6,27.7,27.1,28.2,26.6,28.2z"/>
	<path d="M24.7,11.6H10.9c-0.6,0-1,0.4-1,1c0,0.6,0.4,1,1,1h13.9c0.6,0,1-0.4,1-1C25.7,12.1,25.3,11.6,24.7,11.6z"/>
	<path d="M24.7,16.6H10.9c-0.6,0-1,0.4-1,1c0,0.6,0.4,1,1,1h13.9c0.6,0,1-0.4,1-1C25.7,17.1,25.3,16.6,24.7,16.6z"/>
	<path d="M24.7,21.6H10.9c-0.6,0-1,0.4-1,1c0,0.6,0.4,1,1,1h13.9c0.6,0,1-0.4,1-1C25.7,22.1,25.3,21.6,24.7,21.6z"/>
</g>
</svg>
