<?xml version="1.0" encoding="utf-8"?>
<!-- Generator: Adobe Illustrator 18.1.1, SVG Export Plug-In . SVG Version: 6.00 Build 0)  -->
<!DOCTYPE svg PUBLIC "-//W3C//DTD SVG 1.1//EN" "http://www.w3.org/Graphics/SVG/1.1/DTD/svg11.dtd">
<svg version="1.1" id="Layer_2" xmlns="http://www.w3.org/2000/svg" xmlns:xlink="http://www.w3.org/1999/xlink" x="0px" y="0px"
	 viewBox="0 0 60.5 41.9" enable-background="new 0 0 60.5 41.9" xml:space="preserve">
<g>
	<g>
		<g>
			<path fill="#FFFFFF" d="M29.4,18.5c-4.5,0-8.1-4.1-8.1-9.2S24.9,0,29.4,0c4.5,0,8.1,4.1,8.1,9.2S33.9,18.5,29.4,18.5L29.4,18.5z
				 M29.4,1.9c-3.4,0-6.2,3.3-6.2,7.3c0,4,2.8,7.3,6.2,7.3c3.4,0,6.2-3.3,6.2-7.3C35.7,5.2,32.9,1.9,29.4,1.9L29.4,1.9z"/>
		</g>
		<g>
			<g>
				<path fill="#FFFFFF" d="M29,41.9H15.6c-0.5,0-0.9-0.4-0.9-0.9c-0.2-2.8-0.4-5.5-0.6-8.2l0-0.7c-0.2-2.9,2.1-6.3,5-7.3
					c2.4-0.9,5-1.4,7.5-1.7c0.5,0,1,0.3,1,0.8l2.4,16.9c0,0.3,0,0.5-0.2,0.8C29.5,41.8,29.3,41.9,29,41.9L29,41.9z M16.4,40h11.5
					l-2.1-14.9c-2.1,0.3-4.2,0.8-6.2,1.5c-2.3,0.8-3.8,3.6-3.7,5.4l0,0.7C16.1,35.1,16.3,37.6,16.4,40L16.4,40z"/>
			</g>
			<g>
				<path fill="#FFFFFF" d="M43.3,41.9H29.8c-0.3,0-0.5-0.1-0.7-0.3c-0.2-0.2-0.3-0.5-0.2-0.8l2.4-16.9c0.1-0.5,0.6-0.8,1-0.8
					c2.6,0.2,5.1,0.8,7.5,1.7c3.2,1.2,5.1,4.7,5,7.3L44.2,41C44.2,41.5,43.8,41.9,43.3,41.9L43.3,41.9z M30.9,40h11.5l0.5-8
					c0.1-1.9-1.4-4.6-3.7-5.4c-2-0.7-4-1.2-6.2-1.5L30.9,40L30.9,40z"/>
			</g>
		</g>
		<g>
			<g>
				<path fill="#FFFFFF" d="M34.7,41.6c-0.1,0-0.2,0-0.3-0.1c-0.5-0.2-0.7-0.7-0.6-1.2l2.2-5.9l-1.8-2.8c-0.2-0.2-0.2-0.6-0.1-0.8
					c0.1-0.3,0.3-0.5,0.6-0.6l2.2-0.7l-1.1-4.3c-0.1-0.5,0.2-1,0.7-1.1c0.5-0.1,1,0.2,1.1,0.7l1.3,5.2c0.1,0.5-0.2,1-0.6,1.1
					l-1.8,0.6l1.4,2.1c0.2,0.3,0.2,0.6,0.1,0.8L35.6,41C35.4,41.4,35.1,41.6,34.7,41.6L34.7,41.6z"/>
			</g>
			<g>
				<path fill="#FFFFFF" d="M24.1,41.6c-0.4,0-0.7-0.2-0.9-0.6l-2.4-6.3c-0.1-0.3-0.1-0.6,0.1-0.8l1.4-2.1l-1.8-0.6
					c-0.5-0.1-0.8-0.6-0.6-1.1l1.3-5.2c0.1-0.5,0.6-0.8,1.1-0.7c0.5,0.1,0.8,0.6,0.7,1.1l-1.1,4.3l2.2,0.7c0.3,0.1,0.5,0.3,0.6,0.6
					c0.1,0.3,0.1,0.6-0.1,0.8l-1.8,2.8l2.2,5.9c0.2,0.5-0.1,1-0.6,1.2C24.3,41.6,24.2,41.6,24.1,41.6L24.1,41.6z"/>
			</g>
		</g>
	</g>
	<g>
		<path fill="#FFFFFF" d="M13.7,20.7l-0.6,4.1c0.5-0.3,1-0.6,1.7-0.9l0.3-2.2c0.8,0.1,1.5,0.2,2.3,0.4l0.2,0.7
			c1.3-0.4,2.6-0.8,3.7-1c-0.2-0.1-0.5-0.3-0.8-0.4c-1.9-0.7-3.9-1.1-6-1.3C14.2,20,13.8,20.3,13.7,20.7z"/>
		<path fill="#FFFFFF" d="M12.3,16.4c3.6,0,6.5-3.3,6.5-7.3s-2.9-7.3-6.5-7.3C8.7,1.7,5.8,5,5.8,9S8.7,16.4,12.3,16.4z M12.3,3.2
			c2.7,0,5,2.6,5,5.8c0,3.2-2.2,5.8-5,5.8c-2.7,0-5-2.6-5-5.8C7.3,5.8,9.5,3.2,12.3,3.2z"/>
		<path fill="#FFFFFF" d="M11.7,27.3l-0.9-6.6c-0.1-0.4-0.4-0.7-0.8-0.6c-2.1,0.2-4.1,0.6-6,1.3c-2.3,0.8-4.1,3.5-3.9,5.8l0,0.6
			c0.1,2.2,0.3,4.4,0.4,6.6c0,0.4,0.4,0.7,0.8,0.7h10.7C11.6,32.9,11.3,29.6,11.7,27.3z M1.9,33.5c-0.1-2-0.3-3.9-0.4-5.8l0-0.6
			c-0.1-1.5,1.1-3.6,3-4.3c0.3-0.1,0.6-0.2,1-0.3l-0.7,3.1c-0.1,0.4,0.1,0.8,0.5,0.9l1.4,0.5l-1.1,1.7c-0.1,0.2-0.2,0.4-0.1,0.7
			l1.6,4.3H1.9z M8.7,33.5L7,29.1l1.4-2.2c0.1-0.2,0.2-0.4,0.1-0.7C8.4,26,8.3,25.8,8,25.8l-1.7-0.5L7.1,22c0.8-0.2,1.5-0.3,2.3-0.4
			l1.7,11.9H8.7z"/>
	</g>
	<g>
		<path fill="#FFFFFF" d="M48.3,16.4c3.6,0,6.5-3.3,6.5-7.3s-2.9-7.3-6.5-7.3c-3.6,0-6.5,3.3-6.5,7.3S44.7,16.4,48.3,16.4z
			 M48.3,3.2c2.7,0,5,2.6,5,5.8c0,3.2-2.2,5.8-5,5.8c-2.7,0-5-2.6-5-5.8C43.3,5.8,45.5,3.2,48.3,3.2z"/>
		<path fill="#FFFFFF" d="M56.6,21.4c-1.9-0.7-3.9-1.1-6-1.3c-0.4,0-0.8,0.2-0.8,0.6l-1.5,10.5l-1.5-10.5c-0.1-0.4-0.4-0.7-0.8-0.6
			c-2.1,0.2-4.1,0.6-6,1.3c0,0,0.6,0.4,1.4,1.1c0,0,0.1,0,0.1,0l0,0.1c0.4,0.4,0.8,0.8,1.2,1.3l0.4-1.8c0.8-0.2,1.5-0.3,2.3-0.4
			l1.7,11.9H47c0.1,0.5,0.1,1,0.1,1.5h0.9c0.1,0,0.2,0,0.3-0.1c0.1,0.1,0.2,0.1,0.3,0.1h10.7c0.4,0,0.7-0.3,0.8-0.7l0.5-7.1
			C60.7,25.2,59.1,22.3,56.6,21.4z M49.5,33.5l1.7-11.9c0.8,0.1,1.5,0.2,2.3,0.4l0.8,3.2l-1.7,0.5c-0.2,0.1-0.4,0.2-0.5,0.5
			c-0.1,0.2,0,0.5,0.1,0.7l1.4,2.2l-1.7,4.4H49.5z M58.6,33.5h-5.1l1.6-4.3c0.1-0.2,0.1-0.5-0.1-0.7l-1.1-1.7l1.4-0.5
			c0.4-0.1,0.6-0.5,0.5-0.9l-0.7-3.1c0.3,0.1,0.6,0.2,1,0.3c1.8,0.7,3.1,2.8,3,4.3L58.6,33.5z"/>
	</g>
</g>
</svg>
