<?xml version="1.0" encoding="utf-8"?>
<!-- Generator: Adobe Illustrator 18.1.1, SVG Export Plug-In . SVG Version: 6.00 Build 0)  -->
<!DOCTYPE svg PUBLIC "-//W3C//DTD SVG 1.1//EN" "http://www.w3.org/Graphics/SVG/1.1/DTD/svg11.dtd">
<svg version="1.1" id="Layer_1" xmlns="http://www.w3.org/2000/svg" xmlns:xlink="http://www.w3.org/1999/xlink" x="0px" y="0px"
	 viewBox="0 0 34.1 28.8" enable-background="new 0 0 34.1 28.8" xml:space="preserve">
<g>
	<g>
		<g>
			<path d="M31.1,28.8H3c-1.7,0-3-1.3-3-3V5.6c0-1.7,1.3-3,3-3h2.3c0.6,0,1,0.4,1,1c0,0.6-0.4,1-1,1H3c-0.6,0-1,0.4-1,1v20.3
				c0,0.6,0.4,1,1,1h28.1c0.6,0,1-0.4,1-1V5.6c0-0.6-0.4-1-1-1h-2.3c-0.6,0-1-0.4-1-1c0-0.6,0.4-1,1-1h2.3c1.7,0,3,1.3,3,3v20.3
				C34.1,27.5,32.7,28.8,31.1,28.8z"/>
		</g>
		<g>
			<path d="M25.6,4.6H8.4c-0.6,0-1-0.4-1-1c0-0.6,0.4-1,1-1h17.2c0.6,0,1,0.4,1,1C26.6,4.1,26.2,4.6,25.6,4.6z"/>
		</g>
	</g>
	<g>
		<g>
			<g>
				<path d="M19.7,24.8H5.8c-0.6,0-1-0.4-1-1v-1.8c0-1.9,2.3-2.7,3.1-3c1.9-0.7,1.9-1.1,1.9-1.8c0-0.1,0-0.1-0.1-0.2
					c-0.2-0.3-0.4-0.7-0.6-1.5c-0.5-0.3-0.8-0.9-0.8-1.8c0-0.4,0.1-0.8,0.2-1.1c0-0.1,0-0.3-0.1-0.4c-0.1-0.8-0.6-3.5,2.1-4.6
					c1.5-0.6,3.1-0.5,4,0.1C15,8,15.7,8.2,16.3,8.9c0.9,1.1,0.8,3,0.7,3.9c0.1,0.3,0.2,0.6,0.2,1c-0.1,1-0.3,1.5-0.8,1.8
					c-0.2,0.8-0.4,1.1-0.6,1.5c0,0,0,0.1-0.1,0.1c0,0.8,0,1.2,1.9,1.9c0.8,0.3,3.1,1.1,3.1,3v1.8C20.7,24.4,20.2,24.8,19.7,24.8z
					 M6.8,22.8h11.9v-0.8c0-0.1-0.3-0.6-1.8-1.1c-2-0.7-3.2-1.6-3.2-3.7c0-0.6,0.2-1,0.4-1.3c0.1-0.2,0.2-0.3,0.3-0.9
					c0.1-0.6,0.5-0.9,0.7-1c0,0,0-0.1,0-0.2c-0.2-0.2-0.3-0.6-0.3-0.9c0.2-1,0.2-2.4-0.2-2.8c-0.2-0.2-0.6-0.3-0.7-0.3
					c-0.1,0-0.2,0-0.3-0.1c-0.2,0-0.4-0.2-0.5-0.3c-0.2-0.1-1.2-0.2-2,0.2c-0.9,0.4-1.1,1-0.9,2.4c0.1,0.5,0.1,0.8,0.1,0.8
					c0.1,0.3-0.1,0.7-0.3,0.9c0,0.1,0,0.2,0,0.2c0.2,0.1,0.6,0.4,0.7,1c0.1,0.6,0.2,0.8,0.3,0.9c0.2,0.3,0.4,0.7,0.4,1.3
					c0,2.1-1.2,2.9-3.2,3.7c-1.4,0.5-1.8,1-1.8,1.1V22.8z"/>
			</g>
		</g>
		<g>
			<g>
				<path d="M28.3,12.7h-5.2c-0.6,0-1-0.4-1-1c0-0.6,0.4-1,1-1h5.2c0.6,0,1,0.4,1,1C29.3,12.2,28.9,12.7,28.3,12.7z"/>
			</g>
			<g>
				<path d="M28.3,17.1h-5.2c-0.6,0-1-0.4-1-1c0-0.6,0.4-1,1-1h5.2c0.6,0,1,0.4,1,1C29.3,16.7,28.9,17.1,28.3,17.1z"/>
			</g>
			<g>
				<path d="M28.3,21.6h-5.2c-0.6,0-1-0.4-1-1c0-0.6,0.4-1,1-1h5.2c0.6,0,1,0.4,1,1C29.3,21.1,28.9,21.6,28.3,21.6z"/>
			</g>
		</g>
	</g>
	<g>
		<path d="M7.4,7.1H6.3c-1.1,0-2-0.9-2-2V2c0-1.1,0.9-2,2-2h1.1c1.1,0,2,0.9,2,2v3.1C9.4,6.2,8.5,7.1,7.4,7.1z M7.4,5.1v1V5.1
			L7.4,5.1L7.4,5.1z M6.3,2v3.1h1.1l0-3.1H6.3z"/>
	</g>
	<g>
		<path d="M27.7,7.1h-1.1c-1.1,0-2-0.9-2-2V2c0-1.1,0.9-2,2-2h1.1c1.1,0,2,0.9,2,2v3.1C29.7,6.2,28.8,7.1,27.7,7.1z M27.7,5.1v1V5.1
			L27.7,5.1L27.7,5.1z M26.6,2v3.1h1.1l0-3.1H26.6z"/>
	</g>
</g>
</svg>
