<?xml version="1.0" encoding="utf-8"?>
<!-- Generator: Adobe Illustrator 18.1.1, SVG Export Plug-In . SVG Version: 6.00 Build 0)  -->
<!DOCTYPE svg PUBLIC "-//W3C//DTD SVG 1.1//EN" "http://www.w3.org/Graphics/SVG/1.1/DTD/svg11.dtd">
<svg version="1.1" id="Layer_2" xmlns="http://www.w3.org/2000/svg" xmlns:xlink="http://www.w3.org/1999/xlink" x="0px" y="0px"
	 viewBox="0 0 49.5 42.4" enable-background="new 0 0 49.5 42.4" xml:space="preserve">
<g>
	<g>
		<path fill="#FFFFFF" d="M47.2,17.3H2.4c-0.4,0-0.8-0.3-0.9-0.7c-0.1-0.4,0-0.9,0.4-1.1L24.2,0.2c0.3-0.2,0.8-0.2,1.1,0l22.4,15.3
			c0.4,0.2,0.5,0.7,0.4,1.1C48,17,47.6,17.3,47.2,17.3L47.2,17.3z M5.5,15.3H44L24.8,2.2L5.5,15.3L5.5,15.3z"/>
	</g>
	<g>
		<g>
			<path fill="#FFFFFF" d="M8,36.6c-0.5,0-1-0.4-1-1V17.1c0-0.5,0.4-1,1-1c0.5,0,1,0.4,1,1v18.5C9,36.1,8.5,36.6,8,36.6L8,36.6z"/>
		</g>
		<g>
			<path fill="#FFFFFF" d="M41.5,36.6c-0.5,0-1-0.4-1-1V17.1c0-0.5,0.4-1,1-1c0.5,0,1,0.4,1,1v18.5C42.5,36.1,42.1,36.6,41.5,36.6
				L41.5,36.6z"/>
		</g>
		<g>
			<path fill="#FFFFFF" d="M16.4,36.6c-0.5,0-1-0.4-1-1V17.1c0-0.5,0.4-1,1-1c0.5,0,1,0.4,1,1v18.5C17.4,36.1,16.9,36.6,16.4,36.6
				L16.4,36.6z"/>
		</g>
		<g>
			<path fill="#FFFFFF" d="M24.8,36.6c-0.5,0-1-0.4-1-1V17.1c0-0.5,0.4-1,1-1s1,0.4,1,1v18.5C25.7,36.1,25.3,36.6,24.8,36.6
				L24.8,36.6z"/>
		</g>
		<g>
			<path fill="#FFFFFF" d="M33.1,36.6c-0.5,0-1-0.4-1-1V17.1c0-0.5,0.4-1,1-1c0.5,0,1,0.4,1,1v18.5C34.1,36.1,33.7,36.6,33.1,36.6
				L33.1,36.6z"/>
		</g>
	</g>
	<g>
		<path fill="#FFFFFF" d="M44.7,36.8H4.9c-0.5,0-1-0.4-1-1c0-0.5,0.4-1,1-1h39.8c0.5,0,1,0.4,1,1C45.6,36.4,45.2,36.8,44.7,36.8
			L44.7,36.8z"/>
	</g>
	<g>
		<path fill="#FFFFFF" d="M48.6,42.4H1c-0.5,0-1-0.4-1-1c0-0.5,0.4-1,1-1h47.6c0.5,0,1,0.4,1,1C49.5,42,49.1,42.4,48.6,42.4
			L48.6,42.4z"/>
	</g>
</g>
</svg>
