<?xml version="1.0" encoding="utf-8"?>
<!-- Generator: Adobe Illustrator 18.1.1, SVG Export Plug-In . SVG Version: 6.00 Build 0)  -->
<!DOCTYPE svg PUBLIC "-//W3C//DTD SVG 1.1//EN" "http://www.w3.org/Graphics/SVG/1.1/DTD/svg11.dtd">
<svg version="1.1" id="Layer_2" xmlns="http://www.w3.org/2000/svg" xmlns:xlink="http://www.w3.org/1999/xlink" x="0px" y="0px"
	 viewBox="0 0 53 59" enable-background="new 0 0 53 59" xml:space="preserve">
<g>
	<g>
		<g>
			<path fill="#FFFFFF" d="M15.2,41.4L2.5,28.6c-0.4-0.4-0.4-1.1,0-1.5L29.2,0.3c0.4-0.4,1.1-0.4,1.5,0l21.9,21.9
				c0.4,0.4,0.4,1.1,0,1.5L35.1,41.4c-0.2,0.2-0.5,0.3-0.8,0.3l-18.3,0C15.7,41.7,15.4,41.6,15.2,41.4L15.2,41.4z M4.7,27.9
				l11.7,11.7l17.4,0L50.4,23L30,2.6L4.7,27.9L4.7,27.9z"/>
		</g>
		<g>
			<path fill="#FFFFFF" d="M34.5,18.7l-5.9-5.9c-0.4-0.4-0.4-1.1,0-1.5c0.4-0.4,1.1-0.4,1.5,0l5.9,5.9c0.4,0.4,0.4,1.1,0,1.5
				C35.6,19.2,35,19.2,34.5,18.7L34.5,18.7z"/>
		</g>
		<g>
			<path fill="#FFFFFF" d="M36.8,28.3L24.9,16.5c-0.4-0.4-0.4-1.1,0-1.5c0.4-0.4,1.1-0.4,1.5,0l11.8,11.8c0.4,0.4,0.4,1.1,0,1.5
				C37.9,28.8,37.2,28.8,36.8,28.3L36.8,28.3z"/>
		</g>
		<g>
			<path fill="#FFFFFF" d="M33.1,32L21.2,20.2c-0.4-0.4-0.4-1.1,0-1.5c0.4-0.4,1.1-0.4,1.5,0l11.8,11.8c0.4,0.4,0.4,1.1,0,1.5
				C34.2,32.5,33.5,32.5,33.1,32L33.1,32z"/>
		</g>
		<g>
			<path fill="#FFFFFF" d="M20.7,27.1l-3.2-3.2c-0.4-0.4-0.4-1.1,0-1.5c0.4-0.4,1.1-0.4,1.5,0l3.2,3.2c0.4,0.4,0.4,1.1,0,1.5
				C21.8,27.5,21.1,27.5,20.7,27.1L20.7,27.1z"/>
		</g>
	</g>
	<g>
		<g>
			<path fill="#FFFFFF" d="M48.3,59H1.1C0.5,59,0,58.6,0,58V40.7c0-0.6,0.5-1.1,1.1-1.1h47.2c0.6,0,1.1,0.5,1.1,1.1V58
				C49.4,58.6,48.9,59,48.3,59L48.3,59z M2.2,56.9h45v-15h-45V56.9L2.2,56.9z"/>
		</g>
	</g>
</g>
</svg>
