<?xml version="1.0" encoding="utf-8"?>
<!-- Generator: Adobe Illustrator 17.0.2, SVG Export Plug-In . SVG Version: 6.00 Build 0)  -->
<!DOCTYPE svg PUBLIC "-//W3C//DTD SVG 1.1//EN" "http://www.w3.org/Graphics/SVG/1.1/DTD/svg11.dtd">
<svg version="1.1" id="Layer_1" xmlns="http://www.w3.org/2000/svg" xmlns:xlink="http://www.w3.org/1999/xlink" x="0px" y="0px"
	 width="400px" height="100px" viewBox="0 0 400 100" enable-background="new 0 0 400 100" xml:space="preserve">
<g>
	<g>
		<g id="hexagon-flat_30_" transform="translate(173.000000, 138.000000)">
			<polygon id="Polygon-48_31_" fill="#3972B9" points="-127.863,-137.637 -85.019,-112.902 -85.019,-63.431 -127.863,-38.695 
				-170.706,-63.431 -170.706,-112.902 			"/>
		</g>
		<polygon opacity="0.5" fill="#010101" fill-opacity="0.4" points="45.137,34.124 45.137,18.415 16.486,32.2 2.294,46.393 
			2.294,74.559 43.342,98.258 74.069,67.531 72.347,34.124 		"/>
		<g id="hexagon-flat_29_" transform="translate(173.000000, 138.000000)">
			
				<polygon id="Polygon-48_30_" fill="none" stroke="#3C84C5" stroke-width="4" stroke-linecap="round" stroke-linejoin="round" stroke-miterlimit="10" points="
				-127.863,-119.585 -127.863,-103.876 -100.653,-103.876 -100.653,-72.457 -127.863,-56.747 -155.072,-72.457 -155.072,-103.876 
							"/>
		</g>
		<g id="hexagon-flat_28_" transform="translate(173.000000, 138.000000)">
			
				<polyline id="Polygon-48_29_" fill="none" stroke="#FFFFFF" stroke-width="4" stroke-linecap="round" stroke-linejoin="round" stroke-miterlimit="10" points="
				-155.072,-72.457 -155.072,-103.876 -127.863,-85.295 -100.653,-103.876 -100.653,-72.457 			"/>
		</g>
	</g>
	<g>
		<g>
			<path fill="#FFFFFF" d="M106.848,61.82V38.47c0-0.247,0.045-0.479,0.135-0.698c0.09-0.219,0.216-0.409,0.379-0.572
				c0.163-0.163,0.35-0.289,0.564-0.379c0.213-0.09,0.449-0.135,0.707-0.135c0.695,0,1.222,0.32,1.581,0.959l10.094,20.171
				L130.4,37.645c0.404-0.639,0.931-0.959,1.581-0.959c0.247,0,0.479,0.045,0.698,0.135c0.219,0.09,0.409,0.216,0.572,0.379
				c0.163,0.163,0.289,0.353,0.379,0.572c0.09,0.219,0.135,0.451,0.135,0.698v23.35c0,0.493-0.174,0.914-0.522,1.262
				c-0.348,0.348-0.768,0.522-1.262,0.522s-0.914-0.174-1.262-0.522c-0.348-0.348-0.522-0.768-0.522-1.262V46.04l-8.344,16.672
				c-0.348,0.594-0.864,0.892-1.548,0.892c-0.74,0-1.284-0.359-1.632-1.077l-8.26-16.487v15.78c0,0.493-0.174,0.914-0.522,1.262
				c-0.348,0.348-0.768,0.522-1.262,0.522s-0.914-0.174-1.262-0.522C107.022,62.734,106.848,62.314,106.848,61.82z"/>
			<path fill="#FFFFFF" d="M165.096,50.145c0,3.712-1.318,6.886-3.953,9.522c-2.624,2.624-5.793,3.937-9.505,3.937
				c-3.723,0-6.897-1.312-9.522-3.937c-2.624-2.624-3.937-5.798-3.937-9.522c0-3.712,1.312-6.881,3.937-9.505
				c2.636-2.636,5.81-3.953,9.522-3.953c3.701,0,6.869,1.318,9.505,3.953c1.323,1.323,2.313,2.77,2.969,4.34
				C164.768,46.55,165.096,48.272,165.096,50.145z M151.637,40.253c-1.391,0-2.661,0.241-3.81,0.723
				c-1.15,0.482-2.212,1.211-3.188,2.187s-1.702,2.036-2.179,3.18c-0.477,1.144-0.715,2.411-0.715,3.802
				c0,2.737,0.965,5.069,2.894,6.998c1.929,1.929,4.262,2.894,6.998,2.894s5.069-0.965,6.998-2.894
				c1.929-1.929,2.894-4.262,2.894-6.998c0-2.725-0.965-5.053-2.894-6.982C156.695,41.223,154.363,40.253,151.637,40.253z"/>
			<path fill="#FFFFFF" d="M172.975,55.326c0,0.662,0.123,1.279,0.37,1.851c0.247,0.572,0.58,1.068,1.001,1.489
				s0.917,0.754,1.489,1.001c0.572,0.247,1.189,0.37,1.851,0.37c0.65,0,1.262-0.123,1.834-0.37c0.572-0.247,1.068-0.583,1.489-1.009
				c0.421-0.426,0.754-0.925,1.001-1.497c0.247-0.572,0.37-1.183,0.37-1.834V38.47c0-0.493,0.174-0.914,0.522-1.262
				c0.348-0.348,0.768-0.522,1.262-0.522c0.493,0,0.914,0.174,1.262,0.522s0.522,0.768,0.522,1.262v16.857
				c0,1.133-0.219,2.201-0.656,3.205c-0.437,1.004-1.029,1.881-1.775,2.633s-1.621,1.346-2.624,1.783
				c-1.004,0.437-2.072,0.656-3.205,0.656c-1.144,0-2.218-0.219-3.222-0.656c-1.004-0.437-1.879-1.035-2.624-1.792
				c-0.746-0.757-1.337-1.635-1.775-2.633c-0.437-0.998-0.656-2.064-0.656-3.196c0-0.493,0.174-0.914,0.521-1.262
				c0.348-0.348,0.768-0.522,1.262-0.522c0.493,0,0.914,0.174,1.262,0.522S172.975,54.833,172.975,55.326z"/>
			<path fill="#FFFFFF" d="M207.352,60.037c0.493,0,0.914,0.174,1.262,0.522s0.522,0.768,0.522,1.262s-0.174,0.914-0.522,1.262
				s-0.768,0.522-1.262,0.522h-15.561c-0.258,0-0.493-0.045-0.707-0.135c-0.213-0.09-0.401-0.216-0.564-0.379
				c-0.163-0.163-0.289-0.35-0.379-0.564c-0.09-0.213-0.135-0.449-0.135-0.707V38.47c0-0.247,0.045-0.479,0.135-0.698
				c0.09-0.219,0.216-0.409,0.379-0.572c0.163-0.163,0.35-0.289,0.564-0.379c0.213-0.09,0.449-0.135,0.707-0.135h15.561
				c0.493,0,0.914,0.174,1.262,0.522s0.522,0.768,0.522,1.262c0,0.493-0.174,0.914-0.522,1.262s-0.768,0.522-1.262,0.522h-13.778
				v8.109h9.892c0.493,0,0.914,0.174,1.262,0.522c0.348,0.348,0.521,0.768,0.521,1.262c0,0.493-0.174,0.914-0.521,1.262
				c-0.348,0.348-0.768,0.522-1.262,0.522h-9.892v8.109H207.352z"/>
			<path fill="#FFFFFF" d="M225.046,61.82V38.47c0-0.247,0.045-0.479,0.135-0.698c0.09-0.219,0.216-0.409,0.379-0.572
				c0.163-0.163,0.35-0.289,0.564-0.379c0.213-0.09,0.449-0.135,0.707-0.135h5.181c0.808,0,1.59,0.107,2.347,0.32
				c0.757,0.213,1.466,0.516,2.128,0.908c0.662,0.393,1.267,0.861,1.817,1.405c0.55,0.544,1.018,1.147,1.405,1.808
				c0.387,0.662,0.69,1.371,0.908,2.128c0.219,0.757,0.328,1.539,0.328,2.347c0,2.445-0.88,4.548-2.641,6.309
				c-1.738,1.738-3.836,2.608-6.292,2.608h-3.398v7.301c0,0.493-0.174,0.914-0.522,1.262s-0.768,0.522-1.262,0.522
				c-0.493,0-0.914-0.174-1.262-0.522S225.046,62.314,225.046,61.82z M228.613,40.253v10.699h3.398c0.729,0,1.416-0.14,2.061-0.421
				c0.645-0.28,1.211-0.662,1.699-1.144s0.875-1.049,1.161-1.699s0.429-1.346,0.429-2.086c0-0.751-0.143-1.452-0.429-2.103
				s-0.673-1.217-1.161-1.699c-0.488-0.482-1.057-0.861-1.708-1.136c-0.65-0.275-1.335-0.412-2.052-0.412H228.613z"/>
			<path fill="#FFFFFF" d="M242.128,61.013l8.983-23.115c0.359-0.808,0.925-1.211,1.699-1.211c0.796,0,1.363,0.404,1.699,1.211
				l9.017,23.199c0.09,0.224,0.135,0.465,0.135,0.723c0,0.493-0.174,0.914-0.522,1.262c-0.348,0.348-0.768,0.522-1.262,0.522
				s-0.908-0.174-1.245-0.522c-0.179-0.179-0.314-0.37-0.404-0.572l-3.112-7.991h-8.613l-3.129,7.991
				c-0.09,0.202-0.224,0.393-0.404,0.572c-0.348,0.348-0.768,0.522-1.262,0.522s-0.911-0.174-1.253-0.522s-0.513-0.768-0.513-1.262
				C241.943,61.551,242.005,61.282,242.128,61.013z M255.738,50.952l-2.927-7.554l-2.927,7.554H255.738z"/>
			<path fill="#FFFFFF" d="M267.891,61.82V38.47c0-0.247,0.045-0.479,0.135-0.698c0.09-0.219,0.216-0.409,0.379-0.572
				c0.163-0.163,0.35-0.289,0.564-0.379c0.213-0.09,0.449-0.135,0.707-0.135c0.527,0,0.987,0.219,1.379,0.656l15.006,19.296V38.47
				c0-0.493,0.174-0.914,0.522-1.262c0.348-0.348,0.768-0.522,1.262-0.522c0.493,0,0.914,0.174,1.262,0.522
				c0.348,0.348,0.522,0.768,0.522,1.262v23.35c0,0.258-0.045,0.493-0.135,0.707s-0.216,0.401-0.379,0.564
				c-0.163,0.163-0.353,0.289-0.572,0.379c-0.219,0.09-0.451,0.135-0.698,0.135c-0.527,0-0.981-0.207-1.363-0.622l-15.023-19.296
				V61.82c0,0.493-0.174,0.914-0.522,1.262c-0.348,0.348-0.768,0.522-1.262,0.522s-0.914-0.174-1.262-0.522
				C268.065,62.734,267.891,62.314,267.891,61.82z M283.2,31.623l-3.365,3.348c-0.314,0.314-0.718,0.471-1.211,0.471
				c-0.505,0-0.922-0.165-1.253-0.496c-0.331-0.331-0.496-0.749-0.496-1.253c0-0.482,0.146-0.88,0.437-1.194l3.365-3.348
				c0.359-0.348,0.774-0.522,1.245-0.522c0.505,0,0.922,0.171,1.253,0.513s0.496,0.76,0.496,1.253
				C283.671,30.899,283.514,31.309,283.2,31.623z"/>
			<path fill="#FFFFFF" d="M297.305,48.631c-0.83-0.763-1.41-1.545-1.741-2.347c-0.331-0.802-0.496-1.651-0.496-2.549
				c0-1.099,0.207-2.094,0.622-2.986c0.415-0.892,1.026-1.685,1.834-2.38h-0.017c1.29-1.122,2.804-1.682,4.542-1.682
				c0.561,0,1.122,0.07,1.682,0.21s1.102,0.353,1.623,0.639c0.522,0.286,1.009,0.642,1.464,1.068s0.861,0.925,1.22,1.497
				c0.168,0.292,0.252,0.611,0.252,0.959c0,0.258-0.045,0.493-0.135,0.707s-0.216,0.401-0.379,0.564
				c-0.163,0.163-0.353,0.289-0.572,0.379c-0.219,0.09-0.451,0.135-0.698,0.135c-0.224,0-0.423-0.034-0.597-0.101
				s-0.331-0.163-0.471-0.286s-0.275-0.266-0.404-0.429c-0.129-0.163-0.266-0.35-0.412-0.564c-0.269-0.393-0.636-0.687-1.102-0.883
				c-0.465-0.196-0.967-0.294-1.506-0.294c-0.426,0-0.841,0.087-1.245,0.261c-0.404,0.174-0.763,0.412-1.077,0.715
				c-0.314,0.303-0.569,0.662-0.765,1.077c-0.196,0.415-0.294,0.864-0.294,1.346c0,0.864,0.238,1.545,0.715,2.044
				c0.477,0.499,1.298,0.917,2.465,1.253c1.974,0.561,3.522,1.335,4.643,2.322c1.122,0.987,1.884,1.957,2.288,2.91
				c0.404,0.953,0.606,1.957,0.606,3.011c0,2.624-0.97,4.755-2.91,6.393h0.017c-1.559,1.323-3.331,1.985-5.316,1.985
				c-0.662,0-1.323-0.081-1.985-0.244c-0.662-0.163-1.298-0.401-1.909-0.715s-1.183-0.707-1.716-1.178
				c-0.533-0.471-0.995-1.004-1.388-1.598c-0.236-0.303-0.353-0.662-0.353-1.077c0-0.247,0.045-0.479,0.135-0.698
				c0.09-0.219,0.216-0.409,0.379-0.572c0.163-0.163,0.35-0.289,0.564-0.379c0.213-0.09,0.449-0.135,0.707-0.135
				c0.662,0,1.161,0.275,1.497,0.824c0.471,0.729,1.06,1.279,1.766,1.649s1.469,0.555,2.288,0.555c0.639,0,1.242-0.126,1.808-0.379
				c0.566-0.252,1.06-0.592,1.48-1.018c0.421-0.426,0.754-0.928,1.001-1.506c0.247-0.578,0.37-1.192,0.37-1.842
				c0-0.617-0.115-1.197-0.345-1.741c-0.23-0.544-0.673-1.082-1.329-1.615c-0.656-0.533-1.696-1.012-3.121-1.438
				C299.363,50.016,298.135,49.393,297.305,48.631z"/>
			<path fill="#FFFFFF" d="M332.034,40.253h-6.645V61.82c0,0.493-0.174,0.914-0.522,1.262c-0.348,0.348-0.768,0.522-1.262,0.522
				s-0.914-0.174-1.262-0.522s-0.522-0.768-0.522-1.262V40.253h-6.645c-0.493,0-0.914-0.174-1.262-0.522
				c-0.348-0.348-0.522-0.768-0.522-1.262c0-0.493,0.174-0.914,0.522-1.262c0.348-0.348,0.768-0.522,1.262-0.522h16.857
				c0.493,0,0.914,0.174,1.262,0.522c0.348,0.348,0.522,0.768,0.522,1.262c0,0.493-0.174,0.914-0.522,1.262
				C332.948,40.079,332.528,40.253,332.034,40.253z"/>
			<path fill="#FFFFFF" d="M341.546,37.881l4.795,17.277l4.778-17.26c0.09-0.348,0.294-0.636,0.614-0.866
				c0.32-0.23,0.687-0.345,1.102-0.345c0.359,0,0.698,0.104,1.018,0.311c0.32,0.207,0.541,0.502,0.665,0.883l4.795,17.277
				l4.811-17.277c0.079-0.247,0.219-0.471,0.421-0.673c0.348-0.348,0.768-0.522,1.262-0.522s0.911,0.174,1.253,0.522
				s0.513,0.768,0.513,1.262c-0.011,0.224-0.05,0.46-0.118,0.707l-6.342,22.98c-0.157,0.437-0.393,0.788-0.707,1.051
				c-0.314,0.264-0.679,0.395-1.094,0.395c-0.505,0-0.92-0.179-1.245-0.538c-0.236-0.247-0.415-0.538-0.538-0.875l-4.694-17.008
				l-4.694,16.974c-0.157,0.437-0.393,0.788-0.707,1.051s-0.679,0.395-1.094,0.395c-0.505,0-0.925-0.179-1.262-0.538
				c-0.224-0.224-0.398-0.516-0.522-0.875l-6.376-23.031c-0.067-0.258-0.101-0.488-0.101-0.69c0-0.493,0.174-0.914,0.522-1.262
				c0.348-0.348,0.768-0.522,1.262-0.522s0.914,0.174,1.262,0.522C341.316,37.41,341.456,37.634,341.546,37.881z"/>
			<path fill="#FFFFFF" d="M398.986,50.145c0,3.712-1.318,6.886-3.953,9.522c-2.624,2.624-5.793,3.937-9.505,3.937
				c-3.723,0-6.897-1.312-9.522-3.937c-2.624-2.624-3.937-5.798-3.937-9.522c0-3.712,1.312-6.881,3.937-9.505
				c2.636-2.636,5.81-3.953,9.522-3.953c3.701,0,6.869,1.318,9.505,3.953c1.323,1.323,2.313,2.77,2.969,4.34
				C398.658,46.55,398.986,48.272,398.986,50.145z M385.528,40.253c-1.391,0-2.661,0.241-3.81,0.723
				c-1.15,0.482-2.212,1.211-3.188,2.187s-1.702,2.036-2.179,3.18c-0.477,1.144-0.715,2.411-0.715,3.802
				c0,2.737,0.965,5.069,2.894,6.998c1.929,1.929,4.262,2.894,6.998,2.894s5.069-0.965,6.998-2.894
				c1.929-1.929,2.894-4.262,2.894-6.998c0-2.725-0.965-5.053-2.894-6.982C390.586,41.223,388.253,40.253,385.528,40.253z"/>
		</g>
	</g>
</g>
</svg>
