<?xml version="1.0" encoding="utf-8"?>
<!-- Generator: Adobe Illustrator 17.0.2, SVG Export Plug-In . SVG Version: 6.00 Build 0)  -->
<!DOCTYPE svg PUBLIC "-//W3C//DTD SVG 1.1//EN" "http://www.w3.org/Graphics/SVG/1.1/DTD/svg11.dtd">
<svg version="1.1" id="Layer_1" xmlns="http://www.w3.org/2000/svg" xmlns:xlink="http://www.w3.org/1999/xlink" x="0px" y="0px"
	 width="210px" height="50px" viewBox="0 0 210 50" enable-background="new 0 0 210 50" xml:space="preserve">
<path fill="#B2E0E3" d="M47.257,24.889c0,12.558-10.18,22.738-22.738,22.738c-12.557,0-22.737-10.18-22.737-22.738
	c0-12.558,10.18-22.738,22.737-22.738C37.077,2.152,47.257,12.332,47.257,24.889"/>
<path fill="#85C89B" d="M2.925,32.009c2.989,9.069,11.524,15.618,21.594,15.618s18.606-6.549,21.594-15.618H2.925z"/>
<path fill="#5A9464" d="M46.113,32.009H16.9l-5.686,4.425l11.081,11.081c0.017,0.002,0.033,0.003,0.049,0.005
	c0.318,0.03,0.639,0.053,0.96,0.071c0.046,0.002,0.091,0.006,0.137,0.008c0.359,0.018,0.719,0.027,1.082,0.027
	c0.015,0,0.03-0.001,0.046-0.001c0.34-0.001,0.677-0.01,1.013-0.025c0.132-0.006,0.262-0.016,0.393-0.024
	c0.219-0.014,0.437-0.03,0.654-0.05c0.152-0.014,0.303-0.029,0.454-0.046c0.195-0.022,0.389-0.047,0.582-0.074
	c0.157-0.022,0.315-0.042,0.471-0.067c0.192-0.031,0.382-0.067,0.572-0.103c0.305-0.057,0.607-0.119,0.907-0.188
	c0.142-0.032,0.285-0.063,0.426-0.098c0.2-0.05,0.397-0.105,0.594-0.16c0.119-0.033,0.237-0.066,0.355-0.101
	c0.207-0.062,0.413-0.125,0.618-0.193c0.094-0.031,0.187-0.063,0.281-0.095c0.224-0.077,0.448-0.155,0.67-0.238
	c0.006-0.002,0.012-0.005,0.018-0.007c0.825-0.313,1.626-0.672,2.401-1.075c0.005-0.002,0.01-0.005,0.015-0.007
	C40.214,42.358,44.246,37.676,46.113,32.009"/>
<polygon fill="#447F4C" points="38.034,34.927 12.47,34.927 11.087,36.004 11.795,36.712 38.034,36.712 "/>
<rect x="11.087" y="34.649" fill="#D5DAD4" width="26.948" height="1.785"/>
<polygon fill="#C9CBC7" points="28.439,36.434 38.034,36.434 38.034,34.649 26.654,34.649 "/>
<rect x="10.587" y="23.389" fill="#D5DAD4" width="27.992" height="12.152"/>
<polygon fill="#C9CBC7" points="27.045,23.389 14.893,35.541 38.615,35.541 38.615,26.124 35.88,23.389 "/>
<rect x="16.292" y="24.269" fill="#A9A8A8" width="16.581" height="11.273"/>
<rect x="9.72" y="16.391" fill="#A9A8A8" width="29.725" height="6.998"/>
<polygon fill="#989898" points="27.564,35.541 30.908,35.541 30.908,24.269 16.292,24.269 "/>
<rect x="14.821" y="35.357" fill="#F0F1F2" width="4.872" height="0.463"/>
<rect x="15.226" y="34.434" fill="#F0F1F2" width="4.061" height="0.924"/>
<rect x="15.723" y="33.51" fill="#F0F1F2" width="3.067" height="0.924"/>
<rect x="15.938" y="24.268" fill="#F0F1F2" width="2.523" height="9.241"/>
<rect x="17.057" y="24.268" fill="#F8F9FA" width="0.283" height="9.241"/>
<rect x="16.917" y="33.51" fill="#F8F9FA" width="0.283" height="0.924"/>
<rect x="16.775" y="34.434" fill="#F8F9FA" width="0.283" height="0.924"/>
<rect x="15.938" y="35.357" fill="#F8F9FA" width="0.283" height="0.462"/>
<rect x="29.472" y="35.357" fill="#F0F1F2" width="4.872" height="0.463"/>
<rect x="29.878" y="34.434" fill="#F0F1F2" width="4.061" height="0.924"/>
<rect x="30.375" y="33.51" fill="#F0F1F2" width="3.067" height="0.924"/>
<rect x="30.589" y="24.268" fill="#F0F1F2" width="2.523" height="9.241"/>
<rect x="31.709" y="24.268" fill="#F8F9FA" width="0.283" height="9.241"/>
<rect x="31.567" y="33.51" fill="#F8F9FA" width="0.283" height="0.924"/>
<rect x="31.426" y="34.434" fill="#F8F9FA" width="0.283" height="0.924"/>
<rect x="30.589" y="35.357" fill="#F8F9FA" width="0.283" height="0.462"/>
<rect x="21.882" y="35.357" fill="#F0F1F2" width="4.872" height="0.463"/>
<rect x="22.287" y="34.434" fill="#F0F1F2" width="4.061" height="0.924"/>
<rect x="22.784" y="33.51" fill="#F0F1F2" width="3.067" height="0.924"/>
<rect x="22.998" y="24.268" fill="#F0F1F2" width="2.523" height="9.241"/>
<rect x="24.119" y="24.268" fill="#F8F9FA" width="0.283" height="9.241"/>
<rect x="23.977" y="33.51" fill="#F8F9FA" width="0.283" height="0.924"/>
<rect x="23.836" y="34.434" fill="#F8F9FA" width="0.283" height="0.924"/>
<rect x="22.998" y="35.357" fill="#F8F9FA" width="0.283" height="0.462"/>
<polygon fill="#F0F1F2" points="13.761,22.924 24.582,13.801 35.404,22.924 "/>
<polygon fill="#E7E7E6" points="15.729,22.094 24.582,14.631 33.437,22.094 "/>
<polygon fill="#BBB7B9" points="24.96,14.95 24.582,14.631 15.729,22.094 16.485,22.094 "/>
<polygon fill="#E7E7E6" points="34.809,23.872 14.356,23.872 13.761,22.906 35.404,22.906 "/>
<polygon fill="#BBB7B9" points="13.941,23.198 35.224,23.198 35.404,22.906 13.761,22.906 "/>
<polygon fill="#BBB7B9" points="33.697,24.269 15.577,24.269 15.049,23.873 34.224,23.873 "/>
<polygon fill="#E0E2E0" points="13.46,27.404 12.482,27.404 12.482,27.735 13.791,27.735 13.791,25.903 13.46,25.903 "/>
<rect x="12.391" y="25.822" fill="#70BBC4" width="1.309" height="1.833"/>
<polygon fill="#6692A4" points="12.722,26.154 13.7,26.154 13.7,25.823 12.391,25.823 12.391,27.655 12.722,27.655 "/>
<polygon fill="#E0E2E0" points="13.506,32.059 12.528,32.059 12.528,32.391 13.837,32.391 13.837,30.558 13.506,30.558 "/>
<rect x="12.436" y="30.477" fill="#70BBC4" width="1.309" height="1.833"/>
<polygon fill="#6692A4" points="12.768,30.81 13.746,30.81 13.746,30.478 12.437,30.478 12.437,32.311 12.768,32.311 "/>
<polygon fill="#E0E2E0" points="36.336,27.484 35.358,27.484 35.358,27.816 36.667,27.816 36.667,25.983 36.336,25.983 "/>
<rect x="35.266" y="25.902" fill="#70BBC4" width="1.309" height="1.833"/>
<polygon fill="#6692A4" points="35.598,26.234 36.576,26.234 36.576,25.903 35.267,25.903 35.267,27.735 35.598,27.735 "/>
<polygon fill="#E0E2E0" points="36.382,32.14 35.404,32.14 35.404,32.471 36.713,32.471 36.713,30.639 36.382,30.639 "/>
<rect x="35.312" y="30.558" fill="#70BBC4" width="1.309" height="1.833"/>
<polygon fill="#6692A4" points="35.644,30.89 36.622,30.89 36.622,30.558 35.312,30.558 35.312,32.391 35.644,32.391 "/>
<path fill="#FFFFFF" d="M55.367,17.682c0.021-0.165,0.144-0.309,0.371-0.309h0.33c0.165,0,0.289,0.082,0.35,0.206l4.535,9.73h0.061
	l4.535-9.73c0.062-0.124,0.165-0.206,0.351-0.206h0.33c0.226,0,0.35,0.144,0.371,0.309l2.433,13.853
	c0.062,0.289-0.103,0.474-0.371,0.474h-1.876c-0.186,0-0.35-0.165-0.391-0.309l-1.216-7.813h-0.062l-3.607,8.101
	c-0.042,0.124-0.166,0.227-0.351,0.227h-0.371c-0.186,0-0.289-0.103-0.351-0.227l-3.649-8.101h-0.061l-1.196,7.813
	c-0.021,0.144-0.186,0.309-0.371,0.309h-1.855c-0.267,0-0.432-0.186-0.391-0.474L55.367,17.682z"/>
<path fill="#FFFFFF" d="M78.231,17.373c4.123,0,7.421,3.319,7.421,7.441c0,4.123-3.298,7.4-7.421,7.4s-7.401-3.277-7.401-7.4
	C70.83,20.692,74.108,17.373,78.231,17.373 M78.231,29.535c2.597,0,4.741-2.123,4.741-4.721c0-2.597-2.144-4.762-4.741-4.762
	c-2.598,0-4.721,2.165-4.721,4.762C73.51,27.412,75.633,29.535,78.231,29.535"/>
<path fill="#FFFFFF" d="M85.86,30.195l1.072-1.093c0.227-0.206,0.433-0.165,0.618,0.021c0.269,0.289,0.681,0.66,1.361,0.66
	c0.804,0,1.649-0.66,1.649-2.082v-9.73c0-0.207,0.165-0.392,0.392-0.392h1.937c0.227,0,0.392,0.185,0.392,0.392v9.73
	c0,2.865-1.917,4.514-4.329,4.514c-1.793,0-2.783-1.072-3.133-1.504C85.715,30.545,85.736,30.339,85.86,30.195"/>
<path fill="#FFFFFF" d="M96.642,17.971c0-0.206,0.165-0.392,0.392-0.392h8.389c0.227,0,0.392,0.186,0.392,0.392v1.69
	c0,0.207-0.166,0.392-0.392,0.392h-6.101v3.381h5.091c0.207,0,0.392,0.185,0.392,0.392v1.711c0,0.227-0.186,0.392-0.392,0.392
	h-5.091v3.607h6.101c0.227,0,0.392,0.186,0.392,0.392v1.691c0,0.206-0.166,0.392-0.392,0.392h-8.389
	c-0.227,0-0.392-0.186-0.392-0.392V17.971z"/>
<path fill="#FFFFFF" d="M113.321,17.97c0-0.206,0.165-0.392,0.392-0.392h4.844c2.536,0,4.618,2.062,4.618,4.556
	c0,2.556-2.082,4.638-4.597,4.638H116v4.844c0,0.206-0.186,0.392-0.391,0.392h-1.897c-0.227,0-0.392-0.186-0.392-0.392V17.97z
	 M118.392,24.258c1.155,0,2.123-0.928,2.123-2.144c0-1.134-0.968-1.999-2.123-1.999H116v4.143H118.392z"/>
<path fill="#FFFFFF" d="M122.846,31.473l6.411-13.873c0.062-0.124,0.165-0.227,0.35-0.227h0.206c0.207,0,0.289,0.103,0.351,0.227
	l6.349,13.873c0.124,0.268-0.041,0.536-0.35,0.536h-1.794c-0.309,0-0.454-0.124-0.598-0.412l-1.01-2.226h-6.164l-1.01,2.226
	c-0.082,0.206-0.267,0.412-0.598,0.412h-1.793C122.887,32.009,122.722,31.741,122.846,31.473 M131.751,27.082l-2.062-4.535h-0.061
	l-2.02,4.535H131.751z"/>
<path fill="#FFFFFF" d="M138.39,17.744c0-0.207,0.186-0.371,0.392-0.371h0.515l8.576,9.111h0.02v-8.513
	c0-0.207,0.165-0.392,0.392-0.392h1.896c0.206,0,0.392,0.185,0.392,0.392v13.873c0,0.206-0.186,0.371-0.392,0.371h-0.495
	l-8.617-9.462h-0.021v8.864c0,0.207-0.165,0.392-0.392,0.392h-1.876c-0.206,0-0.392-0.185-0.392-0.392V17.744z M142.575,16.033
	l-0.371-0.722c-0.082-0.165,0.021-0.33,0.123-0.392l3.381-2.02c0.227-0.144,0.433-0.124,0.536,0.062l0.577,1.072
	c0.144,0.247,0.061,0.474-0.124,0.557l-3.608,1.587C142.802,16.301,142.657,16.218,142.575,16.033"/>
<path fill="#FFFFFF" d="M153.482,29.989l0.742-1.278c0.165-0.289,0.515-0.289,0.701-0.144c0.102,0.062,1.772,1.278,3.113,1.278
	c1.072,0,1.876-0.701,1.876-1.587c0-1.051-0.886-1.773-2.618-2.473c-1.938-0.783-3.875-2.02-3.875-4.453
	c0-1.835,1.361-3.958,4.638-3.958c2.102,0,3.71,1.072,4.123,1.381c0.206,0.124,0.268,0.474,0.124,0.68l-0.783,1.175
	c-0.165,0.247-0.474,0.412-0.722,0.247c-0.165-0.103-1.731-1.134-2.865-1.134c-1.175,0-1.814,0.783-1.814,1.443
	c0,0.969,0.763,1.628,2.432,2.308c2,0.804,4.309,2,4.309,4.659c0,2.124-1.834,4.082-4.741,4.082c-2.598,0-4.123-1.216-4.535-1.608
	C153.399,30.422,153.296,30.318,153.482,29.989"/>
<path fill="#FFFFFF" d="M167.438,20.052h-3.154c-0.227,0-0.392-0.186-0.392-0.392v-1.69c0-0.207,0.165-0.392,0.392-0.392h9.008
	c0.226,0,0.391,0.185,0.391,0.392v1.69c0,0.206-0.165,0.392-0.391,0.392h-3.154v11.564c0,0.207-0.186,0.392-0.392,0.392h-1.917
	c-0.206,0-0.392-0.185-0.392-0.392V20.052z"/>
<path fill="#FFFFFF" d="M174.552,18.074c-0.083-0.289,0.082-0.495,0.371-0.495h1.897c0.165,0,0.33,0.144,0.371,0.289l2.144,8.225
	h0.082l3.277-8.493c0.041-0.124,0.144-0.227,0.35-0.227h0.371c0.206,0,0.309,0.103,0.35,0.227l3.299,8.493h0.082l2.103-8.225
	c0.041-0.144,0.206-0.289,0.371-0.289h1.897c0.289,0,0.454,0.206,0.371,0.495l-3.896,13.853c-0.041,0.165-0.206,0.289-0.371,0.289
	h-0.33c-0.186,0-0.309-0.103-0.35-0.227l-3.69-9.338h-0.103l-3.649,9.338c-0.062,0.124-0.144,0.227-0.35,0.227h-0.33
	c-0.165,0-0.33-0.124-0.371-0.289L174.552,18.074z"/>
<path fill="#FFFFFF" d="M200.631,17.373c4.123,0,7.421,3.319,7.421,7.441c0,4.123-3.298,7.4-7.421,7.4
	c-4.123,0-7.401-3.277-7.401-7.4C193.23,20.692,196.508,17.373,200.631,17.373 M200.631,29.535c2.597,0,4.741-2.123,4.741-4.721
	c0-2.597-2.144-4.762-4.741-4.762c-2.598,0-4.721,2.165-4.721,4.762C195.91,27.412,198.033,29.535,200.631,29.535"/>
</svg>
