<?xml version="1.0" encoding="utf-8"?>
<!-- Generator: Adobe Illustrator 19.2.0, SVG Export Plug-In . SVG Version: 6.00 Build 0)  -->
<!DOCTYPE svg PUBLIC "-//W3C//DTD SVG 1.1//EN" "http://www.w3.org/Graphics/SVG/1.1/DTD/svg11.dtd">
<svg version="1.1" id="Layer_1" xmlns="http://www.w3.org/2000/svg" xmlns:xlink="http://www.w3.org/1999/xlink" x="0px" y="0px"
	 viewBox="0 0 55.5 64.1" style="enable-background:new 0 0 55.5 64.1;" xml:space="preserve">
<style type="text/css">
	.st0{fill:#FC5454;}
	.st1{opacity:0.5;fill-opacity:0.4;}
	.st2{fill:#CCBF9A;}
	.st3{fill:none;stroke:#FFFFFF;stroke-width:2;stroke-linecap:round;stroke-linejoin:round;stroke-miterlimit:10;}
</style>
<g id="hexagon-flat_13_" transform="translate(173.000000, 138.000000)">
	<polygon id="Polygon-48_13_" class="st0" points="-145,-138.3 -117.2,-122.3 -117.2,-90.3 -145,-74.2 -172.7,-90.3 -172.7,-122.3 	
		"/>
</g>
<g>
	<g>
		<polygon class="st1" points="45,37.8 39.4,33.3 31.6,31.7 29.2,27.5 32.3,20.4 32.7,12.2 25.9,10.9 18.9,12.7 0.3,31.2 0.3,47.7 
			28,63.8 49.5,48.9 43.4,43.1 		"/>
	</g>
	<g>
		<g>
			<g>
				<path class="st2" d="M33.3,30.3c-1.5-0.5-2.6-0.5-2.9-1.2c-0.2-0.4,0.4-3.9-0.5-1.8c0.6-1.4,1.9-2.6,2.6-4.2
					c0.3-0.7,0.9-1.8,1-2.7c0.1-0.8-0.1-1.5-0.2-2.2c0-0.4-0.6-1.8-0.5-0.5c-0.1-2.1,1.6-3.9,0-5.9c-0.9-1.3-2.6-1.7-4.1-2
					c-3.2-0.5-6.4,0.6-8.7,2.3c-1,0.8-1.6,1-1.8,2.4c-0.1,0.7,0,1.8,0.3,2.5c0.6,1.8,0.2,0.3,0.2,0.4c-0.8,2.9-0.4,4.4,0.9,7.3
					c0.5,1.1,1.2,1.7,1.8,2.6c0.9,1.4,0.4-1.2,0.2,0.7c0,0.6,0,1.2,0,1.7c-0.2-0.1-0.4-0.2-0.6-0.3c-1.2,1.1-4.4,1.4-5.9,2
					c-4.7,2-4.9,5.3-5,10.1c0,0.7,0.6,1.3,1.3,1.3c5.5,0,11.1,0,16.6,0c1.6,0,1.6-2.5,0-2.5c-5.5,0-11.1,0-16.6,0
					c0.4,0.4,0.8,0.8,1.3,1.3c0-2.2-0.1-4.6,1.4-6.3c2-2.4,6.3-3,9.2-4c0.5-0.2,0.9-0.6,0.9-1.2c0-1.1,0.3-2.5,0-3.5
					c-0.7-2.1-2.3-2-2.6-5.3c0-0.4-0.2-0.9-0.6-1.1c0-0.4,0-0.7,0-1.1c0.5-0.2,0.7-0.9,0.6-1.4c-0.2-0.8-1.3-3.4,0.4-3.3
					c0.4,0,0.9-0.2,1.1-0.6c0.8-1.8,3.8-1.8,5.4-1.6c2.9,0.4,2.8,2.9,2,5.3c-0.2,0.5,0.1,1.2,0.6,1.4c0.7,0.3-2.3,6.1-2.4,6.3
					c-0.6,1.6-0.5,3-0.5,4.8c0,0.6,0.4,1,0.9,1.2c1.3,0.5,2.5,1,3.8,1.4C34.2,33.2,34.8,30.8,33.3,30.3L33.3,30.3z"/>
			</g>
		</g>
		<circle class="st3" cx="39.4" cy="39" r="5.8"/>
		<line class="st3" x1="48.3" y1="48" x2="43.4" y2="43.1"/>
	</g>
</g>
</svg>
