<?xml version="1.0" encoding="utf-8"?>
<!-- Generator: Adobe Illustrator 19.2.0, SVG Export Plug-In . SVG Version: 6.00 Build 0)  -->
<!DOCTYPE svg PUBLIC "-//W3C//DTD SVG 1.1//EN" "http://www.w3.org/Graphics/SVG/1.1/DTD/svg11.dtd">
<svg version="1.1" id="Layer_1" xmlns="http://www.w3.org/2000/svg" xmlns:xlink="http://www.w3.org/1999/xlink" x="0px" y="0px"
	 viewBox="0 0 87 83.9" style="enable-background:new 0 0 87 83.9;" xml:space="preserve">
<style type="text/css">
	.st0{fill:#FDD0AF;}
	.st1{opacity:0.1;fill:#010101;enable-background:new    ;}
	.st2{fill:#CCBF9A;}
	.st3{fill:#E4E5E6;}
	.st4{fill:#BC202E;}
	.st5{opacity:0.2;fill:#010101;enable-background:new    ;}
	.st6{fill:#FFFFFF;}
	.st7{fill:#231F20;}
	.st8{fill:#F2F2F2;}
	.st9{fill:#282828;}
	.st10{fill:#3C3C3B;}
	.st11{fill:#FCBA2B;}
</style>
<g>
	<g id="Judge">
		<path class="st0" d="M49.4,56.3c-13.6,0-10.5-6.7-11.5-13.3H26.7c-0.9,6.7,2.1,13.3-11.5,13.3c-8.7,0-11.6,3.8-11.6,12.2v5.6
			c7.9,6.2,17.9,9.9,28.7,9.9c10.8,0,20.8-3.7,28.7-9.9v-5.6C61,60.1,58.1,56.3,49.4,56.3z"/>
		<path class="st1" d="M38.2,46.8c0-1.1-0.1-2.3-0.2-3.5H26.7c-0.2,1.2-0.2,2.3-0.2,3.5c1.6,1,3.6,1.7,5.9,1.7
			C34.6,48.5,36.6,47.8,38.2,46.8z"/>
		<ellipse class="st0" cx="18.7" cy="31.3" rx="2.5" ry="3"/>
		<ellipse class="st0" cx="46" cy="31.3" rx="2.5" ry="3"/>
		<path class="st0" d="M34.8,10.1h-5c-6.6,0-11.9,7.7-11.9,14.3c0,0,0.4,23.1,14.4,23.1s14.4-23.1,14.4-23.1
			C46.8,17.8,41.4,10.1,34.8,10.1z"/>
		<path class="st2" d="M17.5,28.8C15.4,25.6,13,5.9,24.9,6.5c10.6-9,29.6,3,22.4,22.3L46,29.6c1.3-3.7,0.2-12.5-1.3-11.7
			c-8.5,4.4-12.3-3.8-19.7-3.4c-4.7,2-5.5,7.7-6.1,10.7c-0.6,3,0,4.4,0,4.4L17.5,28.8z"/>
		<g>
			<path class="st1" d="M44.6,17.9c-8.5,4.4-12.3-3.8-19.7-3.4c-4.7,2-5.5,7.7-6.1,10.7c-0.2,1.3-0.3,2.2-0.2,2.9
				c0-0.5,0.1-1.2,0.2-1.9c0.6-3,1.3-8.7,6.1-10.7c7.4-0.4,11.2,7.8,19.7,3.4c1-0.5,1.9,3,1.9,6.6C46.6,21.8,45.8,17.3,44.6,17.9z"
				/>
		</g>
		<path class="st3" d="M49.4,56.3c-1.8,0-3.3-0.1-4.5-0.3l-12.6,1.4l-12.6-1.4c-1.3,0.2-2.7,0.3-4.5,0.3c-8.7,0-11.6,3.8-11.6,12.2
			v5.6c7.9,6.2,17.9,9.9,28.7,9.9s20.8-3.7,28.7-9.9v-5.6C61,60.1,58.1,56.3,49.4,56.3z"/>
		<path class="st3" d="M49.4,56.3c-1.8,0-3.3-0.1-4.5-0.3l-12.6,1.4l-12.6-1.4c-1.3,0.2-2.7,0.3-4.5,0.3c-8.7,0-11.6,3.8-11.6,12.2
			v5.6c7.9,6.2,17.9,9.9,28.7,9.9s20.8-3.7,28.7-9.9v-5.6C61,60.1,58.1,56.3,49.4,56.3z"/>
		<path class="st4" d="M38.2,57.4H26.6l4,5.2l-1.1,21.2c0.9,0.1,1.8,0.1,2.7,0.1c1,0,2,0,2.9-0.1l-1.1-21.2L38.2,57.4z"/>
		<path class="st5" d="M30.6,62.6h3.5c0,0-0.9,0.3-1.8,0.3C31.5,63,30.6,62.6,30.6,62.6z"/>
		<polygon class="st6" points="26,51.2 25.2,51.2 19.7,55.9 25.6,64.2 32.3,57.3 		"/>
		<polygon class="st6" points="38.6,51.2 39.5,51.2 45,55.9 39.1,64.2 32.3,57.3 		"/>
		<path class="st1" d="M25.6,64.9l6.8-7.1l6.8,7.1l6.4-8.9l0,0c-0.2,0-0.4-0.1-0.6-0.1l-5.8,8.2l-6.8-6.9l-6.8,6.9l-5.8-8.2
			c-0.2,0-0.4,0.1-0.6,0.1l0,0L25.6,64.9z"/>
		<path class="st7" d="M51.2,56c-1.3,0-6.1-1.3-7.1-1.5c0,0-8.5,15.7-11.8,15.7c-3.2,0-11.8-15.6-11.8-15.6c-1,0.1-5.8,1.5-7.2,1.5
			c-8.1,0-12.9,7-13.4,14.8c8.4,8.1,19.8,13,32.3,13c12.5,0,23.9-4.9,32.3-13C64.1,63.2,59.4,56,51.2,56z"/>
		<rect x="11.8" y="70.2" class="st5" width="41.1" height="1"/>
		<path class="st5" d="M41.8,67.2c2.7-3.8,5.3-8.1,7.4-11.5c-0.4-0.1-0.7-0.2-1.1-0.2c-1.3,2.2-2.9,4.8-4.5,7.3
			c-1.8,2.7-3.6,5.3-5.4,7.5h1.4C40.3,69.3,41,68.3,41.8,67.2z"/>
		<path class="st5" d="M23.8,66.7c-2.6-3.6-5.2-7.7-7.2-11.1c-0.4,0.1-0.8,0.2-1.1,0.2c1.3,2.1,2.8,4.5,4.3,7
			c1.7,2.6,3.5,5.2,5.3,7.5h1.4C25.6,69.1,24.7,67.9,23.8,66.7z"/>
	</g>
	<g id="Zoom_Out_1_">
		<circle class="st2" cx="52.4" cy="17.2" r="15.2"/>
		<g id="Plus">
			<rect x="50.6" y="10.4" class="st8" width="3.9" height="14.3"/>
			<rect x="45.4" y="15.6" class="st8" width="14.3" height="3.9"/>
		</g>
		<g id="Lup">
			
				<rect x="64.9" y="27.8" transform="matrix(0.7071 -0.7071 0.7071 0.7071 -2.9566 56.8185)" class="st9" width="4.4" height="8.3"/>
			<path class="st10" d="M86.5,47c0.6,0.6,0.6,1.6,0,2.2l-2.2,2.2c-0.6,0.6-1.6,0.6-2.2,0L68.4,37.6c-0.6-0.6-0.6-1.6,0-2.2l2.2-2.2
				c0.6-0.6,1.6-0.6,2.2,0L86.5,47z"/>
			<g>
				<path class="st10" d="M40.2,5.1c-6.8,6.8-6.8,17.7,0,24.5c6.8,6.8,17.7,6.8,24.5,0c6.8-6.8,6.8-17.7,0-24.5
					C57.9-1.7,47-1.7,40.2,5.1z M62.2,27c-5.4,5.4-14,5.4-19.4,0s-5.4-14,0-19.4c5.4-5.4,14-5.4,19.4,0C67.5,13,67.5,21.7,62.2,27z"
					/>
			</g>
			
				<rect x="67.3" y="33.9" transform="matrix(0.7071 -0.7071 0.7071 0.7071 -4.3377 60.1501)" class="st11" width="6.2" height="2.8"/>
			<path class="st1" d="M72.7,33.2l-1.1-1.1l-1.1,1.1l-1.1,1.1l2,2l14,14l1.1-1.1c0.6-0.6,0.6-1.6,0-2.2L72.7,33.2L72.7,33.2z"/>
		</g>
	</g>
</g>
</svg>
