<?xml version="1.0" ?><svg id="Layer_1" style="enable-background:new 0 0 128 128;" version="1.1" viewBox="0 0 128 128" xml:space="preserve" xmlns="http://www.w3.org/2000/svg" xmlns:xlink="http://www.w3.org/1999/xlink"><style type="text/css">
	.st0{fill:#86CA8E;}
	.st1{fill:#D4DDDD;}
	.st2{fill:#F0F2F4;}
	.st3{fill:#F5876E;}
	.st4{fill:#E77961;}
	.st5{fill:#C2E1B5;}
	.st6{fill:#FFFFFF;}
	.st7{fill:#06B0C1;}
	.st8{fill:#FBAB29;}
	.st9{fill:#65C5E9;}
	.st10{fill:#2CC0D5;}
	.st11{fill:#31373E;}
	.st12{fill:#484F5B;}
	.st13{fill:#F4DA80;}
	.st14{fill:#F0C040;}
	.st15{fill:#F9F0D0;}
	.st16{fill:#E5E5E5;}
	.st17{fill:#5D6671;}
	.st18{fill:#B8BCBC;}
	.st19{fill:#ABABAA;}
	.st20{fill:#FDFEFF;}
	.st21{fill:#EDEAE9;}
	.st22{fill:#F9F9FA;}
	.st23{fill:#646B73;}
	.st24{fill:#566F7A;}
	.st25{fill:#7F89A4;}
	.st26{fill:#DEA72B;}
	.st27{fill:#F5F2B6;}
	.st28{fill:#17C3EE;}
	.st29{fill:#F4F3DA;}
	.st30{fill:#FFF5CB;}
	.st31{fill:#FEFDEF;}
	.st32{fill:#D8A52E;}
	.st33{fill:#FBF2DA;}
	.st34{fill:none;}
	.st35{fill:none;stroke:#C3E5D8;stroke-miterlimit:10;}
	.st36{fill:#D2D4D6;}
	.st37{fill:#4E4F50;}
	.st38{fill:#EF4545;}
	.st39{fill:#F4F4F2;}
	.st40{fill:#4171B8;}
	.st41{fill:#FEFDF3;}
	.st42{fill:#FBCECF;}
	.st43{fill:#CA5743;}
	.st44{fill:#D15E4A;}
	.st45{fill:#FAD732;}
	.st46{fill:#D8D9D8;}
	.st47{opacity:0.54;fill:#F4DA80;}
	.st48{fill:#DBA731;}
	.st49{fill:#63B56D;}
	.st50{fill:#A3CF58;}
	.st51{fill:#D3A12E;}
	.st52{fill:#4BBEA3;}
	.st53{fill:#4876BA;}
	.st54{fill:#EBF5E5;}
	.st55{fill:#FFECBB;}
	.st56{fill:#FFF7D2;}
	.st57{fill:#275E95;}
	.st58{fill:#F0EFEF;}
	.st59{fill:#FADE8A;}
	.st60{fill:#6BAD73;}
	.st61{fill:#C3E5D8;}
	.st62{fill:#F3F3F3;}
</style><g><circle class="st7" cx="64" cy="64" r="63.5"/><path class="st3" d="M68.2,49.3c-1.7-3.3-3.6-6.4-5.7-9.3c-1.7,2.2-4,4.1-6.6,5.5c-5.9,3.1-12.5,3-18.1,0.3c-0.8-0.4-1.7,0.1-1.9,1   c-1,6-4.8,11.5-10.6,14.6c-2.1,1.1-4.4,1.8-6.6,2.1c-0.8,0.1-1.4,1-1.1,1.8c1.1,2.8,2.3,5.6,3.8,8.4c11.8,22.8,31.9,35.9,44.8,29.2   C79.2,96,80,72.1,68.2,49.3z"/><path class="st6" d="M30.2,75.2c0,0,0.3,0,0.8-0.1c0.5-0.1,1.2-0.2,2-0.3c0.4-0.1,0.8-0.2,1.3-0.3c0.4-0.1,0.9-0.2,1.4-0.3   c0.5-0.1,0.9-0.3,1.4-0.4c0.2-0.1,0.5-0.2,0.7-0.3c0.2-0.1,0.5-0.2,0.7-0.3l0.7-0.3c0.2-0.1,0.4-0.3,0.6-0.4   c0.2-0.1,0.4-0.2,0.6-0.4c0.2-0.1,0.4-0.3,0.6-0.4c0.4-0.3,0.7-0.6,1.1-0.9c0.4-0.3,0.6-0.6,0.9-0.9c0.3-0.3,0.6-0.5,0.8-0.8   c0.2-0.3,0.4-0.5,0.5-0.7c0.3-0.4,0.5-0.6,0.5-0.6s0,0.3-0.1,0.8c0,0.3-0.1,0.6-0.2,0.9c-0.1,0.4-0.2,0.7-0.4,1.1   c-0.1,0.2-0.2,0.4-0.3,0.6c-0.1,0.2-0.3,0.4-0.4,0.6c-0.3,0.4-0.6,0.9-1,1.3c-0.4,0.4-0.8,0.8-1.3,1.2c-0.3,0.2-0.5,0.4-0.8,0.5   l-0.8,0.4c-0.5,0.3-1.1,0.4-1.7,0.6c-0.3,0.1-0.6,0.1-0.9,0.2c-0.3,0.1-0.6,0.1-0.8,0.1c-0.6,0.1-1.1,0.1-1.6,0.1   c-0.5,0-1-0.1-1.4-0.1c-0.9-0.1-1.6-0.4-2.1-0.6C30.4,75.4,30.2,75.2,30.2,75.2z"/><path class="st6" d="M64.5,57.4c0,0,0,0.3-0.1,0.8c-0.1,0.5-0.4,1.2-0.7,2c-0.2,0.4-0.4,0.8-0.7,1.2c-0.3,0.4-0.6,0.9-1,1.3   c-0.2,0.2-0.4,0.4-0.6,0.6c-0.2,0.2-0.4,0.4-0.7,0.6c-0.5,0.3-0.9,0.8-1.5,1l-0.8,0.4c-0.3,0.1-0.6,0.2-0.9,0.3   c-0.6,0.2-1.2,0.3-1.7,0.4c-0.6,0.1-1.1,0.1-1.6,0.1c-0.3,0-0.5,0-0.8,0c-0.2,0-0.5-0.1-0.7-0.1c-0.4-0.1-0.8-0.2-1.2-0.3   c-0.3-0.1-0.6-0.3-0.9-0.4c-0.5-0.2-0.7-0.4-0.7-0.4s0.3,0,0.8-0.1c0.2,0,0.5,0,0.9,0c0.3,0,0.7-0.1,1.1-0.1c0.4,0,0.8-0.1,1.3-0.2   c0.4-0.1,0.9-0.2,1.3-0.4c0.2-0.1,0.5-0.1,0.7-0.2c0.2-0.1,0.4-0.2,0.7-0.3c0.2-0.1,0.5-0.2,0.7-0.3l0.7-0.4   c0.2-0.1,0.4-0.2,0.6-0.4c0.2-0.1,0.4-0.3,0.6-0.4c0.4-0.3,0.8-0.6,1.2-0.9c0.4-0.3,0.7-0.6,1.1-0.9c0.4-0.3,0.7-0.6,1-0.9   c0.6-0.6,1.1-1.1,1.4-1.4C64.3,57.6,64.5,57.4,64.5,57.4z"/><path class="st6" d="M49,93.7c0,0,0-0.4,0.1-1.1c0.1-0.7,0.4-1.7,0.9-2.8c0.5-1.1,1.2-2.4,2.3-3.5c1-1.2,2.3-2.3,3.8-3.2   c0.7-0.4,1.5-0.8,2.3-1.1c0.8-0.3,1.6-0.5,2.4-0.6c0.8-0.1,1.6-0.1,2.3-0.1c0.4,0,0.7,0.1,1,0.1c0.3,0.1,0.7,0.1,1,0.2   c0.6,0.2,1.1,0.3,1.6,0.5c0.5,0.2,0.9,0.4,1.2,0.6c0.6,0.4,0.9,0.6,0.9,0.6s-0.4,0.1-1.1,0.1c-0.3,0-0.8,0.1-1.2,0.2   c-0.5,0.1-1,0.2-1.5,0.2c-0.5,0.1-1.1,0.2-1.7,0.4c-0.6,0.1-1.2,0.3-1.8,0.5c-0.6,0.2-1.2,0.5-1.8,0.7c-0.6,0.3-1.2,0.6-1.8,0.9   c-0.6,0.3-1.1,0.7-1.7,1.1c-0.5,0.4-1.1,0.8-1.6,1.2c-1,0.8-2,1.6-2.8,2.4c-0.8,0.8-1.6,1.4-2,1.9c-0.2,0.2-0.5,0.4-0.6,0.6   C49,93.6,49,93.7,49,93.7z"/><path class="st14" d="M106.6,36.7c-0.1-0.8-1-1.4-1.8-1.1c-2.1,0.8-4.4,1.2-6.8,1.2c-6.6,0-12.5-3.2-16.2-8c-0.5-0.7-1.6-0.7-2.1,0   c-3.7,4.9-9.5,8-16.2,8c-2.4,0-4.7-0.4-6.8-1.2c-0.8-0.3-1.7,0.2-1.8,1.1c-0.3,3-0.5,6-0.5,9.2c0,25.7,11.8,46.5,26.4,46.5   c14.6,0,26.4-20.8,26.4-46.5C107.1,42.8,106.9,39.7,106.6,36.7z"/><path class="st6" d="M100.1,54.6c0,0-0.3-0.1-0.8-0.3c-0.5-0.2-1.1-0.4-1.9-0.6c-0.4-0.1-0.8-0.2-1.3-0.4c-0.4-0.1-0.9-0.2-1.4-0.3   c-0.5-0.1-1-0.2-1.5-0.3c-0.2,0-0.5,0-0.8-0.1c-0.3,0-0.5-0.1-0.8,0l-0.8,0c-0.2,0-0.5,0-0.7,0c-0.2,0-0.5,0-0.7,0.1   c-0.2,0-0.5,0.1-0.7,0.1c-0.5,0-0.9,0.2-1.3,0.3c-0.4,0.1-0.8,0.2-1.2,0.4c-0.4,0.1-0.8,0.2-1,0.4c-0.3,0.1-0.6,0.3-0.8,0.4   c-0.5,0.2-0.7,0.3-0.7,0.3s0.1-0.2,0.5-0.7c0.2-0.2,0.3-0.5,0.6-0.7c0.2-0.3,0.6-0.5,0.9-0.8c0.2-0.1,0.4-0.3,0.5-0.4   c0.2-0.2,0.4-0.3,0.6-0.4c0.5-0.2,0.9-0.5,1.5-0.7c0.5-0.2,1.1-0.4,1.7-0.4c0.3,0,0.6-0.1,0.9-0.1l0.9,0c0.6,0,1.2,0.1,1.8,0.2   c0.3,0.1,0.6,0.2,0.9,0.2c0.3,0.1,0.6,0.2,0.8,0.3c0.5,0.2,1,0.4,1.5,0.7c0.5,0.2,0.8,0.5,1.2,0.8c0.7,0.5,1.2,1,1.6,1.4   C100,54.3,100.1,54.6,100.1,54.6z"/><path class="st6" d="M61.4,54.6c0,0,0.2-0.3,0.5-0.6c0.3-0.4,0.9-0.9,1.6-1.4c0.4-0.3,0.8-0.5,1.2-0.8c0.4-0.3,0.9-0.5,1.5-0.7   c0.3-0.1,0.5-0.2,0.8-0.3c0.3-0.1,0.6-0.2,0.9-0.2c0.6-0.1,1.2-0.2,1.8-0.2l0.9,0c0.3,0,0.6,0.1,0.9,0.1c0.6,0.1,1.2,0.2,1.7,0.4   c0.6,0.1,1,0.4,1.5,0.7c0.2,0.1,0.5,0.2,0.6,0.4c0.2,0.2,0.4,0.3,0.5,0.4c0.3,0.3,0.7,0.5,0.9,0.8c0.2,0.3,0.4,0.5,0.6,0.7   c0.3,0.4,0.5,0.7,0.5,0.7s-0.3-0.1-0.7-0.3c-0.2-0.1-0.5-0.2-0.8-0.4c-0.3-0.2-0.7-0.2-1-0.4c-0.4-0.1-0.8-0.3-1.2-0.4   c-0.4-0.1-0.9-0.3-1.3-0.3c-0.2,0-0.5-0.1-0.7-0.1c-0.2,0-0.5,0-0.7-0.1c-0.2,0-0.5,0-0.7,0l-0.8,0c-0.3,0-0.5,0-0.8,0   c-0.3,0-0.5,0-0.8,0.1c-0.5,0.1-1,0.1-1.5,0.3c-0.5,0.1-0.9,0.2-1.4,0.3c-0.4,0.1-0.9,0.2-1.3,0.4c-0.8,0.2-1.5,0.5-1.9,0.6   C61.7,54.5,61.4,54.6,61.4,54.6z"/><path class="st6" d="M91.9,72.2c0,0-0.2,0.4-0.6,0.9c-0.4,0.6-1.1,1.3-2.1,2.1c-1,0.8-2.2,1.5-3.6,2.1c-1.4,0.6-3.1,1-4.8,1.1   c-0.9,0-1.7,0-2.6-0.1c-0.8-0.1-1.7-0.3-2.4-0.6c-0.8-0.3-1.5-0.6-2.1-1c-0.3-0.2-0.6-0.4-0.9-0.6c-0.3-0.2-0.5-0.4-0.8-0.6   c-0.5-0.4-0.9-0.8-1.2-1.2c-0.3-0.4-0.6-0.7-0.8-1c-0.4-0.6-0.6-1-0.6-1s0.4,0.1,1,0.4c0.3,0.1,0.7,0.2,1.1,0.4   c0.4,0.2,0.9,0.3,1.4,0.5c0.5,0.2,1.1,0.3,1.7,0.5c0.6,0.1,1.2,0.3,1.8,0.4c0.6,0.1,1.3,0.1,1.9,0.2c0.7,0,1.3,0,2,0   c0.7,0,1.3-0.1,2-0.2c0.7-0.1,1.3-0.2,2-0.3c1.3-0.2,2.5-0.5,3.6-0.8c1.1-0.3,2-0.5,2.7-0.7c0.3-0.1,0.6-0.2,0.8-0.2   C91.8,72.2,91.9,72.2,91.9,72.2z"/></g></svg>