<?xml version="1.0" ?><!DOCTYPE svg  PUBLIC '-//W3C//DTD SVG 1.1//EN'  'http://www.w3.org/Graphics/SVG/1.1/DTD/svg11.dtd'><svg enable-background="new 0 0 128 128" id="Layer_1" version="1.1" viewBox="0 0 128 128" xml:space="preserve" xmlns="http://www.w3.org/2000/svg" xmlns:xlink="http://www.w3.org/1999/xlink"><g><circle cx="64" cy="64" fill="#4A9ED7" r="63"/><path d="M88.6,37.9h4.3c0.3,0,0.6-0.3,0.6-0.6v-2.2c0-0.3-0.3-0.6-0.6-0.6H35.1c-0.3,0-0.6,0.3-0.6,0.6v2.2   c0,0.3,0.3,0.6,0.6,0.6h4.3c0.3,0,0.6,0.3,0.6,0.6v5.6c0,0.3-0.3,0.6-0.6,0.6h-4.3c-0.3,0-0.6,0.3-0.6,0.6v37.2   c0,0.3,0.3,0.6,0.6,0.6h4.3c0.3,0,0.6,0.3,0.6,0.6v5.6c0,0.3-0.3,0.6-0.6,0.6h-4.3c-0.3,0-0.6,0.3-0.6,0.6v2.2   c0,0.3,0.3,0.6,0.6,0.6h57.9c0.3,0,0.6-0.3,0.6-0.6v-2.2c0-0.3-0.3-0.6-0.6-0.6h-4.3c-0.3,0-0.6-0.3-0.6-0.6v-5.6   c0-0.3,0.3-0.6,0.6-0.6h4.3c0.3,0,0.6-0.3,0.6-0.6V45.4c0-0.3-0.3-0.6-0.6-0.6h-4.3c-0.3,0-0.6-0.3-0.6-0.6v-5.6   C88,38.2,88.3,37.9,88.6,37.9z M65.9,38.5c0-0.3,0.3-0.6,0.6-0.6h6.1c0.3,0,0.6,0.3,0.6,0.6v5.6c0,0.3-0.3,0.6-0.6,0.6h-6.1   c-0.3,0-0.6-0.3-0.6-0.6V38.5z M54.8,38.5c0-0.3,0.3-0.6,0.6-0.6h6.1c0.3,0,0.6,0.3,0.6,0.6v5.6c0,0.3-0.3,0.6-0.6,0.6h-6.1   c-0.3,0-0.6-0.3-0.6-0.6V38.5z M51.1,89.5c0,0.3-0.3,0.6-0.6,0.6h-6.1c-0.3,0-0.6-0.3-0.6-0.6v-5.6c0-0.3,0.3-0.6,0.6-0.6h6.1   c0.3,0,0.6,0.3,0.6,0.6V89.5z M51.1,44.2c0,0.3-0.3,0.6-0.6,0.6h-6.1c-0.3,0-0.6-0.3-0.6-0.6v-5.6c0-0.3,0.3-0.6,0.6-0.6h6.1   c0.3,0,0.6,0.3,0.6,0.6V44.2z M62.1,89.5c0,0.3-0.3,0.6-0.6,0.6h-6.1c-0.3,0-0.6-0.3-0.6-0.6v-5.6c0-0.3,0.3-0.6,0.6-0.6h6.1   c0.3,0,0.6,0.3,0.6,0.6V89.5z M73.2,89.5c0,0.3-0.3,0.6-0.6,0.6h-6.1c-0.3,0-0.6-0.3-0.6-0.6v-5.6c0-0.3,0.3-0.6,0.6-0.6h6.1   c0.3,0,0.6,0.3,0.6,0.6V89.5z M74,64.5L60,77.5c-0.5,0.4-1.3,0.1-1.3-0.5V51c0-0.6,0.8-1,1.3-0.5l14.1,13   C74.3,63.8,74.3,64.2,74,64.5z M84.2,89.5c0,0.3-0.3,0.6-0.6,0.6h-6.1c-0.3,0-0.6-0.3-0.6-0.6v-5.6c0-0.3,0.3-0.6,0.6-0.6h6.1   c0.3,0,0.6,0.3,0.6,0.6V89.5z M84.2,44.2c0,0.3-0.3,0.6-0.6,0.6h-6.1c-0.3,0-0.6-0.3-0.6-0.6v-5.6c0-0.3,0.3-0.6,0.6-0.6h6.1   c0.3,0,0.6,0.3,0.6,0.6V44.2z" fill="#FFFFFF"/></g></svg>