<?xml version="1.0" ?><svg enable-background="new 0 0 64 64" version="1.1" viewBox="0 0 64 64" xml:space="preserve" xmlns="http://www.w3.org/2000/svg" xmlns:xlink="http://www.w3.org/1999/xlink"><g id="Layer_3"><g><path d="M21.896,0L5.758,11.719l7.771,17.004c-1.252-0.215-2.661-0.044-4.017,0.575    c-3.005,1.373-4.555,4.421-3.463,6.811c1.092,2.39,4.411,3.213,7.416,1.839c3.005-1.373,4.555-4.421,3.463-6.811l-6.019-13.171    l12.818-8.488l4.556,9.969c-1.192-0.156-2.523,0.021-3.799,0.604c-3.005,1.373-4.555,4.421-3.463,6.811    c1.092,2.39,4.411,3.213,7.416,1.839c3.005-1.373,4.555-4.421,3.463-6.811c-0.073-0.16-0.169-0.322-0.256-0.465l0.036-0.016    L21.896,0z" fill="#32BEA6"/><path d="M58.301,24.971l-15.925-1.412l-4.255,14.369c-0.644-0.789-1.585-1.428-2.731-1.767    c-2.54-0.752-5.081,0.274-5.679,2.294c-0.598,2.02,0.975,4.264,3.514,5.016c2.54,0.752,5.081-0.274,5.679-2.294l3.296-11.13    l12.217,1.617l-2.494,8.424c-0.638-0.722-1.536-1.316-2.614-1.635c-2.54-0.752-5.081,0.274-5.679,2.294    c-0.598,2.02,0.975,4.264,3.514,5.016c2.54,0.752,5.081-0.274,5.679-2.294c0.04-0.135,0.067-0.283,0.09-0.416l0.03,0.009    L58.301,24.971z" fill="#25B6D2"/><path d="M33.545,48.363l-9.266,2.51l0.586,8.98c-0.526-0.311-1.19-0.475-1.906-0.429    c-1.587,0.103-2.806,1.209-2.724,2.471c0.082,1.262,1.434,2.2,3.021,2.097c1.587-0.103,2.806-1.209,2.724-2.471l-0.454-6.956    l7.219-1.625l0.343,5.264c-0.509-0.274-1.139-0.422-1.812-0.378c-1.587,0.103-2.806,1.209-2.724,2.471    c0.082,1.262,1.434,2.2,3.021,2.097c1.587-0.103,2.806-1.209,2.724-2.471c-0.006-0.085-0.021-0.173-0.035-0.253l0.019-0.001    L33.545,48.363z" fill="#EF3333"/></g></g><g id="Layer_4"/></svg>