<?xml version="1.0" encoding="utf-8"?>
<!-- Generator: Adobe Illustrator 18.1.1, SVG Export Plug-In . SVG Version: 6.00 Build 0)  -->
<!DOCTYPE svg PUBLIC "-//W3C//DTD SVG 1.1//EN" "http://www.w3.org/Graphics/SVG/1.1/DTD/svg11.dtd">
<svg version="1.1" id="Layer_1" xmlns="http://www.w3.org/2000/svg" xmlns:xlink="http://www.w3.org/1999/xlink" x="0px" y="0px"
	 viewBox="0 0 612 792" enable-background="new 0 0 612 792" xml:space="preserve">
<path fill="#FFFFFF" d="M377.2,662.4c2.6,7.9-2.6,13.2-10.6,15.8c-21.1,5.3-42.2,7.9-63.3,7.9c-76.5,0-147.7-29-203.1-84.4
	S15.8,475.1,15.8,398.6c0-73.9,26.4-142.4,76.5-195.2H10.6c-5.3,0-10.6-7.9-10.6-13.2c0-7.9,5.3-13.2,13.2-13.2l0,0h116.1
	c7.9,0,13.2,5.3,13.2,10.6l13.2,116.1c0,5.3-5.3,13.2-13.2,13.2c0,0,0,0-2.6,0c-5.3,0-10.6-5.3-10.6-10.6L118.7,214
	c-47.5,50.1-76.5,113.4-76.5,184.7c0,68.6,26.4,134.5,76.5,184.7c63.3,63.3,153,89.7,242.7,71.2
	C366.7,651.9,374.6,654.5,377.2,662.4z M598.8,591.2h-84.4c105.5-113.4,105.5-290.2-5.3-401c-68.6-68.6-168.8-97.6-266.4-76.5
	c-5.3,0-10.6,7.9-7.9,15.8c2.6,7.9,7.9,10.6,15.8,10.6c87.1-18.5,179.4,7.9,242.7,71.2c100.2,100.2,100.2,263.8,2.6,366.7L485.4,491
	c0-7.9-7.9-13.2-15.8-10.6c-7.9,0-13.2,7.9-10.6,15.8l13.2,116.1c0,7.9,5.3,10.6,13.2,10.6h116.1c7.9,0,13.2-5.3,13.2-13.2
	C612,596.5,606.7,591.2,598.8,591.2z M374.6,417.1c2.6,7.9,5.3,15.8,5.3,26.4c0,10.6-2.6,18.5-5.3,29c-2.6,7.9-7.9,15.8-15.8,23.7
	c-5.3,7.9-13.2,13.2-23.7,15.8c-10.6,5.3-21.1,5.3-31.7,5.3l-2.6,29c0,2.6,0,5.3-2.6,5.3c-2.6,2.6-2.6,2.6-5.3,2.6h-10.6l2.6-36.9
	c-13.2,0-26.4-5.3-36.9-10.6c-10.6-5.3-21.1-13.2-29-21.1l7.9-10.6l2.6-2.6c2.6,0,2.6,0,5.3,0c2.6,0,5.3,0,7.9,2.6
	c2.6,2.6,5.3,5.3,10.6,7.9c2.6,2.6,7.9,5.3,13.2,7.9s13.2,5.3,18.5,5.3l5.3-89.7c-7.9-2.6-15.8-5.3-23.7-7.9
	c-7.9-2.6-13.2-7.9-21.1-10.6c-2.6-7.9-7.9-13.2-10.6-21.1s-5.3-15.8-5.3-26.4c0-7.9,2.6-15.8,5.3-23.7c2.6-10.6,7.9-15.8,13.2-23.7
	c5.3-5.3,13.2-10.6,23.7-15.8c7.9-2.6,18.5-5.3,31.7-5.3l2.6-23.7c0-2.6,0-5.3,2.6-5.3c2.6-2.6,2.6-2.6,5.3-2.6h10.6l-2.6,34.3
	c10.6,2.6,21.1,5.3,31.7,7.9c7.9,5.3,15.8,10.6,23.7,15.8l-7.9,10.6c-5.3,5.3-7.9,7.9-10.6,7.9c-2.6,0-2.6,0-5.3-2.6
	c-2.6-2.6-5.3-2.6-7.9-5.3c-2.6-2.6-7.9-2.6-10.6-5.3c-2.6-2.6-7.9-2.6-15.8-5.3l-5.3,81.8c7.9,2.6,15.8,5.3,23.7,7.9
	c7.9,2.6,15.8,7.9,21.1,10.6C364,406.6,369.3,411.8,374.6,417.1z M300.7,298.4c-7.9,0-13.2,2.6-18.5,5.3c-5.3,2.6-10.6,5.3-13.2,7.9
	c-5.3,2.6-7.9,7.9-7.9,10.6c-2.6,5.3-2.6,10.6-2.6,13.2c0,5.3,0,10.6,2.6,13.2c2.6,5.3,5.3,7.9,7.9,10.6s7.9,5.3,10.6,7.9
	c5.3,2.6,10.6,5.3,15.8,5.3L300.7,298.4z M350.8,448.8c0-5.3,0-10.6-2.6-15.8c-2.6-5.3-5.3-7.9-7.9-10.6c-2.6-2.6-7.9-5.3-13.2-7.9
	s-10.6-5.3-15.8-5.3l-5.3,84.4c7.9,0,13.2-2.6,18.5-5.3c5.3-2.6,10.6-5.3,13.2-10.6c2.6-2.6,7.9-7.9,7.9-13.2
	C350.8,459.3,350.8,454,350.8,448.8z"/>
</svg>
