<?xml version="1.0" encoding="utf-8"?>
<!-- Generator: Adobe Illustrator 18.1.1, SVG Export Plug-In . SVG Version: 6.00 Build 0)  -->
<!DOCTYPE svg PUBLIC "-//W3C//DTD SVG 1.1//EN" "http://www.w3.org/Graphics/SVG/1.1/DTD/svg11.dtd">
<svg version="1.1" id="Layer_1" xmlns="http://www.w3.org/2000/svg" xmlns:xlink="http://www.w3.org/1999/xlink" x="0px" y="0px"
	 viewBox="0 0 23.2 22" enable-background="new 0 0 23.2 22" xml:space="preserve">
<path fill="#35434C" d="M14.3,21.1c0.1,0.3-0.1,0.5-0.4,0.6c-0.8,0.2-1.6,0.3-2.4,0.3c-2.9,0-5.6-1.1-7.7-3.2
	c-2.1-2.1-3.2-4.8-3.2-7.7c0-2.8,1-5.4,2.9-7.4l-3.1,0C0.2,3.7,0,3.4,0,3.2c0-0.3,0.2-0.5,0.5-0.5c0,0,0,0,0,0l4.4,0
	c0.3,0,0.5,0.2,0.5,0.4l0.5,4.4C5.9,7.7,5.7,8,5.4,8c0,0,0,0-0.1,0C5.1,8,4.9,7.8,4.9,7.6L4.5,4.1c-1.8,1.9-2.9,4.3-2.9,7
	c0,2.6,1,5.1,2.9,7c2.4,2.4,5.8,3.4,9.2,2.7C13.9,20.7,14.2,20.8,14.3,21.1z M22.7,18.4l-3.2,0c4-4.3,4-11-0.2-15.2
	c-2.6-2.6-6.4-3.7-10.1-2.9C9,0.3,8.8,0.6,8.9,0.9c0.1,0.3,0.3,0.4,0.6,0.4c3.3-0.7,6.8,0.3,9.2,2.7c3.8,3.8,3.8,10,0.1,13.9
	l-0.4-3.3c0-0.3-0.3-0.5-0.6-0.4c-0.3,0-0.5,0.3-0.4,0.6l0.5,4.4c0,0.3,0.2,0.4,0.5,0.4l4.4,0c0.3,0,0.5-0.2,0.5-0.5
	C23.2,18.6,23,18.4,22.7,18.4z M14.2,11.8c0.1,0.3,0.2,0.6,0.2,1c0,0.4-0.1,0.7-0.2,1.1c-0.1,0.3-0.3,0.6-0.6,0.9
	c-0.2,0.3-0.5,0.5-0.9,0.6c-0.4,0.2-0.8,0.2-1.2,0.2l-0.1,1.1c0,0.1,0,0.2-0.1,0.2c-0.1,0.1-0.1,0.1-0.2,0.1h-0.4l0.1-1.4
	c-0.5,0-1-0.2-1.4-0.4c-0.4-0.2-0.8-0.5-1.1-0.8L8.6,14c0,0,0.1-0.1,0.1-0.1c0.1,0,0.1,0,0.2,0c0.1,0,0.2,0,0.3,0.1
	c0.1,0.1,0.2,0.2,0.4,0.3c0.1,0.1,0.3,0.2,0.5,0.3c0.2,0.1,0.5,0.2,0.7,0.2l0.2-3.4c-0.3-0.1-0.6-0.2-0.9-0.3
	c-0.3-0.1-0.5-0.3-0.8-0.4C9.2,10.4,9,10.2,8.9,9.9c-0.1-0.3-0.2-0.6-0.2-1c0-0.3,0.1-0.6,0.2-0.9C9,7.6,9.2,7.4,9.4,7.1
	c0.2-0.2,0.5-0.4,0.9-0.6c0.3-0.1,0.7-0.2,1.2-0.2l0.1-0.9c0-0.1,0-0.2,0.1-0.2c0.1-0.1,0.1-0.1,0.2-0.1h0.4l-0.1,1.3
	c0.4,0.1,0.8,0.2,1.2,0.3c0.3,0.2,0.6,0.4,0.9,0.6l-0.3,0.4C13.8,7.9,13.7,8,13.6,8c-0.1,0-0.1,0-0.2-0.1c-0.1-0.1-0.2-0.1-0.3-0.2
	c-0.1-0.1-0.3-0.1-0.4-0.2s-0.3-0.1-0.6-0.2l-0.2,3.1c0.3,0.1,0.6,0.2,0.9,0.3c0.3,0.1,0.6,0.3,0.8,0.4C13.8,11.4,14,11.6,14.2,11.8
	z M11.4,7.3c-0.3,0-0.5,0.1-0.7,0.2c-0.2,0.1-0.4,0.2-0.5,0.3C10,7.9,9.9,8.1,9.9,8.2C9.8,8.4,9.8,8.6,9.8,8.7c0,0.2,0,0.4,0.1,0.5
	c0.1,0.2,0.2,0.3,0.3,0.4c0.1,0.1,0.3,0.2,0.4,0.3c0.2,0.1,0.4,0.2,0.6,0.2L11.4,7.3z M13.3,13c0-0.2,0-0.4-0.1-0.6
	c-0.1-0.2-0.2-0.3-0.3-0.4c-0.1-0.1-0.3-0.2-0.5-0.3c-0.2-0.1-0.4-0.2-0.6-0.2l-0.2,3.2c0.3,0,0.5-0.1,0.7-0.2s0.4-0.2,0.5-0.4
	c0.1-0.1,0.3-0.3,0.3-0.5C13.3,13.4,13.3,13.2,13.3,13z"/>
</svg>
