<?xml version="1.0" encoding="utf-8"?>
<!-- Generator: Adobe Illustrator 19.2.0, SVG Export Plug-In . SVG Version: 6.00 Build 0)  -->
<!DOCTYPE svg PUBLIC "-//W3C//DTD SVG 1.1//EN" "http://www.w3.org/Graphics/SVG/1.1/DTD/svg11.dtd">
<svg version="1.1" id="Layer_1" xmlns="http://www.w3.org/2000/svg" xmlns:xlink="http://www.w3.org/1999/xlink" x="0px" y="0px"
	 viewBox="0 0 55.5 64.1" style="enable-background:new 0 0 55.5 64.1;" xml:space="preserve">
<style type="text/css">
	.st0{fill:#29B99A;}
	.st1{opacity:0.5;fill:#010101;fill-opacity:0.4;enable-background:new    ;}
	.st2{fill:#102947;}
	.st3{fill:#EA3A24;}
	.st4{fill:#FFFFFF;}
</style>
<g id="hexagon-flat_19_" transform="translate(173.000000, 138.000000)">
	<polygon id="Polygon-48_19_" class="st0" points="-145.3,-138 -117.5,-122 -117.5,-90 -145.3,-73.9 -173,-90 -173,-122 	"/>
</g>
<g>
	<g>
		<polygon class="st1" points="43,30.5 41.8,18 35.5,18.9 34.3,18.2 31.5,18.4 28.5,21.6 23.2,28.2 9.8,17.3 0,26.4 0,48 27.7,64.1 
			42.9,47.3 41,33.5 		"/>
	</g>
</g>
<circle class="st2" cx="18.1" cy="24" r="9.5"/>
<circle class="st3" cx="34.7" cy="40.5" r="9.5"/>
<path id="Fill-1" class="st4" d="M36.3,41.7l-1.6-2.4l-1.6,2.4H36.3L36.3,41.7z M30.1,42.4l3.6-5.9l0,0c0.2-0.4,0.6-0.7,1-0.7
	c0.5,0,0.9,0.3,1,0.7l0,0l3.6,5.9l0,0c0.1,0.2,0.1,0.3,0.1,0.5c0,0.7-0.5,1.2-1.2,1.2h-7.1c-0.7,0-1.2-0.5-1.2-1.2
	C30,42.7,30,42.5,30.1,42.4L30.1,42.4L30.1,42.4z M34.7,48.8c4.6,0,8.3-3.7,8.3-8.3s-3.7-8.3-8.3-8.3s-8.3,3.7-8.3,8.3
	S30.1,48.8,34.7,48.8L34.7,48.8z M34.7,29.9c5.9,0,10.7,4.8,10.7,10.7s-4.8,10.7-10.7,10.7S24,46.4,24,40.5
	C24,34.7,28.8,29.9,34.7,29.9L34.7,29.9z M12.2,44.1h5.4l-2.7-2.7c-0.2-0.2-0.3-0.5-0.3-0.8c0-0.7,0.5-1.2,1.2-1.2
	c0.3,0,0.6,0.1,0.8,0.3l4.7,4.7c0.2,0.2,0.3,0.5,0.3,0.8s-0.1,0.6-0.3,0.8l-4.7,4.7c-0.2,0.2-0.5,0.3-0.8,0.3
	c-0.7,0-1.2-0.5-1.2-1.2c0-0.3,0.1-0.6,0.3-0.8l2.7-2.7H11c-0.7,0-1.2-0.5-1.2-1.2V34c0.7,0.6,1.5,1.1,2.4,1.5L12.2,44.1L12.2,44.1z
	 M16.9,25.1h2.4v-2.4h-2.4V25.1z M19.3,27.5h-2.4c-1.3,0-2.4-1.1-2.4-2.4v-2.4c0-1.3,1.1-2.4,2.4-2.4h2.4c1.3,0,2.4,1.1,2.4,2.4v2.4
	C21.7,26.5,20.6,27.5,19.3,27.5L19.3,27.5z M18.1,15.7c-4.6,0-8.3,3.7-8.3,8.3s3.7,8.3,8.3,8.3s8.3-3.7,8.3-8.3
	C26.4,19.4,22.7,15.7,18.1,15.7L18.1,15.7z M18.1,34.6c-5.9,0-10.7-4.8-10.7-10.7s4.8-10.7,10.7-10.7S28.8,18,28.8,23.9
	S24,34.6,18.1,34.6L18.1,34.6z M40.6,20.4h-5.4l2.7,2.7c0.2,0.2,0.3,0.5,0.3,0.8c0,0.7-0.5,1.2-1.2,1.2c-0.3,0-0.6-0.1-0.8-0.3
	l-4.7-4.7c-0.2-0.2-0.3-0.5-0.3-0.8s0.1-0.6,0.3-0.8l4.7-4.7c0.2-0.2,0.5-0.3,0.8-0.3c0.7,0,1.2,0.5,1.2,1.2c0,0.3-0.1,0.6-0.3,0.8
	L35.2,18h6.6c0.7,0,1.2,0.5,1.2,1.2v11.3c-0.7-0.6-1.5-1.1-2.4-1.5V20.4L40.6,20.4z"/>
</svg>
