<?xml version="1.0" encoding="utf-8"?>
<!-- Generator: Adobe Illustrator 19.2.0, SVG Export Plug-In . SVG Version: 6.00 Build 0)  -->
<!DOCTYPE svg PUBLIC "-//W3C//DTD SVG 1.1//EN" "http://www.w3.org/Graphics/SVG/1.1/DTD/svg11.dtd">
<svg version="1.1" id="Layer_1" xmlns="http://www.w3.org/2000/svg" xmlns:xlink="http://www.w3.org/1999/xlink" x="0px" y="0px"
	 viewBox="0 0 115.2 121" style="enable-background:new 0 0 115.2 121;" xml:space="preserve">
<style type="text/css">
	.st0{clip-path:url(#Polygon-48_1_);}
	.st1{fill:#FFFFFF;}
	.st2{fill:#EA3A24;}
	.st3{fill:#102947;}
	.st4{opacity:0.2;fill:#231F20;enable-background:new    ;}
	.st5{opacity:0.2;}
	.st6{fill:#010101;}
	.st7{fill:#E65425;}
</style>
<g>
	<g>
		<defs>
			<polygon id="Polygon-48_31_" points="57.4,6.4 119.7,42.4 119.7,114.4 57.4,150.4 -5,114.4 -5,42.4 			"/>
		</defs>
		<clipPath id="Polygon-48_1_">
			<use xlink:href="#Polygon_x002D_48_31_"  style="overflow:visible;"/>
		</clipPath>
		<g class="st0">
			<g>
				<rect x="21.5" y="67.7" class="st1" width="72.6" height="41.8"/>
				<path class="st2" d="M94.2,63.6H21.5c-2.3,0-4.1,1.8-4.1,4.1v41.8c0,2.3,1.8,4.1,4.1,4.1h72.6c2.3,0,4.1-1.8,4.1-4.1V67.7
					C98.2,65.4,96.4,63.6,94.2,63.6z M94.2,109.4H21.5V67.7h72.6V109.4z"/>
			</g>
			<g>
				<rect x="27.4" y="37.4" class="st3" width="1.2" height="31.5"/>
				<path class="st3" d="M28,67.4c-0.2,0-0.4,0.2-0.4,0.5c0,0.2,0.2,0.4,0.5,0.4c3.7-0.1,5.6,1.2,7.2,4.9c0.1,0.2,0.2,0.3,0.4,0.3
					c0.1,0,0.1,0,0.2,0c0.2-0.1,0.3-0.4,0.2-0.6C34.6,69.5,32.7,67.3,28,67.4z"/>
				<path class="st3" d="M28,67.4c-4.8-0.2-6.9,3-8.2,6.1c-0.1,0.2,0,0.5,0.2,0.6c0.1,0,0.1,0,0.2,0c0.2,0,0.3-0.1,0.4-0.3
					c1.8-4.1,3.9-5.7,7.4-5.5c0.2,0,0.5-0.2,0.5-0.4C28.5,67.6,28.3,67.4,28,67.4z"/>
				<path class="st3" d="M36,57.7c-1.6,0-3.4,1.5-4.7,2.7c-2.6,2.6-3.7,7.2-3.8,7.4l-0.2,0.7l0.7-0.1c3.8-0.7,9.3-4.2,10.2-7.2
					c0.3-1,0.1-2-0.6-2.7C37.2,57.9,36.7,57.7,36,57.7z M37.5,60.8c-0.8,2.5-5.4,5.5-8.8,6.5c0.4-1.4,1.5-4.4,3.3-6.3
					c1.5-1.5,3-2.4,4-2.4c0.4,0,0.7,0.1,1,0.4C37.5,59.5,37.7,60.1,37.5,60.8z"/>
				<path class="st3" d="M24.9,60c-1.5-1.5-3-2.2-4.3-2.2c-0.9,0-1.8,0.4-2.5,1c-0.8,0.8-1.2,1.9-1,3c0.2,1.2,0.9,2.5,2.2,3.8
					c2.7,2.7,8.4,2.7,8.7,2.7l0.5,0l-0.1-0.5C28.4,67.6,27.6,62.6,24.9,60z M19.9,65c-1.1-1.1-1.8-2.3-2-3.3
					c-0.1-0.9,0.1-1.6,0.8-2.3c0.5-0.5,1.1-0.8,1.9-0.8c1.1,0,2.4,0.7,3.7,2c2,2,2.9,5.5,3.2,6.8C26,67.3,21.9,66.9,19.9,65z"/>
				<path class="st3" d="M28,66.4c-0.8,0-1.5,0.7-1.5,1.5s0.7,1.5,1.5,1.5c0.8,0,1.5-0.7,1.5-1.5S28.8,66.4,28,66.4z"/>
			</g>
			<g>
				<rect x="87.2" y="37.4" class="st3" width="1.2" height="31.5"/>
				<path class="st3" d="M87.9,67.4c-0.2,0-0.4,0.2-0.4,0.5c0,0.2,0.2,0.4,0.5,0.4c3.7-0.1,5.6,1.2,7.2,4.9c0.1,0.2,0.2,0.3,0.4,0.3
					c0.1,0,0.1,0,0.2,0c0.2-0.1,0.3-0.4,0.2-0.6C94.5,69.5,92.6,67.3,87.9,67.4z"/>
				<path class="st3" d="M87.9,67.4c-4.8-0.2-6.9,3-8.2,6.1c-0.1,0.2,0,0.5,0.2,0.6c0.1,0,0.1,0,0.2,0c0.2,0,0.3-0.1,0.4-0.3
					c1.8-4.1,3.9-5.7,7.4-5.5c0,0,0,0,0,0c0.2,0,0.4-0.2,0.4-0.4C88.3,67.6,88.2,67.4,87.9,67.4z"/>
				<path class="st3" d="M95.9,57.7c-1.6,0-3.4,1.5-4.7,2.7c-2.6,2.6-3.7,7.2-3.8,7.4l-0.2,0.7l0.7-0.1c3.8-0.7,9.3-4.2,10.2-7.2
					c0.3-1,0.1-2-0.6-2.7C97.1,57.9,96.5,57.7,95.9,57.7z M97.3,60.8c-0.8,2.5-5.4,5.5-8.8,6.5c0.4-1.4,1.5-4.4,3.3-6.3
					c1.5-1.5,3-2.4,4-2.4c0.4,0,0.7,0.1,1,0.4C97.4,59.5,97.6,60.1,97.3,60.8z"/>
				<path class="st3" d="M84.8,60c-1.5-1.5-3-2.2-4.3-2.2c-0.9,0-1.8,0.4-2.5,1c-0.8,0.8-1.2,1.9-1,3c0.2,1.2,0.9,2.5,2.2,3.8
					c2.7,2.7,8.4,2.7,8.7,2.7l0.5,0l-0.1-0.5C88.3,67.6,87.5,62.6,84.8,60z M79.8,65c-1.1-1.1-1.8-2.3-2-3.3
					c-0.1-0.9,0.1-1.6,0.8-2.3c0.5-0.5,1.1-0.8,1.9-0.8c1.1,0,2.4,0.7,3.7,2c2,2,2.9,5.5,3.2,6.8C85.9,67.3,81.8,66.9,79.8,65z"/>
				<path class="st3" d="M87.9,66.4c-0.8,0-1.5,0.7-1.5,1.5s0.7,1.5,1.5,1.5c0.8,0,1.5-0.7,1.5-1.5S88.7,66.4,87.9,66.4z"/>
			</g>
			<path class="st4" d="M88.9-29c-4.9-3-10.2,1.5-15.8,0c-5-1.4-10.3,0-15.8,0c-0.1,0-0.2,0-0.3,0c-5.4,0-10.6-1.3-15.5,0
				c-5.6,1.5-10.9-2.9-15.8,0c-5.5,3.3-11.5,67.7-15.6,72.4c0.3,0.5,1.8,1.9,2.2,2.3c1.4,1.4,3.4,2.3,5.6,2.3c4.4,0,7.9-3.5,7.9-7.9
				c0,2.2,0.9,4.1,2.3,5.6c1.4,1.4,3.4,2.3,5.6,2.3c4.4,0,7.9-3.5,7.9-7.9c0,2.2,0.9,4.1,2.3,5.6c1.4,1.4,3.4,2.3,5.6,2.3
				c4.4,0,7.9-3.5,7.9-7.9c0,2.2,0.9,4.1,2.3,5.6c1.4,1.4,3.4,2.3,5.6,2.3c4.4,0,7.9-3.5,7.9-7.9c0,2.2,0.9,4.1,2.3,5.6
				c1.4,1.4,3.4,2.3,5.6,2.3c4.4,0,7.9-3.5,7.9-7.9c0,2.2,0.9,4.1,2.3,5.6c1.4,1.4,3.4,2.3,5.6,2.3c2.7,0,6-2.3,7.5-4.3
				C100.1,39,94.3-25.7,88.9-29z"/>
			<path class="st2" d="M25.8,37.9c0,2.2,0.9,4.1,2.3,5.6c1.4,1.4,3.4,2.3,5.6,2.3c4.4,0,7.9-3.5,7.9-7.9V-29
				c-5.6,1.5-10.9-2.9-15.8,0L25.8,37.9L25.8,37.9z"/>
			<path class="st1" d="M57.1-29c-5.4,0-10.6-1.3-15.5,0v66.9c0,2.2,0.9,4.1,2.3,5.6c1.4,1.4,3.4,2.3,5.6,2.3c4.4,0,7.9-3.5,7.9-7.9
				V-29"/>
			<path class="st2" d="M57.3-29v66.9c0,2.2,0.9,4.1,2.3,5.6c1.4,1.4,3.4,2.3,5.6,2.3c4.4,0,7.9-3.5,7.9-7.9V-29
				C68.1-30.3,62.8-28.9,57.3-29"/>
			<path class="st1" d="M73.1,37.9c0,2.2,0.9,4.1,2.3,5.6c1.4,1.4,3.4,2.3,5.6,2.3c4.4,0,7.9-3.5,7.9-7.9V-29
				c-4.9-3-10.2,1.5-15.8,0L73.1,37.9L73.1,37.9z"/>
			<g class="st5">
				<path class="st6" d="M34.8,81.7c-2.4,0-4.3,0.7-5.7,2.1c-1.3,1.4-2,3.3-2,5.7c0,1.7,0.4,3.2,1.1,4.4c0.7,1.2,1.6,2,2.7,2.5
					c1.1,0.5,2.5,0.8,4.2,0.8c1.7,0,3-0.3,4.1-1c1.1-0.6,1.9-1.5,2.5-2.6c0.6-1.1,0.9-2.6,0.8-4.3c0-2.4-0.7-4.3-2.1-5.6
					C39.2,82.3,37.2,81.7,34.8,81.7z M37.2,92.7c-0.5,0.7-1.3,1-2.3,1c-1,0-1.7-0.3-2.3-1c-0.6-0.7-0.9-1.7-0.9-3.2
					c0-1.5,0.3-2.6,0.8-3.3c0.6-0.7,1.3-1,2.2-1c1,0,1.7,0.3,2.3,1c0.6,0.6,0.9,1.7,0.9,3.1C38,90.9,37.7,92.1,37.2,92.7z"/>
				<path class="st6" d="M52.7,81.8L45,81.9v15l4.8,0v-5.6l2.5,0c1.9,0,3.2-0.5,4.1-1.3c0.9-0.9,1.3-2,1.3-3.6
					c0-1.5-0.4-2.6-1.3-3.4C55.6,82.1,54.4,81.8,52.7,81.8z M52.7,87.7c-0.4,0.3-1,0.5-1.9,0.5l-1.1,0v-3.3l1.3,0
					c0.9,0,1.5,0.1,1.8,0.5c0.3,0.3,0.5,0.7,0.5,1.2C53.3,87,53.1,87.4,52.7,87.7z"/>
				<polygon class="st6" points="64.9,90.3 72,90.3 72,87.2 64.8,87.2 64.8,84.8 72.5,84.8 72.5,81.7 60.3,81.7 60.3,96.7 
					72.9,96.7 72.9,93.2 64.9,93.2 				"/>
				<polygon class="st6" points="85.3,89.7 79.6,81.5 75.4,81.5 75.4,96.5 79.7,96.5 79.7,88.2 85.3,96.4 89.7,96.4 89.7,81.4 
					85.3,81.4 				"/>
			</g>
			<g>
				<path class="st7" d="M34.3,80.9c-2.4,0-4.3,0.7-5.7,2.1c-1.3,1.4-2,3.3-2,5.7c0,1.7,0.4,3.2,1.1,4.4c0.7,1.2,1.6,2,2.7,2.5
					c1.1,0.5,2.5,0.8,4.2,0.8c1.7,0,3-0.3,4.1-1c1.1-0.6,1.9-1.5,2.5-2.6c0.6-1.1,0.9-2.6,0.8-4.3c0-2.4-0.7-4.3-2.1-5.6
					C38.7,81.6,36.7,80.9,34.3,80.9z M36.7,92c-0.5,0.7-1.3,1-2.3,1c-1,0-1.7-0.3-2.3-1c-0.6-0.7-0.9-1.7-0.9-3.2
					c0-1.5,0.3-2.6,0.8-3.3c0.6-0.7,1.3-1,2.2-1c1,0,1.7,0.3,2.3,1c0.6,0.6,0.9,1.7,0.9,3.1C37.5,90.1,37.2,91.3,36.7,92z"/>
				<path class="st7" d="M52.2,81l-7.7,0.1v15l4.8,0v-5.6l2.5,0c1.9,0,3.2-0.5,4.1-1.3c0.9-0.9,1.3-2,1.3-3.6c0-1.5-0.4-2.6-1.3-3.4
					C55.1,81.4,53.9,81,52.2,81z M52.2,86.9c-0.4,0.3-1,0.5-1.9,0.5l-1.1,0v-3.3l1.3,0c0.9,0,1.5,0.1,1.8,0.5
					c0.3,0.3,0.5,0.7,0.5,1.2C52.7,86.2,52.6,86.6,52.2,86.9z"/>
				<polygon class="st7" points="64.4,89.5 71.5,89.5 71.5,86.5 64.3,86.5 64.3,84.1 72,84.1 72,80.9 59.8,80.9 59.8,95.9 
					72.4,95.9 72.4,92.5 64.4,92.5 				"/>
				<polygon class="st7" points="84.8,89 79.1,80.7 74.9,80.8 74.9,95.7 79.2,95.7 79.2,87.5 84.8,95.6 89.2,95.6 89.2,80.6 
					84.8,80.7 				"/>
			</g>
			<path class="st1" d="M25.6-29c-5.4,0-10.6-1.3-15.5,0v66.9c0,2.2,0.9,4.1,2.3,5.6c1.4,1.4,3.4,2.3,5.6,2.3c4.4,0,7.9-3.5,7.9-7.9
				V-29"/>
			<path class="st2" d="M104.4-29c-5.4,0-10.6-1.3-15.5,0v67.9c0,2.2,0.9,4.1,2.3,5.6c1.4,1.4,3.4,2.3,5.6,2.3
				c4.4,0,7.9-3.5,7.9-7.9V-29"/>
		</g>
	</g>
</g>
</svg>
