<?xml version="1.0" encoding="utf-8"?>
<!-- Generator: Adobe Illustrator 17.0.2, SVG Export Plug-In . SVG Version: 6.00 Build 0)  -->
<!DOCTYPE svg PUBLIC "-//W3C//DTD SVG 1.1//EN" "http://www.w3.org/Graphics/SVG/1.1/DTD/svg11.dtd">
<svg version="1.1" id="Layer_1" xmlns="http://www.w3.org/2000/svg" xmlns:xlink="http://www.w3.org/1999/xlink" x="0px" y="0px"
	 width="284px" height="278.9px" viewBox="0 0 284 278.9" enable-background="new 0 0 284 278.9" xml:space="preserve">
<circle fill="#3B83C5" cx="143.1" cy="140.9" r="134.9"/>
<g>
	<path fill="#FFFFFF" d="M76.7,136.8v20.5c0,16.9,35,28.6,66.4,28.6s66.4-11.8,66.4-28.6v-20.5c-11.9,12.2-36.8,20.5-66.4,20.5
		S88.5,149,76.7,136.8z"/>
	<path fill="#FFFFFF" d="M76.7,104.1v16.4c0,16.9,35,28.6,66.4,28.6s66.4-11.8,66.4-28.6v-16.4c-11.9,12.2-36.8,20.5-66.4,20.5
		C113.5,124.6,88.5,116.3,76.7,104.1z"/>
	<path fill="#FFFFFF" d="M143.1,59.2c-31.4,0-66.4,11.8-66.4,28.6s35,28.6,66.4,28.6s66.4-11.8,66.4-28.6S174.5,59.2,143.1,59.2z"/>
	<path fill="#FFFFFF" d="M76.7,173.6v20.5c0,16.9,35,28.6,66.4,28.6s66.4-11.8,66.4-28.6v-20.5c-11.9,12.2-36.8,20.5-66.4,20.5
		S88.5,185.8,76.7,173.6z"/>
</g>
</svg>
