<?xml version="1.0" encoding="utf-8"?>
<!-- Generator: Adobe Illustrator 19.2.0, SVG Export Plug-In . SVG Version: 6.00 Build 0)  -->
<!DOCTYPE svg PUBLIC "-//W3C//DTD SVG 1.1//EN" "http://www.w3.org/Graphics/SVG/1.1/DTD/svg11.dtd">
<svg version="1.1" id="Layer_1" xmlns="http://www.w3.org/2000/svg" xmlns:xlink="http://www.w3.org/1999/xlink" x="0px" y="0px"
	 viewBox="0 0 55.5 64.1" style="enable-background:new 0 0 55.5 64.1;" xml:space="preserve">
<style type="text/css">
	.st0{fill:#87A945;}
	.st1{opacity:0.5;fill:#010101;fill-opacity:0.4;enable-background:new    ;}
	.st2{fill:#EBC096;}
	.st3{fill:#FBD199;}
	.st4{fill:#D8B190;}
	.st5{fill:#F9F1EB;}
	.st6{fill:#233644;}
	.st7{fill:#763718;}
	.st8{fill:#89461F;}
	.st9{fill:#162026;}
</style>
<g id="hexagon-flat_21_" transform="translate(173.000000, 138.000000)">
	<polygon id="Polygon-48_21_" class="st0" points="-145.3,-138 -117.5,-122 -117.5,-90 -145.3,-73.9 -173,-90 -173,-122 	"/>
</g>
<g>
	<g>
		<polygon class="st1" points="41.2,37.6 39.1,33.6 31.3,32 28.9,27.8 30.3,24.5 26.6,25.9 23.2,28.2 11.5,20.3 0,31.5 0,48 
			27.7,64.1 51.4,35.8 48.6,33.7 		"/>
	</g>
</g>
<g>
	<path class="st2" d="M17.4,25.3l8.9,0.6c0,0,10.6,11.3,12.4,14.4c0.1,2.7-2.4,2.3-2.4,2.3c-0.2,2.4-1.9,1.7-2.8,1.8
		c-0.1,0.6-0.9,2.3-3.2,1.2c-0.4,0.4-1,1.6-4.1-0.6c-3.1-2.2-11.7-9.4-13.3-9.6C13.2,34.9,17.4,25.3,17.4,25.3z"/>
	<path class="st3" d="M14.9,36.5l0.4,3.2c0,0,0.7,1.9,2,1.6c0.4,2.3,1.9,2.1,2.4,2.1c0,1.3,1.5,2.3,2.3,1.7
		c-0.3,1.5,1.8,1.8,1.8,1.8s1.4-0.8,2.5-1.9c1.1-1.1-1.1-2.5-1.5-2c0.8-2.2-1.5-2.7-2.3-2.1c0.4-1.7-2-2.4-2.4-2
		c0.3-1.7-2.2-2.1-2.9-1.1C15.6,37,14.9,36.5,14.9,36.5z"/>
	<path class="st3" d="M39.5,25.6c0,0-1.2,1.4-3.3,1.3c-3.9-1.4-4.6-2.3-6.4-2.3c-1.9-0.1-5.5,1.6-6.1,2.3c-0.6,0.7-2.3,5.7-2,6.3
		c0.3,0.6,2,2.1,4.8-3c4-1.7,11.5,10.2,12.2,10.2c0.7-0.1,5.9-3.1,5.6-3.8C44,35.9,39.5,25.6,39.5,25.6z"/>
	<path class="st4" d="M36.2,42.7C36.2,42.7,36.1,42.7,36.2,42.7c-1.5-1.4-6.1-5.6-6.3-6.2c0-0.1,0-0.2,0.2-0.3c0.1,0,0.2,0,0.2,0.1
		c0.2,0.4,3.8,3.8,6.1,5.9c0.1,0.1,0.1,0.2,0,0.3C36.3,42.7,36.2,42.7,36.2,42.7z"/>
	<path class="st4" d="M33.4,44.5L33.4,44.5c-1.4-1-5.7-4.3-5.9-5c0-0.1,0-0.2,0.1-0.3c0.1,0,0.2,0,0.3,0.1c0.2,0.4,3.4,3,5.6,4.8
		c0.1,0.1,0.1,0.2,0,0.3C33.5,44.4,33.4,44.5,33.4,44.5z"/>
	<path class="st4" d="M30.2,45.7h-0.1c-1.3-1-4.4-3.3-4.6-3.8c0-0.1,0-0.2,0.1-0.3c0.1,0,0.2,0,0.3,0.1c0.1,0.3,2.3,2.1,4.4,3.6
		c0.1,0.1,0.1,0.2,0,0.3C30.3,45.7,30.2,45.7,30.2,45.7z"/>
	<polygon class="st5" points="15.9,23.6 17.9,24.5 12.9,36 11.2,35.3 	"/>
	<polygon class="st6" points="16.3,22.7 11.2,36.3 5.4,34.2 11.5,20.3 	"/>
	<polygon class="st5" points="40.7,24.5 39,25.2 43.9,37.5 45.6,36.8 	"/>
	<polygon class="st7" points="40.5,24.2 45.6,37.8 51.4,35.8 45.3,21.8 	"/>
	<polygon class="st8" points="43.1,31.2 45.6,37.8 51.4,35.8 48.3,28.5 	"/>
	<polygon class="st9" points="8.1,27.8 5.4,34.1 11.2,36.1 13.3,30.4 	"/>
</g>
</svg>
