<?xml version="1.0" encoding="utf-8"?>
<!-- Generator: Adobe Illustrator 19.2.0, SVG Export Plug-In . SVG Version: 6.00 Build 0)  -->
<!DOCTYPE svg PUBLIC "-//W3C//DTD SVG 1.1//EN" "http://www.w3.org/Graphics/SVG/1.1/DTD/svg11.dtd">
<svg version="1.1" id="Layer_1" xmlns="http://www.w3.org/2000/svg" xmlns:xlink="http://www.w3.org/1999/xlink" x="0px" y="0px"
	 viewBox="0 0 91.1 90" style="enable-background:new 0 0 91.1 90;" xml:space="preserve">
<style type="text/css">
	.st0{fill:#89461F;}
	.st1{fill:#B2BDB1;}
	.st2{fill:#EAEAEA;}
	.st3{fill:#CC872D;}
	.st4{fill:#3B8176;}
	.st5{fill:#B92D27;}
	.st6{fill:#98A898;}
	.st7{fill:#75BCAE;}
	.st8{fill:#4D9082;}
	.st9{fill:#CB3734;}
	.st10{fill:#EDCC7C;}
	.st11{fill:#38515C;}
	.st12{fill:#976364;}
	.st13{fill:#844F50;}
	.st14{fill:#5C2D2D;}
</style>
<g>
	<g>
		<g>
			<rect x="7.5" y="17.3" class="st0" width="57.2" height="72.7"/>
			<rect x="11.1" y="22" class="st1" width="50" height="63.2"/>
			<path class="st2" d="M11.1,22c0,0-0.6,50.9,5,60.4L67,79.6c0,0-10.4,1.3-6-57.6L11.1,22z"/>
			<path class="st3" d="M24.6,38.7c0,0,1.8,2,2.6,3.7c0,0,1.8-3.8,5.7-6.8c0,0-2.8,1.6-5.9,5.3C27.1,40.8,26.8,40,24.6,38.7z"/>
			<g>
				<path class="st4" d="M34.4,44.2H23.1V33.8h11.3V44.2z M24,43.3h9.5v-8.6H24V43.3z"/>
			</g>
			<path class="st5" d="M24.6,52.9c0,0,1.8,2,2.6,3.7c0,0,1.8-3.8,5.7-6.8c0,0-2.8,1.6-5.9,5.3C27.1,55.1,26.8,54.3,24.6,52.9z"/>
			<g>
				<path class="st4" d="M34.4,58.4H23.1V48.1h11.3V58.4z M24,57.6h9.5v-8.6H24V57.6z"/>
			</g>
			<path class="st3" d="M24.6,67.2c0,0,1.8,2,2.6,3.7c0,0,1.8-3.8,5.7-6.8c0,0-2.8,1.6-5.9,5.3C27.1,69.4,26.8,68.6,24.6,67.2z"/>
			<g>
				<path class="st4" d="M34.4,72.7H23.1V62.4h11.3V72.7z M24,71.9h9.5v-8.6H24V71.9z"/>
			</g>
			<path class="st6" d="M47.6,20.7c-6.8-1.4-7.5-2-6.6-3.8c0.9-1.8,0.7-5.4-4.5-5.6l0,0c-0.1,0-0.2,0-0.3,0c-0.1,0-0.2,0-0.3,0l0,0
				c-5.3,0.2-5.5,3.7-4.5,5.6c0.9,1.9,0.2,2.5-6.6,3.8c-6.8,1.4-7.6,7-7.6,7h18.8h0.5h18.7C55.3,27.7,54.5,22.1,47.6,20.7z"/>
			<g>
				<polygon class="st7" points="84.2,43.3 57.2,64.5 41.3,58 				"/>
				<polygon class="st4" points="57.2,64.5 57.6,76.3 84.2,43.3 				"/>
				<polygon class="st8" points="62.2,67.8 57.6,76.3 64.7,67.7 				"/>
				<polygon class="st7" points="84.2,43.3 74,79.9 62.2,67.8 				"/>
			</g>
			<g>
				<path class="st9" d="M41.8,79.3c-0.2,0-0.4,0-0.6,0v-1c0.6,0,1.3,0,2,0l0.1,1C42.8,79.3,42.3,79.3,41.8,79.3z M39,79.1
					c-0.7-0.1-1.3-0.2-2.1-0.4l0.2-1c0.6,0.2,1.3,0.3,2,0.4L39,79.1z M45.4,79l-0.2-1c0.6-0.1,1.3-0.3,2-0.4l0.3,1
					C46.7,78.7,46,78.9,45.4,79z M35,78.1c-0.6-0.2-1.3-0.5-2-0.8l0.4-0.9c0.6,0.3,1.2,0.5,1.9,0.8L35,78.1z M49.4,77.9L49,76.9
					c0.6-0.2,1.2-0.5,1.9-0.8l0.4,0.9C50.8,77.3,50,77.6,49.4,77.9z M31.2,76.3c-0.6-0.3-1.2-0.7-1.8-1.1l0.6-0.8
					c0.5,0.4,1.1,0.7,1.6,1.1L31.2,76.3z M53.2,76l-0.5-0.9c0.6-0.3,1.1-0.7,1.8-1l0.6,0.8C54.4,75.3,53.7,75.7,53.2,76z M27.8,73.8
					c-1-0.8-1.5-1.4-1.5-1.4l0.8-0.7c0,0,0.5,0.6,1.4,1.3L27.8,73.8z"/>
			</g>
			<g>
				<path class="st10" d="M44.3,74.6L41.4,74c0-0.3,0.1-0.5,0.3-0.8c0.2-0.4,0.4-0.5,0.6-0.6L44.3,74.6l-6.4-6.5l0,0l-1.6,1.1
					l-0.8,1.6v2.1l0,0L44.3,74.6z"/>
				<path class="st11" d="M41.7,73.2c-0.1,0.3-0.3,0.6-0.3,0.8l2.9,0.5l-2-2.1C42.1,72.7,41.9,72.8,41.7,73.2z"/>
				<polygon class="st12" points="1.1,50.9 36.2,69.2 37.9,68.1 37.9,68 3.1,49.7 				"/>
				<polygon class="st13" points="1.1,50.9 0.1,52.4 35.3,71 36.2,69.2 				"/>
				<polygon class="st14" points="0.1,52.4 0.1,52.4 0,54.5 35.3,73 35.3,73 35.3,71 				"/>
			</g>
		</g>
	</g>
	<g>
		<polygon class="st7" points="91.1,0 72.7,10.1 63.7,4.6 		"/>
		<polygon class="st4" points="72.7,10.1 71.7,17.3 91.1,0 		"/>
		<polygon class="st8" points="75.3,12.6 71.7,17.3 76.8,12.8 		"/>
		<polygon class="st7" points="91.1,0 81.3,21.1 75.3,12.6 		"/>
	</g>
</g>
</svg>
