<?xml version="1.0" encoding="utf-8"?>
<!-- Generator: Adobe Illustrator 19.2.0, SVG Export Plug-In . SVG Version: 6.00 Build 0)  -->
<!DOCTYPE svg PUBLIC "-//W3C//DTD SVG 1.1//EN" "http://www.w3.org/Graphics/SVG/1.1/DTD/svg11.dtd">
<svg version="1.1" id="Layer_1" xmlns="http://www.w3.org/2000/svg" xmlns:xlink="http://www.w3.org/1999/xlink" x="0px" y="0px"
	 viewBox="0 0 55.5 64.1" style="enable-background:new 0 0 55.5 64.1;" xml:space="preserve">
<style type="text/css">
	.st0{fill:#8ED1EE;}
	.st1{opacity:0.5;fill:#010101;fill-opacity:0.4;enable-background:new    ;}
	.st2{fill:#F4EED3;}
</style>
<g id="hexagon-flat_3_" transform="translate(173.000000, 138.000000)">
	<polygon id="Polygon-48_3_" class="st0" points="-145.3,-138 -117.5,-122 -117.5,-90 -145.3,-73.9 -173,-90 -173,-122 	"/>
</g>
<polygon class="st1" points="34,39.5 20,13.5 0,29.9 0,48 25.1,62.6 40,48.9 "/>
<path class="st2" d="M27.7,64.1l20.4-11.8c-0.2-3.7-0.4-6.7-0.7-7.7c-0.9-2.7-7.9-4.4-14.2-6.6h-0.1v-5.6c0,0,3.3-1.7,3.3-7.3
	c1.8,0,1.8-4.9,0-4.9c0-0.6,2-3.8,1.2-6.9c-1.1-4.5-14.2-4.5-15.4,0c-5.6-1.1-2.4,6.3-2.4,7.1c-1.9,0-1.9,4.7,0,4.7
	c0,5.6,3.9,8.2,3.9,8.2V38C17.1,40.5,9,42.2,8,45.2c-0.3,0.8-0.5,3.6-0.7,7.1L27.7,64.1z"/>
</svg>
