<?xml version="1.0" ?><!DOCTYPE svg  PUBLIC '-//W3C//DTD SVG 1.1//EN'  'http://www.w3.org/Graphics/SVG/1.1/DTD/svg11.dtd'><svg height="40px" id="co_x5F_finance" style="enable-background:new 0 0 40 40;" version="1.1" viewBox="0 0 40 40" width="40px" xml:space="preserve" xmlns="http://www.w3.org/2000/svg" xmlns:xlink="http://www.w3.org/1999/xlink"><path d="M12.957,34.535c0,1.381-2.233,2.5-4.988,2.5s-4.988-1.119-4.988-2.5  c0-0.795,0-1.205,0-2c0-0.075,0.006-0.15,0.02-0.225c0.227,1.276,2.365,2.275,4.969,2.275s4.742-0.999,4.969-2.275  c0.014,0.075,0.02,0.15,0.02,0.225C12.957,33.33,12.957,33.74,12.957,34.535L12.957,34.535z M17.996,14.144l0.001-9.169  c-0.001-1.1,0.899-2,1.999-2l0,0c1.1,0,1.999,0.9,1.999,2v9.169l2.171-2.171c0.778-0.778,2.05-0.778,2.828,0l0,0  c0.778,0.778,0.778,2.05,0,2.828l-5.502,5.503c-0.851,0.88-2.143,0.9-2.991,0L12.997,14.8c-0.777-0.778-0.777-2.05,0-2.827l0,0  c0.778-0.779,2.051-0.778,2.828,0L17.996,14.144L17.996,14.144z M36.973,25.987c0,1.38-2.234,2.5-4.989,2.5s-4.988-1.119-4.988-2.5  c0-0.795,0-1.205,0-2c0-0.076,0.007-0.151,0.021-0.226c0.227,1.275,2.365,2.275,4.968,2.275c2.604,0,4.742-1,4.969-2.275  c0.014,0.074,0.021,0.149,0.021,0.226C36.973,24.782,36.973,25.192,36.973,25.987L36.973,25.987z M36.973,30.261  c0-0.795,0-1.205,0-2c0-0.076-0.007-0.151-0.021-0.225c-0.227,1.275-2.364,2.274-4.969,2.274c-2.603,0-4.741-0.999-4.968-2.274  c-0.014,0.074-0.021,0.149-0.021,0.225c0,0.795,0,1.205,0,2c0,1.38,2.233,2.5,4.988,2.5S36.973,31.641,36.973,30.261L36.973,30.261z   M31.983,19.148c-2.755,0-4.988,1.12-4.988,2.5c0,1.38,2.233,2.5,4.988,2.5s4.989-1.119,4.989-2.5  C36.973,20.268,34.738,19.148,31.983,19.148L31.983,19.148z M36.973,34.535c0,1.381-2.234,2.5-4.989,2.5s-4.988-1.119-4.988-2.5  c0-0.795,0-1.205,0-2c0-0.075,0.007-0.15,0.021-0.225c0.227,1.276,2.365,2.275,4.968,2.275c2.604,0,4.742-0.999,4.969-2.275  c0.014,0.075,0.021,0.15,0.021,0.225C36.973,33.33,36.973,33.74,36.973,34.535L36.973,34.535z M24.955,30.261  c0,1.38-2.233,2.5-4.988,2.5c-2.756,0-4.989-1.119-4.989-2.5c0-0.795,0-1.205,0-2c0-0.076,0.007-0.151,0.021-0.225  c0.227,1.275,2.364,2.274,4.969,2.274c2.603,0,4.741-0.999,4.968-2.274c0.014,0.074,0.021,0.149,0.021,0.225  C24.955,29.056,24.955,29.466,24.955,30.261L24.955,30.261z M19.967,23.367c-2.756,0-4.989,1.119-4.989,2.5s2.233,2.5,4.989,2.5  c2.755,0,4.988-1.119,4.988-2.5S22.722,23.367,19.967,23.367L19.967,23.367z M24.955,34.535c0-0.795,0-1.205,0-2  c0-0.075-0.007-0.15-0.021-0.225c-0.227,1.276-2.365,2.275-4.968,2.275c-2.604,0-4.742-0.999-4.969-2.275  c-0.014,0.075-0.021,0.15-0.021,0.225c0,0.795,0,1.205,0,2c0,1.381,2.233,2.5,4.989,2.5C22.722,37.035,24.955,35.916,24.955,34.535  L24.955,34.535z M8.077,27.816c-2.755,0-4.988,1.12-4.988,2.5s2.233,2.5,4.988,2.5s4.988-1.119,4.988-2.5  S10.832,27.816,8.077,27.816z" style="fill-rule:evenodd;clip-rule:evenodd;"/></svg>