<?xml version="1.0" ?><!DOCTYPE svg  PUBLIC '-//W3C//DTD SVG 1.1//EN'  'http://www.w3.org/Graphics/SVG/1.1/DTD/svg11.dtd'><svg height="40px" id="co_x5F_finance" style="enable-background:new 0 0 40 40;" version="1.1" viewBox="0 0 40 40" width="40px" xml:space="preserve" xmlns="http://www.w3.org/2000/svg" xmlns:xlink="http://www.w3.org/1999/xlink"><path d="M26.986,34.535c0,1.381,2.234,2.5,4.988,2.5c2.756,0,4.99-1.119,4.99-2.5  c0-0.795,0-1.205,0-2c0-0.075-0.008-0.15-0.021-0.225c-0.227,1.276-2.365,2.275-4.969,2.275s-4.74-0.999-4.969-2.275  c-0.012,0.075-0.02,0.15-0.02,0.225C26.986,33.33,26.986,33.74,26.986,34.535L26.986,34.535z M18.014,9.802v9.169  c0,1.1,0.898,2,1.998,2l0,0c1.102,0,2-0.9,2-2V9.802l2.172,2.171c0.777,0.777,2.051,0.777,2.828,0l0,0  c0.777-0.778,0.777-2.051,0-2.828l-5.504-5.503c-0.879-0.951-2.107-0.921-2.99,0l-5.504,5.503c-0.777,0.777-0.777,2.049,0,2.828l0,0  c0.778,0.777,2.051,0.777,2.828,0L18.014,9.802L18.014,9.802z M2.971,25.987c0,1.38,2.234,2.5,4.989,2.5s4.989-1.119,4.989-2.5  c0-0.795,0-1.205,0-2c0-0.076-0.007-0.151-0.021-0.226c-0.227,1.275-2.365,2.275-4.969,2.275s-4.741-1-4.969-2.275  c-0.014,0.074-0.021,0.149-0.021,0.226C2.971,24.782,2.971,25.192,2.971,25.987L2.971,25.987z M2.971,30.261c0-0.795,0-1.205,0-2  c0-0.076,0.007-0.151,0.021-0.225c0.228,1.275,2.365,2.274,4.969,2.274s4.742-0.999,4.969-2.274  c0.014,0.074,0.021,0.149,0.021,0.225c0,0.795,0,1.205,0,2c0,1.38-2.234,2.5-4.989,2.5S2.971,31.641,2.971,30.261L2.971,30.261z   M7.96,19.148c2.755,0,4.989,1.12,4.989,2.5c0,1.38-2.234,2.5-4.989,2.5s-4.989-1.119-4.989-2.5  C2.971,20.268,5.205,19.148,7.96,19.148L7.96,19.148z M2.971,34.535c0,1.381,2.234,2.5,4.989,2.5s4.989-1.119,4.989-2.5  c0-0.795,0-1.205,0-2c0-0.075-0.007-0.15-0.021-0.225c-0.227,1.276-2.365,2.275-4.969,2.275s-4.741-0.999-4.969-2.275  c-0.014,0.075-0.021,0.15-0.021,0.225C2.971,33.33,2.971,33.74,2.971,34.535L2.971,34.535z M14.988,30.261  c0,1.38,2.234,2.5,4.988,2.5c2.756,0,4.99-1.119,4.99-2.5c0-0.795,0-1.205,0-2c0-0.076-0.008-0.151-0.02-0.225  c-0.229,1.275-2.365,2.274-4.971,2.274c-2.603,0-4.74-0.999-4.968-2.274c-0.013,0.074-0.021,0.149-0.021,0.225  C14.988,29.056,14.988,29.466,14.988,30.261L14.988,30.261z M19.977,23.367c2.756,0,4.99,1.119,4.99,2.5s-2.234,2.5-4.99,2.5  c-2.754,0-4.988-1.119-4.988-2.5S17.223,23.367,19.977,23.367L19.977,23.367z M14.988,34.535c0-0.795,0-1.205,0-2  c0-0.075,0.008-0.15,0.021-0.225c0.228,1.276,2.365,2.275,4.968,2.275c2.605,0,4.742-0.999,4.971-2.275  c0.012,0.075,0.02,0.15,0.02,0.225c0,0.795,0,1.205,0,2c0,1.381-2.234,2.5-4.99,2.5C17.223,37.035,14.988,35.916,14.988,34.535  L14.988,34.535z M31.867,27.816c2.754,0,4.988,1.12,4.988,2.5s-2.234,2.5-4.988,2.5c-2.756,0-4.988-1.119-4.988-2.5  S29.111,27.816,31.867,27.816z" style="fill-rule:evenodd;clip-rule:evenodd;"/></svg>