<?xml version="1.0" encoding="utf-8"?>
<!-- Generator: Adobe Illustrator 19.2.0, SVG Export Plug-In . SVG Version: 6.00 Build 0)  -->
<!DOCTYPE svg PUBLIC "-//W3C//DTD SVG 1.1//EN" "http://www.w3.org/Graphics/SVG/1.1/DTD/svg11.dtd">
<svg version="1.1" id="Layer_1" xmlns="http://www.w3.org/2000/svg" xmlns:xlink="http://www.w3.org/1999/xlink" x="0px" y="0px"
	 viewBox="0 0 150.9 98.2" style="enable-background:new 0 0 150.9 98.2;" xml:space="preserve">
<style type="text/css">
	.st0{fill:#19100F;}
	.st1{fill:#1A160C;}
	.st2{fill:#F79220;}
	.st3{fill:#F4EED3;}
	.st4{fill:#FEFBEA;}
</style>
<g id="Bee_1_">
	<g>
		<g>
			<path class="st0" d="M81.2,35.9H81c0-0.1,2.2-8.9,8.7-11.6l0.1,0.2C83.3,27.1,81.2,35.9,81.2,35.9z"/>
		</g>
		<g>
			<path class="st0" d="M79.5,35.9c0-0.1-2.2-8.8-8.6-11.5l0.1-0.2c6.5,2.7,8.7,11.5,8.7,11.6L79.5,35.9z"/>
		</g>
		<circle class="st0" cx="89.8" cy="24.3" r="0.4"/>
		<circle class="st0" cx="70.9" cy="24.3" r="0.4"/>
	</g>
	<g>
		<polygon class="st0" points="88.8,88 94.4,82.4 89.3,75 90.2,74.4 95.8,82.5 89.6,88.8 		"/>
	</g>
	<g>
		<polygon class="st0" points="71.9,88 66.3,82.4 71.4,75 70.5,74.4 64.8,82.5 71.1,88.8 		"/>
	</g>
	<g>
		<polygon class="st0" points="101.5,50.1 95.9,44.5 88.4,49.6 87.8,48.7 96,43 102.3,49.3 		"/>
	</g>
	<g>
		<polygon class="st0" points="97.8,77.4 97.8,69.4 88.9,67.8 89.1,66.7 98.9,68.5 98.9,77.4 		"/>
	</g>
	<g>
		<polygon class="st0" points="59.2,50.1 64.8,44.5 72.2,49.6 72.9,48.7 64.7,43 58.4,49.3 		"/>
	</g>
	<g>
		<polygon class="st0" points="63.6,77.4 63.6,69.4 72.4,67.8 72.2,66.7 62.4,68.5 62.4,77.4 		"/>
	</g>
	<circle class="st1" cx="80.3" cy="39.8" r="6.2"/>
	<circle class="st1" cx="80.3" cy="52.8" r="9.6"/>
	<path class="st1" d="M91,71.7C91,65.8,86.3,61,80.3,61c-5.9,0-10.7,4.8-10.7,10.7c0,0-0.3,11,10.7,26.4C91.3,82.7,91,71.7,91,71.7z
		"/>
	<path class="st2" d="M80.3,61c-5.9,0-10.7,4.8-10.7,10.7c0,0,0,1,0.2,2.7c3.1,2.3,7,3.6,11.2,3.6c3.5,0,6.8-0.9,9.6-2.6
		C91,73,91,71.7,91,71.7C91,65.8,86.3,61,80.3,61z"/>
	<path class="st2" d="M80.3,55.2c3.5,0,6.8-1.1,9.5-2.9c-0.3-5-4.4-9.1-9.5-9.1s-9.3,4-9.5,9.1C73.5,54.1,76.8,55.2,80.3,55.2z"/>
	<path class="st3" d="M106.5,62.3L106.5,62.3C106.5,62.2,106.5,62.2,106.5,62.3C106.4,62.3,106.4,62.3,106.5,62.3
		c-3.8-1.6-21.4-7.6-21.4-7.6s1.7,15,15.5,20.4c0.4,0.2,0.9,0.4,1.4,0.5c3.8,0.9,7.6-1.4,8.6-5.2C111.5,67,109.7,63.6,106.5,62.3z"
		/>
	<path class="st4" d="M115.7,49.6C115.6,49.6,115.6,49.6,115.7,49.6C115.6,49.6,115.6,49.6,115.7,49.6c-0.1,0-0.1,0-0.2,0
		c-5.4-0.8-30.3-3-30.3-3s7.1,19.2,26.9,21.8c0.6,0.1,1.3,0.2,2,0.2c5.3,0,9.6-4.3,9.6-9.6C123.6,54.3,120.2,50.4,115.7,49.6z"/>
	<path class="st3" d="M54.6,62.3L54.6,62.3C54.6,62.2,54.6,62.2,54.6,62.3C54.7,62.3,54.7,62.3,54.6,62.3c3.8-1.6,21.4-7.6,21.4-7.6
		s-1.7,15-15.5,20.4c-0.4,0.2-0.9,0.4-1.4,0.5c-3.8,0.9-7.6-1.4-8.6-5.2C49.7,67,51.4,63.6,54.6,62.3z"/>
	<path class="st4" d="M45.5,49.6L45.5,49.6L45.5,49.6c0.1,0,0.2,0,0.2,0c5.4-0.8,30.3-3,30.3-3s-7.1,19.1-27,21.8
		c-0.6,0.1-1.3,0.2-2,0.2c-5.3,0-9.6-4.3-9.6-9.6C37.5,54.3,40.9,50.4,45.5,49.6z"/>
	<path class="st2" d="M81.1,83.7c-3.5,0-6.8-0.9-9.6-2.6c0.8,2.5,2,5.5,3.8,8.8c1.8,0.6,3.8,0.9,5.8,0.9c1.4,0,2.8-0.2,4.1-0.4
		c1.7-3.1,2.9-5.9,3.7-8.4C86.5,83.1,83.9,83.7,81.1,83.7z"/>
</g>
<g id="Bee_2_">
	<g>
		<g>
			<path class="st0" d="M136,16.4L136,16.4c-0.1,0,0.7-3.1,3-4.1v0.1C136.8,13.3,136,16.4,136,16.4z"/>
		</g>
		<g>
			<path class="st0" d="M135.4,16.4c0,0-0.8-3.1-3-4v-0.1C134.7,13.3,135.5,16.4,135.4,16.4L135.4,16.4z"/>
		</g>
		<circle class="st0" cx="139" cy="12.3" r="0.1"/>
		<circle class="st0" cx="132.4" cy="12.3" r="0.1"/>
	</g>
	<g>
		<polygon class="st0" points="138.7,34.6 140.6,32.7 138.8,30.1 139.2,29.8 141.1,32.7 138.9,34.9 		"/>
	</g>
	<g>
		<polygon class="st0" points="132.8,34.6 130.8,32.7 132.6,30.1 132.3,29.8 130.3,32.7 132.5,34.9 		"/>
	</g>
	<g>
		<polygon class="st0" points="143.1,21.4 141.1,19.4 138.5,21.2 138.3,20.9 141.2,18.9 143.4,21.1 		"/>
	</g>
	<g>
		<polygon class="st0" points="141.8,30.9 141.8,28.1 138.7,27.5 138.8,27.2 142.2,27.8 142.2,30.9 		"/>
	</g>
	<g>
		<polygon class="st0" points="128.3,21.4 130.3,19.4 132.9,21.2 133.1,20.9 130.2,18.9 128,21.1 		"/>
	</g>
	<g>
		<polygon class="st0" points="129.8,30.9 129.8,28.1 132.9,27.5 132.9,27.2 129.5,27.8 129.5,30.9 		"/>
	</g>
	<circle class="st1" cx="135.7" cy="17.8" r="2.2"/>
	<circle class="st1" cx="135.7" cy="22.3" r="3.3"/>
	<path class="st1" d="M139.5,28.9c0-2.1-1.7-3.7-3.7-3.7c-2.1,0-3.7,1.7-3.7,3.7c0,0-0.1,3.8,3.7,9.2
		C139.6,32.8,139.5,28.9,139.5,28.9z"/>
	<path class="st2" d="M135.7,25.2c-2.1,0-3.7,1.7-3.7,3.7c0,0,0,0.3,0.1,0.9c1.1,0.8,2.5,1.3,3.9,1.3c1.2,0,2.4-0.3,3.4-0.9
		c0.1-0.8,0.1-1.3,0.1-1.3C139.5,26.9,137.8,25.2,135.7,25.2z"/>
	<path class="st2" d="M135.7,23.1c1.2,0,2.4-0.4,3.3-1c-0.1-1.8-1.6-3.2-3.3-3.2s-3.2,1.4-3.3,3.2C133.3,22.8,134.5,23.1,135.7,23.1
		z"/>
	<path class="st3" d="M144.9,25.6L144.9,25.6L144.9,25.6C144.9,25.6,144.8,25.6,144.9,25.6c-1.4-0.6-7.5-2.6-7.5-2.6
		s0.6,5.3,5.4,7.1c0.2,0.1,0.3,0.1,0.5,0.2c1.3,0.3,2.7-0.5,3-1.8C146.6,27.3,146,26.1,144.9,25.6z"/>
	<path class="st4" d="M148.1,21.2L148.1,21.2C148,21.2,148,21.2,148.1,21.2C148,21.2,148,21.2,148.1,21.2c-2-0.3-10.7-1.1-10.7-1.1
		s2.5,6.7,9.4,7.6c0.2,0,0.5,0.1,0.7,0.1c1.8,0,3.3-1.5,3.3-3.3C150.9,22.8,149.6,21.4,148.1,21.2z"/>
	<path class="st3" d="M126.7,25.6L126.7,25.6L126.7,25.6L126.7,25.6c1.4-0.6,7.5-2.6,7.5-2.6s-0.6,5.3-5.4,7.1
		c-0.2,0.1-0.3,0.1-0.5,0.2c-1.3,0.3-2.7-0.5-3-1.8C125,27.3,125.6,26.1,126.7,25.6z"/>
	<path class="st4" d="M123.5,21.2L123.5,21.2L123.5,21.2C123.5,21.2,123.6,21.2,123.5,21.2c2-0.3,10.7-1.1,10.7-1.1
		s-2.5,6.7-9.4,7.6c-0.2,0-0.5,0.1-0.7,0.1c-1.8,0-3.3-1.5-3.3-3.3C120.7,22.8,121.9,21.4,123.5,21.2z"/>
	<path class="st2" d="M136,33.1c-1.2,0-2.4-0.3-3.4-0.9c0.3,0.9,0.7,1.9,1.3,3.1c0.6,0.2,1.3,0.3,2,0.3c0.5,0,1-0.1,1.4-0.2
		c0.6-1.1,1-2.1,1.3-2.9C137.9,32.9,136.9,33.1,136,33.1z"/>
</g>
<g id="Bee">
	<g>
		<g>
			<path class="st0" d="M22.9,6.3h-0.1c0,0,1.1-4.7,4.6-6.1v0.1C24,1.7,22.9,6.2,22.9,6.3z"/>
		</g>
		<g>
			<path class="st0" d="M22,6.3c0,0-1.1-4.6-4.5-6V0.2c3.4,1.4,4.5,6,4.6,6.1H22z"/>
		</g>
		<circle class="st0" cx="27.4" cy="0.2" r="0.2"/>
		<circle class="st0" cx="17.5" cy="0.2" r="0.2"/>
	</g>
	<g>
		<polygon class="st0" points="26.9,33.6 29.8,30.6 27.1,26.7 27.6,26.4 30.6,30.7 27.3,34 		"/>
	</g>
	<g>
		<polygon class="st0" points="18,33.6 15.1,30.6 17.8,26.7 17.3,26.4 14.3,30.7 17.6,34 		"/>
	</g>
	<g>
		<polygon class="st0" points="33.5,13.7 30.6,10.8 26.7,13.4 26.3,13 30.6,10 33.9,13.3 		"/>
	</g>
	<g>
		<polygon class="st0" points="31.6,28 31.6,23.8 26.9,23 27,22.4 32.1,23.3 32.1,28 		"/>
	</g>
	<g>
		<polygon class="st0" points="11.4,13.7 14.3,10.8 18.2,13.4 18.5,13 14.3,10 11,13.3 		"/>
	</g>
	<g>
		<polygon class="st0" points="13.7,28 13.7,23.8 18.3,23 18.2,22.4 13.1,23.3 13.1,28 		"/>
	</g>
	<circle class="st1" cx="22.4" cy="8.3" r="3.3"/>
	<circle class="st1" cx="22.4" cy="15.1" r="5"/>
	<path class="st1" d="M28,25c0-3.1-2.5-5.6-5.6-5.6s-5.6,2.5-5.6,5.6c0,0-0.1,5.7,5.6,13.8C28.2,30.8,28,25,28,25z"/>
	<path class="st2" d="M22.4,19.4c-3.1,0-5.6,2.5-5.6,5.6c0,0,0,0.5,0.1,1.4c1.6,1.2,3.7,1.9,5.9,1.9c1.8,0,3.5-0.5,5-1.4
		c0.2-1.3,0.2-2,0.2-2C28,21.9,25.5,19.4,22.4,19.4z"/>
	<path class="st2" d="M22.4,16.3c1.8,0,3.6-0.6,5-1.5c-0.1-2.6-2.3-4.7-5-4.7s-4.9,2.1-5,4.7C18.9,15.8,20.6,16.3,22.4,16.3z"/>
	<path class="st3" d="M36.2,20.1L36.2,20.1C36.1,20.1,36.1,20.1,36.2,20.1C36.1,20,36.1,20,36.2,20.1c-2-0.8-11.2-3.9-11.2-3.9
		s0.9,7.9,8.1,10.7c0.2,0.1,0.5,0.2,0.7,0.3c2,0.5,4-0.7,4.5-2.7C38.7,22.6,37.8,20.8,36.2,20.1z"/>
	<path class="st4" d="M40.9,13.4L40.9,13.4L40.9,13.4L40.9,13.4C38,13,25,11.8,25,11.8s3.7,10,14.1,11.4c0.3,0.1,0.7,0.1,1,0.1
		c2.8,0,5-2.2,5-5C45.1,15.9,43.3,13.8,40.9,13.4z"/>
	<path class="st3" d="M8.9,20.1C9,20.1,9,20.1,8.9,20.1C9,20.1,9,20.1,8.9,20.1C9,20,9,20,8.9,20.1c2-0.8,11.2-3.9,11.2-3.9
		S19.2,24,12,26.8c-0.2,0.1-0.5,0.2-0.7,0.3c-2,0.5-4-0.7-4.5-2.7C6.4,22.6,7.3,20.8,8.9,20.1z"/>
	<path class="st4" d="M4.2,13.4L4.2,13.4L4.2,13.4C4.2,13.4,4.3,13.4,4.2,13.4c2.9-0.4,16-1.6,16-1.6S16.4,21.9,6,23.3
		c-0.3,0.1-0.7,0.1-1,0.1c-2.8,0-5-2.2-5-5C0,15.9,1.8,13.8,4.2,13.4z"/>
	<path class="st2" d="M22.8,31.3c-1.8,0-3.5-0.5-5-1.4c0.4,1.3,1.1,2.9,2,4.6c1,0.3,2,0.5,3,0.5c0.7,0,1.5-0.1,2.2-0.2
		c0.9-1.6,1.5-3.1,2-4.4C25.7,31,24.3,31.3,22.8,31.3z"/>
</g>
</svg>
