<?xml version="1.0" encoding="utf-8"?>
<!-- Generator: Adobe Illustrator 19.2.0, SVG Export Plug-In . SVG Version: 6.00 Build 0)  -->
<!DOCTYPE svg PUBLIC "-//W3C//DTD SVG 1.1//EN" "http://www.w3.org/Graphics/SVG/1.1/DTD/svg11.dtd">
<svg version="1.1" id="Layer_1" xmlns="http://www.w3.org/2000/svg" xmlns:xlink="http://www.w3.org/1999/xlink" x="0px" y="0px"
	 viewBox="0 0 80.5 75.4" style="enable-background:new 0 0 80.5 75.4;" xml:space="preserve">
<style type="text/css">
	.st0{fill:#283F47;}
	.st1{fill:#639FA5;}
	.st2{fill:#EDEDED;}
	.st3{fill:#BA2B28;}
	.st4{fill:#465E6B;}
</style>
<g>
	<g>
		<path class="st0" d="M30.9,59.2l-5.4,16.2h-6.9l17.5-51.5h8l17.6,51.5h-7.1l-5.5-16.2H30.9z M47.8,54l-5-14.8
			c-1.2-3.4-1.9-6.4-2.7-9.4h-0.2c-0.8,3.1-1.6,6.2-2.6,9.3l-5,14.9H47.8z"/>
	</g>
	<path class="st1" d="M80.5,49.4c0,1.2-1.3,2.3-2.8,2.3H2.9c-1.6,0-2.9-1-2.9-2.3V5c0-1.2,1.3-2.3,2.9-2.3h74.8c1.6,0,2.8,1,2.8,2.3
		V49.4z"/>
	<rect x="4.6" y="6.6" class="st2" width="71.2" height="41.1"/>
	<rect x="37.4" class="st0" width="5.7" height="2.7"/>
	<circle class="st3" cx="15.4" cy="38.4" r="5.4"/>
	<circle class="st3" cx="28.7" cy="20.3" r="5.4"/>
	<circle class="st3" cx="52.2" cy="36.1" r="5.4"/>
	<g>
		<polygon class="st3" points="16.5,39.8 13.8,37.7 28.8,18.2 51.8,33.7 66.8,13.4 69.5,15.4 52.6,38.4 29.5,22.8 		"/>
	</g>
	<polygon class="st3" points="60.9,12 72.5,21.1 71.3,10.8 	"/>
	<g>
		<rect x="10" y="9.9" class="st4" width="16" height="1.7"/>
	</g>
	<g>
		<rect x="10" y="14.1" class="st4" width="7.6" height="1.7"/>
	</g>
</g>
</svg>
