<svg xmlns="http://www.w3.org/2000/svg" xmlns:xlink="http://www.w3.org/1999/xlink" preserveAspectRatio="xMidYMid" width="60" height="65" viewBox="0 0 60 65">
  <defs>
    <style>

      .cls-2 {
        fill: #ffffff;
      }
    </style>
  </defs>
  <path d="M30.001,75.980 C19.361,75.980 9.100,72.093 1.113,65.033 C1.113,65.033 0.009,64.061 0.009,64.061 C0.009,64.061 0.958,62.935 0.958,62.935 C3.761,59.601 8.720,56.816 14.921,55.107 C17.142,54.219 18.210,53.630 19.010,52.828 C19.865,51.969 20.337,51.164 20.502,50.282 C20.612,49.672 20.584,46.466 20.495,43.624 C18.957,41.874 17.619,39.271 16.332,35.515 C15.009,34.823 13.831,33.121 13.479,31.253 C13.101,29.248 13.317,27.564 14.020,26.554 C12.384,16.919 13.443,9.757 17.174,5.271 C20.082,1.772 24.535,-0.003 30.408,-0.003 C30.408,-0.003 30.932,-0.014 30.932,-0.014 C35.821,-0.014 36.948,1.016 38.005,2.464 C38.207,2.746 38.373,2.970 38.624,3.173 C41.326,3.177 43.570,4.264 45.115,6.318 C48.046,10.217 48.402,17.676 46.099,26.411 C46.914,27.409 47.139,29.213 46.665,31.360 C46.219,33.351 44.814,35.137 43.405,35.680 C42.362,39.119 41.297,41.729 39.619,43.688 C39.619,43.688 39.619,49.966 39.619,49.966 C39.804,51.355 40.329,51.868 41.283,52.800 C41.283,52.800 41.920,53.434 41.920,53.434 C42.518,53.912 43.045,54.164 45.412,55.212 C51.353,56.857 56.260,59.628 59.042,62.935 C59.042,62.935 59.987,64.061 59.987,64.061 C59.987,64.061 58.885,65.033 58.885,65.033 C50.898,72.093 40.637,75.980 30.001,75.980 Z" id="path-1" class="cls-2" fill-rule="evenodd"/>
</svg>
