<?xml version="1.0" ?><!DOCTYPE svg  PUBLIC '-//W3C//DTD SVG 1.1//EN'  'http://www.w3.org/Graphics/SVG/1.1/DTD/svg11.dtd'><svg enable-background="new 0 0 512 512" height="512px" id="Layer_1" version="1.1" viewBox="0 0 512 512" width="512px" xml:space="preserve" xmlns="http://www.w3.org/2000/svg" xmlns:xlink="http://www.w3.org/1999/xlink"><g><path d="M481.243,351.175c12.376-29.252,19.22-61.414,19.22-95.175c0-135.013-109.449-244.463-244.463-244.463   C120.987,11.537,11.537,120.987,11.537,256c0,33.253,6.651,64.948,18.676,93.846c58.02-36.746,137.184-59.384,224.472-59.384   C343.021,290.462,423.043,313.644,481.243,351.175z" fill="#ADDEDF"/><path d="M256,500.463c101.252,0,188.127-61.557,225.243-149.288c-58.2-37.531-138.222-60.713-226.559-60.713   c-87.288,0-166.452,22.638-224.472,59.384C67.012,438.28,154.239,500.463,256,500.463z" fill="#9ACB43"/></g><g><path d="M188.68,337.007c-16.5,0-24.425-12.295-17.612-27.323L243.34,150.28c6.813-15.027,17.962-15.027,24.776,0   l72.272,159.403c6.813,15.028-1.112,27.323-17.612,27.323H188.68z" fill="#93BA3F"/></g><g><path d="M252.931,389.042c-0.111,0.005,4.333-0.568,4.219-0.567c-3.308,0.029-10.487-1.288-10.417-3.653   l2.251-77.212c0.067-2.365,2.798-4.314,6.109-4.336c3.306-0.029,5.931,1.864,5.861,4.229l3.771,77.486   C264.658,387.273,256.084,388.889,252.931,389.042z" fill="#594A42"/></g></svg>