<?xml version="1.0" ?><!DOCTYPE svg  PUBLIC '-//W3C//DTD SVG 1.1//EN'  'http://www.w3.org/Graphics/SVG/1.1/DTD/svg11.dtd'><svg enable-background="new 0 0 64 64" height="64px" id="Layer_1" version="1.1" viewBox="0 0 64 64" width="64px" xml:space="preserve" xmlns="http://www.w3.org/2000/svg" xmlns:xlink="http://www.w3.org/1999/xlink"><g><g><circle cx="36.5" cy="30.6" fill="#0578A0" r="26.5"/></g><g><path d="M55.2,11.8c10.3,10.3,10.3,27.1,0,37.5c-10.4,10.3-27.1,10.3-37.5,0" fill="#006E8C"/></g><rect fill="#82C60A" height="6.3" transform="matrix(0.7071 0.7071 -0.7071 0.7071 25.8341 -14.4978)" width="6.3" x="27.3" y="20.8"/><polygon fill="#82C60A" points="36,12.8 41,9.8 46,12.8 46,18.9 41,21.9 36,18.9  "/><circle cx="40.4" cy="29.8" fill="#82C60A" r="4.2"/><circle cx="54.5" cy="27" fill="#82C60A" r="1.5"/><polyline fill="#5EA304" points="30.4,19.5 34.9,23.9 30.4,28.4  "/><polyline fill="#5EA304" points="41,9.8 46,12.8 46,18.9 41,21.9  "/><path d="M40.4,25.5c2.3,0,4.2,1.9,4.2,4.2S42.8,34,40.4,34" fill="#5EA304"/><path d="M54.5,25.5c0.8,0,1.5,0.7,1.5,1.5s-0.7,1.5-1.5,1.5" fill="#5EA304"/><g><path d="M11,6.1V6l0,0V6.1C8,13.5,0.2,15.2,0.7,24C1,29.1,6,32.1,11,35v0l0,0v0c6-3,10-5.9,10.3-11    C21.8,15.2,14,13.5,11,6.1z" fill="#82C60A"/><path d="M11,35L11,35L11,35L11,35c6-2.9,10-5.9,10.3-11C21.8,15.2,14,13.5,11,6.1V6l0,0l0,0" fill="#5EA304"/><g><polygon fill="#74B208" points="11,18.9 6.4,16 11,20.7 15.6,16    "/><polygon fill="#74B208" points="11,28.6 6.4,25.7 11,30.3 15.6,25.7    "/><polygon fill="#74B208" points="11,23.7 5.8,20.4 11,25.7 16.2,20.4    "/></g></g><g><g><path d="M8.1,36.6C7.7,37,7.4,38,7.2,38H2v19h6.4c0.7,1,5.2,2,6.7,2h12.7h-0.1H42c1.5,0,2.7-1.5,2.7-3     s-1.4-2-2.9-2H31v-1h16.4c1.5,0,2.7-1.1,2.7-2.6S48.9,48,47.4,48H31.3l0-1h19.3c1.5,0,2.7-1,2.7-2.5S52.1,42,50.6,42H31.2l0-1     h16.5c1.5,0,2.7-1,2.7-2.5S49.2,36,47.7,36H25.2h0.1h-4l3.5-3.4c0.6-0.5,1.5-3.7,1.3-5c-0.1-1.2-1.5-2.4-4.4,0.8L9.2,35.9     c-0.3,0.1-0.6,0.3-0.9,0.5" fill="#EFDFAB"/></g><path d="M47.4,48H31.3h0H2v9h6.4c0.7,1,5.2,2,6.7,2h12.7h-0.1H42c1.5,0,2.7-1.5,2.7-3s-1.4-2-2.9-2H31v-1h16.4    c1.5,0,2.7-1.1,2.7-2.6S48.9,48,47.4,48z" fill="#DBC791"/></g></g></svg>