<?xml version="1.0" ?><!DOCTYPE svg  PUBLIC '-//W3C//DTD SVG 1.1//EN'  'http://www.w3.org/Graphics/SVG/1.1/DTD/svg11.dtd'><svg enable-background="new 0 0 512 512" height="512px" id="Calque_1" version="1.1" viewBox="0 0 512 512" width="512px" xml:space="preserve" xmlns="http://www.w3.org/2000/svg" xmlns:xlink="http://www.w3.org/1999/xlink"><g><circle cx="257.949" cy="253.402" fill="#D9E2EB" r="227.137"/><g opacity="0.8"><defs><polygon id="SVGID_1_" opacity="0.8" points="368.603,624.42 142.103,367.299 340.519,274.965 389.995,174.149 510.798,314.284       626.476,410.704     "/></defs><clipPath id="SVGID_2_"><use overflow="visible" xlink:href="#SVGID_1_"/></clipPath><linearGradient gradientUnits="userSpaceOnUse" id="SVGID_3_" x1="197.6313" x2="500.4783" y1="154.5425" y2="650.9038"><stop offset="0" style="stop-color:#1A171B"/><stop offset="0.4236" style="stop-color:#1A171B;stop-opacity:0.3261"/><stop offset="0.5031" style="stop-color:#1A171B;stop-opacity:0.2811"/><stop offset="1" style="stop-color:#1A171B;stop-opacity:0"/></linearGradient><circle clip-path="url(#SVGID_2_)" cx="257.949" cy="253.402" fill="url(#SVGID_3_)" r="227.137"/></g><path d="M420.446,262.212c0,88.31-72.259,159.904-161.387,159.904c-89.129,0-161.383-71.595-161.383-159.904    c0-88.316,72.254-159.908,161.383-159.908C348.188,102.304,420.446,173.896,420.446,262.212z" fill="#B2C4D6"/><g><path d="M304.737,112.561l-2.745-1.979l0.146,0.006l-0.855-0.518l0.09-0.012l-1.191-0.78     c-0.106-0.075-0.186-0.133-0.287-0.185l-0.279-0.291l-0.892-0.291c-0.485-0.14-0.969-0.262-1.444-0.383     c-0.441-0.109-0.88-0.221-1.49-0.391c-0.143-0.025-0.299-0.043-0.476-0.058c-0.61-0.185-1.236-0.343-1.862-0.497l-1.449-0.361     c-0.532-0.122-1.481-0.336-1.876-0.401l-0.006,0.056c-0.089-0.019-0.192-0.04-0.321-0.07l-1.306-0.301     c-0.539-0.045-1.05-0.178-1.569-0.307c-0.408-0.104-0.828-0.202-1.41-0.29h-0.008c-0.144-0.02-0.29-0.041-0.455-0.06     l-13.932-2.968l3.961,2.015l-3.977-0.408l-1.155-0.372c-0.351-0.075-0.707-0.108-1.067-0.137l-1.031-0.101l-0.857,0.016     l-3.1-0.481l-0.226-0.258l-0.349,0.198l-0.166-0.016c-0.225-0.044-0.539-0.058-0.822-0.068l-3.105-0.259l0.231,0.277     l-0.057,0.002l0.004,0.097h-0.268l-0.181-0.099l-1.308,0.22l-0.593-0.018l-0.187,0.01l-0.556-0.05h-0.033l-0.235-0.108     l-0.287,0.156l-0.156-0.075l-0.534,0.218l0.041,0.117l-0.239-0.014l-0.031-0.165l-2.172,0.224     c-0.191,0.026-0.389,0.072-0.857,0.217c-0.114,0.029-0.233,0.064-0.354,0.101l-1.604,0.157c-0.206,0.025-0.416,0.059-0.576,0.099     c-0.166,0.035-0.408,0.085-0.562,0.101l-1.598,0.294l0.027,0.206l-0.169-0.018l-0.204,0.235l-0.122-0.294l-2.399,0.997     l-0.343-0.029c-0.214,0-0.441,0.041-0.699,0.103l-0.241-0.01l-0.283-1.51l1.425-0.932l-3.574,0.941l-0.289,0.023     c-0.522,0.062-1.034,0.157-1.539,0.254l-0.26,0.048l-0.129-0.019l-2.873,0.52c-0.404,0.073-0.792,0.143-1.184,0.234l-8.95,2.096     l-0.162-0.707l-2.817,0.57l0.185,0.795l-0.063,0.016l0.065,0.004l0.233,1.019c-0.726,0.159-1.708,0.504-3.722,1.577l-0.589,0.223     l-0.961-2.511l-1.182,0.347c-0.195,0-3.516,0.852-5.091,1.4l-0.004-0.023l-3.585,1.153l1.227,3.306l0.474-0.155l0.016,0.036     l3.225-0.989l0.014,0.044l2.979-0.848l-1.465,1.51l-1.398,0.505l-3.148,1.518l-1.981,1.225l-3.659-0.058l-5.64,2.947l0.041-0.541     l-4.558,2.673l-2.062,0.79l-0.585,1.221l-1.749,0.92l1.687-3.121l-5.288,2.356l0.561-0.597l-0.016-0.004l0.722-0.807     l-1.577,0.266l-1.251-0.787l-0.845-1.333l-1.691,0.88l-0.041-0.067l-4.642,2.499v-0.003l-0.865,0.498l0.014,0.029     c-3.901,2.366-8.265,5.191-12.479,7.952c-6.863,4.874-6.863,4.874-19.24,15.984l-2.103,2.085l0.015,0.014l-3.241,3.513     l-6.685,8.387l-0.861,1.432l0.017,0.019l-2.415,3.697l-0.412,0.975l-1.022,0.688l-1.076,1.906l-1.344,3.501l-5.278,9.562     c-0.58,1.05-1.13,2.104-1.683,3.181l-0.545,0.674l-1.4,2.719l-0.72,2.062l-1.179,2.382l-2.172,5.788l-0.476,2.14l-0.048,1.155     l-0.894,3.246l-0.063,1.525l-0.464,1.77l-0.4,4.068l1.119-0.109l0.404,0.828l0.075,1.134l-1.073,7.941l0.597,3.335l-0.02,0.582     l-0.876,1.326l0.188,2.01l1.313,3.275l0.233,1.09l-0.291,1.319l0.109,2.068l0.936,0.968l0.772,2.08l-0.416,6.232l4.297-4.627     l0.26-1.572l0.622,1.661l0.285,2.326l0.295,0.796l-0.339,0.431l-0.497,2.702l3.271,5.337l1.791,0.939l1.733,1.825l4.425,3.424     l2.886,1.312l2.857-0.427l0.364-1.01l2.345,2.401l1.646,2.79l2.588-0.102c0.073,0,0.143,0,0.217,0l1.14,2.115l4.146,1.761     c2.253,3.964,2.24,4.068,2.139,4.627l-0.121,0.718l2.172,3.067l1.348-0.892l0.033,0.02c2.305,2.576,2.823,3.238,4.465,3.178     l7.602,4.138l-0.659-4.805l0.526,0.033l0.512,1.604l0.25-0.036c0,0.581,0.108,1.205,0.42,1.881l0.718,0.936l0.158,0.02     c0.166,0.489,0.375,0.953,0.572,1.387c0.784,1.748,0.658,1.853,0.231,2.199l-0.582,0.477l-0.056,0.756     c-0.077,1.078-0.146,2.051-0.223,2.592l-1.771,0.306l0.395,1.797c0.05,0.246,0.122,0.529,0.191,0.814     c-0.096,0.085-0.194,0.165-0.279,0.242l-0.549,0.481l-0.052,0.807c-1.102,0.727-1.414,1.712-1.454,2.694     c-0.154,0.048-0.317,0.107-0.472,0.181l-1.398,0.626l0.426,1.466c0.173,0.597,0.237,1.207,0.31,1.819     c0.104,0.853,0.225,1.825,0.57,2.798l0.291,0.816l0.561,0.177l-0.314,0.312l0.133,0.889c0.044,0.286-0.033,0.722-0.113,1.178     c-0.185,1.01-0.449,2.49,0.472,3.925c0.025,0.104,0.052,0.206,0.081,0.28c0.614,2.916,2.665,4.583,4.469,6.057     c1.454,1.176,2.702,2.197,3.125,3.61c0.104,0.423,0.213,0.839,0.387,1.336l0.262,0.483c0.353,0.46,0.626,1.054,0.92,1.684     c0.493,1.055,1.05,2.248,2.132,3.234c0.691,0.622,1.211,1.716,1.752,2.871c1.174,2.475,2.786,5.961,7.484,5.351     c1.388-0.173,2.145,0.636,3.42,2.249c1.064,1.345,2.345,2.964,4.513,3.465c0.335,1.147,0.682,2.305,1.061,3.52     c0.058,0.396,0.169,0.901,0.341,1.381l0.116,0.559c0.052,0.155,0.125,0.371,0.456,1.101c0.048,0.069,0.093,0.15,0.137,0.235     c0.002,0.081,0.006,0.21,0.01,0.412c0.044,0.502,0.177,1.043,0.325,1.484v0.012l0.069,0.331c0.099,0.424,0.262,0.755,0.562,1.244     c0.088,0.232,0.192,0.489,0.27,0.658c0.016,0.104,0.019,0.277,0.016,0.597l-0.004,0.324l0.117,0.31     c0.181,0.478,0.501,1.058,0.851,1.542c0.033,0.089,0.073,0.182,0.122,0.275c0.069,0.479,0.062,0.955,0.062,1.434     c0.004,1.027,0.004,2.198,0.472,3.354c0.408,1.139,0.408,1.139,0.969,5.536l0.614,1.327c3.056,4.973,3.622,6.08,3.177,7.609     l-0.181,0.626l0.27,0.589c0.129,0.283,0.302,0.562,0.606,1.002l0.528,0.92c0.037,0.218,0.007,1.104-0.033,2.228l-0.023,0.78     l0.568,0.545c0.65,0.625,1.078,1.538,1.535,2.503c0.562,1.196,1.203,2.552,2.443,3.689c0.217,0.183,0.383,0.644,0.557,1.134     c0.262,0.715,0.622,1.697,1.444,2.471l-1.278-0.395l4.336,4.856c0.031,0.142,0.048,0.308,0.06,0.444l0.081,0.863l0.744,0.46     c0.576,0.36,1.186,0.646,1.808,0.93c0.177,0.081,0.351,0.158,0.516,0.241l-0.726,0.764l2.07,1.812     c0.264,0.206,0.606,0.444,1.034,0.731l0.493,0.751l0.395,0.214c0.385,0.21,0.743,0.472,1.092,0.729l0.003,0.008l-0.206,0.497     l2.584,1.159h0.107c0.306,0.258,0.67,0.492,1.063,0.658l5.479,2.891c0.1,0.088,0.229,0.202,0.583,0.42l0.672,0.27     c0.807,0.246,0.924,0.283,2.199,0.553c0.081,0.013,0.222,0.054,0.508,0.139l0.553,0.068l0.275-0.006     c0.364-0.007,0.767-0.019,1.336-0.066l0.739-0.059l0.472-0.557c0.137-0.157,0.302-0.359,0.416-0.508l1.248-1.687l-1.877-0.953     c-0.88-0.449-1.285-0.61-2.242-0.729c-0.246-0.155-0.545-0.284-0.96-0.406c-0.383-0.286-1.146-0.845-1.868-1.427     c-0.09-0.104-0.19-0.21-0.582-0.508c-0.308-0.314-0.647-0.594-0.978-0.871c-0.245-0.197-0.479-0.396-0.745-0.654l0.624-0.472     l-1-1.092l0.221-0.165l-0.474-1.23c-0.083-0.214-0.177-0.465-0.27-0.723l0.545-0.82l-0.649-0.977     c-0.408-0.601-0.926-0.965-1.943-1.311c-0.015-0.002-0.037-0.01-0.048-0.014l1.19-0.029l-1.675-2.618     c-0.254-0.397-0.455-0.739-0.612-1.179l0.166,0.023l0.431-3.035l-0.113-0.21l1.539-0.125l-1.446-2.609l-0.298-0.604     c0.009-0.327-0.008-0.599-0.063-0.849l1.072-0.311l0.006,0.016c0.37,0,0.767,0.004,1.13,0.021l2.692,0.483l0.033-2.082     c0.004-0.323,0.218-0.67,0.568-1.215c0.287-0.441,0.566-0.89,0.869-1.708l0.221-1.098l-0.564-1.938     c0.351,0.04,0.662,0.062,0.949,0.062c1.255,0,2.85-0.464,3.351-2.69c0.416-2.018,0.814-3.354,1.142-4.23l1.627,0.36l0.689-0.913     c0.437-0.581,1.689-2.959,1.968-4.061c0.081-0.069,0.237-0.178,0.346-0.246c0.605-0.405,1.616-1.087,1.82-2.482     c0.206-1.354-0.291-2.459-0.697-3.343c-0.327-0.728-0.452-1.074-0.412-1.354c1.739-1.995,2.713-2.942,3.218-3.38     c0.533,0,1.113-0.004,1.837-0.034l0.578-0.025l0.457-0.36c0.557-0.45,0.664-0.531,1.271-1.142h0.608     c1.369,0,2.757-0.019,4.151-0.145l1.469-0.129l0.145-1.454c0-0.061,0.033-0.161,0.069-0.258c0.96-0.724,1.715-1.968,2.11-2.915     c0.319-0.202,0.644-0.428,0.901-0.626l0.614-0.468l0.075-0.765c0.113-1.263,0.135-1.443,0.466-2.095     c0.747-0.604,0.899-1.403,1.622-5.228c0.017-0.108,0.072-0.266,0.08-0.335c0.909-1.761,0.99-3.035,1.026-3.778     c0-0.25,0.004-0.545-0.097-1.398l-0.102-0.516c0.016-0.404-0.008-0.818-0.1-1.314c0.016-0.651,0.026-1.16,0.195-1.672     c0.507-0.371,1.178-1.203,3.018-3.541c1.014-0.226,1.547-0.689,2.434-1.652l3.621-5c0.961-1.805,1.114-2.084,1.188-3.513     c0-0.058-0.102-6.306-3.832-7.937l-2.913-0.178c-1.229-0.367-2.341-0.707-2.524-0.832c-0.063-0.133-0.141-0.65-0.213-1.104     l-0.114-0.799l-0.682-0.432c-1.761-1.104-2.56-1.613-3.73-1.613c-0.625,0-1.188,0.168-1.582,0.295l-2.867-0.041     c-2.243-0.885-2.967-1.158-3.799-1.158c-0.317,0-0.589,0.052-0.843,0.117l-0.439-0.356c-1.159-0.943-3.597-2.611-7.126-3.218     c-0.116-0.02-0.287-0.077-0.406-0.111c-0.969-0.489-1.664-0.857-2.988-0.784c-0.097-0.143-0.189-0.29-0.266-0.412l-0.348-0.508     l-0.593-0.183c-0.019-0.008-1.359-0.432-2.81-0.988l-0.206-0.077c0.146-1.914-0.206-3.02-0.523-3.722l-0.474-1.063l-1.001,0.01     c-0.06-0.549-0.145-1.167-0.294-1.922c-0.185-0.731-0.501-1.354-0.782-1.906c-0.15-0.302-0.301-0.601-0.424-0.92l-0.323-0.888     l-0.924-0.222c-1.55-0.368-1.837-0.684-1.914-0.894l-0.254-0.795l-0.784-0.311c-3.553-1.397-3.828-1.51-4.038-1.619     c-1.134-0.557-2.559-0.42-3.595-0.198c-0.36,0.081-0.651,0.121-1.115,0.15l-0.574,0.028c-4.845-0.934-4.845-2.432-4.845-3.084     v-1.063l-0.947-0.499c-1.797-0.926-2.238-1.15-2.681-1.421c-0.364-0.569-0.949-0.853-1.317-1.001     c-0.145-0.085-0.235-0.131-0.25-0.105c-0.015-0.186,0.004-0.424,0.008-0.748l0.044-1.796h-1.82c-0.21,0-0.427,0.004-1.28,0.143     c0.025-0.143,0.048-0.287,0.065-0.422l0.148-1.183l-1.053-0.573c-1.251-0.686-1.425-0.767-2.592-0.999l-0.858-0.172l-1.001,0.872     c-0.457-0.137-1.026-0.262-1.567-0.285l-0.855-0.04l-0.559,0.637c-0.31,0.344-0.533,0.711-0.714,1.065     c-0.641-0.646-1.352-0.911-2.784-1.171l-0.832-0.034c-0.574,0-1.159-0.006-1.881-0.065c-0.095-0.033-0.195-0.062-0.295-0.097     c-0.179-0.497-0.504-1.038-1.111-1.534l-0.626-0.328c-0.368-0.109-0.755-0.319-1.2-0.564c-0.616-0.34-1.319-0.728-2.18-0.93     l-0.743-0.177l-0.637,0.412c-0.008,0.004-0.016,0.008-0.031,0.015l-0.882-1.752l-1.187,0.018     c-0.358,0.004-0.726,0.012-1.299,0.067l-0.397,0.085c-1.621,0.537-2.228,1.252-2.405,2.222l-1.433,0.027l-0.437,0.304     c-2.636,1.828-2.636,1.828-3.749,1.832l-1.851,0.193l0.098,1.85c0.037,0.684,0.075,1.365,0.075,2.099     c-0.185,0.065-0.439,0.135-0.811,0.256l-0.67,0.214l-0.695-0.924l-3.882,0.092l-4.276-0.224l-0.811-0.678l-1.487-1.896     l-0.144-3.901l0.516-3.764l-0.052-2.706l-1.321-2.532l-2.748-1.819l-2.944,0.41l-2.216-0.589l-0.056,0.028l-0.004-0.61     c0.02-0.313,0.023-0.629,0.025-1.178l1.153-3.826l0.158-2.438l1.113-1.059l0.529-3.553l-2.11-1.966l-3.884,0.514l-2.588,0.67     l-1.285,2.95l-1.392,4.514l-2.528,1.034l-0.626,0.156l-0.435-0.944l-1.458-1.155l-0.398-1.742l-0.886-2.572l-0.241-4.437     l0.077-3.158l1.057-2.636l0.855-3.374l-0.306-2.834l1.134-1.845l1.042-0.162l2.857-3.198l2.193,0.997l0.169-0.1l0.321,0.872     l5.904-0.577l-0.106-2.5l0.275-0.718l2.269-0.36l1.236,0.135l0.859,1.953l2.942-0.108l0.247-0.349l0.466,0.965l-0.287,2.182     l0.609,1.457l0.146,1.666l0.859,1.119l0.389,1.837l0.826,0.589l-0.077,2.039l3.57,1.34l1.517-2.43l1.001-2.636l-0.416-2.487     l-0.229-3.384l-0.89-2.972c0.169-1.12,0.36-2.275,0.632-3.672c0.169-0.416,0.406-0.926,0.62-1.405l1.531-2.778l1.393-0.674     l2.729-2.354l2.101-1.55l2.542-1.115l0.684-1.724l2.29-1.405l-0.805-2.905l2.621-4.393l1.09-1.53l1.049-0.973l1.689-3.075     c0.593-0.01,1.182-0.018,1.779-0.036l0.445-0.014l2.155-1.219l3.647-0.449l-0.433-2.857l0.437-2.069l1.153-1.252l1.858-0.037     l0.818-1.191l1.711,0.052l1.054-0.56l-0.064,1.138l3.125,1.575l3.262-2.276l2.002-0.587l2.082-0.943l2.407-0.526l2.151-2.081     l2.274-1.641l0.872-2.486l1.419-0.012c2.16-0.028,4.332-0.021,6.464,0.116c1.105,1.413,1.789,1.817,2.64,2.233l0.835-1.558     l-0.792,1.577l1.046,0.625l0.901-0.851c1.731-0.606,1.908-2.491,1.893-3.892c-0.008-0.258-0.025-0.46-0.067-0.393     c0.096-0.164,0.266-0.335,0.516-0.626l0.714-0.884l-0.497-3.039l-1.45-0.064c-0.358-0.016-0.576-0.016-0.516,0.015     c-0.32-0.177-0.803-0.512-0.932-0.66c-0.179-0.279-0.5-0.78-1.18-1.063c0.312-0.379,0.537-0.831,0.647-1.219     c0.213-0.735,0.113-1.473-0.279-2.087l-0.185-0.751l1.546-1.142l-1.049-0.994l1.053-3.858l-2.875-0.387l-0.041-0.203l3.917-2.721     l-6.419-0.298l-1.042-0.559l-1.791-0.545l-0.832-0.953l1.038-1.437l-1.931-4.227l-0.807-2.984l-0.221-4.33l0.997,0.685     l0.961-1.933c0.156-0.324,0.322-0.646,0.483-0.957l2.919-2.459l-1.69-1.256l0.071-0.177l2.189,0.393l1.584-1.976l1.798-0.576     l0.322-0.344l0.945-0.064l1.308-1.106l2.076-4.105h-2.769c-0.131,0-0.268,0-0.4,0l-0.972-1.227l-0.67-0.117l-0.688-0.214     l3.626-2.039l-2.819-0.824l-0.063-0.214l1.598-1.054l-1.393-0.854l1.24-0.489l-1.641-0.728l0.21-0.307l-1.021-0.056l-1.107-0.485     l1.34-1.384l-2.466-0.104l-1.13-0.695c1.217-0.117,1.615-0.238,2.436-0.729c0.118-0.073,0.162-0.102,0.351-0.146l4.284-2.394     l-2.051-1.269l0.944-0.21l0.015,0.095l2.956-0.725c0.102-0.023,0.187-0.027,0.618-0.166l2.022-0.391l-1.775,1.406l1.389-0.045     l-0.25,0.303l0.905,0.581l0.339,0.988l1.646,0.448l0.803-0.076l0.017,0.028l1.271-0.306l0.073-0.029     c0.202,0.023,0.408,0.023,0.685,0.02l0.146,0.017l0.747-0.23l1.073,1.421l-0.035,0.635c-0.073,0.156-0.118,0.314-0.143,0.477     c-0.258,0.205-0.449,0.442-0.649,0.854l-0.166,0.335h-0.43l-0.516,0.865l-0.493,1.15l0.052,1.662l0.5,0.18     c-0.428,0.244-0.874,0.633-1.157,1.286l-0.264,1.094l1.022,1.457l0.799,0.091c0.073,0.008,0.141,0.012,0.198,0.02l-0.013,0.008     c-1.849,0.945-2.184,1.114-2.413,1.844c-0.125,0.305-0.15,0.578-0.179,0.897l-0.012,0.188l0.025,0.191     c0.027,0.198,0.104,0.573,0.299,0.961c-0.169,0.327-0.25,0.703-0.239,1.116l0.194,0.729c0.012,0.024,0.129,0.398,0.225,0.839     l0.21,1.006l0.57,0.181c-0.306,0.961-0.275,1.466,0.181,2.186l0.541,0.83h0.037c0.222,2.145,1.881,4.938,1.91,4.983     c1.808,2.666,3.333,3.858,5.041,3.858c0,0,0,0,0.004,0c0.158,0.004,0.379,0,0.828-0.073l0.25-0.033     c0.538,0.725,1.34,1.052,1.768,1.229c0.135,0.053,0.271,0.097,0.327,0.122c0.489,0.556,1.306,0.843,2.415,0.843     c0.732,0,2.087-0.141,2.963-1.041c0.485-0.505,0.736-1.159,0.71-1.866l0.004-0.25c0.037-0.17,0.347-0.616,0.526-0.884     c0.394-0.572,1.226-1.775,1.032-3.119l0.622,0.022l0.533-0.892c0.391-0.646,0.391-0.646,0.984-1.062l0.715-0.616l0.021-0.876     c0.008-0.279,0.016-0.497,0.048-0.719l0.348-0.363l-0.039-0.752c-0.002-0.084-0.01-0.173-0.018-0.254     c0.121-0.062,0.25-0.139,0.375-0.234c0.239-0.17,0.428-0.368,0.574-0.602l0.493,0.004l0.306,0.235l1.074-0.103     c1.047-0.104,1.812-0.573,2.435-0.945c0.125-0.084,0.259-0.165,0.392-0.24h0.205c0.529,0,0.854-0.105,1.486-0.323l1.4-0.735     l-0.121-0.665c0.135-0.121,0.303-0.256,0.46-0.425c0.42-0.245,0.663-0.528,0.86-0.885c0.016-0.004,0.023-0.008,0.029-0.012     l1.098-0.601l-0.041-0.367c0.133,0.008,0.273,0.004,0.449,0.008c0.06,0.007,0.244,0.069,0.369,0.113     c0.376,0.137,0.898,0.321,1.572,0.321c0.008,0,0.008,0,0.008,0c1.158-0.012,1.844-0.718,2.281-1.259     c0.446-0.063,0.826-0.218,1.146-0.384l0.408,0.029c0.674,0,1.542-0.254,2.136-1.494l0.887,0.02l0.424-0.226     c0.67-0.36,0.869-0.666,1.289-1.325l0.44-1.061l-0.089-0.174l1.146-0.643l-1.148-1.591c-0.479-0.664-1.072-1.09-1.598-1.421     l-0.594-1.179l0.271-0.104l0.17-1.022c0.049-0.262,0.049-0.497,0.031-0.715l1.582-0.666l-1.966-1.853     c-0.229-0.214-0.46-0.383-0.698-0.523l-0.219-0.224l0.372-0.185l-2.386-2.197l0.396-0.151l-1.813-1.172     c-0.313-0.161-0.549-0.256-0.788-0.315l-0.596-0.343c-0.174-0.096-0.396-0.194-0.649-0.283l1.021-0.279l-0.162-0.08l11.104,3.012     c0.324,0.086,0.652,0.187,0.972,0.29c0.707,0.216,1.417,0.434,2.151,0.566l1.385,0.254c0.09,0.033,0.174,0.062,0.252,0.089     l1.812,0.549l0.016-0.012c1.019,0.557,2.39,0.711,2.39,0.711c0.256,0.04,1.365,0.416,2.649,0.851l4.933,1.648l-1.377-2.059     l3.594,0.439l-0.521-0.38l0.599,0.089L304.737,112.561z M190.353,137.68c0.173,0.244,0.423,0.483,0.762,0.704l0.728,0.461     l0.818-0.281c0.22-0.077,0.537-0.178,0.768-0.239l1.531-1.03h0.495l0.792,0.622l1.276-0.04l-0.221,0.139l-0.243,1.573     l-1.134,1.344l-0.795,1.546l-0.175,0.604l-0.674,0.03l-1.208,2.064l-2.361,1.72l1.779,2.396l-1.484,3.103l-1.481,1.304     l-1.854,1.161l-2.382,0.36l0.106-0.158l-5.22-0.697l-0.853-0.021l-0.317-0.395l-1.094-0.367l-0.025-0.485l-2.85-3.693     l-0.537,0.157l0.57-1.34l-0.541-0.759l2.235-2.483l5.64-4.26l1.874-0.77l2.363-1.285l0.627-1.045l0.676-0.193l-0.098,0.166     L190.353,137.68z M207.361,126.981l0.419-0.077l2.438-1.575l0.5-1.238l1.671-0.139l0.776,0.235l-0.084,0.229l0.443,0.312     l-0.495,1.163l0.807,0.402l-4.627,2.738l-0.262,0.843l-0.707,0.101l-0.735-0.25l-0.343,0.021     c-0.347,0.016-0.686,0.036-1.024,0.036h-0.416l-2.64,1.293l-2.286,2.478l-0.044-0.011l0.851-1.807l-0.096-0.008l1.446-1.032     l2.155-1.059l1.575-1.086L207.361,126.981z M215.984,141.594l-2.906,2.31l-0.529,1.203l-1.227,0.481l-1.013,0.638l-0.635-0.736     l2.439-4.916l2.11,0.037L215.984,141.594z M204.253,135.873l2.184-0.204l1.09-0.824l0.121-0.056l0.424,0.164l0.102,0.323     l-0.239,0.864l0.795,2.95l1.727-0.044l0.327,0.72l-1.981-0.065l-0.412-0.993l-2.511-2.938l-1.976,1.086l-0.423-0.008     l-0.432-0.493l-2.75,0.06l1.038-1.108L204.253,135.873z M181.54,161.916l1.088-2.772l1.699-2.496l0.073,1.93     c-0.283,0.551-0.552,1.115-0.82,1.676l-0.335,0.684l-0.27,1.711l-1.454,1.639l-0.31-1.73     C181.318,162.344,181.428,162.13,181.54,161.916z M228.088,108.217l0.213,0.561h-2.636l-0.162-0.711L228.088,108.217z      M211.742,175.965l-1.817,2.142l-1.206,0.067l-1.1-0.597l-1.042-1.018l-0.137-1.088l1.837-1.201l0.957-4.465l2.821-0.093     l2.359,0.406l2.596-0.177l2.831-1.728l1.731-1.466l1.119-0.113c-0.008,0.073-0.014,0.162-0.014,0.218     c-0.121,0.29-0.196,0.464-0.177,0.481c-0.037,0.023-4.828,4.255-5.167,4.706c-0.433,0.565-0.731,1.184-0.894,1.906     c-0.077,0.351-0.067,0.638-0.04,0.884L211.742,175.965z" fill="#2C6B91"/><path d="M420.897,246.304l-0.022,0.007l-0.287-2.083c-0.129-1.038-0.246-1.93-0.415-3.077l-0.139-0.718     l-1.073,0.165c-0.058-0.077-0.117-0.157-0.19-0.238l0.5,0.05l0.264-1.423l0.388-0.075c-0.888-5.559-2.031-10.957-3.404-16.04     c-5.614-21.183-15.42-40.718-29.188-58.149c-3.298-3.866-7.81-9.156-11.413-12.945l-0.826-0.832     c-12.111-11.268-12.111-11.268-18.941-16.302l-9.084-6.229l-0.598-0.376c-0.699-0.436-1.756-1.098-2.525-1.554l-0.231,0.376     l-0.545-0.259h-0.008c-0.214-0.117-0.294-0.146-0.513-0.228l-8.404-3.273l1.045,1.021l-0.209-0.104     c-0.505-0.228-0.505-0.231-1.402-0.772l-0.666-0.236l-0.877-0.077c-0.032-0.016-0.076-0.024-0.113-0.04l-0.406-0.271     c-0.194-0.129-0.44-0.303-0.883-0.598c-1.807-0.936-3.037-1.238-3.348-1.307c-0.131-0.077-0.23-0.137-0.34-0.199l-8.966-2.16     l-2.588-1.845l1.098,1.491l-3.428-0.815l5.039,2.995l0.953,1.303l-1.357-0.063l2.524,1.639l0.375,0.513     c0.031,0.109,0.08,0.223,0.129,0.339h-0.009l0.36,1.015l-0.125,0.166l0.169,0.14l-0.27,0.045l0.222,0.419l-0.262-0.019     l1.955,3.483l0.449,0.242c0.438,0.244,0.795,0.307,1.107,0.335l1.174,0.126l0.457,0.744c0.777,1.254,1.318,2.105,1.702,2.687     l-0.755,1.032l0.908,1.074c0.012,0.016,0.025,0.029,0.041,0.045l-2.103-0.17l2.022,2.754l-0.299,1.288l-0.02,0.907     c-0.131,0.275-0.25,0.643-0.25,1.051v0.737l0.475,0.47l0.234,0.545c0.252,0.62,0.65,1.04,0.978,1.363l0.29,0.799     c0.215,0.344,0.402,0.611,0.586,0.873l0.479,0.662l0.816,0.069l0.384,0.782c0.412,0.969,0.883,1.401,1.557,1.645l-0.592,1.237     l1.642,0.085l0.776,1.005l0.888,0.045c0.125,0.005,0.235,0.013,0.331,0.017c0.137,0.104,0.316,0.237,0.586,0.432l0.771,0.566     l0.674-0.25c0.347,0.133,0.884,0.229,1.393,0.147l1.115-0.317l0.346-0.464c-0.016,0.145-0.012,0.298,0.025,0.531l-1.151,0.569     l0.747,1.559c0.023,0.044,0.04,0.092,0.067,0.137l-0.241,0.19l0.336,1.134c0.266,0.873,0.266,0.873,3.1,4.15     c0.081,0.205,0.188,0.464,0.287,0.684l-1.801,0.482l-0.072,0.763c-0.146,0.131-0.287,0.271-0.409,0.412l-0.226,0.26l-1.648,0.02     l-0.176,0.731l-0.203-0.19c-0.188-0.113-0.412-0.351-0.652-0.597c-0.349-0.364-0.751-0.78-1.3-1.123l-1.14-0.396l-0.152,0.077     c-0.045-0.077-0.089-0.152-0.135-0.233l-0.479-0.791l-0.808-0.05c-0.201-0.46-0.371-0.737-0.473-0.892     c-0.443-0.533-0.973-0.82-1.352-1.034c-0.121-0.067-0.299-0.16-0.344-0.2l-0.33-0.331l-0.291-0.081     c-0.226-0.206-0.457-0.345-0.634-0.434c-0.247-0.581-1.308-1.835-2.503-2.372l-0.525-0.985c0.109-0.398,0.169-0.98-0.141-1.646     l-1.268-2.382l-1.034-0.037c-0.431-0.012-0.876-0.028-1.312-0.058c0.027-0.096,0.039-0.181,0.049-0.258l0.104-0.911l-0.693-0.606     c-0.473-0.416-0.816-0.678-1.578-0.779l-1.063-0.004l-0.539,0.062c-0.131-0.008-0.304-0.033-0.533-0.065l-0.901-0.068     l-1.562,1.514l0.408,0.903l-0.437,0.04l-0.49,0.961c-0.645,1.236,0.268,2.496,0.672,3.061c0.295,0.363,0.639,0.585,0.965,0.72     c-0.021,0.048-0.047,0.093-0.068,0.145c-0.158,0.36-0.162,0.691-0.114,1.005c-0.282,0.004-0.545,0.053-0.759,0.099l-2.396,0.29     l0.839,1.836l-2.144,0.5l0.715,1.874c0.339,0.909,0.674,1.81,0.992,2.73l0.367,1.044l0.235,0.024     c-0.008,0.315,0.048,0.61,0.117,0.864c-0.028,0.071-0.054,0.141-0.081,0.218c-0.271,0.876,0.162,1.639,0.326,1.938     c0.518,0.89,1.542,1.31,2.035,1.473l0.605,0.087c0.332,0,0.605-0.073,0.826-0.162l0.328,0.2l0.574-0.034     c0.979-0.062,1.667-0.755,1.998-1.266l2.663,0.089c0.235,0.396,0.503,0.68,0.78,0.868l0.383,0.881l-3.148,1.01l3.537,1.967     c0.41,0.229,0.875,0.486,1.541,0.486c0.448,0,0.816-0.113,1.336-0.273l0.404-0.121l0.102-0.094l2.467,0.105     c0.008,0.049,0,0.106,0.008,0.15l-0.883,0.119c-2.084,0.788-2.348,0.89-2.816,1.571l-0.442,0.647l0.495,1.783l0.416,0.348     c0.275,0.233,0.547,0.424,0.856,0.557c0.792,0.719,1.72,1.094,2.865,1.113c0.39,0.291,0.772,0.589,1.151,0.886l0.686,0.535     c0.26,0.614,0.445,1.196,0.65,1.821l0.34,0.605c3.092,3.585,3.125,4.582,2.867,4.857l-0.43,0.461     c-0.299-0.103-0.598-0.191-0.896-0.283c-0.722-0.21-1.352-0.396-1.796-0.747l-0.424-0.335l-0.533-0.045     c-1.547-0.125-2.754-0.169-3.778-0.194c-0.832-0.117-1.181-0.161-1.354-0.226c-0.508-0.262-0.875-0.431-1.399-0.431h-0.589     l-0.472,0.347l-0.651,0.702c-0.068,0-0.141,0-0.225,0l-1.818-0.032l-0.703,2.676l0.594,0.693     c0.323,0.382,0.466,0.998,0.629,1.708c0.207,0.917,0.467,2.028,1.222,3.018l0.111,0.521c0.099,0.46,0.194,0.908,0.275,1.403     c-1.558,2.186-0.258,4.211,0.497,5.374l0.125,0.154l0.004,0.004l0.008,0.008c0,0.024,0,0.048,0.008,0.072     c-0.347,0.896-0.203,1.624,0.183,2.946l0.233,0.812l0.791,0.329c0.743,0.305,1.421,0.332,1.918,0.35l0.525-0.053     c0.218,0,0.527,0.089,0.855,0.178c0.48,0.129,1.074,0.286,1.736,0.294c0.093,0.052,0.2,0.11,0.332,0.181l-0.982,0.594l1.307,0.46     c-0.317,0.941-0.31,1.858-0.29,2.625c0.003,0.077,0.003,0.146,0.003,0.218c-0.262-0.012-0.535-0.049-1.004-0.104l-2.298-0.275     l0.323,2.274c0.106,0.718,0.211,1.436,0.307,2.162c-0.63,0.069-1.326,0.22-2.045,0.541l-1.03,0.464l-0.012,1.127     c-0.007,0.812-0.04,1.631-0.077,2.447c-0.058,1.486-0.121,2.975-0.04,4.502c-0.493,0.079-1.038,0.222-1.587,0.487l-0.957,0.456     l-0.048,1.046c-0.044,0.908-0.327,2.148-2.272,2.451c-1.906,0.323-4.607,6.83-5.754,9.849l-0.9,0.187l-0.781,0.351     c-0.191,0.122-0.404,0.255-0.582,0.349l-0.994,0.543l0.07,1.119c0.266,4.041,0.147,4.086-1.311,4.643l-0.795,0.416l-0.67,1.813     v0.31c0.008,0.723,0.021,1.818,0.873,2.986l0.415,0.574l0.695,0.129c0.888,0.162,1.646,0.305,2.199,0.42     c-0.509,1.406-0.509,2.834-0.509,7.995l-0.012,0.464l0.068,0.666c-0.124,0.197-0.742,0.814-1.525,1.595l-0.564,0.567l0.056,0.796     c0.069,0.901,0.279,1.716,0.485,2.499c0.125,0.476,0.254,0.953,0.311,1.167l-0.012,1.944c0,1.156,3.947,6.933,7.407,9.407     c-0.052,1.284,0.122,3.098,1.392,4.607c1.01,1.202,2.504,1.956,4.451,2.253c3.066,5.933,4.141,7.75,7.293,7.75     c0.509,0,1.094-0.06,1.781-0.15l0.803-0.107l0.443-0.67c0.23-0.345,0.453-0.759,0.639-1.188c0.17,0.004,0.348,0.018,0.521,0.029     c0.788,0.06,1.51,0.016,2.334-0.04c0.646,0,0.755,0,1.877,0.028c1.021,1.134,2.195,1.134,6.608,1.134h1.098l0.493-0.978     c0.788-1.569,1.19-1.569,1.538-1.569c0.513,0,1.23,0.154,2.144,0.357l0.456,0.041c0.206,0,0.473-0.012,0.859-0.096l0.872-0.469     c0.515-0.484,1.09-0.814,1.502-0.872c0.278,3.412,0.549,4.256,2.988,5.324l0.638,0.146c1.528,0.069,3.034,0.148,4.518,0.233     c-0.062,0.375-0.114,0.728-0.154,1.041c-0.84,2.12-0.867,2.189-2.924,9.137c-0.549,0.343-1.082,0.832-1.396,1.429l-0.44,0.832     l0.452,0.824c0.315,0.589,0.835,1.094,1.365,1.458c0.032,0.209,0.056,0.442,0.077,0.678c0.084,0.912,0.192,2.095,0.984,3.151     c-0.072,1.599,0.149,3.141,0.363,4.643c0.375,2.64,0.699,4.91-0.566,7.323c-0.125,0.323-0.24,0.666-0.666,2.091     c-0.075,0.566-0.027,1.236,0.117,1.851l-6.09,9.992c-1.811,1.403-2.996,3.825-3.525,7.201c-0.086,0.545-0.457,3.928-0.23,6.012     c-1.133,2.198-1.408,3.512-1.509,4.257c-0.755,1.302-1.542,2.617-2.467,4.134c-0.247,0.445-4.704,12.027-5.552,14.288     l-0.055,0.06c-1.628,0.85-1.996,1.211-2.518,2.826l-0.152,0.477l-0.731,0.835l0.505,3.069l1.377,0.125     c0.437,0.037,0.856,0.068,1.401,0.068c0.412,0,0.903-0.016,1.521-0.068l0.519-0.125c0.384-0.15,0.876-0.319,1.327-0.44     c0.979,0.081,2.055,0.013,3.242-0.303l0.428-0.113l0.327-0.306c3.593-3.366,7.764-6.241,11.796-9.02     c4.248-2.935,8.651-5.97,12.664-9.805l11.24-13.686c-0.312,0.543-0.59,1.09-0.844,1.629c-0.231,0.478-0.441,0.935-0.672,1.346     l-0.057-0.068l-1.392,1.558c-0.735,0.828-1.421,1.685-2.099,2.54c-0.434,0.549-0.869,1.09-1.402,1.74l-0.283,0.41     c-0.254,0.349-0.482,0.711-0.711,1.074c-0.209,0.335-0.415,0.67-0.835,1.229l-0.456,0.602c-0.211,0.29-0.436,0.573-0.653,0.858     c-0.391,0.505-0.78,1.011-1.13,1.552l-0.594,1.149l0.545,0.707l0.118,2.451l2.206-0.545c2.944-0.735,10.754-11.368,15.213-17.744     l1.59-2.562c0.287-0.36,0.562-0.728,0.811-1.107c0.113-0.188,0.22-0.358,0.312-0.513c3.342-5.809,3.549-6.462,3.334-7.883     l-0.82-5.43l-2.514,4.889c-0.372,0.711-0.388,0.737-3.368,5.114c-0.763,0.351-1.179,0.993-1.44,1.562     c-0.174,0.021-0.335,0.062-0.489,0.121l1.608-1.958l1.138-2.136c0.266-0.553,0.593-1.322,0.682-1.671     c0.938-1.856,1.866-3.733,2.753-5.841l0.125-0.484c0.182-1.61,0.82-3.137,1.498-4.756c0.598-1.454,1.227-2.96,1.535-4.481     l0.193-0.485c1.312-3.03,3.092-5.771,4.965-8.67c1.894-2.932,3.852-5.964,5.294-9.305c5.534-12.757,5.64-13.003,6.811-21.664     c0.089-0.814,0.258-2.332-1.071-3.426l-0.936-0.761l1.309-3.604l0.383-1.149c0.173-0.931,0.342-1.2,0.456-1.265l0.714-0.399     l0.336-1.825c0.016-0.073,0.036-0.178,0.062-0.299l1.006,0.865l0.05-2.738l0.202,0.198l0.053-6.487     C421.749,256.233,421.454,251.385,420.897,246.304z M383.003,219.076c0.145,0.684,0.299,1.369,0.457,2.057     c0.06,0.276,0.121,0.548,0.185,0.821c-0.446-0.419-0.989-0.814-1.712-1.068l-0.891-0.131c-0.538-0.038-1.09-0.075-1.652-0.145     c-0.152-0.44-0.354-0.939-0.727-1.365c-1.433-1.679-3.307-2.349-4.962-2.938c-1.005-0.358-1.962-0.699-2.711-1.227     c-0.614-0.438-0.743-1.079-0.913-2.537c-0.129-1.152-0.283-2.525-1.111-3.729c0.32-0.36,0.594-0.763,0.752-1.155l0.371-0.898     c0.597,0.585,1.311,1.251,2.354,1.631l4.91,0.361l-0.902-3.252c0.029-0.041,0.062-0.081,0.097-0.125l1.136-0.562l-0.264-1.877     l1.023,1.251l0.08-1.021c0.21,1.333,1.279,2.405,2.24,3.37l1.619,1.611l0.036-0.073c0.148,0.305,0.313,0.622,0.541,0.924     l0.281,0.372l0.422,0.183c0.612,0.273,1.013,0.332,1.569,0.376c0.17,0,0.441-0.006,0.633-0.028l1.361-0.141l0.211-1.343     c0.044-0.298,0.08-0.539,0.107-0.745l0.599,0.085l0.396-1.354c0.013,0.036,0.036,0.073,0.051,0.109     c0.217,0.464,0.211,0.468,1.075,1.812l0.69,0.81c0.012,0.092,0.035,0.254,0.061,0.552l0.096,0.582     c0.287,1.017,0.295,1.013,0.6,1.68l3.034,3.552l0.545-2.753l0.224,0.063c0.354,0.091,0.52,0.131,0.781,0.131l0.967-0.11     l0.262-0.342l0.366,0.266l2.536,0.308c0.25,1.399,0.621,2.22,0.731,2.465l0.156,0.375c0.089,0.172,0.142,0.272,0.169,0.341     c0.018,0.071,0.025,0.156,0.037,0.27l-0.035,0.303l0.089,0.674c0.06,0.187,0.112,0.438,0.119,0.545     c-0.015,0.422-0.022,0.707-0.038,0.901l-0.105,1.995c0.055,0.442,0.1,0.803,0.129,1.105c-0.016,0-0.016,0.003-0.008,0.015     l-0.453-0.306l-0.836-0.141l-1.994,0.181l0.029,0.404c-0.078,0.023-0.126,0.016-0.199,0.044l-0.508,0.189l-0.033,0.04     c-1.039-0.523-2.055-1.138-3.111-1.775c-2.701-1.627-5.494-3.306-9.012-3.706l-2.42-0.273L383.003,219.076z M340.146,207.74     c4.702-2.685,8.332-3.979,8.368-3.995l1.48-0.522l-0.692-3.079l-0.247-0.595c-0.803-1.245-0.891-1.384-0.731-2.353l0.353-0.008     l0.512-0.688c0.093-0.119,0.184-0.258,0.266-0.398l0.998-0.081l0.109-0.436l2.191-0.202l0.34-1.138     c0.322-1.082,0-2.039-0.112-2.33l-0.198-0.731c-0.041-0.111-0.081-0.214-0.117-0.311c1.107,0.568,1.259,0.613,1.958,0.744     l1.022,0.074l2.11-0.361l0.052-1.418c0.004-0.092,0.004-0.173,0.008-0.25c0.381-0.092,0.832-0.279,1.248-0.662     c0.303,0.315,0.603,0.726,0.969,1.223c0.646,0.894,1.382,1.91,2.531,2.617c0.146,0.096,0.25,0.154,0.275,0.154     c0.075,0.096,0.148,0.229,0.273,0.438l0.505,0.553c2.245,1.571,7.058,4.942,8.761,7.724c-0.146,0.109-0.279,0.238-0.4,0.4     c-0.331-0.021-0.654-0.081-0.987-0.131c-0.462-0.075-0.931-0.148-1.391-0.174l-2.582-0.145l0.786,2.438     c0.044,0.122,0.098,0.263,0.213,0.537l0.066,0.229c-0.586-0.373-0.94-0.535-1.874-0.914l-0.541-0.22l-0.568,0.146     c-1.874,0.472-1.874,0.472-5.282,0.666l-0.777,0.044l-0.438,0.53c-1.439-1.115-2.349-1.343-6.344-0.632l-0.82,0.143l-0.38,0.656     c-0.964-0.004-2.253,0.05-3.78,0.724l-1.008,0.447l-0.045,1.092c0,0.052-0.008,0.107-0.016,0.17c-0.016,0-0.025,0-0.036,0     c-0.711,0.019-1.562,0.04-2.438,0.391c-0.049-0.004-0.113-0.012-0.179-0.02l-1.198-0.268l-1.106,0.012     C340.719,207.833,340.409,207.802,340.146,207.74z M411.964,222.153L411.964,222.153L411.964,222.153L411.964,222.153z      M351.368,151.307l0.074-0.388l0.371-0.076l1.159,0.42l0.31,0.473c0.655,1.042,1.414,1.506,2.104,1.735l0.018,0.048     c0.714,1.722,1.247,3.025,1.84,4.123l-0.625,0.069l0.044,0.258l-0.077,0.044c-0.541,0.299-0.699,0.465-1.304,1.606l-0.622,0.05     c-0.088-0.131-0.19-0.301-0.315-0.51l-0.745-0.811l-1.273-0.11l-0.346,0.025c-0.574-1.147-1.547-2.831-1.547-2.831l-0.432-0.492     c-0.643-0.513-1.114-0.638-1.555-0.701l-0.453-0.069l-0.293,0.104l-0.938-1.294l-0.828,0.112     c-0.066-0.122-0.133-0.281-0.185-0.406c-0.194-0.438-0.46-1.046-0.929-1.567c1.098,0.08,2.159,0.146,3.189,0.217l1.727,0.114     L351.368,151.307z M325.852,160.8c0.065-0.121,0.089-0.264,0.129-0.393l0.354,0.007c0.036,0.058,0.08,0.11,0.117,0.166     c0.033,0.048,0.062,0.089,0.094,0.135l-0.496,0.553C325.98,161.109,325.929,160.963,325.852,160.8z M330.066,201.887h0.004l0,0     H330.066z M415.728,277.273h0.068l0.173,0.832l-0.181,0.36C415.772,277.917,415.755,277.564,415.728,277.273z" fill="#2C6B91"/><path d="M175.441,255.147c1.352,1.73,2.006,2.316,2.81,2.503l0.408,0.048c0.314,0,0.649-0.008,0.888-0.024     l0.52,0.024c1.215,0,1.808-0.637,2.362-1.369c0.141-0.034,0.366-0.07,0.585-0.019c0.314,0.088,0.741,0.202,1.275,0.202h0.007     c0.507,0,0.942-0.114,1.256-0.206l0.554-0.069c1.537,0,3.145-0.295,3.984-0.561c0.861,0.27,2.584,0.447,2.919,0.447     c0.372,0,0.703,0,1.2-0.027c0.751-0.085,1.234-0.47,1.529-0.711l2.233-1.019l-1.685-1.783c-0.158-0.165-0.322-0.294-0.483-0.389     c0.027-0.206,0.037-0.438,0.008-0.701l-0.202-2.023l-2.415,0.595c-1.392,0.347-1.392,0.347-2.11,0.362l-0.489,0.004l-0.347-0.063     c-0.324-0.162-0.816-0.4-1.567-0.445l-1.13,0.117c-0.464,0.178-0.788,0.465-1.038,0.73l-0.645,0.021     c-0.287-0.291-0.747-0.729-1.642-1.046c-0.405-0.319-1.098-0.868-2.12-0.913l-3.483-0.137c-0.626,0.031-0.63,0.02-2.108,0.354     l-0.424,0.095l-0.497-0.934c-0.023-0.037-2.062-3.822-4.997-4.256c-0.319,0-0.639,0-0.986,0.014     c-0.408,0.008-0.811,0.067-1.211,0.133c-0.229,0.036-0.46,0.08-0.689,0.08l-0.271-0.234c-0.177-0.287-0.424-0.674-0.782-0.998     c-0.585-0.556-1.229-0.91-1.796-1.219c-0.287-0.161-0.57-0.317-0.897-0.545c-0.162-0.107-0.283-0.185-0.383-0.25     c-0.472-1.425-1.65-1.687-2.515-1.708l-0.549,0.044c-0.433,0.033-0.868,0.07-1.34,0.095c-0.606,0.04-0.964,0.162-1.35,0.424     c-0.1-0.025-0.206-0.048-0.318-0.058l-0.302-0.008l-1.648,0.052l-1.021-0.019c-0.824,0-1.384,0.105-2.039,0.714     c-1.126,1.111-1.44,2.709-0.832,4.167c0.964,2.305,3.964,3.31,5.99,1.97c0.429-0.283,0.739-0.622,0.965-0.868     c0.04-0.049,0.088-0.101,0.106-0.133c0.194,0.004,0.354,0.016,0.46,0.024c0.27,0.13,0.585,0.335,0.63,0.392     c0.052,0.319,0.206,1.284,1.134,1.768c1.126,0.637,1.849,0.957,2.653,0.957c0.004,0,0.012,0,0.02,0     c0.82,1.311,2.106,2.123,3.497,2.196l0.067,0.004l7.941-0.183l-0.073,3.896L175.441,255.147z" fill="#2C6B91"/><path d="M170.855,252.915c-0.593-0.549-1.267-0.603-1.23-0.525c-0.162-0.137-0.43-0.363-0.809-0.529l-0.803-0.21     l-5.503,0.131l1.34,2.8c0.098,0.234,0.198,0.47,0.316,0.699l1.308,1.354h0.747c0.021,0,0.037,0,0.058-0.004     c0.035,0.145,0.071,0.289,0.137,0.447l0.549,1.465l1.288-0.311l0.254,0.037l0.936-0.077l0.428-0.254     c0.506-0.305,0.651-0.509,1.325-1.479l0.574-0.748l-0.179-0.684C171.617,254.662,171.694,253.697,170.855,252.915z" fill="#2C6B91"/><path d="M299.905,131.284c-0.162-0.187-0.447-0.504-1.029-0.801c-0.312-0.133-0.521-0.213-0.728-0.277     c-0.222-0.492-0.354-0.714-0.71-1.247l-0.52-0.771l-2.35-0.041c-0.905,0.027-1.348,0.267-2.068,0.917     c-0.402-0.091-0.826-0.169-1.437-0.187c-0.997,0-1.639,0.198-2.091,0.464l-0.137-0.218c-0.268-0.379-0.59-0.606-0.816-0.762     l-0.703-0.748l-2.479,0.682c-0.181,0-0.387-0.004-0.617-0.012c-0.748,0-2.041,0.424-2.539,1.58     c-0.142,0.342-0.278,0.895-0.08,1.568l-0.533,0.106l2.592,4.149l1.318-0.428l0.135,0.004c0.016,0.045,0.031,0.089,0.041,0.133     l1.389,1.83l1.582,0.03l0.703-0.052c0.307-0.031,0.512-0.012,0.992-0.061l0.646-0.007c0.06,0.022,0.206,0.129,0.314,0.21     c0.308,0.225,0.73,0.527,1.037,0.601c0.586,0.286,1.845,0.302,1.856,0.302c1.034,0,1.837-0.287,2.386-0.854     c0.238-0.251,0.422-0.549,0.529-0.901l0.601-0.067l0.444-0.86c0.348,0,0.877,0.018,1.761,0.052l3.06,0.103l-1.908-3.553     L299.905,131.284z" fill="#2C6B91"/></g></g></svg>