<?xml version="1.0" ?><!DOCTYPE svg  PUBLIC '-//W3C//DTD SVG 1.1//EN'  'http://www.w3.org/Graphics/SVG/1.1/DTD/svg11.dtd'><svg enable-background="new 0 0 512 512" height="512px" id="Calque_1" version="1.1" viewBox="0 0 512 512" width="512px" xml:space="preserve" xmlns="http://www.w3.org/2000/svg" xmlns:xlink="http://www.w3.org/1999/xlink"><g><circle cx="256.281" cy="251.562" fill="#FEE3B1" r="227.136"/><g opacity="0.8"><defs><polygon id="SVGID_1_" opacity="0.8" points="480.12,686.733 223.446,388.094 338.852,273.127 327.957,123.254 660.044,478.453       624.808,408.864     "/></defs><clipPath id="SVGID_2_"><use overflow="visible" xlink:href="#SVGID_1_"/></clipPath><linearGradient gradientUnits="userSpaceOnUse" id="SVGID_3_" x1="195.9639" x2="498.8102" y1="152.7041" y2="649.0643"><stop offset="0" style="stop-color:#1A171B"/><stop offset="0.4236" style="stop-color:#1A171B;stop-opacity:0.3261"/><stop offset="0.5031" style="stop-color:#1A171B;stop-opacity:0.2811"/><stop offset="1" style="stop-color:#1A171B;stop-opacity:0"/></linearGradient><circle clip-path="url(#SVGID_2_)" cx="256.281" cy="251.562" fill="url(#SVGID_3_)" r="227.136"/></g><path d="M313.371,342.773c0-5.611-3.553-10.395-8.522-12.244c2.063,0,3.94,0,5.54,0    c30.311-40.421,60.622-80.836,60.622-121.248c0-61.386-49.761-111.143-111.14-111.143c-61.389,0-111.146,49.757-111.146,111.143    c0,40.412,30.318,80.827,60.624,121.248c1.603,0,3.476,0,5.544,0c-4.97,1.85-8.526,6.633-8.526,12.244    c0,4.064,1.864,7.699,4.779,10.102c-2.915,2.401-4.779,6.043-4.779,10.111c0,4.062,1.864,7.696,4.783,10.102    c-2.919,2.4-4.783,6.038-4.783,10.102c0,7.217,5.877,13.08,13.084,13.08h9.947c5.228,12.171,17.209,20.212,30.473,20.212    c13.264,0,25.236-8.041,30.465-20.212h9.947c7.215,0,13.088-5.863,13.088-13.08c0-4.063-1.869-7.701-4.779-10.102    c2.91-2.405,4.779-6.039,4.779-10.102c0-4.068-1.869-7.71-4.779-10.111C311.502,350.473,313.371,346.838,313.371,342.773z     M214.088,328.54c-27.709-36.936-55.408-73.878-55.408-110.813c0-56.096,45.47-101.582,101.576-101.582    c56.097,0,101.582,45.486,101.582,101.582c0,36.936-27.7,73.878-55.411,110.813c-7.455,0-20.926,0-35.562,0v-32.688    c1.645,0.748,3.537,1.208,5.576,1.208c6.152,0,11.137-3.896,11.137-8.692h-0.008c-0.008-4.804-4.998-8.695-11.139-8.695    c-3.345,0-6.312,1.174-8.352,2.99c-2.039-1.824-5.006-2.998-8.346-2.998c-3.361,0-6.321,1.174-8.368,3.004    c-2.039-1.822-5.006-2.996-8.343-2.996c-6.15,0-11.143,3.892-11.143,8.695l0,0l0,0c0,4.797,4.993,8.692,11.143,8.692    c2.037,0,3.922-0.46,5.571-1.208v32.688C234.368,328.54,221.359,328.54,214.088,328.54z M265.303,288.367v40.173    c-3.71,0-7.445,0-11.15,0v-40.173c0-2.406,2.501-4.352,5.582-4.352c3.063,0,5.533,1.93,5.561,4.315    c0,0.019-0.004,0.019-0.004,0.019L265.303,288.367z M270.865,288.331c0.025-2.394,2.498-4.315,5.566-4.315    c3.076,0,5.564,1.945,5.564,4.352h0.008c-0.008,2.39-2.492,4.332-5.562,4.332c-3.081,0-5.576-1.942-5.576-4.35V288.331z     M248.594,288.35c-0.01,2.407-2.496,4.35-5.571,4.35c-3.081,0-5.565-1.942-5.577-4.35c0.012-2.389,2.496-4.334,5.577-4.334    C246.098,284.016,248.584,285.961,248.594,288.35z M259.871,410.518c-10.002,0-19.122-5.582-23.865-14.248h47.724    C278.984,404.936,269.867,410.518,259.871,410.518z M300.283,390.31h-7.723h-65.375h-7.735c-3.924,0-7.119-3.196-7.119-7.12    c0-3.929,3.195-7.119,7.119-7.119h80.833c3.932,0,7.125,3.19,7.125,7.119C307.408,387.113,304.215,390.31,300.283,390.31z     M300.283,370.105h-80.833c-3.924,0-7.119-3.195-7.119-7.119c0-3.932,3.195-7.129,7.119-7.129h80.833    c3.932,0,7.125,3.197,7.125,7.129C307.408,366.91,304.215,370.105,300.283,370.105z M300.283,349.898h-80.833    c-3.924,0-7.119-3.201-7.119-7.125c0-3.928,3.195-7.121,7.119-7.121h80.833c3.932,0,7.125,3.193,7.125,7.121    C307.408,346.697,304.215,349.898,300.283,349.898z" fill="#694501"/><path d="M214.088,328.54c-27.709-36.936-55.408-73.878-55.408-110.813c0-56.096,45.47-101.582,101.576-101.582    c56.097,0,101.582,45.486,101.582,101.582c0,36.936-27.7,73.878-55.411,110.813c-7.455,0-20.926,0-35.562,0v-32.688    c1.645,0.748,3.537,1.208,5.576,1.208c6.152,0,11.137-3.896,11.137-8.692h-0.008c-0.008-4.804-4.998-8.695-11.139-8.695    c-3.345,0-6.312,1.174-8.352,2.99c-2.039-1.824-5.006-2.998-8.346-2.998c-3.361,0-6.321,1.174-8.368,3.004    c-2.039-1.822-5.006-2.996-8.343-2.996c-6.15,0-11.143,3.892-11.143,8.695l0,0l0,0c0,4.797,4.993,8.692,11.143,8.692    c2.037,0,3.922-0.46,5.571-1.208v32.688C234.368,328.54,221.359,328.54,214.088,328.54z" fill="#FCC75E"/><path d="M265.303,288.367v40.173c-3.71,0-7.445,0-11.15,0v-40.173c0-2.406,2.501-4.352,5.582-4.352    c3.063,0,5.533,1.93,5.561,4.315c0,0.019-0.004,0.019-0.004,0.019L265.303,288.367z" fill="#FCC75E"/><path d="M270.865,288.331c0.025-2.394,2.498-4.315,5.566-4.315c3.076,0,5.564,1.945,5.564,4.352h0.008    c-0.008,2.39-2.492,4.332-5.562,4.332c-3.081,0-5.576-1.942-5.576-4.35V288.331z" fill="#FCC75E"/><path d="M248.594,288.35c-0.01,2.407-2.496,4.35-5.571,4.35c-3.081,0-5.565-1.942-5.577-4.35    c0.012-2.389,2.496-4.334,5.577-4.334C246.098,284.016,248.584,285.961,248.594,288.35z" fill="#FCC75E"/><path d="M259.871,410.518c-10.002,0-19.122-5.582-23.865-14.248h47.724    C278.984,404.936,269.867,410.518,259.871,410.518z" fill="#C5C6C7"/><path d="M300.283,390.31h-7.723h-65.375h-7.735c-3.924,0-7.119-3.196-7.119-7.12c0-3.929,3.195-7.119,7.119-7.119    h80.833c3.932,0,7.125,3.19,7.125,7.119C307.408,387.113,304.215,390.31,300.283,390.31z" fill="#C5C6C7"/><path d="M300.283,370.105h-80.833c-3.924,0-7.119-3.195-7.119-7.119c0-3.932,3.195-7.129,7.119-7.129h80.833    c3.932,0,7.125,3.197,7.125,7.129C307.408,366.91,304.215,370.105,300.283,370.105z" fill="#C5C6C7"/><path d="M300.283,349.898h-80.833c-3.924,0-7.119-3.201-7.119-7.125c0-3.928,3.195-7.121,7.119-7.121h80.833    c3.932,0,7.125,3.193,7.125,7.121C307.408,346.697,304.215,349.898,300.283,349.898z" fill="#C5C6C7"/></g></svg>