<?xml version="1.0" encoding="utf-8"?>
<!-- Generator: Adobe Illustrator 19.2.0, SVG Export Plug-In . SVG Version: 6.00 Build 0)  -->
<!DOCTYPE svg PUBLIC "-//W3C//DTD SVG 1.1//EN" "http://www.w3.org/Graphics/SVG/1.1/DTD/svg11.dtd">
<svg version="1.1" id="Layer_1" xmlns="http://www.w3.org/2000/svg" xmlns:xlink="http://www.w3.org/1999/xlink" x="0px" y="0px"
	 viewBox="0 0 132.6 105" style="enable-background:new 0 0 132.6 105;" xml:space="preserve">
<style type="text/css">
	.st0{fill:#21B2D1;}
	.st1{fill:#F15757;}
	.st2{fill:#FFFFFF;}
	.st3{fill:#BEE6F0;}
	.st4{opacity:0.1;fill:#010101;enable-background:new    ;}
	.st5{fill:#48C6E4;}
</style>
<g>
	<g id="Plane_2_">
		<polygon class="st0" points="72.1,102 57.9,102.8 57.9,100.6 72.1,96 		"/>
		<polygon class="st0" points="72.1,102 86.3,102.8 86.3,100.6 72.1,96 		"/>
		<circle class="st1" cx="38.5" cy="47.3" r="1.7"/>
		<rect x="36.8" y="47.3" class="st2" width="3.3" height="7.1"/>
		<circle class="st1" cx="47.3" cy="43" r="1.7"/>
		<rect x="45.7" y="43" class="st2" width="3.3" height="7.1"/>
		<polygon class="st0" points="72.2,34.6 28,55.9 28,61.7 58.3,55.3 72.2,55.3 		"/>
		<circle class="st1" cx="105.8" cy="47.3" r="1.7"/>
		<rect x="104.1" y="47.3" class="st2" width="3.3" height="7.1"/>
		<circle class="st1" cx="96.9" cy="43" r="1.7"/>
		<rect x="95.3" y="43" class="st2" width="3.3" height="7.1"/>
		<polygon class="st0" points="72.1,34.6 116.2,55.9 116.2,61.7 85.9,55.3 72.1,55.3 		"/>
		<path class="st2" d="M72.1,4.5c0,0-6.2-1.4-7.6,20l1.2,60.2c0,0,0.8,17.4,6.4,18.5c5.6-1,6.4-18.5,6.4-18.5l1.2-60.2
			C78.2,3.1,72.1,4.5,72.1,4.5z"/>
		<rect x="71.7" y="97.8" class="st0" width="0.9" height="7.2"/>
		<path class="st3" d="M67,23.2c3-2.1,5.1-1.6,5.1-1.6s2.1-0.4,5.1,1.6c0,0-1.8-3.9-5.1-3.9C68.8,19.3,67,23.2,67,23.2z"/>
		<path class="st4" d="M79.7,24.6l-1.2,60.2c0,0-0.8,17.4-6.4,18.5V4.5C72.1,4.5,78.2,3.1,79.7,24.6z"/>
	</g>
	<path class="st5" d="M126.2,6.4c-0.8,0-1.6,0.2-2.4,0.5c0-0.2,0-0.3,0-0.5c0-3.5-2.9-6.4-6.4-6.4c-2.2,0-4,1.1-5.2,2.7
		c-1.2-1.6-3.1-2.7-5.2-2.7c-3.3,0-6,2.5-6.3,5.7c-0.7-0.3-1.6-0.5-2.4-0.5c-3.5,0-6.4,2.9-6.4,6.4c0,3.5,2.9,6.4,6.4,6.4
		c0.8,0,1.6-0.2,2.4-0.5c0,0.2,0,0.3,0,0.5c0,3.5,2.9,6.4,6.4,6.4c2.2,0,4-1.1,5.2-2.7c1.2,1.6,3.1,2.7,5.2,2.7c3.3,0,6-2.5,6.3-5.7
		c0.7,0.3,1.6,0.5,2.4,0.5c3.5,0,6.4-2.9,6.4-6.4C132.6,9.3,129.8,6.4,126.2,6.4z"/>
	<path class="st5" d="M34.3,20.1c-0.8,0-1.6,0.2-2.4,0.5c0-0.2,0-0.3,0-0.5c0-3.5-2.9-6.4-6.4-6.4c-2.2,0-4,1.1-5.2,2.7
		c-1.2-1.6-3.1-2.7-5.2-2.7c-3.3,0-6,2.5-6.3,5.7c-0.7-0.3-1.6-0.5-2.4-0.5c-3.5,0-6.4,2.9-6.4,6.4c0,3.5,2.9,6.4,6.4,6.4
		c0.8,0,1.6-0.2,2.4-0.5c0,0.2,0,0.3,0,0.5c0,3.5,2.9,6.4,6.4,6.4c2.2,0,4-1.1,5.2-2.7c1.2,1.6,3.1,2.7,5.2,2.7c3.3,0,6-2.5,6.3-5.7
		c0.7,0.3,1.6,0.5,2.4,0.5c3.5,0,6.4-2.9,6.4-6.4C40.8,22.9,37.9,20.1,34.3,20.1z"/>
</g>
</svg>
