<?xml version="1.0" encoding="utf-8"?>
<!-- Generator: Adobe Illustrator 19.2.0, SVG Export Plug-In . SVG Version: 6.00 Build 0)  -->
<!DOCTYPE svg PUBLIC "-//W3C//DTD SVG 1.1//EN" "http://www.w3.org/Graphics/SVG/1.1/DTD/svg11.dtd">
<svg version="1.1" id="Layer_1" xmlns="http://www.w3.org/2000/svg" xmlns:xlink="http://www.w3.org/1999/xlink" x="0px" y="0px"
	 viewBox="0 0 55.5 64.1" style="enable-background:new 0 0 55.5 64.1;" xml:space="preserve">
<style type="text/css">
	.st0{fill:#E5E7EA;}
	.st1{opacity:0.5;fill:#010101;fill-opacity:0.4;enable-background:new    ;}
	.st2{fill:#066AAC;}
	.st3{fill:#4BC3CA;}
</style>
<g id="hexagon-flat_29_" transform="translate(173.000000, 138.000000)">
	<polygon id="Polygon-48_29_" class="st0" points="-145.3,-138 -117.5,-122 -117.5,-90 -145.3,-73.9 -173,-90 -173,-122 	"/>
</g>
<g>
	<g>
		<polygon class="st1" points="41.2,37.6 39.1,33.6 31.3,32 28.9,27.8 30.3,24.5 26.6,25.9 23.2,28.2 14.1,15.6 0,31.5 0,48 
			27.7,64.1 41.1,50.1 39.7,41.8 		"/>
	</g>
</g>
<g>
	<path class="st2" d="M22.3,16.3v-0.9c0-0.1,0-0.2,0-0.3h-6.8c-1.1,0-2,0.9-2,2v31.4c0,1.1,0.9,2,2,2h24.2c1.1,0,2-0.9,2-2V17.1
		c0-1.1-0.9-2-2-2h-7.6c0,0.1,0,0.2,0,0.3v0.9"/>
	<path class="st0" d="M38.9,48.1l-1.9-2l-1.9,2l-1.9-2l-1.9,2l-1.9-2l-1.9,2l-1.9-2l-1.9,2l-1.9-2l-1.9,2l-1.9-2l-1.9,2v-27
		c0-1.1,0.9-2,1.9-2h19c1.1,0,1.9,0.9,1.9,2V48.1L38.9,48.1z"/>
	<g>
		<g>
			<rect x="19" y="23.2" class="st2" width="17.2" height="1.8"/>
			<rect x="19" y="27.9" class="st2" width="12.2" height="1.8"/>
			<rect x="19" y="32.5" class="st2" width="8.8" height="1.8"/>
		</g>
	</g>
	<path class="st3" d="M33.1,40v-2.2c-1.2-0.3-2.1-0.7-2.6-1.2c-0.6-0.5-0.8-1.2-0.8-2c0-0.9,0.3-1.7,1-2.4c0.6-0.6,1.4-0.9,2.4-1
		v-0.5c0-0.2,0-0.3,0.1-0.4s0.2-0.2,0.3-0.2s0.2,0.1,0.3,0.2s0.1,0.3,0.1,0.4v0.5c0.3,0,0.6,0,0.9,0.1c0.4,0.1,0.8,0.3,1.2,0.6
		c0.1,0.1,0.2,0.2,0.3,0.4s0.1,0.3,0.1,0.5c0,0.3-0.1,0.6-0.3,0.9s-0.4,0.4-0.7,0.4c-0.2,0-0.4-0.1-0.5-0.2
		c-0.1-0.1-0.2-0.1-0.3-0.2c-0.3-0.1-0.5-0.2-0.8-0.2v2c1,0.4,1.7,0.7,2,0.9c0.8,0.6,1.3,1.4,1.3,2.5c0,0.9-0.3,1.7-1,2.4
		s-1.4,1-2.3,1v0.5c0,0.2,0,0.3-0.1,0.4c-0.1,0.1-0.2,0.2-0.3,0.2s-0.2-0.1-0.3-0.2C33,43.1,33,42.9,33,42.7v-0.5
		c-0.7,0-1.3-0.1-1.8-0.2c-0.5-0.2-0.9-0.4-1.1-0.6c-0.4-0.3-0.6-0.6-0.6-1c0-0.3,0.1-0.6,0.4-0.9c0.2-0.3,0.5-0.4,0.8-0.4
		c0.2,0,0.4,0.1,0.5,0.2c0.4,0.2,0.7,0.3,0.9,0.4C32.5,39.9,32.7,40,33.1,40z M33.1,35.4v-1.8c-0.4,0.1-0.6,0.2-0.7,0.3
		c-0.1,0.1-0.2,0.2-0.2,0.3s0,0.2,0,0.3c0.1,0.2,0.2,0.4,0.3,0.5C32.5,35.2,32.8,35.3,33.1,35.4z M34,40c0.2,0,0.4-0.1,0.5-0.2
		c0.1-0.1,0.2-0.3,0.2-0.6c0-0.2-0.1-0.5-0.2-0.7c-0.1-0.2-0.3-0.3-0.5-0.4V40z"/>
	<path class="st3" d="M32.7,12.5h-1.6c-0.1-0.8-0.4-1.6-1-2.2c-0.6-0.6-1.5-0.9-2.4-0.9s-1.8,0.4-2.4,0.9s-1,1.3-1,2.2h-1.6
		c-1,0-1.8,0.8-1.8,1.8v1.1c0,1,0.2,1,1.2,1h11.2c1,0,1.2,0,1.2-1v-1.1C34.5,13.4,33.7,12.5,32.7,12.5z M25.7,12.5
		c0-0.4,0.2-0.8,0.6-1.1s0.9-0.6,1.4-0.6c0.6,0,1.1,0.2,1.4,0.6c0.3,0.3,0.5,0.7,0.6,1.1H25.7z"/>
</g>
</svg>
