<?xml version="1.0" encoding="utf-8"?>
<!-- Generator: Adobe Illustrator 19.2.0, SVG Export Plug-In . SVG Version: 6.00 Build 0)  -->
<!DOCTYPE svg PUBLIC "-//W3C//DTD SVG 1.1//EN" "http://www.w3.org/Graphics/SVG/1.1/DTD/svg11.dtd">
<svg version="1.1" id="Layer_1" xmlns="http://www.w3.org/2000/svg" xmlns:xlink="http://www.w3.org/1999/xlink" x="0px" y="0px"
	 viewBox="0 0 137.6 112.4" style="enable-background:new 0 0 137.6 112.4;" xml:space="preserve">
<style type="text/css">
	.st0{fill:#4BC3CA;}
	.st1{fill:#28353A;}
	.st2{fill:#FFFFFF;}
	.st3{fill:#E2E2E2;}
	.st4{fill:#C9C9C9;}
	.st5{fill:#F16058;}
	.st6{fill:#FCC448;}
	.st7{fill:#3BB496;}
	.st8{fill:#F3F3F3;}
	.st9{fill:#066AAC;}
	.st10{fill:#37474F;}
	.st11{fill:#F2F2F2;}
	.st12{fill:#282828;}
	.st13{fill:#3C3C3B;}
	.st14{opacity:0.1;fill:#010101;enable-background:new    ;}
</style>
<g>
	<path class="st0" d="M126.2,6.4c-0.8,0-1.6,0.2-2.4,0.5c0-0.2,0-0.3,0-0.5c0-3.5-2.9-6.4-6.4-6.4c-2.2,0-4,1.1-5.2,2.7
		c-1.2-1.6-3.1-2.7-5.2-2.7c-3.3,0-6,2.5-6.3,5.7c-0.7-0.3-1.6-0.5-2.4-0.5c-3.5,0-6.4,2.9-6.4,6.4c0,3.5,2.9,6.4,6.4,6.4
		c0.8,0,1.6-0.2,2.4-0.5c0,0.2,0,0.3,0,0.5c0,3.5,2.9,6.4,6.4,6.4c2.2,0,4-1.1,5.2-2.7c1.2,1.6,3.1,2.7,5.2,2.7c3.3,0,6-2.5,6.3-5.7
		c0.7,0.3,1.6,0.5,2.4,0.5c3.5,0,6.4-2.9,6.4-6.4C132.6,9.3,129.8,6.4,126.2,6.4z"/>
	<path class="st0" d="M34.3,20.1c-0.8,0-1.6,0.2-2.4,0.5c0-0.2,0-0.3,0-0.5c0-3.5-2.9-6.4-6.4-6.4c-2.2,0-4,1.1-5.2,2.7
		c-1.2-1.6-3.1-2.7-5.2-2.7c-3.3,0-6,2.5-6.3,5.7c-0.7-0.3-1.6-0.5-2.4-0.5c-3.5,0-6.4,2.9-6.4,6.4c0,3.5,2.9,6.4,6.4,6.4
		c0.8,0,1.6-0.2,2.4-0.5c0,0.2,0,0.3,0,0.5c0,3.5,2.9,6.4,6.4,6.4c2.2,0,4-1.1,5.2-2.7c1.2,1.6,3.1,2.7,5.2,2.7c3.3,0,6-2.5,6.3-5.7
		c0.7,0.3,1.6,0.5,2.4,0.5c3.5,0,6.4-2.9,6.4-6.4C40.8,22.9,37.9,20.1,34.3,20.1z"/>
	<g>
		<path class="st1" d="M31.2,23.9L31.2,23.9v64.5h86.1c0-2.4,0-62.2,0-64.5H31.2z"/>
		<rect x="29.7" y="22.4" class="st2" width="86.1" height="64.5"/>
		<rect x="29.7" y="22.4" class="st3" width="86.1" height="7.9"/>
		<rect x="49.2" y="24.9" class="st2" width="56.5" height="2.9"/>
		<rect x="108" y="24.9" class="st4" width="3.6" height="2.9"/>
		<circle class="st5" cx="34.9" cy="26.3" r="1.4"/>
		<circle class="st6" cx="39.6" cy="26.3" r="1.4"/>
		<circle class="st7" cx="44.2" cy="26.3" r="1.4"/>
		<rect x="29.7" y="30.3" class="st8" width="86.1" height="10.8"/>
		<rect x="33.5" y="33.3" class="st2" width="47.9" height="4.8"/>
		<rect x="81.4" y="33.3" class="st9" width="6.7" height="4.8"/>
		<rect x="37.7" y="69.9" class="st3" width="33.4" height="2.6"/>
		<rect x="37.7" y="63.9" class="st3" width="23" height="2.6"/>
		<rect x="37.7" y="75.9" class="st3" width="33.4" height="2.6"/>
		<path class="st10" d="M41.6,52.6c-1.3-0.5-1.7-0.8-1.7-1.4c0-0.5,0.3-1,1.3-1c0.9,0,1.5,0.3,1.7,0.5l0.3,0.2l0.6-1.6l-0.2-0.1
			c-0.5-0.3-1.1-0.5-1.8-0.5v-1.5h-1.6v1.6c-1.4,0.3-2.3,1.3-2.3,2.6c0,1.6,1.3,2.3,2.7,2.9c1.1,0.4,1.5,0.9,1.5,1.5
			c0,0.7-0.6,1.1-1.5,1.1c-0.7,0-1.4-0.2-2-0.6l-0.3-0.2l-0.6,1.6l0.2,0.1c0.5,0.4,1.4,0.6,2.2,0.7V60h1.6v-1.5
			c1.4-0.3,2.4-1.4,2.4-2.8C44.2,54.3,43.4,53.4,41.6,52.6z"/>
		<path class="st10" d="M50.1,52.6c-1.3-0.5-1.7-0.8-1.7-1.4c0-0.5,0.3-1,1.3-1c0.9,0,1.5,0.3,1.7,0.5l0.3,0.2l0.6-1.6l-0.2-0.1
			c-0.5-0.3-1.1-0.5-1.8-0.5v-1.5h-1.6v1.6c-1.4,0.3-2.3,1.3-2.3,2.6c0,1.6,1.3,2.3,2.7,2.9c1.1,0.4,1.5,0.9,1.5,1.5
			c0,0.7-0.6,1.1-1.5,1.1c-0.7,0-1.4-0.2-2-0.6l-0.3-0.2l-0.6,1.6l0.2,0.1c0.5,0.4,1.4,0.6,2.2,0.7V60h1.6v-1.5
			c1.4-0.3,2.4-1.4,2.4-2.8C52.6,54.3,51.9,53.4,50.1,52.6z"/>
		<path class="st10" d="M58.1,52.6c-1.3-0.5-1.7-0.8-1.7-1.4c0-0.5,0.3-1,1.3-1c0.9,0,1.5,0.3,1.7,0.5l0.3,0.2l0.6-1.6l-0.2-0.1
			c-0.5-0.3-1.1-0.5-1.8-0.5v-1.5h-1.6v1.6c-1.4,0.3-2.3,1.3-2.3,2.6c0,1.6,1.3,2.3,2.7,2.9c1.1,0.4,1.5,0.9,1.5,1.5
			c0,0.7-0.6,1.1-1.5,1.1c-0.7,0-1.4-0.2-2-0.6l-0.3-0.2l-0.6,1.6l0.2,0.1c0.5,0.4,1.4,0.6,2.2,0.7V60h1.6v-1.5
			c1.4-0.3,2.4-1.4,2.4-2.8C60.6,54.3,59.9,53.4,58.1,52.6z"/>
	</g>
	<g id="Zoom_Out_2_">
		<circle class="st0" cx="103" cy="77.8" r="15.2"/>
		<g id="Plus_1_">
			<rect x="101.2" y="71" class="st11" width="3.9" height="14.3"/>
			<rect x="96" y="76.1" class="st11" width="14.3" height="3.9"/>
		</g>
		<g id="Lup_1_">
			
				<rect x="115.5" y="88.4" transform="matrix(0.7071 -0.7071 0.7071 0.7071 -30.9302 110.3271)" class="st12" width="4.4" height="8.3"/>
			<path class="st13" d="M137.1,107.5c0.6,0.6,0.6,1.6,0,2.2l-2.2,2.2c-0.6,0.6-1.6,0.6-2.2,0L119,98.1c-0.6-0.6-0.6-1.6,0-2.2
				l2.2-2.2c0.6-0.6,1.6-0.6,2.2,0L137.1,107.5z"/>
			<g>
				<path class="st13" d="M90.8,65.6c-6.8,6.8-6.8,17.7,0,24.5c6.8,6.8,17.7,6.8,24.5,0c6.8-6.8,6.8-17.7,0-24.5
					C108.6,58.8,97.6,58.8,90.8,65.6z M112.8,87.5c-5.4,5.4-14,5.4-19.4,0c-5.4-5.4-5.4-14,0-19.4c5.4-5.4,14-5.4,19.4,0
					C118.1,73.5,118.1,82.2,112.8,87.5z"/>
			</g>
			
				<rect x="117.9" y="94.4" transform="matrix(0.7071 -0.7071 0.7071 0.7071 -32.3114 113.6587)" class="st0" width="6.2" height="2.8"/>
			<path class="st14" d="M123.3,93.7l-1.1-1.1l-1.1,1.1l-1.1,1.1l2,2l14,14l1.1-1.1c0.6-0.6,0.6-1.6,0-2.2L123.3,93.7
				C123.3,93.7,123.3,93.7,123.3,93.7z"/>
		</g>
	</g>
</g>
</svg>
