<?xml version="1.0" ?><!DOCTYPE svg  PUBLIC '-//W3C//DTD SVG 1.1//EN'  'http://www.w3.org/Graphics/SVG/1.1/DTD/svg11.dtd'><svg enable-background="new 0 0 100 100" height="100px" id="Layer_1" version="1.1" viewBox="0 0 100 100" width="100px" xml:space="preserve" xmlns="http://www.w3.org/2000/svg" xmlns:xlink="http://www.w3.org/1999/xlink"><path d="M76.716,58.717c-2.55,7.183-16.517,10.95-30.383,10.95c-6.417,0-12.85-0.817-18.183-2.4  c3.15,4.267,13.817,7.4,26.516,7.4c15.183,0,27.5-4.483,27.5-10C82.166,62.433,80.116,60.367,76.716,58.717z M78.833,41.067v-6.183  C77.8,35.417,76.7,35.917,75.5,36.367v6.467C76.783,42.3,77.883,41.7,78.833,41.067z M80.5,39.733c1.067-1.05,1.667-2.2,1.667-3.4  v-3.65c-0.5,0.433-1.067,0.833-1.667,1.217V39.733z M54.667,16.334c-15.183,0-27.5,4.483-27.5,10s12.317,10,27.5,10  s27.5-4.483,27.5-10S69.85,16.334,54.667,16.334z M28.834,39.733V33.9c-0.6-0.383-1.167-0.783-1.667-1.217v3.65  C27.167,37.533,27.767,38.667,28.834,39.733z M33.833,42.833V36.35c-1.183-0.45-2.317-0.917-3.333-1.45v6.217  C31.434,41.733,32.584,42.3,33.833,42.833z M38.833,44.483v-6.617c-1.133-0.283-2.283-0.567-3.333-0.9v6.517  C36.533,43.85,37.65,44.183,38.833,44.483z M43.833,45.5v-6.65c-1.133-0.167-2.25-0.367-3.333-0.6v6.633  C41.567,45.117,42.683,45.317,43.833,45.5z M48.833,46.067V39.4c-1.117-0.1-2.233-0.2-3.333-0.333v6.667  C46.583,45.867,47.7,45.967,48.833,46.067z M53.833,46.3v-6.667c-1.117-0.017-2.233-0.033-3.333-0.1v6.65  C51.583,46.25,52.7,46.283,53.833,46.3z M58.833,46.2v-6.667c-1.1,0.067-2.217,0.117-3.333,0.117v6.667  C56.633,46.3,57.733,46.267,58.833,46.2z M63.833,45.733v-6.65c-1.1,0.133-2.217,0.25-3.333,0.333v6.667  C61.65,46,62.75,45.883,63.833,45.733z M68.833,44.883v-6.65c-1.083,0.217-2.2,0.433-3.333,0.6V45.5  C66.65,45.317,67.766,45.117,68.833,44.883z M73.833,43.467v-6.533c-1.067,0.35-2.183,0.667-3.333,0.933v6.617  C71.7,44.183,72.783,43.833,73.833,43.467z M72.166,53.9v5.833c1.067-1.05,1.667-2.2,1.667-3.4v-3.65  C73.333,53.117,72.766,53.517,72.166,53.9z M67.166,56.367v6.467C68.45,62.3,69.55,61.7,70.5,61.067v-6.183  C69.466,55.417,68.366,55.917,67.166,56.367z M62.167,57.867v6.617c1.2-0.3,2.283-0.65,3.333-1.017v-6.533  C64.433,57.283,63.317,57.6,62.167,57.867z M57.167,58.833V65.5c1.15-0.183,2.267-0.383,3.333-0.617v-6.65  C59.417,58.45,58.3,58.667,57.167,58.833z M52.167,59.417v6.667c1.15-0.083,2.25-0.2,3.333-0.35v-6.65  C54.4,59.217,53.283,59.333,52.167,59.417z M47.167,59.65v6.667C48.3,66.3,49.4,66.267,50.5,66.2v-6.667  C49.4,59.6,48.283,59.65,47.167,59.65z M42.167,59.533v6.65c1.083,0.067,2.2,0.1,3.333,0.117v-6.667  C44.383,59.617,43.267,59.6,42.167,59.533z M37.167,59.067v6.667c1.083,0.133,2.2,0.233,3.333,0.333V59.4  C39.383,59.3,38.267,59.2,37.167,59.067z M32.167,58.25v6.633c1.067,0.233,2.183,0.433,3.333,0.617v-6.65  C34.367,58.683,33.25,58.483,32.167,58.25z M24.917,40.067c-3.8,1.717-6.083,3.9-6.083,6.267c0,5.517,12.317,10,27.5,10  c14.55,0,26.45-4.117,27.4-9.317c-5.483,1.75-12.3,2.65-19.066,2.65C41.7,49.667,28.65,46.383,24.917,40.067z M18.834,56.333  c0,1.2,0.6,2.333,1.667,3.4V53.9c-0.6-0.383-1.167-0.783-1.667-1.217V56.333z M22.167,61.117C23.1,61.733,24.25,62.3,25.5,62.833  V56.35c-1.183-0.45-2.317-0.917-3.333-1.45V61.117z M27.167,63.483c1.033,0.367,2.15,0.7,3.333,1v-6.617  c-1.133-0.283-2.283-0.567-3.333-0.9V63.483z M27.167,74.666c0,1.2,0.6,2.333,1.667,3.4v-5.833c-0.6-0.383-1.167-0.783-1.667-1.217  V74.666z M30.5,79.45c0.933,0.617,2.083,1.183,3.333,1.717v-6.483c-1.183-0.45-2.317-0.917-3.333-1.45V79.45z M35.5,81.816  c1.033,0.367,2.15,0.7,3.333,1V76.2c-1.133-0.283-2.283-0.567-3.333-0.9V81.816z M40.5,83.216c1.067,0.233,2.183,0.433,3.333,0.617  v-6.65c-1.133-0.167-2.25-0.367-3.333-0.6V83.216z M45.5,84.066c1.083,0.133,2.2,0.233,3.333,0.333v-6.667  c-1.117-0.1-2.233-0.2-3.333-0.333V84.066z M50.5,84.516c1.083,0.067,2.2,0.1,3.333,0.117v-6.667  c-1.117-0.017-2.233-0.033-3.333-0.1V84.516z M55.5,84.65c1.133-0.017,2.233-0.05,3.333-0.117v-6.667  c-1.1,0.067-2.217,0.117-3.333,0.117V84.65z M60.5,84.416c1.15-0.083,2.25-0.2,3.333-0.35v-6.65c-1.1,0.133-2.217,0.25-3.333,0.333  V84.416z M65.5,83.833c1.15-0.183,2.267-0.383,3.333-0.617v-6.65c-1.083,0.217-2.2,0.433-3.333,0.6V83.833z M70.5,82.816  c1.2-0.3,2.283-0.65,3.333-1.017v-6.533c-1.067,0.35-2.183,0.667-3.333,0.933V82.816z M75.5,81.166  c1.283-0.533,2.383-1.133,3.333-1.767v-6.183C77.8,73.75,76.7,74.25,75.5,74.7V81.166z M82.166,71.016  c-0.5,0.433-1.067,0.833-1.667,1.217v5.833c1.067-1.05,1.667-2.2,1.667-3.4V71.016z M77.166,55.283  C82.2,57.517,85.5,60.65,85.5,64.667v10C85.5,83.416,69.983,88,54.667,88s-30.833-4.583-30.833-13.333v-8.95  C18.8,63.483,15.5,60.35,15.5,56.333v-10c0-4.05,3.333-7.183,8.4-9.4c-0.017-0.2-0.067-0.4-0.067-0.6v-10  C23.834,17.584,39.35,13,54.667,13S85.5,17.584,85.5,26.334v10c0,4.05-3.333,7.183-8.4,9.4c0.017,0.2,0.067,0.4,0.067,0.6V55.283z" fill="#3799DB"/></svg>