<?xml version="1.0" encoding="utf-8"?>
<!-- Generator: Adobe Illustrator 19.0.0, SVG Export Plug-In . SVG Version: 6.00 Build 0)  -->
<!DOCTYPE svg PUBLIC "-//W3C//DTD SVG 1.1//EN" "http://www.w3.org/Graphics/SVG/1.1/DTD/svg11.dtd">
<svg version="1.1" id="flat" xmlns="http://www.w3.org/2000/svg" xmlns:xlink="http://www.w3.org/1999/xlink" x="0px" y="0px"
	 viewBox="0 0 179.3 169.2" enable-background="new 0 0 179.3 169.2" xml:space="preserve">
<polygon fill="#E0E1E2" points="89.7,12.5 21,64 158.3,64 "/>
<path fill="#231F20" d="M158.3,66c-1-1.1-2.4-1.8-4-1.8H25c-1.6,0-3,0.7-4,1.8l68.6,43.1L158.3,66z"/>
<rect x="33.4" y="48.7" fill="#FFFFFF" width="112.5" height="70.5"/>
<g>
	<path fill="none" stroke="#A9DBE9" stroke-width="5" stroke-miterlimit="10" d="M54.7,62.6h73.7H54.7z"/>
	<path fill="none" stroke="#A9DBE9" stroke-width="5" stroke-miterlimit="10" d="M54.7,73.3h73.7H54.7z"/>
	<path fill="none" stroke="#A9DBE9" stroke-width="5" stroke-miterlimit="10" d="M54.7,84h73.7H54.7z"/>
</g>
<g>
	<path fill="#95979A" d="M19.7,66v79c0,1.4,0.5,2.6,1.4,3.6l68.6-43.1L21,62.5C20.2,63.4,19.7,64.6,19.7,66z"/>
	<path fill="#95979A" d="M158.3,62.5l-68.6,43.1l68.6,43.1c0.8-0.9,1.4-2.2,1.4-3.6V66C159.7,64.6,159.1,63.4,158.3,62.5z"/>
</g>
<g>
	<path fill="#CBCCCE" d="M19.7,69.6v79c0,1.4,0.5,2.6,1.4,3.6l68.6-43.1L21,66C20.2,67,19.7,68.2,19.7,69.6z"/>
	<path fill="#CBCCCE" d="M158.3,66l-68.6,43.1l68.6,43.1c0.8-0.9,1.4-2.2,1.4-3.6v-79C159.7,68.2,159.1,67,158.3,66z"/>
</g>
<path fill="#DB3E3B" d="M21,152.2c1,1.1,2.4,1.8,4,1.8h129.3c1.6,0,3-0.7,4-1.8l-68.6-43.1L21,152.2z"/>
<path fill="#95979A" d="M19.7,148.6c1,1.1,3.8,5.4,5.4,5.4h129.3c1.6,0,5.4,1.3,5.4-5.4l-70-48.5L19.7,148.6z"/>
<path fill="#E0E1E2" d="M21,152.2c1,1.1,2.4,1.8,4,1.8h129.3c1.6,0,3-0.7,4-1.8l-68.6-43.1L21,152.2z"/>
</svg>
