<?xml version="1.0" ?><svg enable-background="new 0 0 515.91 728.5" height="512" id="Layer_1" version="1.1" viewBox="0 0 512.00003 512" width="512" xml:space="preserve" xmlns="http://www.w3.org/2000/svg" xmlns:cc="http://creativecommons.org/ns#" xmlns:dc="http://purl.org/dc/elements/1.1/" xmlns:inkscape="http://www.inkscape.org/namespaces/inkscape" xmlns:rdf="http://www.w3.org/1999/02/22-rdf-syntax-ns#" xmlns:sodipodi="http://sodipodi.sourceforge.net/DTD/sodipodi-0.dtd" xmlns:svg="http://www.w3.org/2000/svg"><defs id="defs7"/><g id="g22292" transform="translate(3440.9078,-19057.812)"><path d="m -3246.375,19683.781 c -31.6366,0.526 -63.2188,2.533 -98.7188,8.625 -5.8903,1.624 -15.8412,3.451 -22.125,4.063 -19.0111,1.544 -37.9825,1.997 -57.2812,1.843 -6.9883,0.26 -10.5717,-0.561 -14.5312,2.563 -1.546,1.192 -1.9091,2.402 -1.875,4.5 3.3989,36.309 5.8129,85.313 0.125,126.125 -0.1195,1.27 -0.2902,3.27 0.9374,5.281 1.2277,2.01 2.8097,2.948 6.0313,3.875 1.2328,0.355 2.6705,0.932 14.7813,1 38.4609,-0.339 67.9707,-5.971 82.8124,32.094 13.0391,25.781 19.2138,34 37,53.75 13.3172,14.785 16.2849,21.229 21.7188,48.688 5.3775,27.171 6.8837,31.499 12.0625,33.468 1.5084,0.556 3.0439,0.845 4.5625,0.906 6.5814,0.272 13.1896,-3.788 19.2812,-9.406 20.4957,-20.403 7.5647,-59.969 -2.0624,-87.687 -3.9988,-10.685 -7.2813,-21.408 -7.2813,-23.844 0,-5.081 0.528,-7.223 10.6875,-8 l 57.8438,0 c 9.6458,0.05 22.2364,1.115 31.8124,-3.75 9.4095,-5.6 14.8736,-14.592 15.1876,-23.875 -18.0256,0.182 -36.0647,0.04 -54.0626,-0.06 -22.1918,2.69 -41.9115,-22.196 -33.9374,-43.094 -23.5447,-8.574 -31.8032,-41.828 -16.6563,-61.25 -11.8103,-14.528 -11.385,-37.045 -0.1563,-51.75 3.5445,-1.608 -0.3611,-3.205 -1.4062,-4.969 -2.0835,-2.845 -3.6471,-5.914 -4.75,-9.094 z" id="path21381" style="fill:#f65314;fill-opacity:1;fill-rule:evenodd;stroke-width:0.50099999;stroke-linejoin:bevel;overflow:visible" transform="translate(0,-448)"/><path d="m -3108.9287,19065.062 c 1.5186,0.06 3.0509,0.35 4.5593,0.906 5.1788,1.969 6.6735,6.288 12.051,33.46 5.4339,27.459 8.4123,33.9 21.7295,48.685 17.7861,19.75 23.9485,27.977 36.9876,53.758 14.8418,38.065 44.376,32.413 82.8371,32.074 12.1107,0.07 13.5304,0.651 14.7632,1.006 3.2216,0.928 4.7974,1.882 6.0251,3.893 1.2277,2.011 1.0528,3.982 0.9334,5.253 -5.6881,40.811 -3.266,89.825 0.1331,126.133 0.034,2.098 -0.3199,3.315 -1.8659,4.506 -3.9596,3.125 -7.5421,2.301 -14.5304,2.56 -19.2987,-0.153 -38.2588,0.322 -57.27,1.866 -6.2836,0.612 -16.2649,2.429 -22.1552,4.053 -54.6209,9.374 -99.9329,9.139 -150.5047,8.585 -10.1579,-0.214 -23.6994,2.69 -30.6084,-5.973 -6.9073,-8.661 -5.6736,-15.462 -3.626,-20.448 1.5861,-4.399 9.3277,-11.982 3.5731,-12.212 -14.8699,-1.919 -29.2945,-11.438 -27.7017,-28.607 0.9923,-18.561 14.3265,-20.09 14.3172,-23.116 0.06,-3.646 -8.4908,-5.05 -12.1577,-11.731 -6.3042,-10.419 -4.068,-30.867 10.4248,-38.02 2.9529,-2.166 2.3753,-3.932 0.64,-5.652 -20.6375,-13.686 -17.1215,-37.425 1.1731,-48.311 9.5759,-4.865 22.1347,-3.783 31.7806,-3.732 20.7031,0 37.7725,0 57.8562,0 10.1596,-0.777 10.6911,-2.918 10.6911,-7.999 0,-2.436 -3.2796,-13.178 -7.2784,-23.862 -9.6272,-27.719 -22.5494,-67.287 -2.0537,-87.69 6.0917,-5.619 12.6953,-9.656 19.2767,-9.385 z" id="path22250" style="fill:#7cbb00;fill-opacity:1;fill-rule:evenodd;stroke-width:0.50099999;stroke-linejoin:bevel;overflow:visible"/></g></svg>