<?xml version="1.0" encoding="utf-8"?>
<!-- Generator: Adobe Illustrator 19.0.0, SVG Export Plug-In . SVG Version: 6.00 Build 0)  -->
<!DOCTYPE svg PUBLIC "-//W3C//DTD SVG 1.1//EN" "http://www.w3.org/Graphics/SVG/1.1/DTD/svg11.dtd">
<svg version="1.1" id="flat" xmlns="http://www.w3.org/2000/svg" xmlns:xlink="http://www.w3.org/1999/xlink" x="0px" y="0px"
	 viewBox="-50 213.1 179.3 169.2" style="enable-background:new -50 213.1 179.3 169.2;" xml:space="preserve">
<style type="text/css">
	.st0{fill:#2C5871;}
	.st1{fill:#0E303F;}
	.st2{fill:#15B0BF;}
	.st3{fill:#1695A4;}
</style>
<g>
	<g>
		<path class="st0" d="M18.7,334.9l59.4-59.3c9.8,3.9,21.4,1.9,29.4-6.1c4.9-4.9,7.5-11.2,7.9-17.6l-11.5,11.5l-18.5-5l-4.9-18.5
			l15.7-15.7c-9.3-2.8-19.9-0.6-27.3,6.8c-7.9,7.9-9.9,19.5-6.1,29.4L3.5,319.7c-9.8-3.9-21.4-1.9-29.4,6
			c-6.2,6.2-8.8,14.8-7.7,22.9l14.7-14.7l15.2,4.1l4.1,15.2l-17.1,17.1c9.8,3.9,21.5,1.9,29.4-6C20.6,356.3,22.6,344.7,18.7,334.9z"
			/>
		<path class="st1" d="M18.7,334.9l59.4-59.3c9.8,3.9,21.4,1.9,29.4-6.1c4.9-4.9,7.5-11.2,7.9-17.6l-11.5,11.5l-18.5-5l-1.7-6.4
			l-87.1,87.1l3.8,14.1l-17.1,17.1c9.8,3.9,21.5,1.9,29.4-6C20.6,356.3,22.6,344.7,18.7,334.9z"/>
	</g>
	<g>
		<polygon class="st0" points="-0.9,237.6 -20.2,225.1 -27.1,232 -14.6,251.3 -6.8,252.3 -6.6,252.1 51.5,310.2 58,303.8 
			-0.1,245.6 0.1,245.4 		"/>
		<polygon class="st1" points="-24.5,229.4 53.9,307.9 58,303.8 -0.1,245.6 0.1,245.4 -0.9,237.6 -20.2,225.1 		"/>
		<g>
			<path class="st2" d="M76.4,305.5c-1.7-1.7-4.2-2.1-6.4-1.4c0.3-2.9-0.9-6.1-2.7-7.9c-1-1-1.8-1.8-2.4-2.4
				c-2.4-2.4-3.1-3.1-3.1-3.1c-0.7-0.7-1.5-1.5-2.4-2.4c-2.4-2.4-6.2-2.4-8.6,0c-4.9,4.9-9.9,9.9-14.8,14.8c-2.4,2.4-2.4,6.3,0,8.6
				c1,1,1.8,1.8,2.4,2.4c2.4,2.4,3.1,3.1,3.1,3.1c0.7,0.7,1.5,1.5,2.4,2.4c1.8,1.8,5.1,2.9,7.9,2.7c-1,2.3-0.6,5,1.3,6.8
				c15.3,15.1,21.3,21,36.6,36.1c2.4,2.4,7.2,3.5,10.3,2c6.5-3.3,11.8-8.6,15-15.2c1.5-3.2,0.3-8-2.1-10.3
				C97.7,326.5,91.7,320.6,76.4,305.5z"/>
			<path class="st3" d="M70.1,304.2c0.3-2.9-0.9-6.1-2.7-7.9c-1-1-1.8-1.8-2.4-2.4c-2.4-2.4-3.1-3.1-3.1-3.1
				c-0.7-0.7-1.5-1.5-2.4-2.4c-2.4-2.4-6.2-2.4-8.6,0c-2.5,2.5-5,5-7.5,7.5l65.3,65.3c2.6-2.6,4.9-5.7,6.5-9.1
				c1.5-3.2,0.3-8-2.1-10.3c-15.3-15.1-21.3-21-36.6-36.1C74.7,303.8,72.2,303.4,70.1,304.2z"/>
			<g>
				<path class="st3" d="M95.6,352.2c1.1,1.1,1.1,2.8,0,3.9l0,0c-1.1,1.1-2.8,1.1-3.9,0L62.6,327c-1.1-1.1-1.1-2.8,0-3.9l0,0
					c1.1-1.1,2.8-1.1,3.9,0L95.6,352.2z"/>
				<path class="st2" d="M103.9,343.9c1.1,1.1,1.1,2.8,0,3.9l0,0c-1.1,1.1-2.8,1.1-3.9,0l-29.1-29.1c-1.1-1.1-1.1-2.8,0-3.9l0,0
					c1.1-1.1,2.8-1.1,3.9,0L103.9,343.9z"/>
			</g>
			<g>
				<path class="st2" d="M37.8,304.8c4.9-4.9,9.9-9.8,14.8-14.8c2.4-2.4,6.3-2.4,8.6,0c-0.3-0.3-0.4-0.4-0.4-0.4
					c-0.7-0.7-0.4-0.4-1.4-1.4c-2.4-2.4-6.2-2.4-8.6,0c-4.9,4.9-9.9,9.9-14.8,14.8c-2.4,2.4-2.4,6.3,0,8.6c1,1,0.7,0.7,1.4,1.4
					c0.2,0.2,0.3,0.3,0.4,0.4C35.5,311.1,35.4,307.2,37.8,304.8z"/>
			</g>
		</g>
	</g>
</g>
</svg>
