<?xml version="1.0" encoding="utf-8"?>
<!-- Generator: Adobe Illustrator 19.0.0, SVG Export Plug-In . SVG Version: 6.00 Build 0)  -->
<!DOCTYPE svg PUBLIC "-//W3C//DTD SVG 1.1//EN" "http://www.w3.org/Graphics/SVG/1.1/DTD/svg11.dtd">
<svg version="1.1" id="flat" xmlns="http://www.w3.org/2000/svg" xmlns:xlink="http://www.w3.org/1999/xlink" x="0px" y="0px"
	 viewBox="-50 213.1 179.3 169.2" style="enable-background:new -50 213.1 179.3 169.2;" xml:space="preserve">
<style type="text/css">
	.st0{fill:#F99B1C;}
	.st1{fill:#FEC00F;}
	.st2{fill:#15B0BF;}
	.st3{fill:#1695A4;}
</style>
<g>
	<path class="st0" d="M-34.2,312.7h6.2c0.4-2.2,1.1-4.3,1.8-6.4l-5.2-3c-1.2-0.7-1.7-2.3-1-3.6l5.2-9.1c0.7-1.3,2.3-1.7,3.6-1
		l5.4,3.1c1.5-1.7,3-3.2,4.7-4.6l-3-5.2c-0.7-1.3-0.3-2.9,1-3.6l9.1-5.2c1.2-0.7,2.8-0.3,3.6,1l3.1,5.4c2.1-0.7,4.2-1.3,6.4-1.6v-6
		c0-1.4,1.2-2.6,2.6-2.6h10.4c1.5,0,2.6,1.2,2.6,2.6v6.2c2.2,0.4,4.3,1,6.4,1.8l3-5.2c0.7-1.3,2.3-1.7,3.6-1l9.1,5.2
		c1.2,0.7,1.7,2.3,1,3.6l-3.1,5.4c1.7,1.5,3.2,3,4.6,4.7l5.2-3c1.3-0.7,2.9-0.3,3.6,1l5.2,9.1c0.7,1.3,0.3,2.8-1,3.6l-5.4,3.1
		c0.7,2.1,1.2,4.2,1.6,6.4h6c1.5,0,2.6,1.2,2.6,2.6v10.5c0,1.4-1.2,2.6-2.6,2.6H56c-0.4,2.2-1,4.3-1.8,6.4l5.2,3
		c1.3,0.7,1.7,2.3,1,3.6l-5.2,9.1c-0.7,1.2-2.3,1.7-3.6,1l-5.4-3.1c-1.5,1.7-3,3.2-4.7,4.6l3,5.2c0.7,1.3,0.3,2.9-1,3.6l-9.1,5.2
		c-1.3,0.7-2.9,0.3-3.6-1l-3.1-5.4c-2.1,0.7-4.2,1.2-6.4,1.6v6c0,1.4-1.2,2.6-2.6,2.6l-10.5,0c-1.4,0-2.6-1.2-2.6-2.6v-6.2
		c-2.2-0.4-4.3-1-6.4-1.8l-3,5.2c-0.7,1.3-2.3,1.7-3.6,1l-9.1-5.2c-1.2-0.7-1.7-2.3-1-3.6l3.1-5.4c-1.7-1.5-3.2-3-4.6-4.7l-5.2,3
		c-1.3,0.7-2.8,0.3-3.6-1l-5.2-9.1c-0.7-1.2-0.3-2.8,1-3.6l5.4-3.1c-0.7-2.1-1.2-4.2-1.6-6.4h-6c-1.4,0-2.6-1.2-2.6-2.6v-10.5
		C-36.8,313.9-35.7,312.7-34.2,312.7z M14,348.2c15,0,27.1-12.2,27.1-27.1c0-15-12.1-27.1-27.1-27.1c-15,0-27.1,12.1-27.1,27.1
		C-13.1,336.1-1,348.2,14,348.2z"/>
	<path class="st1" d="M14.9,348.2c14.6-0.5,26.2-12.4,26.2-27.1c0-14.7-11.7-26.6-26.2-27.1v-23.7h4.9c1.5,0,2.6,1.2,2.6,2.6v6.2
		c2.2,0.4,4.3,1,6.4,1.8l3-5.2c0.7-1.3,2.3-1.7,3.6-1l9.1,5.2c1.2,0.7,1.7,2.3,1,3.6l-3.1,5.4c1.7,1.5,3.2,3,4.6,4.7l5.2-3
		c1.3-0.7,2.9-0.3,3.6,1l5.2,9.1c0.7,1.3,0.3,2.8-1,3.6l-5.4,3.1c0.7,2.1,1.2,4.2,1.6,6.4h6c1.5,0,2.6,1.2,2.6,2.6v10.5
		c0,1.4-1.2,2.6-2.6,2.6H56c-0.4,2.2-1,4.3-1.8,6.4l5.2,3c1.3,0.7,1.7,2.3,1,3.6l-5.2,9.1c-0.7,1.2-2.3,1.7-3.6,1l-5.4-3.1
		c-1.5,1.7-3,3.2-4.7,4.6l3,5.2c0.7,1.3,0.3,2.9-1,3.6l-9.1,5.2c-1.3,0.7-2.9,0.3-3.6-1l-3.1-5.4c-2.1,0.7-4.2,1.2-6.4,1.6v6
		c0,1.4-1.2,2.6-2.6,2.6l-3.7,0V348.2z"/>
	<path class="st0" d="M14,288.1c18.2,0,33,14.8,33,33c0,18.2-14.8,33-33,33c-18.2,0-33-14.8-33-33C-19,302.9-4.2,288.1,14,288.1z
		 M14,348.2c15,0,27.1-12.2,27.1-27.1c0-15-12.1-27.1-27.1-27.1c-15,0-27.1,12.1-27.1,27.1C-13.1,336.1-1,348.2,14,348.2z"/>
	<path class="st1" d="M14,288.1c0.3,0,0.6,0,0.9,0v5.9c-0.3,0-0.6,0-0.9,0c-15,0-27.1,12.1-27.1,27.1c0,15,12.1,27.1,27.1,27.1
		c0.3,0,0.6,0,0.9,0v5.9c-0.3,0-0.6,0-0.9,0c-18.2,0-33-14.8-33-33C-19,302.9-4.2,288.1,14,288.1z"/>
</g>
<g>
	<path class="st2" d="M42.7,251.1h5.3c1.2,0,2.5-0.9,2.9-2.1l1-2.4c0.5-1.1,0.3-2.7-0.6-3.5l-3.7-3.7c-0.9-0.9-0.9-2.3,0-3.1
		l5.7-5.8c0.9-0.9,2.3-0.9,3.1,0l3.7,3.7c0.9,0.9,2.5,1.1,3.5,0.6l2.4-1c1.2-0.4,2.1-1.7,2.1-2.9v-5.3c0-1.2,1-2.2,2.2-2.2h8.1
		c1.2,0,2.2,1,2.2,2.2v5.3c0,1.2,0.9,2.5,2.1,2.9l2.4,1c1.1,0.6,2.7,0.3,3.6-0.6l3.7-3.7c0.9-0.9,2.3-0.9,3.1,0l5.8,5.8
		c0.9,0.9,0.9,2.3,0,3.1l-3.7,3.7c-0.9,0.9-1.1,2.5-0.6,3.5l1,2.4c0.4,1.2,1.7,2.1,2.9,2.1h5.3c1.2,0,2.2,1,2.2,2.2v8.1
		c0,1.2-1,2.2-2.2,2.2H101c-1.2,0-2.5,0.9-2.9,2.1l-1,2.4c-0.5,1.1-0.3,2.7,0.6,3.6l3.7,3.7c0.9,0.9,0.9,2.3,0,3.1l-5.8,5.8
		c-0.9,0.9-2.3,0.9-3.1,0l-3.7-3.7c-0.9-0.9-2.5-1.1-3.6-0.6l-2.4,1c-1.2,0.4-2.1,1.7-2.1,2.9v5.3c0,1.2-1,2.2-2.2,2.2h-8.1
		c-1.2,0-2.2-1-2.2-2.2v-5.3c0-1.2-0.9-2.5-2.1-2.9l-2.4-1c-1.1-0.5-2.7-0.3-3.5,0.6l-3.7,3.7c-0.9,0.9-2.3,0.9-3.1,0l-5.7-5.8
		c-0.9-0.9-0.9-2.3,0-3.1l3.7-3.7c0.9-0.9,1.1-2.5,0.6-3.6l-1-2.4c-0.4-1.2-1.7-2.1-2.9-2.1h-5.3c-1.2,0-2.2-1-2.2-2.2v-8.1
		C40.5,252.1,41.5,251.1,42.7,251.1z M74.5,268.1c5.9,0,10.7-4.8,10.7-10.7c0-5.9-4.8-10.7-10.7-10.7c-5.9,0-10.7,4.8-10.7,10.7
		C63.7,263.3,68.5,268.1,74.5,268.1z"/>
	<path class="st3" d="M74.3,268.1c0,0,0.1,0,0.1,0c5.9,0,10.7-4.8,10.7-10.7c0-5.9-4.8-10.7-10.7-10.7c0,0-0.1,0-0.1,0v-23.3h4.2
		c1.2,0,2.2,1,2.2,2.2v5.3c0,1.2,0.9,2.5,2.1,2.9l2.4,1c1.1,0.6,2.7,0.3,3.6-0.6l3.7-3.7c0.9-0.9,2.3-0.9,3.1,0l5.8,5.8
		c0.9,0.9,0.9,2.3,0,3.1l-3.7,3.7c-0.9,0.9-1.1,2.5-0.6,3.5l1,2.4c0.4,1.2,1.7,2.1,2.9,2.1h5.3c1.2,0,2.2,1,2.2,2.2v8.1
		c0,1.2-1,2.2-2.2,2.2H101c-1.2,0-2.5,0.9-2.9,2.1l-1,2.4c-0.5,1.1-0.3,2.7,0.6,3.6l3.7,3.7c0.9,0.9,0.9,2.3,0,3.1l-5.8,5.8
		c-0.9,0.9-2.3,0.9-3.1,0l-3.7-3.7c-0.9-0.9-2.5-1.1-3.6-0.6l-2.4,1c-1.2,0.4-2.1,1.7-2.1,2.9v5.3c0,1.2-1,2.2-2.2,2.2h-4.2V268.1z"
		/>
</g>
</svg>
