<?xml version="1.0" ?><svg style="enable-background:new 0 0 44 44;" version="1.1" viewBox="0 0 44 44" xml:space="preserve" xmlns="http://www.w3.org/2000/svg" xmlns:xlink="http://www.w3.org/1999/xlink"><g id="info"><g><g><circle cx="22" cy="22" r="20" style="fill:#FFFFFF;"/></g><g><path d="M22,44C9.869,44,0,34.131,0,22S9.869,0,22,0s22,9.869,22,22S34.131,44,22,44z M22,2     C10.972,2,2,10.972,2,22c0,11.028,8.972,20,20,20s20-8.972,20-20C42,10.972,33.028,2,22,2z" style="fill:#00384E;"/></g><g><circle cx="22" cy="22" r="18" style="fill:#FAA85F;"/></g><g><circle cx="22" cy="14" r="3" style="fill:#FFFFFF;"/></g><g><path d="M19,23v8c0,1.105,0.895,2,2,2h4V21c0-1.105-0.895-2-2-2h-4h-2v2C17,22.105,17.895,23,19,23L19,23" style="fill:#FFFFFF;"/></g></g></g><g id="Layer_1"/></svg>