<?xml version="1.0" encoding="utf-8"?>
<!-- Generator: Adobe Illustrator 19.2.0, SVG Export Plug-In . SVG Version: 6.00 Build 0)  -->
<!DOCTYPE svg PUBLIC "-//W3C//DTD SVG 1.1//EN" "http://www.w3.org/Graphics/SVG/1.1/DTD/svg11.dtd">
<svg version="1.1" id="Layer_1" xmlns="http://www.w3.org/2000/svg" xmlns:xlink="http://www.w3.org/1999/xlink" x="0px" y="0px"
	 viewBox="0 0 55.5 64.1" style="enable-background:new 0 0 55.5 64.1;" xml:space="preserve">
<style type="text/css">
	.st0{fill:#D8D9D8;}
	.st1{opacity:0.5;fill:#010101;fill-opacity:0.4;enable-background:new    ;}
	.st2{fill:#F6891F;}
	.st3{fill:#FAA92D;}
	.st4{fill:#EAEAEA;}
	.st5{fill:#E77925;}
</style>
<g id="hexagon-flat_1_" transform="translate(173.000000, 138.000000)">
	<polygon id="Polygon-48_1_" class="st0" points="-145.3,-138 -117.5,-122 -117.5,-90 -145.3,-73.9 -173,-90 -173,-122 	"/>
</g>
<polygon class="st1" points="39.5,16.3 15.8,16.4 0,29.9 0,48 25.1,62.6 40,48.9 "/>
<g id="Marketing_Book_1_">
	<g>
		<rect x="17.5" y="15.7" class="st2" width="22.5" height="29.8"/>
		<path class="st3" d="M17.5,46V15.7c-2,0.3-3.5,2-3.5,4v25.9c0,0.1,0,0.2,0,0.3h3.5V46z"/>
		<path class="st4" d="M40,43H17c-1.6,0-3,1.3-3,3c0,1.6,1.3,3,3,3h23V43L40,43z"/>
	</g>
</g>
<g>
	<path class="st5" d="M25.6,26.6c0-0.1,0-0.2,0-0.2c0-0.1-0.1-0.1-0.1-0.2c-0.1-0.1-0.1-0.1-0.2-0.1c-0.2-0.1-0.5,0-0.7,0.1L21.7,29
		v-2.4c0-0.2-0.1-0.3-0.2-0.4c-0.2-0.2-0.6-0.2-0.9,0c-0.1,0.1-0.2,0.3-0.2,0.4V33c0,0.2,0.1,0.3,0.2,0.4c0.2,0.2,0.6,0.2,0.9,0
		c0.1-0.1,0.2-0.3,0.2-0.4v-2.2l0.5-0.5l2.3,3.1c0.1,0.2,0.3,0.3,0.5,0.3c0.1,0,0.2,0,0.2-0.1c0.1,0,0.1-0.1,0.2-0.1
		c0.1-0.1,0.1-0.1,0.1-0.2c0-0.1,0-0.2,0-0.2c0-0.1,0-0.2-0.1-0.4L23,29.4l2.4-2.4C25.6,26.9,25.6,26.7,25.6,26.6z"/>
	<path class="st5" d="M30.2,30.4c0.2-0.1,0.3-0.2,0.4-0.3c0.2-0.2,0.3-0.3,0.4-0.5s0.2-0.4,0.2-0.6c0.1-0.2,0.1-0.4,0.1-0.6
		c0-0.3-0.1-0.6-0.2-0.9s-0.3-0.5-0.5-0.8c-0.2-0.2-0.5-0.4-0.8-0.5C29.6,26,29.2,26,28.9,26h-1.8c-0.1,0-0.2,0-0.2,0
		c-0.1,0-0.1,0.1-0.2,0.1c-0.1,0.1-0.1,0.1-0.1,0.2s0,0.2,0,0.2V33c0,0.2,0.1,0.3,0.2,0.4c0.2,0.2,0.6,0.2,0.9,0
		c0.1-0.1,0.2-0.3,0.2-0.4v-2.2h1.2l1.6,2.6c0.1,0.2,0.3,0.3,0.5,0.3c0.1,0,0.2,0,0.2,0c0.1,0,0.1-0.1,0.2-0.1
		c0.1-0.1,0.1-0.1,0.1-0.2c0-0.1,0-0.2,0-0.2c0-0.1,0-0.2-0.1-0.3L30.2,30.4z M30.1,28.4c0,0.2,0,0.3-0.1,0.4s-0.1,0.3-0.3,0.4
		c-0.1,0.1-0.2,0.2-0.4,0.3c-0.1,0.1-0.3,0.1-0.5,0.1h-1.2v-2.3h1.2c0.2,0,0.3,0,0.5,0.1c0.1,0.1,0.3,0.1,0.4,0.3
		c0.1,0.1,0.2,0.2,0.3,0.4C30.1,28.1,30.1,28.2,30.1,28.4z"/>
	<path class="st5" d="M37.1,31.2c0-0.3-0.1-0.6-0.2-0.9c-0.1-0.3-0.3-0.6-0.7-0.8c-0.3-0.3-0.8-0.5-1.3-0.7
		c-0.3-0.1-0.5-0.2-0.6-0.3c-0.1-0.1-0.2-0.3-0.2-0.5c0-0.1,0-0.2,0.1-0.3c0-0.1,0.1-0.2,0.2-0.3c0.1-0.1,0.2-0.1,0.3-0.2
		c0.2-0.1,0.5-0.1,0.7,0c0.1,0,0.2,0.1,0.3,0.2c0,0.1,0.1,0.1,0.1,0.2s0.1,0.1,0.1,0.1s0.1,0.1,0.2,0.1c0.1,0.1,0.3,0,0.4,0
		c0.1,0,0.1-0.1,0.2-0.1c0.1-0.1,0.1-0.1,0.1-0.2s0-0.2,0-0.2c0-0.1,0-0.2-0.1-0.3c-0.1-0.2-0.2-0.3-0.4-0.4
		c-0.1-0.1-0.3-0.2-0.4-0.3c-0.2-0.1-0.3-0.1-0.5-0.2c-0.2,0-0.3-0.1-0.5-0.1c-0.5,0-1,0.2-1.3,0.5l-0.2,0.2l0,0
		c-0.1,0.1-0.2,0.3-0.3,0.5c-0.1,0.3-0.2,0.6-0.2,0.9s0,0.5,0.1,0.8c0.1,0.2,0.3,0.5,0.5,0.7s0.6,0.4,1.1,0.5
		c0.4,0.1,0.6,0.2,0.8,0.4c0.2,0.1,0.3,0.3,0.3,0.4c0.1,0.1,0.1,0.3,0.1,0.4c0,0.2,0,0.3-0.1,0.5c-0.1,0.1-0.1,0.3-0.2,0.4
		c-0.1,0.1-0.2,0.2-0.4,0.3c-0.3,0.1-0.7,0.1-1,0c-0.2-0.1-0.3-0.2-0.4-0.4c-0.1-0.2-0.3-0.3-0.5-0.3c-0.1,0-0.2,0-0.2,0
		c-0.1,0-0.1,0.1-0.2,0.1c-0.1,0.1-0.1,0.1-0.1,0.2s0,0.2,0,0.2c0,0.1,0,0.3,0.1,0.4c0.1,0.2,0.2,0.3,0.4,0.5
		c0.2,0.1,0.3,0.3,0.5,0.3c0.2,0.1,0.4,0.2,0.6,0.2c0.2,0,0.4,0.1,0.6,0.1c0.6,0,1.1-0.2,1.5-0.6l0.3-0.2l0,0
		C36.9,32.4,37.1,31.8,37.1,31.2z"/>
</g>
</svg>
