<?xml version="1.0" encoding="utf-8"?>
<!-- Generator: Adobe Illustrator 17.0.2, SVG Export Plug-In . SVG Version: 6.00 Build 0)  -->
<!DOCTYPE svg PUBLIC "-//W3C//DTD SVG 1.1//EN" "http://www.w3.org/Graphics/SVG/1.1/DTD/svg11.dtd">
<svg version="1.1" id="Warstwa_1" xmlns="http://www.w3.org/2000/svg" xmlns:xlink="http://www.w3.org/1999/xlink" x="0px" y="0px"
	 width="44.4px" height="49.801px" viewBox="0 0 44.4 49.801" style="enable-background:new 0 0 44.4 49.801;" xml:space="preserve"
	>
<g>
	<g>
		<path style="fill:#555555;" d="M41.048,4.596h-4.315V3.57c0-0.596-0.482-1.08-1.078-1.08H7.343c-2.824,0-5.123,2.302-5.123,5.131
			V42.18c0,2.83,2.299,5.131,5.123,5.131h28.311c0.596,0,1.078-0.483,1.078-1.08v-1.558h4.315c0.625,0,1.133-0.508,1.133-1.136
			V5.731C42.18,5.104,41.673,4.596,41.048,4.596z M8.152,45.15H7.343c-1.635,0-2.966-1.332-2.966-2.971V7.621
			c0-1.638,1.331-2.972,2.966-2.972h0.808L8.152,45.15L8.152,45.15z M34.576,5.384c-0.035,0.11-0.055,0.227-0.055,0.347v37.806
			c0,0.122,0.019,0.238,0.055,0.348v1.264H10.309V4.65h24.267V5.384z M39.915,42.401h-3.127V37.11h3.127V42.401z M39.915,34.841
			h-3.127v-5.292h3.127V34.841z M39.915,27.28h-3.127v-5.292h3.127V27.28z M39.915,19.719h-3.127v-5.291h3.127V19.719z
			 M39.915,12.157h-3.127V6.865h3.127V12.157z M14.01,35.894h16.178c0.596,0,1.078-0.483,1.078-1.079v-5.536
			c0-4.038-2.156-5.967-3.966-6.873c-0.392-0.196-0.782-0.353-1.156-0.475c1.04-1.039,1.686-2.476,1.686-4.061
			c0-3.165-2.569-5.738-5.73-5.738c-3.16,0-5.729,2.573-5.729,5.738c0,1.585,0.644,3.02,1.685,4.061
			c-0.374,0.124-0.766,0.281-1.156,0.475c-1.81,0.906-3.966,2.833-3.966,6.873v5.536C12.931,35.409,13.414,35.894,14.01,35.894z
			 M22.098,14.29c1.97,0,3.573,1.606,3.573,3.579c0,1.972-1.602,3.578-3.573,3.578c-1.969,0-3.573-1.605-3.573-3.578
			C18.526,15.896,20.128,14.29,22.098,14.29z M15.088,29.278c0-2.331,0.914-3.983,2.716-4.91c1.439-0.741,2.936-0.76,2.947-0.76
			h2.693c0.016,0,1.514,0.019,2.951,0.76c1.802,0.927,2.715,2.579,2.715,4.91v4.456H15.088V29.278z"/>
	</g>
</g>
</svg>
