<?xml version="1.0" encoding="utf-8"?>
<!-- Generator: Adobe Illustrator 19.2.0, SVG Export Plug-In . SVG Version: 6.00 Build 0)  -->
<!DOCTYPE svg PUBLIC "-//W3C//DTD SVG 1.1//EN" "http://www.w3.org/Graphics/SVG/1.1/DTD/svg11.dtd">
<svg version="1.1" id="Layer_1" xmlns="http://www.w3.org/2000/svg" xmlns:xlink="http://www.w3.org/1999/xlink" x="0px" y="0px"
	 viewBox="0 0 173 98.2" style="enable-background:new 0 0 173 98.2;" xml:space="preserve">
<style type="text/css">
	.st0{fill:#A8D7D8;}
	.st1{fill:#FFFFFF;}
	.st2{fill:#EDEAE9;}
	.st3{fill:#E5E5E5;}
	.st4{fill:#DCDBDB;}
	.st5{fill:#CFD0D0;}
	.st6{fill:#FFFFFF;fill-opacity:0.302;}
	.st7{fill:#E77925;}
	.st8{fill:#F6891F;}
	.st9{fill:#E6E6E5;}
	.st10{fill:#F3F3F3;}
	.st11{fill:#C4C4C4;}
	.st12{fill:#989898;}
	.st13{fill:#D7D6D6;}
	.st14{fill:#B4B4B4;}
</style>
<path class="st0" d="M45.8,18.8c-1.1,0-2.2,0.2-3.2,0.6c0-0.2,0.1-0.4,0.1-0.6c0-4.7-3.8-8.5-8.5-8.5c-2.9,0-5.4,1.4-6.9,3.6
	c-1.5-2.2-4.1-3.6-6.9-3.6c-4.4,0-7.9,3.3-8.4,7.5c-1-0.4-2.1-0.6-3.2-0.6C3.8,17.1,0,21,0,25.7s3.8,8.5,8.5,8.5
	c1.1,0,2.2-0.2,3.2-0.6c0,0.2-0.1,0.4-0.1,0.6c0,4.7,3.8,8.5,8.5,8.5c2.9,0,5.4-1.4,6.9-3.6c1.5,2.2,4.1,3.6,6.9,3.6
	c4.4,0,7.9-3.3,8.4-7.5c1,0.4,2.1,0.6,3.2,0.6c4.7,0,8.5-3.8,8.5-8.5C54.3,22.6,50.5,18.8,45.8,18.8z"/>
<path class="st1" d="M127.2,31.1c-1,0-1.9,0.2-2.8,0.6c0-0.2,0.1-0.4,0.1-0.6c0-4.2-3.4-7.5-7.5-7.5c-2.5,0-4.8,1.3-6.1,3.2
	c-1.4-1.9-3.6-3.2-6.1-3.2c-3.9,0-7,2.9-7.5,6.6c-0.9-0.4-1.8-0.6-2.8-0.6c-4.2,0-7.5,3.4-7.5,7.5c0,4.2,3.4,7.5,7.5,7.5
	c1,0,1.9-0.2,2.8-0.6c0,0.2-0.1,0.4-0.1,0.6c0,4.2,3.4,7.5,7.5,7.5c2.5,0,4.8-1.3,6.1-3.2c1.4,1.9,3.6,3.2,6.1,3.2
	c3.9,0,7-2.9,7.5-6.6c0.9,0.4,1.8,0.6,2.8,0.6c4.2,0,7.5-3.4,7.5-7.5S131.3,31.1,127.2,31.1z"/>
<g id="Law_Court_1_">
	<g id="Law_Court_2_">
		<rect id="_118476472" x="52.2" y="41.7" class="st2" width="54.8" height="46.5"/>
		<path id="_118476568" class="st3" d="M36.5,94.4h87c0.2,0,0.3,0.1,0.3,0.3V98c0,0.2-0.1,0.3-0.3,0.3h-87c-0.2,0-0.3-0.1-0.3-0.3
			v-3.3C36.2,94.5,36.3,94.4,36.5,94.4z"/>
		<path id="_118476664" class="st4" d="M41.2,91h77.6c0.1,0,0.2,0.1,0.2,0.2v3c0,0.1-0.1,0.2-0.2,0.2H41.2c-0.1,0-0.2-0.1-0.2-0.2
			v-3C41,91.1,41.1,91,41.2,91z"/>
		<path id="_118476760" class="st5" d="M45.5,87.7h69c0.2,0,0.3,0.2,0.3,0.3v2.8c0,0.2-0.2,0.3-0.3,0.3h-69c-0.2,0-0.3-0.2-0.3-0.3
			V88C45.2,87.8,45.3,87.7,45.5,87.7z"/>
		<polygon id="_118476856" class="st4" points="79.6,6.3 105.8,24.4 132.1,42.6 79.6,42.6 27.2,42.6 53.4,24.4 		"/>
		<polygon id="_118476952" class="st6" points="79.6,42.6 27.2,42.6 53.4,24.4 79.6,6.3 		"/>
		<circle id="_118477048" class="st7" cx="79.6" cy="26.6" r="12"/>
		<path id="_118477144" class="st8" d="M79.6,14.6c0.7,0,1.3,0.1,2,0.2l-6,23.1c-4.7-1.6-8-6.1-8-11.3C67.6,20,73,14.6,79.6,14.6
			L79.6,14.6z"/>
		<g>
			<path id="_118477288" class="st1" d="M79.4,21.7h0.4c0.3,0,0.5,0.2,0.5,0.5V33c0,0.3-0.2,0.5-0.5,0.5h-0.4
				c-0.3,0-0.5-0.2-0.5-0.5V22.3C78.9,22,79.1,21.7,79.4,21.7L79.4,21.7z"/>
			<path id="_118477384" class="st1" d="M77.4,33h4.4c0.5,0,0.9,0.3,0.9,0.7l0,0c0,0.4-0.4,0.7-0.9,0.7h-4.4c-0.5,0-0.9-0.3-0.9-0.7
				l0,0C76.5,33.3,76.9,33,77.4,33z"/>
			<circle id="_118477480" class="st1" cx="79.6" cy="21" r="1.3"/>
			<rect id="_118477576" x="73.2" y="20.8" class="st1" width="12.8" height="0.4"/>
			<polygon id="_118477672" class="st1" points="83.5,26.5 85.9,21.1 86,20.8 86.1,21.1 88.6,26.5 88.3,26.5 86,21.4 83.7,26.5 			
				"/>
			<polygon id="_118477768" class="st1" points="70.6,26.5 73.1,21.1 73.2,20.8 73.3,21.1 75.8,26.5 75.5,26.5 73.2,21.4 70.9,26.5 
							"/>
			<polygon id="_118477864" class="st1" points="81.8,26.5 82.7,28.1 86,28.1 89.3,28.1 90.2,26.5 86,26.5 			"/>
			<polygon id="_118477960" class="st1" points="69,26.5 69.9,28.1 73.2,28.1 76.5,28.1 77.4,26.5 73.2,26.5 			"/>
		</g>
		<path id="_118479856" class="st4" d="M46,88.1L46,88.1c0.2,0,0.4,0.2,0.4,0.4v2.1c0,0.2-0.2,0.4-0.4,0.4l0,0
			c-0.2,0-0.4-0.2-0.4-0.4v-2.1C45.6,88.2,45.7,88.1,46,88.1z"/>
		<path id="_118480528" class="st9" d="M41.6,91.3L41.6,91.3c0.2,0,0.4,0.2,0.4,0.4v2.1c0,0.2-0.2,0.4-0.4,0.4l0,0
			c-0.2,0-0.4-0.2-0.4-0.4v-2.1C41.2,91.5,41.4,91.3,41.6,91.3z"/>
		<path id="_118480624" class="st10" d="M36.9,94.8L36.9,94.8c0.2,0,0.4,0.2,0.4,0.4v2.1c0,0.2-0.2,0.4-0.4,0.4l0,0
			c-0.2,0-0.4-0.2-0.4-0.4v-2.1C36.5,95,36.6,94.8,36.9,94.8z"/>
	</g>
	<g id="Piillars">
		<g>
			<path id="_118478080" class="st11" d="M45.6,83.7h13.3c0.2,0,0.4,0.2,0.4,0.4v3.3c0,0.2-0.2,0.4-0.4,0.4H45.6
				c-0.2,0-0.4-0.2-0.4-0.4v-3.3C45.2,83.9,45.4,83.7,45.6,83.7z"/>
			<path id="_118478176" class="st11" d="M45.6,42.6h13.3c0.2,0,0.4,0.2,0.4,0.4v3.3c0,0.2-0.2,0.4-0.4,0.4H45.6
				c-0.2,0-0.4-0.2-0.4-0.4V43C45.2,42.8,45.4,42.6,45.6,42.6z"/>
			<rect id="_118478272" x="49.3" y="46.7" class="st12" width="5.9" height="37.1"/>
			<path id="_118478368" class="st13" d="M46.1,43.1L46.1,43.1c0.2,0,0.4,0.2,0.4,0.4v2.3c0,0.2-0.2,0.4-0.4,0.4l0,0
				c-0.2,0-0.4-0.2-0.4-0.4v-2.3C45.7,43.3,45.8,43.1,46.1,43.1z"/>
			<path id="_118478464" class="st14" d="M50.3,47.2L50.3,47.2c0.2,0,0.4,0.2,0.4,0.4v35.2c0,0.2-0.2,0.4-0.4,0.4l0,0
				c-0.2,0-0.4-0.2-0.4-0.4V47.6C49.9,47.4,50.1,47.2,50.3,47.2z"/>
			<path id="_118478560" class="st13" d="M46.1,84.2L46.1,84.2c0.2,0,0.4,0.2,0.4,0.4v2.3c0,0.2-0.2,0.4-0.4,0.4l0,0
				c-0.2,0-0.4-0.2-0.4-0.4v-2.3C45.7,84.3,45.8,84.2,46.1,84.2z"/>
		</g>
		<g>
			<path id="_118478680" class="st11" d="M64,83.6h13.3c0.2,0,0.4,0.2,0.4,0.4v3.3c0,0.2-0.2,0.4-0.4,0.4H64c-0.2,0-0.4-0.2-0.4-0.4
				V84C63.6,83.8,63.8,83.6,64,83.6z"/>
			<path id="_118478776" class="st11" d="M64,42.4h13.3c0.2,0,0.4,0.2,0.4,0.4v3.3c0,0.2-0.2,0.4-0.4,0.4H64c-0.2,0-0.4-0.2-0.4-0.4
				v-3.3C63.6,42.6,63.8,42.4,64,42.4z"/>
			<rect id="_118478872" x="67.7" y="46.5" class="st12" width="5.9" height="37.1"/>
			<path id="_118478968" class="st13" d="M64.5,43L64.5,43c0.2,0,0.4,0.2,0.4,0.4v2.3c0,0.2-0.2,0.4-0.4,0.4l0,0
				c-0.2,0-0.4-0.2-0.4-0.4v-2.3C64.1,43.1,64.3,43,64.5,43z"/>
			<path id="_118479064" class="st14" d="M68.7,47.1L68.7,47.1c0.2,0,0.4,0.2,0.4,0.4v35.2c0,0.2-0.2,0.4-0.4,0.4l0,0
				c-0.2,0-0.4-0.2-0.4-0.4V47.5C68.3,47.2,68.5,47.1,68.7,47.1z"/>
			<path id="_118479160" class="st13" d="M64.5,84L64.5,84c0.2,0,0.4,0.2,0.4,0.4v2.3c0,0.2-0.2,0.4-0.4,0.4l0,0
				c-0.2,0-0.4-0.2-0.4-0.4v-2.3C64.1,84.2,64.3,84,64.5,84z"/>
		</g>
		<g>
			<path id="_118479280" class="st11" d="M82.8,83.6h13.3c0.2,0,0.4,0.2,0.4,0.4v3.3c0,0.2-0.2,0.4-0.4,0.4H82.8
				c-0.2,0-0.4-0.2-0.4-0.4V84C82.4,83.8,82.6,83.6,82.8,83.6z"/>
			<path id="_118479376" class="st11" d="M82.8,42.4h13.3c0.2,0,0.4,0.2,0.4,0.4v3.3c0,0.2-0.2,0.4-0.4,0.4H82.8
				c-0.2,0-0.4-0.2-0.4-0.4v-3.3C82.4,42.6,82.6,42.4,82.8,42.4z"/>
			<rect id="_118479472" x="86.5" y="46.5" class="st12" width="5.9" height="37.1"/>
			<path id="_118479568" class="st13" d="M83.3,43L83.3,43c0.2,0,0.4,0.2,0.4,0.4v2.3c0,0.2-0.2,0.4-0.4,0.4l0,0
				c-0.2,0-0.4-0.2-0.4-0.4v-2.3C82.9,43.1,83.1,43,83.3,43z"/>
			<path id="_118479664" class="st14" d="M87.6,47.1L87.6,47.1c0.2,0,0.4,0.2,0.4,0.4v35.2c0,0.2-0.2,0.4-0.4,0.4l0,0
				c-0.2,0-0.4-0.2-0.4-0.4V47.5C87.2,47.2,87.4,47.1,87.6,47.1z"/>
			<path id="_118479760" class="st13" d="M83.3,84L83.3,84c0.2,0,0.4,0.2,0.4,0.4v2.3c0,0.2-0.2,0.4-0.4,0.4l0,0
				c-0.2,0-0.4-0.2-0.4-0.4v-2.3C82.9,84.2,83.1,84,83.3,84z"/>
		</g>
		<g>
			<path id="_118479880" class="st11" d="M101.2,83.7h13.3c0.2,0,0.4,0.2,0.4,0.4v3.3c0,0.2-0.2,0.4-0.4,0.4h-13.3
				c-0.2,0-0.4-0.2-0.4-0.4v-3.3C100.8,83.9,101,83.7,101.2,83.7z"/>
			<path id="_118479976" class="st11" d="M101.2,42.6h13.3c0.2,0,0.4,0.2,0.4,0.4v3.3c0,0.2-0.2,0.4-0.4,0.4h-13.3
				c-0.2,0-0.4-0.2-0.4-0.4V43C100.8,42.8,101,42.6,101.2,42.6z"/>
			<rect id="_118480072" x="104.9" y="46.7" class="st12" width="5.9" height="37.1"/>
			<path id="_118480168" class="st13" d="M101.7,43.1L101.7,43.1c0.2,0,0.4,0.2,0.4,0.4v2.3c0,0.2-0.2,0.4-0.4,0.4l0,0
				c-0.2,0-0.4-0.2-0.4-0.4v-2.3C101.3,43.3,101.4,43.1,101.7,43.1z"/>
			<path id="_118480264" class="st14" d="M105.9,47.2L105.9,47.2c0.2,0,0.4,0.2,0.4,0.4v35.2c0,0.2-0.2,0.4-0.4,0.4l0,0
				c-0.2,0-0.4-0.2-0.4-0.4V47.6C105.5,47.4,105.7,47.2,105.9,47.2z"/>
			<path id="_118480360" class="st13" d="M101.7,84.2L101.7,84.2c0.2,0,0.4,0.2,0.4,0.4v2.3c0,0.2-0.2,0.4-0.4,0.4l0,0
				c-0.2,0-0.4-0.2-0.4-0.4v-2.3C101.3,84.3,101.4,84.2,101.7,84.2z"/>
		</g>
	</g>
</g>
<path class="st0" d="M167.7,5.4c-0.7,0-1.4,0.1-2,0.4c0-0.1,0-0.3,0-0.4c0-3-2.4-5.4-5.4-5.4c-1.8,0-3.4,0.9-4.4,2.3
	c-1-1.4-2.6-2.3-4.4-2.3c-2.8,0-5,2.1-5.3,4.7c-0.6-0.3-1.3-0.4-2-0.4c-3,0-5.4,2.4-5.4,5.4s2.4,5.4,5.4,5.4c0.7,0,1.4-0.1,2-0.4
	c0,0.1,0,0.3,0,0.4c0,3,2.4,5.4,5.4,5.4c1.8,0,3.4-0.9,4.4-2.3c1,1.4,2.6,2.3,4.4,2.3c2.8,0,5-2.1,5.3-4.7c0.6,0.3,1.3,0.4,2,0.4
	c3,0,5.4-2.4,5.4-5.4C173,7.8,170.6,5.4,167.7,5.4z"/>
</svg>
