<?xml version="1.0" ?><svg enable-background="new 0 0 32 32" version="1.1" viewBox="0 0 32 32" xml:space="preserve" xmlns="http://www.w3.org/2000/svg" xmlns:xlink="http://www.w3.org/1999/xlink"><g id="Outline_Color"><g><circle cx="16" cy="16" fill="#FFFFFF" r="15.5"/></g><g><path d="M16,1c8.271,0,15,6.729,15,15s-6.729,15-15,15S1,24.271,1,16S7.729,1,16,1 M16,0C7.163,0,0,7.163,0,16s7.163,16,16,16    s16-7.163,16-16S24.837,0,16,0L16,0z"/></g><g><circle cx="16" cy="16" fill="#FFAA00" r="13.853"/></g><g><polygon points="13.32,12.141 6.242,15.205 6.242,16.909 13.32,19.986 13.32,17.994 8.383,16.036 13.32,14.148 13.32,12.141   "/></g><g><polygon points="18.018,10.662 16.531,10.662 13.975,21.338 15.433,21.338 18.018,10.662   "/></g><g><polygon points="18.673,12.155 18.673,14.134 23.617,16.056 18.673,18 18.673,19.994 25.758,16.909 25.758,15.218 18.673,12.155       "/></g></g></svg>