<?xml version="1.0" encoding="utf-8"?>
<!-- Generator: Adobe Illustrator 18.1.1, SVG Export Plug-In . SVG Version: 6.00 Build 0)  -->
<!DOCTYPE svg PUBLIC "-//W3C//DTD SVG 1.1//EN" "http://www.w3.org/Graphics/SVG/1.1/DTD/svg11.dtd">
<svg version="1.1" id="Layer_1" xmlns="http://www.w3.org/2000/svg" xmlns:xlink="http://www.w3.org/1999/xlink" x="0px" y="0px"
	 viewBox="0 0 26.7 22.5" enable-background="new 0 0 26.7 22.5" xml:space="preserve">
<g>
	<path fill="#FFFFFF" d="M19.1,5.8V3.3c0,0,0,0,0,0c0,0,0,0,0,0c0-2.1-4.3-3.3-8.4-3.3C6.6,0,2.3,1.1,2.3,3.3c0,2.1,4.3,3.2,8.4,3.2
		c2.9,0,5.9-0.6,7.4-1.7v0.9c-2.4,0.1-4.6,1.1-6,2.8c-0.4,0-0.9,0-1.3,0c-4.6,0-7.4-1.3-7.4-2.2c0-0.2-0.1-0.3-0.2-0.4
		c0.2-0.1,0.3-0.4,0.2-0.6C3.2,5.1,2.9,5,2.6,5.1C0.5,5.8,0,6.8,0,7.5c0,2.1,4.3,3.2,8.4,3.2c0.8,0,1.6,0,2.3-0.1
		c-0.3,0.7-0.5,1.4-0.7,2.2c-0.5,0-1.1,0.1-1.7,0.1c-4.6,0-7.4-1.3-7.4-2.2c0-0.3-0.2-0.5-0.5-0.5c-0.3,0-0.5,0.2-0.5,0.5
		c0,1,1,1.8,2.5,2.4c0,0.1,0,0.2,0.1,0.3c0.9,1.3,3.8,2.3,7.5,2.4c0.1,0.7,0.4,1.4,0.7,2.1c-4.5-0.1-7.4-1.4-7.4-2.2
		c0-0.3-0.2-0.5-0.5-0.5c-0.3,0-0.5,0.2-0.5,0.5c0,2,4.5,3.2,8.8,3.2c0.1,0,0.1,0,0.2,0c1.5,2.3,4.1,3.9,7,3.9
		c4.6,0,8.4-3.8,8.4-8.4C26.7,9.8,23.3,6.2,19.1,5.8z M10.7,5.5c-4.6,0-7.4-1.3-7.4-2.2C3.3,2.3,6.1,1,10.7,1c4.6,0,7.4,1.3,7.4,2.3
		C18.1,4.2,15.3,5.5,10.7,5.5z M1,7.5c0-0.4,0.5-0.8,1.3-1.2c0,0,0,0.1,0,0.1c0,2.1,4.2,3.2,8.2,3.2C9.8,9.7,9.1,9.7,8.4,9.7
		C3.8,9.7,1,8.4,1,7.5z M11.2,9.6C11.2,9.6,11.3,9.6,11.2,9.6C11.3,9.6,11.3,9.6,11.2,9.6C11.2,9.6,11.2,9.6,11.2,9.6z M4.5,13.5
		c1.2,0.2,2.6,0.4,3.9,0.4c0.5,0,1,0,1.6-0.1c0,0.1,0,0.2,0,0.3c0,0.2,0,0.3,0,0.4C7.5,14.5,5.6,14,4.5,13.5z M18.3,21.5
		c-4.1,0-7.4-3.3-7.4-7.4s3.3-7.4,7.4-7.4s7.4,3.3,7.4,7.4S22.4,21.5,18.3,21.5z"/>
	<path fill="#FFFFFF" d="M17.8,16.1h-3l3.2-3.9c0.1-0.1,0.2-0.3,0.2-0.5v0c0-0.2-0.2-0.4-0.5-0.4H14c-0.2,0-0.4,0.2-0.4,0.5
		c0,0.2,0.2,0.4,0.4,0.4h2.9l-3.2,3.9c-0.1,0.1-0.2,0.3-0.2,0.5v0c0,0.2,0.2,0.4,0.5,0.4h3.9c0.2,0,0.4-0.2,0.4-0.4
		C18.3,16.3,18.1,16.1,17.8,16.1z"/>
	<path fill="#FFFFFF" d="M22.6,16.1H20v-1.7l1.4-0.4c0.2,0,0.3-0.2,0.3-0.4c0-0.2-0.2-0.4-0.4-0.4c0,0-0.1,0-0.2,0L20,13.5v-1.7
		c0-0.3-0.2-0.5-0.5-0.5c-0.3,0-0.5,0.2-0.5,0.5v2.1l-0.3,0.1c-0.2,0.1-0.3,0.2-0.3,0.4c0,0.3,0.2,0.5,0.4,0.5c0,0,0.1,0,0.2,0l0,0
		v1.8c0,0.3,0.2,0.5,0.5,0.5h3.1c0.3,0,0.5-0.2,0.5-0.5C23.1,16.3,22.9,16.1,22.6,16.1z"/>
</g>
</svg>
