<?xml version="1.0" encoding="utf-8"?>
<!-- Generator: Adobe Illustrator 19.2.0, SVG Export Plug-In . SVG Version: 6.00 Build 0)  -->
<!DOCTYPE svg PUBLIC "-//W3C//DTD SVG 1.1//EN" "http://www.w3.org/Graphics/SVG/1.1/DTD/svg11.dtd">
<svg version="1.1" id="Layer_1" xmlns="http://www.w3.org/2000/svg" xmlns:xlink="http://www.w3.org/1999/xlink" x="0px" y="0px"
	 viewBox="0 0 55.5 64.1" style="enable-background:new 0 0 55.5 64.1;" xml:space="preserve">
<style type="text/css">
	.st0{fill:#3E9C46;}
	.st1{opacity:0.5;fill:#010101;fill-opacity:0.4;enable-background:new    ;}
	.st2{fill:#F39D1F;}
	.st3{fill:#056A38;}
	.st4{fill:url(#_x24__2_);}
</style>
<g id="hexagon-flat_17_" transform="translate(173.000000, 138.000000)">
	<polygon id="Polygon-48_17_" class="st0" points="-145.4,-138 -117.6,-122 -117.6,-90 -145.4,-74 -173.1,-90 -173.1,-122 	"/>
</g>
<g>
	<g>
		<polygon class="st1" points="44.3,40.1 45.2,37.6 47.4,35 46,29.8 43.8,23.4 36.4,17.5 27.4,12.9 15.8,16.6 -0.1,31.4 -0.1,48 
			27.6,64 42.5,46.3 43,43.4 		"/>
	</g>
</g>
<g id="dollar-exchange">
	<g>
		<g id="_x32_0">
			<path class="st2" d="M11.4,31.6l-4.1-0.5c1-10.2,9.6-18.2,20-18.2c6.8,0,12.8,3.4,16.4,8.6l2.3-1.6c0.5-0.3,0.8-0.1,0.8,0.5v8.7
				c0,0.6-0.5,0.9-1,0.7l-8.1-3c-0.6-0.2-0.6-0.6-0.2-0.9l2.8-2c-2.9-4.1-7.7-6.8-13.1-6.8C19,17,12.2,23.4,11.4,31.6z"/>
			<path class="st3" d="M43.3,34.5c-0.7,8.2-7.6,14.6-16,14.6c-5.4,0-10.2-2.7-13.1-6.8l2.8-2c0.5-0.3,0.4-0.7-0.2-0.9l-8.1-3
				c-0.6-0.2-1,0.1-1,0.7v8.7c0,0.6,0.4,0.8,0.8,0.5l2.3-1.6c3.6,5.2,9.6,8.6,16.4,8.6c10.5,0,19.1-8,20-18.2L43.3,34.5z"/>
			
				<linearGradient id="_x24__2_" gradientUnits="userSpaceOnUse" x1="18.3" y1="38.549" x2="36.3595" y2="38.549" gradientTransform="matrix(1 0 0 1 0 -6.099)">
				<stop  offset="0.5" style="stop-color:#FFFFFF"/>
				<stop  offset="0.5" style="stop-color:#EBEBEB"/>
			</linearGradient>
			<path id="_x24__1_" class="st4" d="M27.3,23.4c-5,0-9,4.1-9,9.1s4.1,9,9.1,9s9-4.1,9-9.1S32.3,23.4,27.3,23.4z M31.6,35.1
				c-0.1,0.7-0.3,1.3-0.8,1.9c-0.5,0.5-1.2,0.8-2.1,1v1h-1.9v-1c-1.1-0.2-1.8-0.7-2.3-1.4c-0.4-0.7-0.7-1.5-0.7-2.2h1.9
				c0,0.5,0.1,0.8,0.3,1.1c0.2,0.3,0.4,0.5,0.7,0.6v-2.9c-0.1,0-0.3-0.1-0.4-0.2c-0.1-0.1-0.3-0.1-0.4-0.2c-0.7-0.3-1.2-0.6-1.5-1.1
				c-0.3-0.5-0.5-1.1-0.4-1.8c0-0.6,0.3-1.2,0.7-1.7c0.4-0.6,1.1-0.9,2.1-1.1v-0.9h1.9v1c1,0.2,1.7,0.7,2.1,1.5s0.5,1.4,0.5,1.8
				h-1.8c0-0.3-0.1-0.6-0.2-0.9S29,29.1,28.7,29v2.9c0.2,0.1,0.4,0.1,0.6,0.2c0.2,0.1,0.4,0.2,0.6,0.2c0.6,0.3,1.1,0.7,1.4,1.2
				C31.5,33.9,31.7,34.4,31.6,35.1z M29.5,34.3c0.1,0.2,0.2,0.5,0.1,0.9c0,0.2-0.1,0.4-0.3,0.6c-0.2,0.2-0.4,0.3-0.7,0.4v-2.4
				c0.1,0,0.1,0,0.1,0.1c0,0,0,0,0.1,0C29.1,33.8,29.4,34,29.5,34.3z M26.7,28.8v2.4c-0.3-0.1-0.5-0.3-0.7-0.5s-0.3-0.4-0.3-0.7
				c0-0.3,0.1-0.5,0.2-0.7C26.2,29.1,26.4,28.9,26.7,28.8z"/>
		</g>
	</g>
</g>
</svg>
