<?xml version="1.0" encoding="utf-8"?>
<!-- Generator: Adobe Illustrator 19.2.0, SVG Export Plug-In . SVG Version: 6.00 Build 0)  -->
<!DOCTYPE svg PUBLIC "-//W3C//DTD SVG 1.1//EN" "http://www.w3.org/Graphics/SVG/1.1/DTD/svg11.dtd">
<svg version="1.1" id="Layer_1" xmlns="http://www.w3.org/2000/svg" xmlns:xlink="http://www.w3.org/1999/xlink" x="0px" y="0px"
	 viewBox="0 0 73.7 92.4" style="enable-background:new 0 0 73.7 92.4;" xml:space="preserve">
<style type="text/css">
	.st0{fill:#056A38;}
	.st1{fill:#0A7C3F;}
	.st2{fill:#8ABD47;}
	.st3{fill:#93C142;}
	.st4{clip-path:url(#SVGID_2_);}
	.st5{fill:#3E9C46;}
	.st6{fill:#F39D1F;}
	.st7{opacity:0.67;fill:#E38425;enable-background:new    ;}
	.st8{fill:#FCCA76;}
	.st9{opacity:0.5;fill:#F8C187;enable-background:new    ;}
	.st10{fill:#D07428;}
	.st11{clip-path:url(#SVGID_4_);fill:#CA6428;}
	.st12{clip-path:url(#SVGID_6_);fill:#C56628;}
	.st13{fill:#D7B997;}
	.st14{fill:#F1D2AF;}
	.st15{fill:#C9A67F;}
</style>
<g id="Layer_2">
	<g>
		<g>
			<path class="st0" d="M30.6,6.8L1.9,69.9c-0.9,2,0,4.4,2,5.3l27.6,12.6c2,0.9,4.4,0,5.3-2l28.8-63.1c0.9-2,0-4.4-2-5.3L35.9,4.8
				C33.9,3.9,31.6,4.8,30.6,6.8z"/>
			<path class="st1" d="M16.3,9.2l-3.7,69.2c-0.1,2.2,1.6,4.1,3.8,4.2l30.3,1.6c2.2,0.1,4.1-1.6,4.2-3.8l3.7-69.2
				C54.6,9,52.9,7.1,50.7,7L20.5,5.4C18.3,5.3,16.4,7,16.3,9.2z"/>
			<path class="st2" d="M4.6,18.2l24.2,65c0.8,2.1,3.1,3.1,5.1,2.4L62.3,75c2.1-0.8,3.1-3.1,2.4-5.1l-24.2-65
				c-0.8-2.1-3.1-3.1-5.1-2.4L6.9,13.1C4.9,13.9,3.8,16.2,4.6,18.2z"/>
			<path class="st3" d="M4.6,18.2l24.2,65c0.8,2.1,3.1,3.1,5.1,2.4L62.3,75c2.1-0.8,3.1-3.1,2.4-5.1l-24.2-65
				c-0.8-2.1-3.1-3.1-5.1-2.4L6.9,13.1C4.9,13.9,3.8,16.2,4.6,18.2z"/>
			<g>
				<g>
					<defs>
						<path id="SVGID_1_" d="M4.6,18.2l24.2,65c0.8,2.1,3.1,3.1,5.1,2.4L62.3,75c2.1-0.8,3.1-3.1,2.4-5.1l-24.2-65
							c-0.8-2.1-3.1-3.1-5.1-2.4L6.9,13.1C4.9,13.9,3.8,16.2,4.6,18.2z"/>
					</defs>
					<clipPath id="SVGID_2_">
						<use xlink:href="#SVGID_1_"  style="overflow:visible;"/>
					</clipPath>
					<g class="st4">
						<path class="st5" d="M13.1,9.9c0.1,0.2,0.2,0.5,0.3,0.8v0L28.8,5c0,0,0,0,0,0c-0.1-0.3-0.2-0.5-0.2-0.8L39.8,0l4.1,11
							c-0.3,0.1-0.6,0.3-0.9,0.4l19.3,52c0.3-0.1,0.6-0.2,0.9-0.3l4.6,12.5l-11,4.1c-0.4-0.7-0.8-1.4-1.1-2.2v0l-15.4,5.7
							c0,0,0,0,0,0c0.3,0.8,0.5,1.6,0.6,2.4l-10.7,4L25.6,77c0.2-0.1,0.4-0.2,0.6-0.3L7,24.8c-0.2,0.1-0.4,0.1-0.7,0.2L2.2,14
							L13.1,9.9z M10,23.1l19.7,53c3.5-0.1,6.8,1.4,9,4.1l16.4-6.1c-0.1-3.5,1.4-6.9,4.2-9.1L39.6,12.1c-3.5,0.2-6.9-1.4-9.1-4.1
							l-16.4,6.1C14.2,17.5,12.7,20.9,10,23.1z"/>
					</g>
				</g>
			</g>
			
				<ellipse transform="matrix(0.9374 -0.3483 0.3483 0.9374 -13.1825 14.8085)" class="st5" cx="34.6" cy="44.1" rx="11.8" ry="9.2"/>
			<path class="st5" d="M20.8,21.5l2.5,6.7c0.9,2.4,3.5,3.6,5.9,2.7l0.5-0.2c2.4-0.9,3.6-3.5,2.7-5.9l-2.5-6.7
				c-0.9-2.4-3.5-3.6-5.9-2.7l-0.5,0.2C21.1,16.5,19.9,19.1,20.8,21.5z"/>
			<path class="st5" d="M36.3,63.4l2.5,6.7c0.9,2.4,3.5,3.6,5.9,2.7l0.5-0.2c2.4-0.9,3.6-3.5,2.7-5.9l-2.5-6.7
				c-0.9-2.4-3.5-3.6-5.9-2.7L39,57.5C36.7,58.4,35.5,61.1,36.3,63.4z"/>
		</g>
		<path class="st6" d="M67.6,92.4H4c-2.2,0-4-1.8-4-4V41.6c0-2.2,1.8-4,4-4h63.6c2.2,0,4,1.8,4,4v46.7
			C71.6,90.6,69.8,92.4,67.6,92.4z"/>
		<path class="st7" d="M67.4,37.6h-3.2c2.3,0,4.2,1.9,4.2,4.2v30.5l-22.3-2L67,91.2c-0.7,0.7-1.7,1.1-2.8,1.1h3.2
			c2.3,0,4.2-1.9,4.2-4.2V41.8C71.6,39.5,69.7,37.6,67.4,37.6z"/>
		<path class="st8" d="M59.1,88.2H57c-0.3,0-0.5-0.2-0.5-0.5s0.2-0.5,0.5-0.5h2.1c0.3,0,0.5,0.2,0.5,0.5
			C59.7,88,59.4,88.2,59.1,88.2z M51.7,88.2h-2.1c-0.3,0-0.5-0.2-0.5-0.5s0.2-0.5,0.5-0.5h2.1c0.3,0,0.5,0.2,0.5,0.5
			C52.3,88,52,88.2,51.7,88.2z M44.3,88.2h-2.1c-0.3,0-0.5-0.2-0.5-0.5s0.2-0.5,0.5-0.5h2.1c0.3,0,0.5,0.2,0.5,0.5
			C44.9,88,44.6,88.2,44.3,88.2z M36.9,88.2h-2.1c-0.3,0-0.5-0.2-0.5-0.5s0.2-0.5,0.5-0.5h2.1c0.3,0,0.5,0.2,0.5,0.5
			C37.5,88,37.2,88.2,36.9,88.2z M29.5,88.2h-2.1c-0.3,0-0.5-0.2-0.5-0.5s0.2-0.5,0.5-0.5h2.1c0.3,0,0.5,0.2,0.5,0.5
			C30.1,88,29.8,88.2,29.5,88.2z M22.1,88.2H20c-0.3,0-0.5-0.2-0.5-0.5s0.2-0.5,0.5-0.5h2.1c0.3,0,0.5,0.2,0.5,0.5
			C22.7,88,22.4,88.2,22.1,88.2z M14.7,88.2h-2.1c-0.3,0-0.5-0.2-0.5-0.5s0.2-0.5,0.5-0.5h2.1c0.3,0,0.5,0.2,0.5,0.5
			C15.3,88,15,88.2,14.7,88.2z M7.4,88.2L7.4,88.2c-0.9,0-1.6-0.7-1.6-1.6v-0.5c0-0.3,0.2-0.5,0.5-0.5s0.5,0.2,0.5,0.5v0.5
			c0,0.3,0.2,0.5,0.5,0.5c0.3,0,0.5,0.2,0.5,0.5C7.9,88,7.6,88.2,7.4,88.2z M64.4,88.2c-0.3,0-0.5-0.2-0.5-0.4
			c0-0.3,0.2-0.6,0.4-0.6c0.3,0,0.4-0.3,0.4-0.5V86c0-0.3,0.2-0.5,0.5-0.5s0.5,0.2,0.5,0.5v0.6C65.8,87.4,65.3,88.1,64.4,88.2
			C64.5,88.2,64.4,88.2,64.4,88.2z M6.3,81.4c-0.3,0-0.5-0.2-0.5-0.5v-2.1c0-0.3,0.2-0.5,0.5-0.5s0.5,0.2,0.5,0.5v2.1
			C6.8,81.2,6.6,81.4,6.3,81.4z M65.3,81.3c-0.3,0-0.5-0.2-0.5-0.5v-2.1c0-0.3,0.2-0.5,0.5-0.5s0.5,0.2,0.5,0.5v2.1
			C65.8,81,65.6,81.3,65.3,81.3z M6.3,74c-0.3,0-0.5-0.2-0.5-0.5v-2.1c0-0.3,0.2-0.5,0.5-0.5s0.5,0.2,0.5,0.5v2.1
			C6.8,73.8,6.6,74,6.3,74z M6.3,66.6c-0.3,0-0.5-0.2-0.5-0.5V64c0-0.3,0.2-0.5,0.5-0.5s0.5,0.2,0.5,0.5v2.1
			C6.8,66.4,6.6,66.6,6.3,66.6z M6.3,59.2c-0.3,0-0.5-0.2-0.5-0.5v-2.1c0-0.3,0.2-0.5,0.5-0.5s0.5,0.2,0.5,0.5v2.1
			C6.8,59,6.6,59.2,6.3,59.2z M6.3,51.8c-0.3,0-0.5-0.2-0.5-0.5v-2.1c0-0.3,0.2-0.5,0.5-0.5s0.5,0.2,0.5,0.5v2.1
			C6.8,51.6,6.6,51.8,6.3,51.8z M65.3,51.7c-0.3,0-0.5-0.2-0.5-0.5V49c0-0.3,0.2-0.5,0.5-0.5s0.5,0.2,0.5,0.5v2.1
			C65.8,51.4,65.6,51.7,65.3,51.7z M6.3,44.5c-0.3,0-0.5-0.2-0.5-0.5v-0.6c0-0.8,0.6-1.5,1.4-1.6c0.3,0,0.6,0.2,0.6,0.4
			c0,0.3-0.2,0.6-0.4,0.6c-0.3,0-0.5,0.3-0.5,0.5v0.6C6.8,44.2,6.6,44.5,6.3,44.5z M65.3,44.3c-0.3,0-0.5-0.2-0.5-0.5v-0.4
			c0-0.3-0.2-0.5-0.5-0.5c-0.3,0-0.5-0.2-0.5-0.5s0.2-0.5,0.5-0.5h0c0.9,0,1.6,0.7,1.6,1.6v0.4C65.8,44.1,65.6,44.3,65.3,44.3z
			 M59,42.8h-2.1c-0.3,0-0.5-0.2-0.5-0.5s0.2-0.5,0.5-0.5H59c0.3,0,0.5,0.2,0.5,0.5S59.2,42.8,59,42.8z M51.6,42.8h-2.1
			c-0.3,0-0.5-0.2-0.5-0.5s0.2-0.5,0.5-0.5h2.1c0.3,0,0.5,0.2,0.5,0.5S51.9,42.8,51.6,42.8z M44.2,42.8H42c-0.3,0-0.5-0.2-0.5-0.5
			s0.2-0.5,0.5-0.5h2.1c0.3,0,0.5,0.2,0.5,0.5S44.5,42.8,44.2,42.8z M36.8,42.8h-2.1c-0.3,0-0.5-0.2-0.5-0.5s0.2-0.5,0.5-0.5h2.1
			c0.3,0,0.5,0.2,0.5,0.5S37.1,42.8,36.8,42.8z M29.4,42.8h-2.1c-0.3,0-0.5-0.2-0.5-0.5s0.2-0.5,0.5-0.5h2.1c0.3,0,0.5,0.2,0.5,0.5
			S29.7,42.8,29.4,42.8z M22,42.8h-2.1c-0.3,0-0.5-0.2-0.5-0.5s0.2-0.5,0.5-0.5H22c0.3,0,0.5,0.2,0.5,0.5S22.3,42.8,22,42.8z
			 M14.6,42.8h-2.1c-0.3,0-0.5-0.2-0.5-0.5s0.2-0.5,0.5-0.5h2.1c0.3,0,0.5,0.2,0.5,0.5S14.9,42.8,14.6,42.8z"/>
		<path class="st9" d="M3.2,88.1V41.8c0-2.3,1.9-4.2,4.2-4.2H4.2c-2.3,0-4.2,1.9-4.2,4.2v46.3c0,2.3,1.9,4.2,4.2,4.2h3.2
			C5,92.4,3.2,90.5,3.2,88.1z"/>
		<path class="st10" d="M71.7,73.4H52.2c-4.4,0-8-3.6-8-8v-0.8c0-4.4,3.6-8,8-8h19.5c1.1,0,2,0.9,2,2v12.8
			C73.7,72.5,72.8,73.4,71.7,73.4z"/>
		<g>
			<g>
				<defs>
					<path id="SVGID_3_" d="M71.6,56.6h-5.1v16.8h5.1c1.2,0,2.1-0.9,2.1-2.1V58.7C73.7,57.5,72.7,56.6,71.6,56.6z"/>
				</defs>
				<clipPath id="SVGID_4_">
					<use xlink:href="#SVGID_3_"  style="overflow:visible;"/>
				</clipPath>
				<rect x="70.5" y="52.7" class="st11" width="3.2" height="25.7"/>
			</g>
		</g>
		<g>
			<g>
				<defs>
					<path id="SVGID_5_" d="M71.7,73.4H52.2c-4.4,0-8-3.6-8-8v-0.8c0-4.4,3.6-8,8-8h19.5c1.1,0,2,0.9,2,2v12.8
						C73.7,72.5,72.8,73.4,71.7,73.4z"/>
				</defs>
				<clipPath id="SVGID_6_">
					<use xlink:href="#SVGID_5_"  style="overflow:visible;"/>
				</clipPath>
				<polygon class="st12" points="49.6,67.8 55.8,73.9 66.7,73.9 55.2,62.4 				"/>
			</g>
		</g>
		<g>
			<circle class="st13" cx="52.3" cy="65" r="3.9"/>
			<path class="st14" d="M50.5,65c0-1.5,0.5-2.9,1.2-3.8c-1.9,0.3-3.3,1.9-3.3,3.8c0,2,1.4,3.6,3.3,3.8C51,67.9,50.5,66.5,50.5,65z"
				/>
			<path class="st15" d="M54.1,65c0,1.5-0.5,2.9-1.2,3.8c1.9-0.3,3.3-1.9,3.3-3.8c0-2-1.4-3.6-3.3-3.8C53.6,62.1,54.1,63.5,54.1,65z
				"/>
		</g>
	</g>
</g>
</svg>
