<?xml version="1.0" encoding="utf-8"?>
<!-- Generator: Adobe Illustrator 18.1.1, SVG Export Plug-In . SVG Version: 6.00 Build 0)  -->
<!DOCTYPE svg PUBLIC "-//W3C//DTD SVG 1.1//EN" "http://www.w3.org/Graphics/SVG/1.1/DTD/svg11.dtd">
<svg version="1.1" id="Layer_1" xmlns="http://www.w3.org/2000/svg" xmlns:xlink="http://www.w3.org/1999/xlink" x="0px" y="0px"
	 viewBox="170.7 2.1 157 190.9" enable-background="new 170.7 2.1 157 190.9" xml:space="preserve">
<g>
	<path fill="#FFFFFF" d="M327.4,143.9c0-0.1,0-0.1,0.1-0.2c0.1-0.2,0.1-0.3,0.2-0.5c0.1-0.3,0.1-0.5,0.1-0.8V29.2
		c0-2.2-1.7-3.9-3.9-3.9H196.5c-2.2,0-3.9,1.7-3.9,3.9v160c0,2.2,1.7,3.9,3.9,3.9h80.5c0.3,0,0.5,0,0.8-0.1c0.2,0,0.4-0.1,0.5-0.2
		c0.1,0,0.1,0,0.2-0.1c0.2-0.1,0.4-0.2,0.6-0.3c0,0,0,0,0.1,0c0.2-0.1,0.4-0.3,0.6-0.5l46.7-46.7c0.2-0.2,0.4-0.4,0.5-0.6
		c0,0,0,0,0-0.1C327.2,144.3,327.3,144.1,327.4,143.9z M200.4,33.1h119.5v105.4h-42.9c-2.2,0-3.9,1.7-3.9,3.9v42.9h-72.7V33.1z
		 M314.4,146.3L281,179.7v-33.5H314.4z"/>
	<path fill="#FFFFFF" d="M222.9,62.6h45.8c2.2,0,3.9-1.7,3.9-3.9c0-2.2-1.7-3.9-3.9-3.9h-45.8c-2.2,0-3.9,1.7-3.9,3.9
		C219,60.9,220.7,62.6,222.9,62.6z"/>
	<path fill="#FFFFFF" d="M222.9,81.5h76c2.2,0,3.9-1.7,3.9-3.9c0-2.2-1.7-3.9-3.9-3.9h-76c-2.2,0-3.9,1.7-3.9,3.9
		C219,79.7,220.7,81.5,222.9,81.5z"/>
	<path fill="#FFFFFF" d="M222.9,100.3h76c2.2,0,3.9-1.7,3.9-3.9c0-2.2-1.7-3.9-3.9-3.9h-76c-2.2,0-3.9,1.7-3.9,3.9
		C219,98.6,220.7,100.3,222.9,100.3z"/>
	<path fill="#FFFFFF" d="M254.7,111.3h-31.8c-2.2,0-3.9,1.7-3.9,3.9c0,2.2,1.7,3.9,3.9,3.9h31.8c2.2,0,3.9-1.7,3.9-3.9
		C258.6,113.1,256.8,111.3,254.7,111.3z"/>
	<path fill="#FFFFFF" d="M305.8,6c0-2.2-1.7-3.9-3.9-3.9H182.4c-6.4,0-11.7,5.2-11.7,11.7v156.8c0,2.2,1.7,3.9,3.9,3.9
		c2.2,0,3.9-1.7,3.9-3.9V13.8c0-2.1,1.7-3.9,3.9-3.9h119.5C304.1,9.9,305.8,8.2,305.8,6z"/>
</g>
</svg>
