<?xml version="1.0" standalone="no"?>
<!DOCTYPE svg PUBLIC "-//W3C//DTD SVG 1.1//EN" "http://www.w3.org/Graphics/SVG/1.1/DTD/svg11.dtd" >
<svg xmlns="http://www.w3.org/2000/svg">
<metadata>Generated by IcoMoon</metadata>
<defs>
<font id="dzialy" horiz-adv-x="1024">
<font-face units-per-em="1024" ascent="960" descent="-64" />
<missing-glyph horiz-adv-x="1024" />
<glyph unicode="&#x20;" horiz-adv-x="512" d="" />
<glyph unicode="&#xe600;" glyph-name="Urzedy" d="M439.887 448c-3.606-7.211-3.606-18.028-3.606-25.239 0-18.028 7.211-36.056 21.634-50.479l21.634-21.634c14.423-14.423 32.451-18.028 46.873-18.028 18.028 0 36.056 7.211 50.479 21.634v0 0l137.014 137.014c14.423 14.423 18.028 32.451 18.028 46.873 0 18.028-7.211 36.056-21.634 50.479v0l-21.634 21.634c-14.423 14.423-32.451 21.634-50.479 21.634-7.211 0-18.028 0-25.239-3.606l-144.225 144.225c3.606 7.211 3.606 18.028 3.606 25.239 0 18.028-7.211 36.056-21.634 50.479l-21.634 21.634c-10.817 10.817-28.845 18.028-46.873 18.028s-36.056-7.211-50.479-21.634l-137.014-133.408c-14.423-14.423-18.028-32.451-18.028-50.479s7.211-36.056 21.634-50.479l21.634-21.634c14.423-14.423 32.451-18.028 46.873-18.028 7.211 0 18.028 0 25.239 3.606l14.423-14.423-241.577-241.577c-14.423-14.423-25.239-36.056-25.239-57.69s7.211-43.268 25.239-57.69c14.423-14.423 36.056-25.239 57.69-25.239s43.268 7.211 57.69 25.239l241.577 241.577 18.028-18.028zM620.169 577.803v0c3.606 3.606 10.817 7.211 18.028 7.211s14.423-3.606 18.028-7.211l21.634-21.634c3.606-3.606 7.211-10.817 7.211-18.028s-3.606-14.423-7.211-18.028v0l-137.014-137.014c-3.606-3.606-10.817-7.211-18.028-7.211s-14.423 3.606-18.028 7.211v0l-21.634 21.634c-3.606 3.606-7.211 10.817-7.211 18.028s3.606 14.423 7.211 18.028v0l137.014 137.014zM580.507 599.437v0l-115.38-115.38-137.014 137.014 115.38 115.38 137.014-137.014zM288.451 639.099v0 0c-7.211-3.606-14.423-7.211-21.634-7.211-3.606 0-10.817 3.606-18.028 7.211v0l-21.634 25.239c-7.211 3.606-10.817 10.817-10.817 18.028s3.606 14.423 7.211 18.028v0l137.014 137.014c3.606 3.606 10.817 7.211 18.028 7.211s14.423-3.606 18.028-7.211l28.845-21.634c3.606-7.211 7.211-14.423 7.211-21.634s-3.606-14.423-7.211-18.028l-137.014-137.014zM151.437 249.69v0c-7.211-7.211-18.028-10.817-28.845-10.817s-21.634 3.606-28.845 10.817v0 0c-7.211 7.211-10.817 18.028-10.817 28.845s3.606 21.634 10.817 28.845l241.577 241.577 61.296-57.69-245.183-241.577zM944.676 80.225v0h-79.324v39.662c0 10.817-3.606 18.028-10.817 25.239s-14.423 10.817-25.239 10.817h-18.028v39.662c0 10.817-3.606 18.028-10.817 25.239s-14.423 10.817-25.239 10.817h-320.901c-10.817 0-18.028-3.606-25.239-10.817s-10.817-14.423-10.817-25.239v-39.662h-18.028c-10.817 0-18.028-3.606-25.239-10.817v0c-7.211-7.211-10.817-14.423-10.817-25.239v-39.662h-82.93c-18.028 0-36.056-14.423-36.056-36.056 0-18.028 14.423-36.056 36.056-36.056h663.437c18.028 0 36.056 14.423 36.056 36.056 0 18.028-14.423 36.056-36.056 36.056v0zM822.085 80.225v0h-418.254v32.451h32.451c10.817 0 21.634 10.817 21.634 21.634v54.085h313.69v-54.085c0-10.817 10.817-21.634 21.634-21.634h32.451v-32.451h-3.606z" />
<glyph unicode="&#xe601;" glyph-name="Kultura" d="M840.113 69.408h-54.085v479.549c28.845 7.211 54.085 25.239 75.718 46.873v0 0c32.451 32.451 54.085 75.718 54.085 122.592s-18.028 90.141-50.479 122.592l-3.606 3.606c-32.451 32.451-75.718 50.479-126.197 50.479h-450.704c-46.873 0-93.746-18.028-126.197-50.479s-50.479-79.324-50.479-126.197c0-50.479 18.028-93.746 50.479-126.197 21.634-21.634 46.873-36.056 79.324-46.873v-479.549h-54.085c-18.028 0-32.451-14.423-32.451-32.451s14.423-32.451 32.451-32.451h656.225c18.028 0 32.451 14.423 32.451 32.451 0 21.634-14.423 36.056-32.451 36.056v0zM721.127 69.408v0h-418.254v472.338c25.239 3.606 50.479 10.817 68.507 21.634 21.634 10.817 39.662 28.845 54.085 46.873h169.465c14.423-18.028 28.845-36.056 46.873-46.873 21.634-14.423 46.873-21.634 79.324-25.239v-468.732zM677.859 621.070v0c-14.423 10.817-25.239 25.239-36.056 39.662-7.211 10.817-18.028 18.028-28.845 18.028v0h-205.521c-14.423 0-25.239-7.211-28.845-18.028-10.817-14.423-25.239-28.845-39.662-39.662s-36.056-14.423-54.085-14.423c-32.451 0-61.296 10.817-79.324 32.451-21.634 21.634-32.451 46.873-32.451 79.324s10.817 57.69 32.451 79.324c18.028 18.028 46.873 32.451 79.324 32.451h454.31c32.451 0 57.69-10.817 79.324-32.451v0c18.028-18.028 32.451-46.873 32.451-75.718s-14.423-54.085-32.451-75.718c-21.634-21.634-50.479-36.056-79.324-36.056-28.845-3.606-46.873 0-61.296 10.817v0zM512 505.69v0c-10.817 0-18.028-7.211-18.028-18.028v-338.93c0-10.817 7.211-18.028 18.028-18.028s18.028 7.211 18.028 18.028v338.93c0 10.817-7.211 18.028-18.028 18.028v0zM804.056 783.324v0c-18.028 18.028-39.662 25.239-64.901 25.239h-454.31c-25.239 0-46.873-10.817-64.901-25.239-18.028-18.028-25.239-39.662-25.239-64.901s10.817-46.873 25.239-64.901v0c18.028-18.028 39.662-25.239 64.901-25.239s46.873 10.817 64.901 25.239v0c18.028 18.028 25.239 39.662 25.239 64.901 0 18.028-7.211 36.056-18.028 50.479h306.479c-10.817-14.423-18.028-32.451-18.028-50.479 0-25.239 10.817-46.873 25.239-64.901 18.028-18.028 39.662-25.239 64.901-25.239s46.873 10.817 64.901 25.239c18.028 18.028 28.845 39.662 28.845 64.901s-10.817 46.873-25.239 64.901v0zM320.901 682.366v0 0c-10.817-10.817-21.634-18.028-36.056-18.028s-28.845 7.211-36.056 14.423c-10.817 10.817-14.423 21.634-14.423 36.056s7.211 28.845 14.423 36.056c21.634 21.634 54.085 21.634 75.718 0 10.817-10.817 14.423-21.634 14.423-36.056-3.606-10.817-7.211-25.239-18.028-32.451v0zM775.211 682.366v0c-10.817-10.817-21.634-14.423-36.056-14.423s-28.845 7.211-36.056 14.423c-10.817 10.817-14.423 21.634-14.423 36.056s7.211 28.845 14.423 36.056c21.634 21.634 54.085 21.634 75.718 0 10.817-10.817 14.423-21.634 14.423-36.056-3.606-14.423-7.211-28.845-18.028-36.056v0zM407.437 505.69v0c-10.817 0-18.028-7.211-18.028-18.028v-338.93c0-10.817 7.211-18.028 18.028-18.028s18.028 7.211 18.028 18.028v338.93c3.606 10.817-7.211 18.028-18.028 18.028v0zM612.958 505.69v0c-10.817 0-18.028-7.211-18.028-18.028v-338.93c0-10.817 7.211-18.028 18.028-18.028s18.028 7.211 18.028 18.028v338.93c3.606 10.817-7.211 18.028-18.028 18.028v0z" />
<glyph unicode="&#xe602;" glyph-name="Ubezpieczenia_spoleczne" d="M883.38 704h-266.817v100.958c0 10.817-7.211 18.028-18.028 18.028h-173.070c-10.817 0-18.028-7.211-18.028-18.028v-100.958h-270.423c-18.028 0-32.451-14.423-32.451-32.451v-569.69c0-18.028 14.423-32.451 32.451-32.451h746.366c18.028 0 32.451 14.423 32.451 32.451v573.296c0 18.028-14.423 28.845-32.451 28.845v0zM443.493 786.93v0h137.014v-79.324h-137.014v79.324zM324.507 667.944v0h374.986v-61.296h-374.986v61.296zM854.535 137.915v0h-685.070v504.789h118.986v-54.085c0-10.817 7.211-18.028 18.028-18.028h411.042c10.817 0 18.028 7.211 18.028 18.028v54.085h118.986v-504.789zM782.423 397.521v0h-194.704c-10.817 0-18.028-7.211-18.028-18.028s7.211-18.028 18.028-18.028h194.704c10.817 0 18.028 7.211 18.028 18.028 3.606 7.211-7.211 18.028-18.028 18.028v0zM782.423 314.592v0h-194.704c-10.817 0-18.028-7.211-18.028-18.028s7.211-18.028 18.028-18.028h194.704c10.817 0 18.028 7.211 18.028 18.028 3.606 10.817-7.211 18.028-18.028 18.028v0zM573.296 458.817v0c0-10.817 7.211-18.028 18.028-18.028h194.704c10.817 0 18.028 7.211 18.028 18.028s-7.211 18.028-18.028 18.028h-194.704c-10.817 0-18.028-7.211-18.028-18.028v0zM475.944 307.38v0c-10.817 10.817-21.634 18.028-32.451 21.634h-3.606l3.606 3.606c21.634 21.634 32.451 50.479 32.451 82.93s-14.423 61.296-32.451 82.93c-21.634 21.634-50.479 36.056-82.93 36.056s-61.296-14.423-82.93-36.056c-21.634-21.634-32.451-50.479-32.451-82.93s14.423-61.296 32.451-82.93l3.606-3.606c-14.423-3.606-25.239-14.423-36.056-21.634-10.817-10.817-18.028-21.634-21.634-32.451s-7.211-25.239-7.211-39.662v-28.845c0-10.817 7.211-18.028 18.028-18.028h256c10.817 0 18.028 7.211 18.028 18.028v28.845c0 14.423-3.606 25.239-7.211 39.662-7.211 10.817-14.423 21.634-25.239 32.451v0zM302.873 469.634v0c14.423 14.423 32.451 21.634 57.69 21.634 21.634 0 43.268-7.211 57.69-21.634s21.634-36.056 21.634-57.69c0-21.634-7.211-43.268-21.634-57.69-32.451-32.451-82.93-32.451-111.775 0-14.423 14.423-21.634 32.451-21.634 57.69-3.606 25.239 3.606 43.268 18.028 57.69v0zM468.732 228.056v0h-216.338v7.211c0 7.211 0 18.028 3.606 25.239s7.211 14.423 14.423 21.634c10.817 10.817 25.239 18.028 43.268 18.028h90.141c7.211 0 18.028 0 25.239-3.606s14.423-7.211 21.634-14.423c7.211-7.211 10.817-14.423 14.423-21.634s3.606-14.423 3.606-25.239v-7.211z" />
<glyph unicode="&#xe603;" glyph-name="Oswiata" d="M721.127 29.746h-512c-79.324 0-144.225 64.901-144.225 144.225v43.268c0 79.324 64.901 144.225 144.225 144.225h512c21.634 0 36.056-14.423 36.056-36.056s-14.423-36.056-36.056-36.056h-512c-39.662 0-72.113-32.451-72.113-72.113v-43.268c0-39.662 32.451-72.113 72.113-72.113h512c21.634 0 36.056-14.423 36.056-36.056s-18.028-36.056-36.056-36.056v0zM115.38 231.662c-7.211 0-14.423 3.606-21.634 7.211-14.423 10.817-18.028 36.056-7.211 50.479l57.69 72.113c10.817 14.423 36.056 18.028 50.479 7.211s18.028-36.056 7.211-50.479l-57.69-72.113c-10.817-10.817-21.634-14.423-28.845-14.423v0zM728.338 29.746c-7.211 0-14.423 3.606-21.634 7.211-14.423 10.817-18.028 36.056-7.211 50.479l191.099 237.972c10.817 14.423 36.056 18.028 50.479 7.211s18.028-36.056 7.211-50.479l-191.099-241.577c-7.211-7.211-18.028-10.817-28.845-10.817v0zM721.127 285.746c-7.211 0-18.028 3.606-21.634 7.211-14.423 14.423-18.028 36.056-3.606 50.479l201.915 241.577c14.423 14.423 36.056 18.028 50.479 3.606s18.028-36.056 3.606-50.479l-201.915-241.577c-10.817-3.606-18.028-10.817-28.845-10.817v0zM695.887 210.028h-490.366c-10.817 0-18.028 7.211-18.028 18.028s7.211 18.028 18.028 18.028h490.366c10.817 0 18.028-7.211 18.028-18.028s-7.211-18.028-18.028-18.028v0zM695.887 141.521h-490.366c-10.817 0-18.028 7.211-18.028 18.028s7.211 18.028 18.028 18.028h490.366c10.817 0 18.028-7.211 18.028-18.028 0-7.211-7.211-18.028-18.028-18.028v0zM721.127 300.169h-512c-79.324 0-144.225 64.901-144.225 144.225v43.268c0 79.324 64.901 144.225 144.225 144.225h512c21.634 0 36.056-14.423 36.056-36.056s-14.423-36.056-36.056-36.056h-512c-39.662 0-72.113-32.451-72.113-72.113v-43.268c0-39.662 32.451-72.113 72.113-72.113h512c21.634 0 36.056-14.423 36.056-36.056s-18.028-36.056-36.056-36.056v0zM302.873 736.451c-7.211 0-14.423 3.606-21.634 7.211-14.423 10.817-18.028 36.056-7.211 50.479 25.239 36.056 61.296 79.324 126.197 75.718h519.211c21.634 0 36.056-14.423 36.056-36.056s-14.423-36.056-36.056-36.056h-519.211c-28.845 0-39.662-10.817-68.507-46.873-7.211-10.817-18.028-14.423-28.845-14.423v0zM115.38 502.085c-7.211 0-14.423 3.606-21.634 7.211-14.423 10.817-18.028 36.056-7.211 50.479l191.099 237.972c10.817 14.423 36.056 18.028 50.479 7.211s18.028-36.056 7.211-50.479l-191.099-237.972c-10.817-10.817-21.634-14.423-28.845-14.423v0zM728.338 300.169c-7.211 0-14.423 3.606-21.634 7.211-14.423 10.817-18.028 36.056-7.211 50.479l191.099 237.972c10.817 14.423 36.056 18.028 50.479 7.211s18.028-36.056 7.211-50.479l-191.099-241.577c-7.211-7.211-18.028-10.817-28.845-10.817v0zM721.127 556.169c-7.211 0-18.028 3.606-21.634 7.211-14.423 14.423-18.028 36.056-3.606 50.479l201.915 241.577c14.423 14.423 36.056 18.028 50.479 3.606s18.028-36.056 3.606-50.479l-201.915-241.577c-10.817-3.606-18.028-10.817-28.845-10.817v0zM695.887 480.451h-490.366c-10.817 0-18.028 7.211-18.028 18.028s7.211 18.028 18.028 18.028h490.366c10.817 0 18.028-7.211 18.028-18.028s-7.211-18.028-18.028-18.028v0zM695.887 411.944h-490.366c-10.817 0-18.028 7.211-18.028 18.028s7.211 18.028 18.028 18.028h490.366c10.817 0 18.028-7.211 18.028-18.028 0-7.211-7.211-18.028-18.028-18.028v0z" />
<glyph unicode="&#xe604;" glyph-name="Dzialalnosc_uslugowa" d="M764.394 393.915c0 10.817 10.817 21.634 21.634 21.634s21.634-10.817 21.634-21.634v-133.408c0-10.817-10.817-21.634-21.634-21.634v0h-216.338c-10.817 0-21.634 10.817-21.634 21.634v0 133.408c0 10.817 10.817 21.634 21.634 21.634s21.634-10.817 21.634-21.634v-111.775h173.070v111.775zM858.141 408.338v0-320.901h-703.099v320.901c0 10.817-10.817 21.634-21.634 21.634s-21.634-10.817-21.634-21.634v-342.535c0-10.817 10.817-21.634 21.634-21.634h746.366c10.817 0 21.634 10.817 21.634 21.634v342.535c0 10.817-10.817 21.634-21.634 21.634s-21.634-10.817-21.634-21.634v0zM155.042 776.113v0c0-10.817-10.817-21.634-21.634-21.634s-21.634 10.817-21.634 21.634v68.507c0 10.817 10.817 21.634 21.634 21.634v0h746.366c10.817 0 21.634-10.817 21.634-21.634v0-68.507c0-10.817-10.817-21.634-21.634-21.634s-21.634 10.817-21.634 21.634v46.873h-703.099v-46.873zM32.451 722.028v0c0 21.634 18.028 36.056 36.056 36.056 21.634 0 36.056-18.028 36.056-36.056v-223.549c0-21.634-14.423-36.056-36.056-36.056s-36.056 18.028-36.056 36.056v223.549zM158.648 722.028v0-223.549c0-21.634 18.028-36.056 36.056-36.056 21.634 0 36.056 18.028 36.056 36.056v223.549c0 21.634-18.028 36.056-36.056 36.056s-36.056-18.028-36.056-36.056v0zM284.845 722.028v0-223.549c0-21.634 18.028-36.056 36.056-36.056 21.634 0 36.056 18.028 36.056 36.056v223.549c0 21.634-14.423 36.056-36.056 36.056s-36.056-18.028-36.056-36.056v0zM407.437 722.028v0-223.549c0-21.634 18.028-36.056 36.056-36.056 21.634 0 36.056 18.028 36.056 36.056v223.549c0 21.634-18.028 36.056-36.056 36.056s-36.056-18.028-36.056-36.056v0zM533.634 722.028v0-223.549c0-21.634 18.028-36.056 36.056-36.056 21.634 0 36.056 18.028 36.056 36.056v223.549c0 21.634-18.028 36.056-36.056 36.056-21.634 0-36.056-18.028-36.056-36.056v0zM656.225 722.028v0-223.549c0-21.634 18.028-36.056 36.056-36.056 21.634 0 36.056 18.028 36.056 36.056v223.549c0 21.634-18.028 36.056-36.056 36.056s-36.056-18.028-36.056-36.056v0zM782.423 722.028v0-223.549c0-21.634 14.423-36.056 36.056-36.056s36.056 18.028 36.056 36.056v223.549c0 21.634-14.423 36.056-36.056 36.056s-36.056-18.028-36.056-36.056v0zM908.62 722.028v0c0 21.634 18.028 36.056 36.056 36.056 21.634 0 36.056-18.028 36.056-36.056v-223.549c0-21.634-18.028-36.056-36.056-36.056-21.634 0-36.056 18.028-36.056 36.056v223.549zM425.465 393.915v0c0 10.817 10.817 21.634 21.634 21.634s21.634-10.817 21.634-21.634v-248.789c0-10.817-10.817-21.634-21.634-21.634v0h-216.338c-10.817 0-21.634 10.817-21.634 21.634v0 248.789c0 10.817 10.817 21.634 21.634 21.634s21.634-10.817 21.634-21.634v-227.155h173.070v227.155z" />
<glyph unicode="&#xe605;" glyph-name="Admnistracja_publiczna" d="M915.831 505.69h-829.296c-14.423 0-28.845 10.817-36.056 25.239-3.606 14.423 0 32.451 14.423 39.662l418.254 281.239c10.817 7.211 28.845 7.211 39.662 0l414.648-281.239c14.423-7.211 18.028-25.239 14.423-39.662-7.211-14.423-21.634-25.239-36.056-25.239v0zM205.521 577.803h594.93l-299.268 201.915-295.662-201.915zM191.099 148.732c-21.634 0-36.056 14.423-36.056 36.056v342.535c0 21.634 14.423 36.056 36.056 36.056s36.056-14.423 36.056-36.056v-342.535c0-21.634-14.423-36.056-36.056-36.056v0zM811.268 148.732c-21.634 0-36.056 14.423-36.056 36.056v342.535c0 21.634 14.423 36.056 36.056 36.056s36.056-14.423 36.056-36.056v-342.535c0-21.634-14.423-36.056-36.056-36.056v0zM346.141 148.732c-21.634 0-36.056 14.423-36.056 36.056v342.535c0 21.634 14.423 36.056 36.056 36.056s36.056-14.423 36.056-36.056v-342.535c0-21.634-14.423-36.056-36.056-36.056v0zM501.183 148.732c-21.634 0-36.056 14.423-36.056 36.056v342.535c0 21.634 14.423 36.056 36.056 36.056s36.056-14.423 36.056-36.056v-342.535c0-21.634-14.423-36.056-36.056-36.056v0zM656.225 148.732c-21.634 0-36.056 14.423-36.056 36.056v342.535c0 21.634 14.423 36.056 36.056 36.056s36.056-14.423 36.056-36.056v-342.535c0-21.634-14.423-36.056-36.056-36.056v0zM868.958 145.127h-735.549c-21.634 0-36.056 14.423-36.056 36.056s14.423 36.056 36.056 36.056h735.549c21.634 0 36.056-14.423 36.056-36.056s-14.423-36.056-36.056-36.056v0zM941.070 40.563h-879.775c-21.634 0-36.056 14.423-36.056 36.056s14.423 36.056 36.056 36.056h879.775c21.634 0 36.056-14.423 36.056-36.056s-14.423-36.056-36.056-36.056v0z" />
<glyph unicode="&#xe606;" glyph-name="Obrona_narodowa" d="M663.437 62.197l-169.465 93.746-169.465-93.746 39.662 183.887-144.225 126.197 194.704 18.028 79.324 173.070 79.324-173.070 194.704-21.634-144.225-126.197 39.662-180.282zM497.577 202.817l108.169-61.296-25.239 122.592 93.746 82.93-126.197 14.423-50.479 115.38-50.479-111.775-126.197-18.028 93.746-82.93-25.239-122.592 108.169 61.296zM569.69 448l-75.718 180.282-75.718-176.676-100.958 82.93v234.366c0 25.239 18.028 43.268 46.873 50.479h263.211c28.845 0 54.085-25.239 54.085-50.479v-234.366l-111.775-86.535zM493.972 725.634l93.746-216.338 50.479 43.268v216.338c0 3.606-7.211 10.817-10.817 10.817h-256c-7.211-3.606-14.423-7.211-14.423-10.817v-216.338l46.873-36.056 90.141 209.127z" />
<glyph unicode="&#xe607;" glyph-name="Bezpieczenstwo" d="M501.183-35.155c-97.352 0-191.099 75.718-338.93 227.155-39.662 43.268-64.901 115.38-64.901 162.254v356.958c0 54.085 39.662 108.169 93.746 126.197 198.31 64.901 418.254 64.901 620.169 0 50.479-18.028 93.746-72.113 93.746-126.197v-356.958c0-46.873-25.239-118.986-64.901-162.254-147.831-147.831-241.577-227.155-338.93-227.155v0zM501.183 815.775c-97.352 0-194.704-14.423-288.451-46.873-21.634-7.211-43.268-32.451-43.268-57.69v-356.958c0-32.451 18.028-86.535 43.268-111.775 129.803-133.408 216.338-205.521 288.451-205.521s155.042 72.113 288.451 205.521c25.239 25.239 43.268 79.324 43.268 111.775v356.958c0 21.634-21.634 50.479-43.268 57.69-93.746 32.451-191.099 46.873-288.451 46.873v0zM501.183 91.042c-57.69 0-155.042 93.746-248.789 191.099-14.423 14.423-28.845 54.085-28.845 72.113v349.746c0 7.211 3.606 14.423 10.817 18.028 173.070 54.085 356.958 54.085 530.028 0 7.211-3.606 10.817-10.817 10.817-18.028v-346.141c0-18.028-14.423-57.69-28.845-75.718-90.141-97.352-187.493-191.099-245.183-191.099v0zM259.606 689.577v-331.718c0-10.817 10.817-43.268 18.028-50.479 54.085-54.085 176.676-180.282 223.549-180.282s169.465 126.197 219.944 180.282c7.211 7.211 18.028 39.662 18.028 50.479v331.718c-151.437 46.873-320.901 46.873-479.549 0v0z" />
<glyph unicode="&#xe608;" glyph-name="Gospodarka_mieszkaniowa" d="M811.268 415.549c-21.634 0-36.056-18.028-36.056-36.056v-320.901h-526.423v317.296c0 21.634-18.028 36.056-36.056 36.056-21.634 0-36.056-18.028-36.056-36.056v-353.352c0-21.634 18.028-36.056 36.056-36.056h598.535c21.634 0 36.056 14.423 36.056 36.056v356.958c0 18.028-18.028 36.056-36.056 36.056v0zM973.521 419.155v0l-187.493 187.493v281.239c0 10.817-10.817 21.634-21.634 21.634h-129.803c-14.423 0-21.634-7.211-21.634-21.634v-108.169l-75.718 75.718c-14.423 14.423-36.056 14.423-50.479 0l-436.282-436.282c-14.423-14.423-14.423-36.056 0-50.479s36.056-14.423 50.479 0l411.042 411.042 411.042-411.042c14.423-14.423 36.056-14.423 50.479 0s14.423 36.056 0 50.479v0zM742.761 649.915v0l-86.535 86.535v129.803h86.535v-216.338zM649.014 159.549v0c10.817 0 21.634 10.817 21.634 21.634v241.577c0 10.817-10.817 21.634-21.634 21.634h-274.028c-10.817 0-21.634-10.817-21.634-21.634v-241.577c0-10.817 10.817-21.634 21.634-21.634h274.028zM396.62 401.127v0h230.761v-198.31h-230.761v198.31z" />
<glyph unicode="&#xe609;" glyph-name="Przetworstwo_przemyslowe" d="M158.648 859.042v0h223.549c18.028 0 32.451-14.423 32.451-32.451v0-439.887l183.887 183.887c10.817 10.817 32.451 10.817 43.268 0 7.211-7.211 10.817-14.423 10.817-21.634v0-162.254l183.887 183.887c10.817 10.817 32.451 10.817 43.268 0 7.211-7.211 10.817-14.423 10.817-21.634v0-475.944c0-18.028-14.423-32.451-32.451-32.451v0h-699.493c-18.028 0-32.451 14.423-32.451 32.451v0 753.577c3.606 18.028 18.028 32.451 32.451 32.451v0zM191.099 408.338v0h162.254v104.563h-162.254v-104.563zM353.352 368.676v0h-162.254v-266.817h638.197v371.38l-183.887-183.887c-7.211-7.211-14.423-10.817-21.634-10.817-18.028 0-32.451 14.423-32.451 32.451v162.254l-183.887-183.887c-7.211-7.211-14.423-10.817-21.634-10.817-18.028 0-32.451 14.423-32.451 32.451v57.69zM353.352 794.141v0h-162.254v-104.563h162.254v104.563zM191.099 653.521v0-104.563h162.254v104.563h-162.254z" />
<glyph unicode="&#xe60a;" glyph-name="Hotele" d="M710.31 895.099c0 0 0 0 0 0 126.197-3.606 191.099-169.465 191.099-259.606 3.606-97.352-86.535-187.493-191.099-191.099 0 0-3.606 0-3.606 0-104.563 3.606-191.099 93.746-191.099 194.704 3.606 86.535 68.507 252.394 194.704 256 0 0 0 0 0 0v0zM710.31 516.507c64.901 3.606 122.592 61.296 118.986 118.986 0 64.901-50.479 183.887-118.986 187.493-72.113-3.606-118.986-122.592-118.986-187.493-3.606-57.69 54.085-115.38 118.986-118.986v0zM656.225 509.296c0 0 0 0 0 0 21.634 0 36.056-18.028 36.056-36.056l-10.817-371.38c0-3.606 3.606-7.211 3.606-7.211 7.211-7.211 14.423-10.817 25.239-10.817v0c10.817 0 21.634 3.606 25.239 10.817 3.606 3.606 3.606 3.606 3.606 7.211l-10.817 371.38c0 21.634 14.423 36.056 36.056 36.056 18.028 3.606 36.056-14.423 36.056-36.056l10.817-371.38c0-21.634-7.211-43.268-25.239-61.296-18.028-21.634-46.873-32.451-79.324-32.451v0c-28.845 0-57.69 10.817-79.324 32.451-18.028 18.028-25.239 39.662-25.239 61.296l10.817 371.38c7.211 21.634 25.239 36.056 43.268 36.056v0zM216.338 509.296c0 0 0 0 0 0 21.634 0 36.056-18.028 36.056-36.056l-10.817-371.38c0-3.606 3.606-7.211 3.606-7.211 7.211-7.211 14.423-10.817 25.239-10.817v0c10.817 0 21.634 3.606 25.239 10.817 3.606 3.606 3.606 3.606 3.606 7.211l-10.817 371.38c0 21.634 14.423 36.056 36.056 36.056 21.634 3.606 36.056-14.423 36.056-36.056l10.817-371.38c0-21.634-7.211-43.268-25.239-61.296-18.028-21.634-46.873-32.451-79.324-32.451v0c-28.845 0-57.69 10.817-79.324 32.451-18.028 18.028-25.239 39.662-25.239 61.296l18.028 374.986c0 18.028 18.028 32.451 36.056 32.451v0zM111.775 895.099c21.634 0 36.056-14.423 36.056-36.056v-205.521c0-68.507 54.085-122.592 122.592-122.592s122.592 54.085 122.592 122.592v205.521c0 21.634 14.423 36.056 36.056 36.056s36.056-14.423 36.056-36.056v-205.521c0-108.169-86.535-194.704-194.704-194.704s-194.704 86.535-194.704 194.704v205.521c0 21.634 18.028 36.056 36.056 36.056v0zM324.507 895.099c21.634 0 36.056-14.423 36.056-36.056v-151.437c0-21.634-14.423-36.056-36.056-36.056s-36.056 18.028-36.056 36.056v151.437c0 18.028 14.423 36.056 36.056 36.056v0zM219.944 895.099c21.634 0 36.056-14.423 36.056-36.056v-151.437c0-21.634-14.423-36.056-36.056-36.056s-36.056 14.423-36.056 36.056v151.437c0 18.028 14.423 36.056 36.056 36.056v0z" />
<glyph unicode="&#xe60b;" glyph-name="Rozne_rozliczenia" d="M158.648 833.803v0h706.704c18.028 0 28.845-14.423 28.845-28.845v0-710.31c0-18.028-14.423-28.845-28.845-28.845v0h-706.704c-18.028 0-28.845 14.423-28.845 28.845v0 706.704c-3.606 18.028 10.817 32.451 28.845 32.451v0zM530.028 772.507v0-306.479h306.479v306.479h-306.479zM530.028 429.972v0-306.479h306.479v306.479h-306.479zM493.972 123.493v0 306.479h-306.479v-306.479h306.479zM493.972 466.028v0 306.479h-306.479v-306.479h306.479zM374.986 339.831v0l-43.268-43.268-43.268 43.268c-7.211 7.211-18.028 7.211-25.239 0s-7.211-18.028 0-25.239l43.268-43.268-43.268-43.268c-7.211-7.211-7.211-18.028 0-25.239s18.028-7.211 25.239 0l43.268 43.268 43.268-43.268c7.211-7.211 18.028-7.211 25.239 0s7.211 18.028 0 25.239l-39.662 43.268 43.268 43.268c7.211 7.211 7.211 18.028 0 25.239-10.817 7.211-21.634 7.211-28.845 0v0zM317.296 704v0-57.69h-61.296c-7.211-3.606-18.028-10.817-18.028-21.634s7.211-18.028 18.028-18.028h57.69v-57.69c0-10.817 7.211-18.028 18.028-18.028s18.028 7.211 18.028 18.028v57.69h57.69c10.817 0 18.028 7.211 18.028 18.028s-7.211 18.028-18.028 18.028h-54.085v61.296c0 10.817-7.211 18.028-18.028 18.028s-18.028-10.817-18.028-18.028v0zM764.394 253.296v0c-129.803 0-25.239 0-155.042 0-10.817 0-18.028-7.211-18.028-18.028s7.211-18.028 18.028-18.028c129.803 0 25.239 0 155.042 0 10.817 0 18.028 7.211 18.028 18.028s-7.211 18.028-18.028 18.028v0zM764.394 325.408v0c-129.803 0-25.239 0-155.042 0-10.817 0-18.028-7.211-18.028-18.028s7.211-18.028 18.028-18.028c129.803 0 25.239 0 155.042 0 10.817 0 18.028 7.211 18.028 18.028s-7.211 18.028-18.028 18.028v0zM764.394 642.704v0c-129.803 0-25.239 0-155.042 0-10.817 0-18.028-7.211-18.028-18.028s7.211-18.028 18.028-18.028c129.803 0 25.239 0 155.042 0 10.817 0 18.028 7.211 18.028 18.028s-7.211 18.028-18.028 18.028v0z" />
<glyph unicode="&#xe60c;" glyph-name="Gornictwo" d="M746.366 653.521c-14.423 14.423-14.423 39.662 0 54.085s39.662 14.423 54.085 0c10.817-10.817 18.028-21.634 28.845-32.451v0c7.211-10.817 18.028-21.634 25.239-36.056v-3.606c7.211-10.817 14.423-21.634 21.634-36.056 7.211-10.817 14.423-25.239 18.028-39.662v0c7.211-14.423 10.817-28.845 14.423-43.268v0c3.606-14.423 7.211-28.845 10.817-39.662 3.606-21.634-7.211-39.662-28.845-43.268-18.028-3.606-39.662 7.211-43.268 25.239l-10.817-3.606c7.211-28.845 7.211-54.085 7.211-82.93 0-32.451 7.211-54.085 21.634-72.113s39.662-28.845 75.718-36.056c21.634-3.606 43.268-21.634 50.479-39.662v-3.606c3.606-7.211 3.606-18.028 3.606-25.239v0 0c0-10.817-3.606-21.634-14.423-32.451-10.817-14.423-32.451-25.239-61.296-25.239h-836.507c-50.479 0-64.901 28.845-61.296 64.901 3.606 18.028 10.817 39.662 14.423 46.873v3.606c14.423 25.239 18.028 43.268 21.634 57.69 3.606 18.028 3.606 36.056 3.606 64.901 0 108.169 43.268 205.521 115.38 274.028 151.437 151.437 400.225 151.437 551.662 0 3.606-3.606 7.211-7.211 10.817-10.817l10.817 10.817-3.606 3.606zM771.606 603.042v0c21.634-32.451 39.662-64.901 54.085-104.563l14.423 3.606c-3.606 10.817-7.211 21.634-10.817 28.845v0c-3.606 10.817-10.817 21.634-14.423 32.451-7.211 10.817-10.817 18.028-18.028 28.845v3.606c-3.606 3.606-7.211 10.817-10.817 14.423l-14.423-7.211zM338.93 357.859v0c-21.634 0-36.056-18.028-36.056-36.056 0-21.634 18.028-36.056 36.056-36.056 21.634 0 36.056 18.028 36.056 36.056s-14.423 36.056-36.056 36.056v0zM475.944 357.859v0c-21.634 0-36.056-18.028-36.056-36.056 0-21.634 18.028-36.056 36.056-36.056 21.634 0 36.056 18.028 36.056 36.056s-14.423 36.056-36.056 36.056v0zM612.958 357.859v0c-21.634 0-39.662-18.028-39.662-36.056 0-21.634 18.028-36.056 39.662-36.056s36.056 18.028 36.056 36.056c3.606 18.028-14.423 36.056-36.056 36.056v0zM641.803 577.803v0c-25.239 25.239-54.085 46.873-86.535 57.69-64.901 28.845-140.62 28.845-205.521 0-32.451-14.423-61.296-32.451-86.535-57.69-50.479-50.479-82.93-115.38-82.93-191.099 0-10.817 10.817-21.634 21.634-21.634 14.423 0 21.634 10.817 21.634 21.634 0 61.296 25.239 118.986 64.901 158.648 21.634 21.634 46.873 36.056 72.113 50.479 54.085 21.634 115.38 21.634 173.070 0 28.845-10.817 54.085-28.845 72.113-50.479 7.211-7.211 21.634-7.211 32.451 0 14.423 10.817 14.423 25.239 3.606 32.451v0zM677.859 595.831v0c-122.592 122.592-320.901 122.592-443.493 0-57.69-57.69-93.746-137.014-93.746-223.549 0-32.451 0-54.085-7.211-79.324-3.606-25.239-14.423-46.873-28.845-79.324v-3.606h764.394c-21.634 10.817-43.268 21.634-57.69 39.662-28.845 28.845-39.662 68.507-39.662 122.592 0 86.535-36.056 165.859-93.746 223.549v0z" />
<glyph unicode="&#xe60d;" glyph-name="Handel" d="M829.296 267.718h-483.155c-18.028 0-28.845 10.817-36.056 25.239l-90.141 338.93c-3.606 10.817 0 21.634 7.211 28.845 3.606 10.817 14.423 14.423 25.239 14.423h670.648c10.817 0 21.634-3.606 28.845-14.423 7.211-7.211 10.817-21.634 7.211-32.451l-93.746-331.718c-3.606-18.028-18.028-28.845-36.056-28.845v0zM374.986 339.831h429.070l72.113 263.211h-573.296l72.113-263.211zM346.141 267.718c-14.423 0-28.845 10.817-36.056 25.239l-118.986 443.493-111.775 3.606c-21.634 0-36.056 18.028-36.056 36.056s18.028 36.056 36.056 36.056l137.014-7.211c21.634 0 32.451-10.817 36.056-25.239l126.197-465.127c3.606-18.028-7.211-39.662-25.239-43.268 0 0-3.606-3.606-7.211-3.606v0zM432.676 54.986c-54.085 0-100.958 43.268-100.958 100.958 0 54.085 43.268 100.958 100.958 100.958s100.958-43.268 100.958-100.958c-3.606-57.69-46.873-100.958-100.958-100.958v0zM432.676 181.183c-14.423 0-28.845-10.817-28.845-28.845 0-14.423 10.817-28.845 28.845-28.845 14.423 0 28.845 10.817 28.845 28.845-3.606 18.028-14.423 28.845-28.845 28.845v0zM731.944 54.986c-54.085 0-100.958 43.268-100.958 100.958 0 54.085 43.268 100.958 100.958 100.958s100.958-43.268 100.958-100.958c0-57.69-46.873-100.958-100.958-100.958v0zM731.944 181.183c-14.423 0-28.845-10.817-28.845-28.845 0-14.423 10.817-28.845 28.845-28.845 14.423 0 28.845 10.817 28.845 28.845s-14.423 28.845-28.845 28.845v0z" />
<glyph unicode="&#xe60e;" glyph-name="Gospodarka_komunalna" d="M382.197 69.408c0 0 0 0 0 0-72.113 0-147.831 18.028-212.732 46.873-7.211 3.606-14.423 10.817-18.028 18.028-86.535 191.099-46.873 414.648 100.958 562.479 93.746 93.746 219.944 144.225 353.352 144.225 72.113 0 147.831-18.028 212.732-46.873 3.606 0 10.817-7.211 14.423-14.423 90.141-191.099 50.479-414.648-97.352-562.479-93.746-97.352-219.944-147.831-353.352-147.831v0zM212.732 177.577c54.085-21.634 111.775-36.056 169.465-36.056 0 0 0 0 0 0 115.38 0 219.944 43.268 299.268 126.197 122.592 122.592 158.648 310.085 90.141 472.338-54.085 21.634-111.775 36.056-169.465 36.056-115.38 0-219.944-43.268-299.268-126.197-122.592-126.197-158.648-313.69-90.141-472.338v0zM205.521 148.732c-3.606 0-10.817 0-14.423 3.606-7.211 7.211-7.211 18.028 0 25.239l598.535 598.535c7.211 7.211 18.028 7.211 25.239 0s7.211-18.028 0-25.239l-598.535-594.93c-3.606-3.606-7.211-7.211-10.817-7.211v0zM118.986 44.169c-10.817 0-18.028 3.606-25.239 10.817-14.423 14.423-14.423 36.056 0 50.479l64.901 64.901c14.423 14.423 36.056 14.423 50.479 0s14.423-36.056 0-50.479l-64.901-64.901c-7.211-7.211-18.028-10.817-25.239-10.817v0zM804.056 444.394c0 0 0 0 0 0l-277.634 10.817c-10.817 0-18.028 7.211-18.028 18.028s7.211 18.028 18.028 18.028l281.239-14.423c10.817 0 18.028-7.211 18.028-18.028-3.606-7.211-10.817-14.423-21.634-14.423v0zM706.704 267.718c0 0 0 0 0 0l-356.958 14.423c-10.817 0-18.028 7.211-18.028 18.028s7.211 18.028 18.028 18.028l353.352-14.423c10.817 0 18.028-7.211 18.028-18.028 3.606-10.817-7.211-18.028-14.423-18.028v0zM508.394 469.634c-10.817 0-18.028 7.211-18.028 18.028l-14.423 281.239c0 10.817 7.211 18.028 18.028 18.028 0 0 0 0 0 0 10.817 0 18.028-7.211 18.028-18.028l14.423-281.239c3.606-7.211-7.211-14.423-18.028-18.028 3.606 0 0 0 0 0v0zM338.93 296.563c-10.817 0-18.028 7.211-18.028 18.028l-18.028 353.352c0 10.817 7.211 18.028 18.028 18.028 0 0 0 0 0 0 10.817 0 18.028-7.211 18.028-18.028l14.423-353.352c3.606-10.817-3.606-18.028-14.423-18.028 0 0 0 0 0 0v0z" />
<glyph unicode="&#xe60f;" glyph-name="Transport" d="M890.592 718.423v-310.085h-393.014v310.085h393.014zM962.704 794.141h-540.845v-461.521h540.845v461.521zM656.225 213.634h-205.521c-21.634 0-36.056 18.028-36.056 36.056 0 21.634 18.028 36.056 36.056 36.056h205.521c21.634 0 36.056-18.028 36.056-36.056 3.606-18.028-14.423-36.056-36.056-36.056v0zM818.479 231.662c18.028 0 32.451-14.423 32.451-32.451s-14.423-32.451-32.451-32.451c-18.028 0-32.451 14.423-32.451 32.451s14.423 32.451 32.451 32.451zM818.479 296.563c-54.085 0-93.746-43.268-93.746-93.746 0-54.085 43.268-93.746 93.746-93.746 54.085 0 93.746 43.268 93.746 93.746s-43.268 93.746-93.746 93.746v0zM295.662 570.592v-162.254c-64.901 0-126.197-32.451-162.254-79.324v86.535l79.324 155.042h82.93zM371.38 646.31h-205.521l-108.169-212.732v-219.944h104.563c7.211 68.507 64.901 122.592 133.408 122.592 28.845 0 54.085-7.211 75.718-21.634v331.718zM299.268 231.662c18.028 0 32.451-14.423 32.451-32.451s-14.423-32.451-32.451-32.451c-18.028 0-32.451 14.423-32.451 32.451s14.423 32.451 32.451 32.451zM299.268 296.563c-54.085 0-93.746-43.268-93.746-93.746 0-54.085 43.268-93.746 93.746-93.746 54.085 0 93.746 43.268 93.746 93.746s-43.268 93.746-93.746 93.746v0z" />
<glyph unicode="&#xe610;" glyph-name="Szkolnictwo_wyzsze" d="M501.183 321.803c-3.606 0-10.817 0-14.423 3.606l-403.831 173.070c-14.423 7.211-21.634 18.028-21.634 32.451s7.211 28.845 21.634 32.451l403.831 176.676c10.817 3.606 18.028 3.606 28.845 0l403.831-176.676c14.423-7.211 21.634-18.028 21.634-32.451s-7.211-28.845-21.634-32.451l-403.831-176.676c-3.606 0-10.817 0-14.423 0v0zM187.493 530.93l313.69-137.014 313.69 137.014-313.69 137.014-313.69-137.014zM501.183 152.338c-108.169 0-219.944 32.451-317.296 97.352-10.817 7.211-14.423 18.028-14.423 28.845v191.099c0 21.634 14.423 36.056 36.056 36.056s36.056-14.423 36.056-36.056v-173.070c162.254-100.958 356.958-100.958 519.211 0v173.070c0 21.634 14.423 36.056 36.056 36.056s36.056-14.423 36.056-36.056v-191.099c0-10.817-7.211-21.634-14.423-28.845-97.352-64.901-209.127-97.352-317.296-97.352v0zM926.648 253.296c-10.817 0-18.028 7.211-18.028 18.028v263.211c0 10.817 7.211 18.028 18.028 18.028s18.028-7.211 18.028-18.028v-263.211c0-10.817-10.817-18.028-18.028-18.028v0zM926.648 235.268c-21.634 0-36.056 14.423-36.056 36.056v126.197c0 21.634 14.423 36.056 36.056 36.056s36.056-14.423 36.056-36.056v-126.197c0-21.634-18.028-36.056-36.056-36.056v0z" />
<glyph unicode="&#xe611;" glyph-name="Opieka_wychowawcza" d="M342.535 473.239c-93.746 0-173.070 86.535-173.070 191.099s75.718 191.099 173.070 191.099c93.746 0 173.070-86.535 173.070-191.099s-79.324-191.099-173.070-191.099v0zM342.535 779.718c-50.479 0-93.746-50.479-93.746-115.38 0-61.296 43.268-111.775 93.746-111.775s93.746 50.479 93.746 111.775c0 64.901-43.268 115.38-93.746 115.38v0zM594.93 36.958h-508.394c-21.634 0-39.662 14.423-39.662 36.056l-14.423 165.859c-3.606 64.901 43.268 133.408 104.563 158.648 129.803 46.873 270.423 46.873 400.225 0 64.901-21.634 111.775-93.746 104.563-158.648l-10.817-165.859c3.606-18.028-14.423-36.056-36.056-36.056v0zM122.592 116.282h436.282l7.211 126.197c0 25.239-21.634 64.901-54.085 79.324-111.775 39.662-234.366 39.662-346.141 0-32.451-10.817-54.085-50.479-54.085-75.718l10.817-129.803zM905.014 36.958h-201.915c-21.634 0-39.662 18.028-39.662 39.662s18.028 39.662 39.662 39.662h162.254l7.211 104.563c0 21.634-18.028 54.085-43.268 61.296-43.268 14.423-90.141 25.239-140.62 25.239-21.634 0-39.662 18.028-39.662 39.662s18.028 39.662 39.662 39.662c57.69 0 111.775-10.817 165.859-28.845 57.69-21.634 100.958-82.93 93.746-140.62l-10.817-140.62c3.606-21.634-14.423-39.662-32.451-39.662v0zM746.366 429.972c-79.324 0-144.225 72.113-144.225 158.648s64.901 158.648 144.225 158.648c79.324 0 144.225-72.113 144.225-158.648s-64.901-158.648-144.225-158.648v0zM746.366 667.944c-36.056 0-64.901-36.056-64.901-79.324s28.845-79.324 64.901-79.324c36.056 0 64.901 36.056 64.901 79.324 0 46.873-28.845 79.324-64.901 79.324v0z" />
<glyph unicode="&#xe612;" glyph-name="Kultura_fizyczna" d="M933.859 563.38c-28.845 108.169-97.352 205.521-201.915 263.211v0c-209.127 122.592-479.549 50.479-598.535-158.648v0c-61.296-104.563-72.113-223.549-43.268-331.718s97.352-205.521 201.915-263.211v0c104.563-61.296 223.549-72.113 331.718-43.268s205.521 97.352 266.817 201.915v0c61.296 104.563 72.113 223.549 43.268 331.718v0zM699.493 768.901v0c61.296-36.056 108.169-86.535 140.62-147.831l-54.085-3.606-100.958 111.775 14.423 39.662zM288.451 480.451v0l144.225 28.845 115.38-137.014-46.873-126.197c-25.239-10.817-46.873-18.028-72.113-25.239-25.239-3.606-50.479-7.211-72.113-7.211-25.239 14.423-46.873 32.451-64.901 50.479s-32.451 39.662-46.873 64.901c7.211 28.845 10.817 54.085 18.028 79.324 3.606 21.634 14.423 46.873 25.239 72.113v0zM245.183 628.282v0c18.028 21.634 64.901 72.113 118.986 93.746l90.141-28.845-36.056-144.225-129.803-28.845-43.268 108.169zM461.521 534.535v0c0 3.606-3.606 3.606 0 0l32.451 151.437 158.648 18.028 108.169-118.986-43.268-151.437-140.62-36.056-115.38 137.014zM663.437 786.93v0l-18.028-43.268-165.859-18.028-108.169 36.056-10.817 25.239c93.746 43.268 205.521 43.268 302.873 0v0zM324.507 768.901v0l7.211-18.028c-54.085-28.845-100.958-79.324-118.986-97.352h-10.817c32.451 50.479 75.718 86.535 122.592 115.38v0zM151.437 354.254v0c-21.634 86.535-14.423 180.282 28.845 263.211l25.239-3.606 46.873-115.38c-10.817-25.239-21.634-54.085-28.845-79.324s-14.423-50.479-18.028-75.718l-43.268-7.211c-3.606 3.606-7.211 10.817-10.817 18.028v0zM310.085 137.915v0c-61.296 39.662-104.563 93.746-133.408 155.042l36.056 7.211c14.423-25.239 32.451-46.873 50.479-64.901s39.662-36.056 64.901-50.479l-18.028-46.873zM620.169 94.648v0c-3.606 0-10.817-3.606-14.423-3.606-86.535-21.634-176.676-14.423-263.211 25.239l14.423 54.085c25.239 0 46.873 3.606 72.113 10.817s50.479 14.423 79.324 25.239l115.38-61.296-3.606-50.479zM537.239 238.873v0l46.873 118.986 137.014 36.056 43.268-118.986c-14.423-18.028-28.845-36.056-46.873-50.479-21.634-18.028-43.268-32.451-64.901-43.268l-115.38 57.69zM829.296 260.507v0c-39.662-68.507-100.958-118.986-165.859-151.437l3.606 32.451c25.239 14.423 50.479 28.845 72.113 50.479 21.634 18.028 39.662 39.662 57.69 61.296l32.451 7.211c3.606 3.606 3.606 3.606 0 0v0zM854.535 314.592v0l-61.296-18.028-39.662 122.592 46.873 158.648 57.69 3.606c3.606-10.817 7.211-25.239 10.817-36.056 21.634-75.718 18.028-155.042-14.423-230.761v0z" />
<glyph unicode="&#xe613;" glyph-name="Informatyka" d="M861.746 238.873h-710.31c-18.028 0-32.451 14.423-32.451 32.451v450.704c0 18.028 14.423 32.451 32.451 32.451h710.31c18.028 0 32.451-14.423 32.451-32.451v-450.704c-3.606-18.028-18.028-32.451-32.451-32.451v0zM183.887 303.775h645.408v385.803h-645.408v-385.803zM796.845 318.197h-580.507c-7.211 0-14.423 7.211-14.423 14.423v324.507c-3.606 7.211 3.606 14.423 14.423 14.423h580.507c7.211 0 14.423-7.211 14.423-14.423v-320.901c0-10.817-7.211-18.028-14.423-18.028v0zM230.761 350.648h548.056v288.451h-548.056v-288.451zM959.099 145.127h-897.803c-18.028 0-32.451 14.423-32.451 32.451s14.423 32.451 32.451 32.451h897.803c18.028 0 32.451-14.423 32.451-32.451s-14.423-32.451-32.451-32.451v0z" />
<glyph unicode="&#xe614;" glyph-name="Nauka" d="M450.704 372.282c-25.239 0-50.479 14.423-64.901 39.662l-151.437 320.901c-7.211 18.028-7.211 36.056-3.606 54.085 7.211 18.028 21.634 28.845 36.056 39.662l93.746 43.268c32.451 14.423 75.718 0 93.746-32.451l151.437-320.901c7.211-18.028 7.211-36.056 3.606-54.085-7.211-18.028-18.028-32.451-36.056-39.662l-90.141-43.268c-10.817-7.211-21.634-7.211-32.451-7.211v0zM385.803 804.958l-86.535-43.268 151.437-317.296 90.141 43.268-155.042 317.296zM270.423 812.169c-14.423 0-25.239 7.211-32.451 21.634-7.211 18.028 0 39.662 18.028 50.479l64.901 32.451c18.028 7.211 39.662 0 46.873-18.028s0-39.662-18.028-46.873l-61.296-36.056c-7.211 0-10.817-3.606-18.028-3.606v0zM468.732 325.408c-14.423 0-25.239 7.211-32.451 21.634-7.211 18.028 0 39.662 18.028 46.873l122.592 61.296c18.028 7.211 39.662 0 46.873-18.028s0-39.662-18.028-46.873l-122.592-57.69c-3.606-3.606-7.211-7.211-14.423-7.211v0zM519.211 26.141c-209.127 0-378.592 169.465-378.592 378.592 0 108.169 46.873 212.732 129.803 284.845l43.268-54.085c-64.901-57.69-104.563-144.225-104.563-230.761 0-169.465 137.014-306.479 306.479-306.479 100.958 0 198.31 50.479 256 137.014l61.296-39.662c-72.113-108.169-187.493-169.465-313.69-169.465v0zM519.211 123.493c-155.042 0-284.845 126.197-284.845 284.845 0 75.718 28.845 147.831 82.93 201.915l50.479-50.479c-39.662-39.662-61.296-93.746-61.296-151.437 0-115.38 93.746-212.732 212.732-212.732 43.268 0 82.93 10.817 118.986 36.056 7.211 3.606 10.817 7.211 18.028 14.423l46.873-54.085c-7.211-7.211-14.423-14.423-25.239-18.028-46.873-36.056-104.563-50.479-158.648-50.479v0zM818.479 177.577h-288.451c-21.634 0-36.056 14.423-36.056 36.056s14.423 36.056 36.056 36.056h288.451c21.634 0 36.056-14.423 36.056-36.056 0-18.028-18.028-36.056-36.056-36.056v0zM663.437-31.549h-288.451c-21.634 0-36.056 14.423-36.056 36.056s14.423 36.056 36.056 36.056h288.451c21.634 0 36.056-14.423 36.056-36.056s-18.028-36.056-36.056-36.056v0zM616.563-31.549h-288.451c-21.634 0-36.056 14.423-36.056 36.056s14.423 36.056 36.056 36.056h288.451c21.634 0 36.056-14.423 36.056-36.056s-14.423-36.056-36.056-36.056v0z" />
<glyph unicode="&#xe615;" glyph-name="Ochrona_zdrowia" d="M861.746 58.592h-703.099c-43.268 0-75.718 32.451-75.718 75.718v490.366c0 43.268 32.451 75.718 75.718 75.718h703.099c43.268 0 75.718-32.451 75.718-75.718v-490.366c0-43.268-32.451-75.718-75.718-75.718v0zM158.648 628.282c-3.606 0-3.606 0-3.606-3.606v-490.366c0-3.606 0-3.606 3.606-3.606h703.099c3.606 0 3.606 0 3.606 3.606v490.366c0 3.606 0 3.606-3.606 3.606h-703.099zM656.225 639.099c-21.634 0-36.056 14.423-36.056 36.056v90.141c0 3.606 0 3.606-3.606 3.606h-209.127c-3.606 0-3.606 0-3.606-3.606v-90.141c0-21.634-14.423-36.056-36.056-36.056s-36.056 14.423-36.056 36.056v90.141c0 43.268 32.451 75.718 75.718 75.718h209.127c43.268 0 75.718-32.451 75.718-75.718v-90.141c0-21.634-18.028-36.056-36.056-36.056v0zM558.873 520.113h-97.352v-93.746h-90.141v-97.352h90.141v-90.141h97.352v90.141h93.746v97.352h-93.746v93.746z" />
<glyph unicode="&#xe616;" glyph-name="Rolnictwo" d="M598.535 606.648c14.423 7.211 28.845 18.028 39.662 28.845 10.817 7.211 18.028 18.028 25.239 28.845-10.817 3.606-18.028 10.817-28.845 18.028v0c-7.211 3.606-14.423 14.423-21.634 25.239s-10.817 25.239-10.817 36.056c0 14.423 0 25.239 3.606 39.662 3.606 10.817 14.423 14.423 25.239 14.423 10.817-3.606 14.423-14.423 14.423-25.239-3.606-7.211-3.606-14.423-3.606-25.239 0-7.211 3.606-14.423 7.211-21.634s7.211-14.423 14.423-18.028v0c7.211-3.606 14.423-7.211 21.634-10.817 0 0 3.606 0 3.606 0 10.817 21.634 18.028 46.873 21.634 72.113s0 50.479-7.211 75.718c-3.606 10.817 3.606 21.634 14.423 25.239s21.634-3.606 25.239-14.423c10.817-28.845 10.817-61.296 10.817-90.141-3.606-32.451-10.817-61.296-25.239-86.535s-32.451-50.479-57.69-68.507c-7.211-7.211-18.028-14.423-25.239-18.028 14.423-7.211 25.239-18.028 36.056-32.451l3.606 3.606c10.817 10.817 25.239 21.634 39.662 32.451h3.606c28.845 18.028 61.296 25.239 93.746 21.634 32.451 0 64.901-10.817 93.746-32.451 7.211-7.211 14.423-14.423 14.423-25.239v0c3.606-32.451-3.606-68.507-18.028-97.352s-39.662-54.085-68.507-72.113c-18.028-10.817-36.056-18.028-57.69-21.634v0c-7.211 0-10.817 0-18.028-3.606 0-32.451-3.606-61.296-10.817-90.141-10.817-39.662-32.451-75.718-57.69-108.169-10.817-14.423-18.028-25.239-25.239-39.662-79.324-129.803-223.549-129.803-302.873 0-7.211 14.423-14.423 25.239-25.239 39.662-25.239 36.056-46.873 68.507-57.69 108.169-7.211 28.845-14.423 57.69-10.817 90.141-7.211 0-10.817 0-18.028 3.606v0c-18.028 3.606-39.662 10.817-57.69 21.634-28.845 18.028-54.085 43.268-68.507 72.113s-21.634 64.901-18.028 97.352v0c0 10.817 7.211 18.028 14.423 25.239 14.423 14.423 46.873 25.239 79.324 28.845 32.451 0 64.901-7.211 93.746-21.634h3.606c14.423-7.211 28.845-18.028 39.662-32.451v0-3.606c10.817 10.817 25.239 21.634 36.056 32.451-7.211 3.606-18.028 10.817-25.239 18.028-21.634 18.028-43.268 39.662-57.69 68.507-14.423 25.239-21.634 54.085-25.239 86.535-3.606 28.845 0 61.296 10.817 90.141 3.606 10.817 14.423 14.423 25.239 10.817 7.211 0 14.423-14.423 10.817-21.634-7.211-25.239-10.817-50.479-7.211-75.718s10.817-46.873 21.634-72.113c0 0 3.606 0 3.606 0 7.211 3.606 14.423 10.817 18.028 14.423v0c7.211 3.606 10.817 10.817 14.423 18.028s7.211 14.423 7.211 21.634c0 7.211 0 14.423-3.606 25.239s3.606 21.634 14.423 25.239c10.817 3.606 21.634-3.606 25.239-14.423 3.606-14.423 3.606-25.239 3.606-39.662s-3.606-25.239-10.817-36.056c-7.211-10.817-14.423-21.634-25.239-28.845v0c-7.211-7.211-18.028-14.423-25.239-18.028 7.211-10.817 18.028-18.028 25.239-28.845 10.817-10.817 25.239-18.028 43.268-25.239 54.085 21.634 115.38 21.634 173.070 0v0zM512 159.549v0c7.211 3.606 18.028 7.211 21.634 14.423v0c46.873 50.479-93.746 50.479-46.873 0v0c7.211-7.211 14.423-10.817 25.239-14.423v0zM562.479 148.732v0 0c-10.817-10.817-21.634-18.028-32.451-21.634v-25.239c43.268 7.211 57.69 32.451 75.718 61.296 7.211 14.423 18.028 28.845 28.845 43.268 21.634 28.845 39.662 57.69 46.873 90.141 10.817 28.845 10.817 61.296 3.606 97.352v0c0 3.606 0 7.211 0 10.817 3.606 18.028 18.028 28.845 36.056 25.239 10.817-3.606 25.239-3.606 36.056 0v0c10.817 3.606 25.239 7.211 36.056 14.423 18.028 10.817 32.451 25.239 43.268 43.268 7.211 14.423 10.817 28.845 10.817 46.873-14.423 7.211-28.845 10.817-46.873 10.817s-39.662-3.606-57.69-14.423v0c-10.817-7.211-18.028-10.817-25.239-21.634v0 0c-7.211-7.211-14.423-14.423-18.028-25.239-3.606-7.211-7.211-14.423-18.028-14.423-18.028-7.211-36.056 0-43.268 18.028-10.817 25.239-43.268 46.873-64.901 54.085-43.268 21.634-97.352 21.634-144.225 0-21.634-10.817-54.085-32.451-64.901-54.085-7.211-14.423-25.239-25.239-43.268-18.028-7.211 3.606-14.423 10.817-18.028 14.423-3.606 10.817-10.817 18.028-18.028 25.239v0 0c3.606 10.817-3.606 18.028-14.423 21.634v0c-18.028 10.817-39.662 14.423-57.69 14.423-14.423 0-32.451-3.606-46.873-10.817 0-14.423 3.606-32.451 10.817-46.873 10.817-18.028 25.239-32.451 43.268-43.268 10.817-7.211 21.634-10.817 36.056-14.423v0c10.817-3.606 25.239-3.606 36.056 0 18.028 3.606 32.451-10.817 36.056-25.239 0-3.606 0-7.211 0-10.817v0c-7.211-36.056-3.606-68.507 3.606-97.352 10.817-32.451 25.239-61.296 46.873-90.141 10.817-14.423 21.634-28.845 28.845-43.268 18.028-32.451 36.056-57.69 79.324-61.296v25.239c-10.817 3.606-21.634 10.817-32.451 21.634v0c-43.268 46.873-14.423 93.746 50.479 93.746 72.113 0 100.958-46.873 57.69-93.746v0zM429.070 361.465v0c-18.028 0-28.845-14.423-28.845-28.845 0-18.028 14.423-28.845 28.845-28.845 18.028 0 28.845 14.423 28.845 28.845s-14.423 28.845-28.845 28.845v0zM594.93 361.465v0c-18.028 0-28.845-14.423-28.845-28.845 0-18.028 14.423-28.845 28.845-28.845 18.028 0 28.845 14.423 28.845 28.845s-14.423 28.845-28.845 28.845v0z" />
<glyph unicode="&#xe617;" glyph-name="Pomoc_spoleczna" d="M515.606 473.239c-75.718 0-137.014 68.507-137.014 151.437s61.296 151.437 137.014 151.437c72.113 0 133.408-68.507 133.408-151.437s-61.296-151.437-133.408-151.437v0zM515.606 704c-36.056 0-64.901-36.056-64.901-79.324s28.845-79.324 64.901-79.324c36.056 0 64.901 36.056 64.901 79.324-3.606 43.268-32.451 79.324-64.901 79.324v0zM703.099 119.887h-385.803c-18.028 0-36.056 14.423-36.056 32.451-3.606 43.268-7.211 82.93-7.211 126.197-3.606 50.479 36.056 108.169 82.93 126.197 100.958 36.056 209.127 36.056 306.479 0 50.479-18.028 86.535-75.718 82.93-126.197l-7.211-126.197c0-18.028-14.423-32.451-36.056-32.451v0zM353.352 192h320.901l7.211 90.141c0 14.423-14.423 43.268-36.056 54.085-82.93 28.845-173.070 28.845-256 0-21.634-7.211-36.056-36.056-36.056-54.085-7.211-28.845-3.606-57.69 0-90.141v0zM937.465 177.577h-155.042c-10.817 0-18.028 7.211-18.028 18.028s7.211 18.028 18.028 18.028h137.014l7.211 90.141c0 18.028-14.423 50.479-39.662 57.69-36.056 10.817-72.113 18.028-108.169 21.634-10.817 0-18.028 7.211-18.028 18.028s7.211 18.028 18.028 18.028c0 0 0 0 0 0 39.662 0 82.93-7.211 122.592-21.634 36.056-14.423 68.507-57.69 64.901-93.746l-7.211-108.169c-3.606-7.211-10.817-18.028-21.634-18.028v0zM818.479 458.817c-54.085 0-97.352 46.873-97.352 108.169s43.268 108.169 97.352 108.169c54.085 0 97.352-46.873 97.352-108.169 0-57.69-43.268-108.169-97.352-108.169v0zM818.479 639.099c-32.451 0-61.296-32.451-61.296-72.113s28.845-72.113 61.296-72.113c32.451 0 61.296 32.451 61.296 72.113s-25.239 72.113-61.296 72.113v0zM237.972 177.577h-155.042c-10.817 0-18.028 7.211-18.028 18.028l-7.211 108.169c-3.606 36.056 25.239 82.93 64.901 93.746 39.662 14.423 79.324 21.634 122.592 21.634 10.817 0 18.028-7.211 18.028-18.028s-7.211-18.028-18.028-18.028c-36.056 0-75.718-7.211-108.169-21.634-25.239-7.211-43.268-39.662-39.662-57.69l7.211-90.141h137.014c10.817 0 18.028-7.211 18.028-18.028-3.606-7.211-10.817-18.028-21.634-18.028v0zM201.915 458.817c-54.085 0-97.352 46.873-97.352 108.169s43.268 108.169 97.352 108.169c54.085 0 97.352-46.873 97.352-108.169 0-57.69-43.268-108.169-97.352-108.169v0zM201.915 639.099c-32.451 0-61.296-32.451-61.296-72.113s25.239-72.113 61.296-72.113c32.451 0 61.296 32.451 61.296 72.113s-28.845 72.113-61.296 72.113v0z" />
<glyph unicode="&#xe618;" glyph-name="Turystyka" d="M814.873 556.169v0h-555.268c-10.817 0-18.028 3.606-25.239 10.817s-10.817 14.423-10.817 25.239v180.282c0 21.634 14.423 36.056 36.056 36.056 0 0 0 0 0 0h555.268c10.817 0 18.028-3.606 25.239-10.817l86.535-90.141c10.817-14.423 10.817-36.056 0-50.479l-82.93-90.141c-7.211-7.211-18.028-10.817-28.845-10.817v0zM295.662 631.887h504.789l50.479 54.085-50.479 54.085h-504.789v-108.169zM760.789 267.718v0h-555.268c-10.817 0-18.028 3.606-25.239 10.817l-82.93 90.141c-10.817 14.423-10.817 36.056 0 46.873l82.93 97.352c7.211 7.211 18.028 10.817 25.239 10.817v0h555.268c21.634 0 36.056-18.028 36.056-36.056v-180.282c0-10.817-3.606-18.028-10.817-25.239-7.211-10.817-14.423-14.423-25.239-14.423v0zM219.944 343.437h504.789v108.169h-504.789l-50.479-54.085 50.479-54.085zM486.761 22.535v0c-21.634 0-36.056 18.028-36.056 36.056v245.183c0 21.634 14.423 36.056 36.056 36.056 0 0 0 0 0 0 21.634 0 36.056-18.028 36.056-36.056v-245.183c0-21.634-18.028-36.056-36.056-36.056v0zM486.761 765.296v0c-21.634 0-36.056 14.423-36.056 36.056v39.662c0 21.634 14.423 36.056 36.056 36.056v0c21.634 0 36.056-14.423 36.056-36.056v-39.662c0-18.028-14.423-36.056-36.056-36.056v0zM486.761 473.239c0 0 0 0 0 0-21.634 0-36.056 18.028-36.056 36.056v61.296c0 21.634 14.423 36.056 36.056 36.056 0 0 0 0 0 0 21.634 0 36.056-18.028 36.056-36.056v-61.296c0-21.634-14.423-36.056-36.056-36.056v0z" />
<glyph unicode="&#xe619;" glyph-name="Lesnictwo" d="M512 866.254l252.394-324.507h-108.169v-3.606l147.831-187.493h-108.169l147.831-187.493h-663.437l147.831 187.493h-108.169l147.831 187.493v3.606h-108.169l252.394 324.507zM512 949.183c-25.239 0-50.479-10.817-64.901-32.451l-129.803-162.254-126.197-162.254c-18.028-25.239-21.634-57.69-10.817-86.535 7.211-14.423 14.423-25.239 25.239-32.451l-54.085-72.113c-18.028-25.239-21.634-57.69-10.817-86.535 7.211-14.423 14.423-21.634 25.239-32.451l-54.085-72.113c-18.028-25.239-21.634-57.69-10.817-86.535 14.423-28.845 43.268-46.873 72.113-46.873h663.437c32.451 0 61.296 18.028 72.113 46.873 14.423 28.845 10.817 61.296-10.817 86.535l-54.085 72.113c10.817 7.211 21.634 18.028 25.239 32.451 14.423 28.845 10.817 61.296-10.817 86.535l-54.085 72.113c10.817 7.211 21.634 18.028 25.239 32.451 14.423 28.845 10.817 61.296-10.817 86.535l-126.197 162.254-115.38 162.254c-18.028 21.634-39.662 32.451-64.901 32.451v0 0zM576.901-49.577h-133.408c-21.634 0-39.662 18.028-39.662 39.662v108.169c0 21.634 18.028 39.662 39.662 39.662s39.662-18.028 39.662-39.662v-68.507h50.479v68.507c0 21.634 18.028 39.662 39.662 39.662s39.662-18.028 39.662-39.662v-108.169c7.211-21.634-10.817-39.662-36.056-39.662v0z" />
<glyph unicode="&#xe61a;" glyph-name="Ogrody_botaniczne" d="M645.408 455.211c-10.817 0-21.634 3.606-32.451 7.211-75.718 25.239-126.197 115.38-118.986 205.521 7.211 93.746 86.535 173.070 173.070 173.070 0 0 0 0 0 0 39.662 0 72.113-14.423 97.352-46.873 32.451-39.662 46.873-104.563 32.451-173.070-21.634-93.746-82.93-165.859-151.437-165.859v0zM667.042 776.113c-54.085 0-104.563-54.085-108.169-111.775s28.845-122.592 72.113-137.014c3.606 0 7.211-3.606 10.817-3.606 28.845 0 68.507 39.662 82.93 115.38 10.817 46.873 3.606 90.141-18.028 115.38-7.211 14.423-21.634 21.634-39.662 21.634v0zM789.634 253.296c-25.239 0-46.873 7.211-68.507 18.028-64.901 43.268-79.324 126.197-28.845 205.521 39.662 64.901 108.169 108.169 169.465 108.169 18.028 0 32.451-3.606 46.873-10.817 25.239-10.817 43.268-36.056 54.085-68.507 14.423-50.479 3.606-115.38-32.451-165.859-32.451-54.085-86.535-86.535-140.62-86.535v0zM861.746 520.113c-36.056 0-82.93-32.451-111.775-75.718-28.845-46.873-25.239-90.141 7.211-111.775s82.93 0 115.38 46.873c21.634 36.056 32.451 82.93 21.634 111.775-3.606 10.817-10.817 21.634-18.028 25.239-3.606 3.606-7.211 3.606-14.423 3.606v0zM378.592 455.211c0 0 0 0 0 0-68.507 0-129.803 72.113-151.437 169.465-14.423 68.507 0 129.803 32.451 173.070 25.239 28.845 57.69 46.873 93.746 46.873 90.141 0 169.465-79.324 176.676-173.070 7.211-90.141-43.268-180.282-118.986-205.521-10.817-7.211-21.634-10.817-32.451-10.817v0zM353.352 776.113c-14.423 0-28.845-7.211-39.662-21.634-21.634-25.239-28.845-68.507-21.634-115.38 14.423-75.718 54.085-115.38 82.93-115.38 3.606 0 7.211 0 10.817 3.606 43.268 14.423 79.324 79.324 72.113 137.014 0 57.69-50.479 108.169-104.563 111.775v0 0zM230.761 253.296v0c-54.085 0-104.563 32.451-140.62 86.535-32.451 54.085-46.873 118.986-32.451 165.859 7.211 32.451 28.845 54.085 54.085 68.507 14.423 7.211 28.845 10.817 46.873 10.817 61.296 0 129.803-43.268 169.465-108.169 46.873-79.324 36.056-162.254-28.845-205.521-21.634-10.817-43.268-18.028-68.507-18.028v0zM162.254 520.113c-7.211 0-14.423 0-18.028-3.606-7.211-3.606-14.423-10.817-18.028-25.239-7.211-32.451 0-75.718 21.634-111.775 28.845-46.873 79.324-68.507 115.38-46.873 32.451 21.634 36.056 64.901 7.211 111.775-25.239 43.268-75.718 75.718-108.169 75.718v0zM512 54.986c0 0 0 0 0 0h-50.479c-140.62 3.606-216.338 7.211-245.183 54.085-7.211 14.423-14.423 36.056-3.606 68.507 36.056 93.746 180.282 274.028 295.662 266.817 115.38 7.211 259.606-173.070 295.662-266.817 14.423-28.845 7.211-54.085-3.606-64.901-28.845-46.873-104.563-46.873-245.183-54.085l-43.268-3.606c0 0 0 0 0 0v0zM274.028 145.127c18.028-14.423 111.775-18.028 187.493-21.634h93.746c75.718 3.606 169.465 7.211 187.493 21.634 0 0 0 3.606-3.606 3.606-32.451 86.535-158.648 230.761-230.761 223.549-3.606 0-3.606 0-7.211 0-72.113 3.606-198.31-137.014-230.761-223.549 7.211 0 3.606-3.606 3.606-3.606v0z" />
<glyph unicode="&#xe61b;" glyph-name="Rybolowstwo" d="M587.718 220.845c-144.225 0-274.028 75.718-346.141 201.915-7.211 10.817-7.211 25.239 0 39.662 72.113 126.197 201.915 201.915 346.141 201.915s274.028-75.718 346.141-201.915c7.211-10.817 7.211-25.239 0-39.662-68.507-122.592-201.915-201.915-346.141-201.915v0zM320.901 444.394c57.69-90.141 158.648-144.225 266.817-144.225s209.127 54.085 266.817 144.225c-57.69 90.141-158.648 144.225-266.817 144.225s-205.521-57.69-266.817-144.225v0zM118.986 256.901c-7.211 0-14.423 3.606-21.634 7.211-10.817 7.211-18.028 18.028-18.028 32.451v295.662c0 14.423 7.211 25.239 18.028 32.451s25.239 7.211 36.056 3.606c75.718-36.056 137.014-93.746 176.676-162.254 7.211-10.817 7.211-25.239 0-39.662-39.662-72.113-100.958-129.803-176.676-162.254-3.606-7.211-7.211-7.211-14.423-7.211v0zM158.648 523.718v-162.254c28.845 21.634 57.69 50.479 75.718 82.93-18.028 28.845-46.873 57.69-75.718 79.324v0zM724.732 487.662c-18.028 0-28.845-14.423-28.845-28.845 0-18.028 14.423-28.845 28.845-28.845 18.028 0 28.845 14.423 28.845 28.845 3.606 14.423-10.817 28.845-28.845 28.845v0zM400.225 559.775c-7.211 0-14.423 3.606-18.028 10.817-7.211 21.634-21.634 43.268-39.662 64.901-7.211 7.211-18.028 18.028-25.239 25.239-3.606 3.606-7.211 10.817-7.211 14.423 0 7.211 3.606 10.817 7.211 14.423 61.296 43.268 137.014 64.901 212.732 57.69 86.535-10.817 162.254-54.085 212.732-122.592 7.211-7.211 3.606-18.028-3.606-25.239s-18.028-3.606-25.239 3.606c-43.268 61.296-115.38 100.958-187.493 108.169-57.69 7.211-118.986-7.211-169.465-39.662 3.606-3.606 10.817-10.817 14.423-14.423 18.028-21.634 36.056-46.873 46.873-72.113 3.606-10.817 0-18.028-7.211-25.239-3.606 0-7.211 0-10.817 0v0zM497.577 163.155c-14.423 0-25.239 3.606-36.056 7.211-3.606 0-10.817 3.606-10.817 10.817-3.606 3.606-3.606 10.817 0 14.423 0 0 0 3.606 0 3.606s0 3.606 3.606 3.606c10.817 25.239 7.211 54.085-3.606 72.113-3.606 7.211-3.606 14.423 0 21.634s10.817 7.211 18.028 7.211c36.056-10.817 75.718-18.028 111.775-18.028 7.211 0 14.423-3.606 14.423-10.817 3.606-10.817 7.211-21.634 7.211-28.845 0-46.873-46.873-82.93-104.563-82.93v0zM490.366 199.211c39.662-3.606 79.324 18.028 79.324 46.873 0 0 0 3.606 0 3.606-25.239 0-50.479 3.606-75.718 10.817 3.606-21.634 3.606-39.662-3.606-61.296v0zM630.986 148.732c-3.606 0-7.211 0-10.817 3.606s-7.211 10.817-7.211 14.423c0 0 0 3.606 0 3.606 0 3.606 0 3.606 0 7.211 0 28.845-14.423 54.085-32.451 64.901-7.211 3.606-10.817 10.817-7.211 18.028 0 7.211 7.211 14.423 14.423 14.423 36.056 3.606 75.718 14.423 111.775 28.845 7.211 3.606 14.423 0 18.028-3.606 7.211-7.211 14.423-14.423 18.028-25.239 10.817-21.634 7.211-46.873-7.211-68.507-10.817-21.634-32.451-39.662-57.69-50.479-10.817 0-25.239-3.606-39.662-7.211 3.606 0 3.606 0 0 0v0zM627.38 246.085c10.817-14.423 18.028-32.451 21.634-54.085 3.606 0 3.606 3.606 7.211 3.606 18.028 7.211 32.451 21.634 39.662 36.056s7.211 25.239 3.606 36.056c0 0 0 3.606-3.606 3.606-18.028-14.423-43.268-21.634-68.507-25.239v0zM681.465 253.296c-7.211 0-10.817 3.606-14.423 7.211-39.662 54.085-57.69 115.38-57.69 176.676 0 64.901 21.634 129.803 64.901 183.887 3.606 7.211 10.817 7.211 18.028 7.211 93.746-25.239 176.676-90.141 227.155-176.676 3.606-7.211 3.606-10.817 0-18.028-50.479-86.535-133.408-151.437-234.366-180.282 0 0-3.606 0-3.606 0v0zM692.282 592.225c-32.451-46.873-50.479-100.958-50.479-151.437s14.423-97.352 43.268-144.225c79.324 25.239 147.831 79.324 194.704 147.831-39.662 68.507-108.169 122.592-187.493 147.831v0z" />
<glyph unicode="&#xe61c;" glyph-name="Oblsuga_dlugu" d="M912.225 54.986c-18.028 21.634-32.451 54.085-46.873 90.141-10.817 36.056-18.028 75.718-18.028 108.169v165.859c0 93.746-39.662 176.676-97.352 237.972-32.451 32.451-68.507 57.69-108.169 72.113-18.028 7.211-39.662 14.423-57.69 18.028l93.746 93.746c3.606 7.211 7.211 14.423 7.211 25.239 0 18.028-14.423 36.056-36.056 36.056h-281.239c-7.211 0-18.028-3.606-25.239-10.817-14.423-14.423-14.423-36.056 0-50.479l93.746-93.746c-21.634-3.606-39.662-10.817-57.69-18.028-39.662-14.423-75.718-39.662-108.169-72.113s-57.69-68.507-72.113-108.169c-18.028-39.662-25.239-82.93-25.239-129.803v-162.254c0-32.451-7.211-72.113-18.028-108.169s-28.845-68.507-43.268-90.141c-7.211-7.211-7.211-14.423-7.211-21.634 0-18.028 14.423-36.056 36.056-36.056h749.972c7.211 0 14.423 3.606 21.634 7.211 10.817 7.211 10.817 28.845 0 46.873v0zM566.085 830.197v0l-57.69-57.69-57.69 57.69h115.38zM198.31 65.803v0c7.211 18.028 14.423 36.056 21.634 57.69 14.423 43.268 21.634 90.141 21.634 129.803v165.859c0 36.056 7.211 72.113 21.634 100.958 14.423 32.451 32.451 61.296 57.69 86.535s54.085 46.873 86.535 57.69c32.451 14.423 68.507 18.028 100.958 18.028v0c32.451 0 68.507-7.211 100.958-18.028s61.296-32.451 86.535-57.69c46.873-46.873 79.324-115.38 79.324-187.493v-162.254c0-39.662 10.817-86.535 21.634-129.803 7.211-21.634 14.423-39.662 21.634-57.69h-620.169v-3.606z" />
<glyph unicode="&#xe61d;" glyph-name="Dochody" d="M490.366 552.563c0 18.028-7.211 36.056-21.634 50.479-10.817 10.817-28.845 21.634-46.873 21.634h-122.592c-3.606 0-10.817 3.606-14.423 7.211s-7.211 10.817-7.211 18.028v75.718c0 7.211 3.606 14.423 7.211 18.028s10.817 7.211 14.423 7.211h115.38c7.211 0 14.423-3.606 18.028-7.211s7.211-10.817 7.211-18.028c0-14.423 10.817-25.239 21.634-25.239 14.423 0 21.634 10.817 21.634 25.239 0 18.028-7.211 36.056-21.634 50.479s-32.451 21.634-50.479 21.634h-36.056v18.028c0 14.423-10.817 25.239-21.634 25.239-7.211 0-18.028-10.817-18.028-25.239v-21.634h-36.056c-18.028 0-36.056-7.211-50.479-21.634-10.817-10.817-18.028-28.845-18.028-46.873v-75.718c0-18.028 7.211-36.056 21.634-50.479 10.817-10.817 28.845-21.634 46.873-21.634h118.986c7.211 0 10.817-3.606 18.028-7.211 3.606-3.606 7.211-10.817 7.211-18.028 0-25.239 0-50.479 0-75.718 0-7.211-3.606-14.423-7.211-18.028s-10.817-7.211-18.028-7.211h-118.986c-7.211 0-10.817 3.606-18.028 7.211-3.606 3.606-7.211 10.817-7.211 18.028 0 14.423-10.817 25.239-25.239 25.239s-21.634-10.817-21.634-25.239c0-18.028 7.211-36.056 21.634-50.479s28.845-21.634 50.479-21.634h36.056v-21.634c0-14.423 10.817-21.634 21.634-21.634 14.423 0 21.634 10.817 21.634 21.634v21.634h36.056c18.028 0 36.056 7.211 50.479 21.634s21.634 32.451 21.634 50.479v75.718h3.606zM800.451 617.465v0c-28.845 10.817-61.296 21.634-93.746 25.239-21.634 173.070-169.465 306.479-346.141 306.479-191.099 0-349.746-155.042-349.746-349.746 0-176.676 133.408-324.507 306.479-346.141 14.423-122.592 97.352-230.761 212.732-277.634 39.662-18.028 86.535-25.239 133.408-25.239 93.746 0 180.282 36.056 245.183 100.958s100.958 155.042 100.958 245.183c3.606 140.62-82.93 266.817-209.127 320.901v0zM90.141 599.437v0c0 147.831 122.592 270.423 270.423 270.423s270.423-122.592 270.423-270.423c0-147.831-122.592-270.423-270.423-270.423-151.437 0-270.423 122.592-270.423 270.423v0zM854.535 105.465v0c-50.479-50.479-118.986-79.324-191.099-79.324-36.056 0-72.113 7.211-104.563 21.634-86.535 36.056-147.831 115.38-162.254 205.521 54.085 7.211 104.563 25.239 151.437 50.479 3.606-3.606 7.211-7.211 7.211-10.817 10.817-10.817 28.845-21.634 46.873-21.634h118.986c7.211 0 10.817-3.606 18.028-7.211 3.606-3.606 7.211-10.817 7.211-18.028 0-25.239 0-50.479 0-75.718 0-7.211-3.606-14.423-7.211-18.028s-10.817-7.211-18.028-7.211h-115.38c-7.211 0-10.817 3.606-18.028 7.211-3.606 3.606-7.211 10.817-7.211 18.028 0 14.423-10.817 25.239-21.634 25.239-14.423 0-25.239-10.817-25.239-25.239 0-18.028 7.211-36.056 21.634-50.479s28.845-21.634 50.479-21.634h36.056v-21.634c0-14.423 10.817-21.634 21.634-21.634 14.423 0 21.634 10.817 21.634 21.634v21.634h36.056c18.028 0 36.056 7.211 50.479 21.634s21.634 32.451 21.634 50.479v75.718c0 18.028-7.211 36.056-21.634 50.479-10.817 10.817-28.845 21.634-46.873 21.634h-118.986c-7.211 0-10.817 3.606-18.028 7.211 0 0-3.606 3.606-3.606 3.606 36.056 32.451 68.507 68.507 90.141 111.775h46.873c7.211 0 14.423-3.606 18.028-7.211s7.211-10.817 7.211-18.028c0-14.423 10.817-25.239 25.239-25.239s21.634 10.817 21.634 25.239c0 18.028-7.211 36.056-21.634 50.479-14.423 18.028-32.451 25.239-50.479 25.239h-28.845c7.211 21.634 10.817 46.873 14.423 72.113 21.634-3.606 43.268-10.817 61.296-18.028 97.352-43.268 165.859-140.62 165.859-248.789 0-72.113-28.845-140.62-79.324-191.099v0z" />
<glyph unicode="&#xe61e;" glyph-name="Wytwarzanie_energii" d="M374.986-17.127c-3.606 0-10.817 0-14.423 3.606-14.423 7.211-25.239 25.239-18.028 43.268l86.535 310.085h-151.437c-14.423 0-25.239 7.211-32.451 18.028s-3.606 25.239 3.606 36.056l367.775 508.394c10.817 14.423 28.845 18.028 43.268 10.817s25.239-25.239 18.028-43.268l-86.535-310.085h147.831c14.423 0 25.239-7.211 32.451-18.028s3.606-25.239-3.606-36.056l-364.169-508.394c-7.211-10.817-18.028-14.423-28.845-14.423v0zM349.746 408.338h126.197c10.817 0 21.634-3.606 28.845-14.423 7.211-7.211 10.817-21.634 7.211-32.451l-46.873-158.648 209.127 288.451h-126.197c-10.817 0-21.634 3.606-28.845 14.423-7.211 7.211-7.211 21.634-7.211 32.451l46.873 162.254-209.127-292.056z" />
</font>
</defs>
</svg>
